<svg width="809" height="1196" viewBox="0 0 809 1196" fill="none" xmlns="http://www.w3.org/2000/svg">
<path d="M976.201 468.46L990.184 519.26C991.421 523.747 990.924 528.535 988.793 532.673C986.663 536.81 983.053 539.994 978.682 541.592C978.215 541.762 977.737 541.936 977.238 542.05C972.503 543.345 967.447 542.708 963.181 540.276C958.916 537.845 955.79 533.82 954.49 529.085L940.504 478.275C939.305 473.57 939.999 468.583 942.437 464.385C944.876 460.188 948.864 457.115 953.545 455.828C958.225 454.541 963.224 455.142 967.466 457.502C971.708 459.862 974.855 463.793 976.231 468.449L976.201 468.46ZM862.412 53.664L950.678 375.426C951.362 377.786 951.57 380.258 951.291 382.699C951.011 385.139 950.249 387.5 949.049 389.643C947.849 391.787 946.235 393.67 944.3 395.184C942.366 396.697 940.149 397.811 937.781 398.46C935.412 399.11 932.937 399.281 930.501 398.966C928.065 398.65 925.716 397.853 923.591 396.621C921.466 395.389 919.606 393.747 918.121 391.79C916.636 389.833 915.555 387.601 914.94 385.222L874.856 239.119L286.543 453.247L563.422 1056.38L626.106 1033.57C630.725 1031.89 635.821 1032.11 640.276 1034.19C644.73 1036.26 648.177 1040.03 649.858 1044.65C651.539 1049.26 651.317 1054.36 649.24 1058.82C647.163 1063.27 643.402 1066.72 638.784 1068.4L578.935 1090.18L601.135 1138.54C604.798 1146.45 611.284 1152.69 619.317 1156.05C627.351 1159.41 636.35 1159.64 644.545 1156.7L1052.79 1008.11C1060.96 1005.1 1067.7 999.139 1071.7 991.406C1075.69 983.672 1076.65 974.724 1074.38 966.319L1060.3 914.982L729.319 1035.45C724.701 1037.13 719.604 1036.91 715.15 1034.83C710.696 1032.75 707.249 1028.99 705.568 1024.37C703.887 1019.75 704.109 1014.65 706.186 1010.2C708.262 1005.74 712.023 1002.3 716.641 1000.62L1050.46 879.114L980.005 622.189C978.787 617.476 979.472 612.472 981.912 608.26C984.352 604.048 988.352 600.966 993.046 599.679C997.74 598.393 1002.75 599.005 1007 601.384C1011.25 603.763 1014.39 607.718 1015.74 612.394L1110.11 956.503C1114.81 973.886 1112.83 992.395 1104.57 1008.39C1096.31 1024.39 1082.36 1036.71 1065.47 1042.94L657.223 1191.53C640.276 1197.61 621.668 1197.13 605.056 1190.19C588.445 1183.24 575.032 1170.33 567.454 1153.99L218.659 394.194L198.423 450.822C195.611 458.674 191.089 465.802 185.184 471.69C179.279 477.579 172.138 482.08 164.279 484.868C156.42 487.656 148.039 488.662 139.743 487.812C131.447 486.962 123.443 484.277 116.312 479.953C69.0146 451.028 33.1235 406.689 14.6808 354.401C-3.76197 302.113 -3.63018 245.069 15.054 192.871C33.7381 140.674 69.8336 96.5109 117.264 67.8167C164.694 39.1225 220.563 27.6496 275.465 35.3293C283.724 36.5111 291.617 39.5162 298.571 44.1267C305.525 48.7373 311.367 54.8377 315.672 61.9856C319.977 69.1336 322.637 77.1499 323.461 85.4533C324.284 93.7568 323.25 102.139 320.433 109.993L296.386 177.047L768.642 5.15956C777.963 1.76754 787.885 0.344938 797.784 0.981576C807.682 1.61821 817.341 4.30025 826.152 8.8584C834.962 13.4165 842.732 19.7518 848.971 27.4643C855.211 35.1767 859.794 44.0953 862.412 53.664ZM251.133 193.517L259.143 171.161C234.997 167.104 210.193 171.667 189.073 184.052C167.952 196.437 151.859 215.856 143.608 238.91C135.357 261.965 135.474 287.189 143.938 310.168C152.402 333.148 168.675 352.42 189.909 364.615L196.559 346.044L176.878 303.178C172.739 294.174 170.509 284.41 170.328 274.501C170.147 264.593 172.019 254.755 175.827 245.606C179.635 236.458 185.296 228.197 192.453 221.345C199.61 214.492 208.108 209.196 217.413 205.791L251.133 193.517ZM177.278 399.878C146.741 384.214 122.943 357.976 110.322 326.057C97.7015 294.138 97.1208 258.719 108.688 226.406C120.256 194.094 143.181 167.094 173.189 150.445C203.196 133.796 238.236 128.633 271.771 135.92L285.541 97.4695C286.502 94.7979 286.857 91.9462 286.582 89.1203C286.306 86.2944 285.406 83.565 283.947 81.1293C282.488 78.6936 280.506 76.6124 278.145 75.0361C275.784 73.4598 273.102 72.4278 270.293 72.0147C223.814 65.4768 176.504 75.1619 136.335 99.4384C96.1662 123.715 65.5934 161.098 49.768 205.29C33.9427 249.482 33.8323 297.781 49.4553 342.049C65.0783 386.317 95.4798 423.848 135.537 448.318C137.969 449.776 140.694 450.677 143.515 450.956C146.337 451.235 149.185 450.886 151.855 449.932C154.525 448.979 156.95 447.445 158.957 445.442C160.963 443.439 162.501 441.016 163.459 438.347L177.278 399.878ZM865.014 203.255L826.664 63.4297C825.396 58.8036 823.183 54.4905 820.164 50.7625C817.146 47.0346 813.388 43.9729 809.127 41.7705C804.866 39.5681 800.196 38.2729 795.41 37.9667C790.623 37.6605 785.826 38.3499 781.32 39.9914L230.09 240.622C225.59 242.267 221.481 244.828 218.02 248.142C214.56 251.456 211.825 255.453 209.988 259.878C208.151 264.304 207.251 269.062 207.347 273.854C207.442 278.645 208.53 283.364 210.541 287.714L271.03 419.447L865.014 203.255ZM556.556 916.098L586.003 826.296C587.591 821.432 590.123 816.928 593.454 813.044C596.785 809.16 600.849 805.971 605.415 803.661C609.98 801.35 614.956 799.963 620.058 799.579C625.16 799.194 630.288 799.82 635.149 801.421L724.96 830.877C734.768 834.11 742.894 841.101 747.555 850.316C752.217 859.532 753.035 870.22 749.828 880.037L720.385 969.849C718.795 974.713 716.263 979.215 712.931 983.098C709.6 986.982 705.536 990.17 700.971 992.48C696.406 994.791 691.43 996.178 686.329 996.563C681.227 996.948 676.099 996.323 671.239 994.724L581.433 965.255C576.574 963.663 572.077 961.13 568.197 957.799C564.317 954.468 561.132 950.406 558.822 945.843C556.513 941.281 555.125 936.309 554.738 931.21C554.351 926.111 554.972 920.986 556.566 916.128L556.556 916.098ZM592.963 930.031L682.779 959.497C683.253 959.599 683.748 959.535 684.181 959.316C684.614 959.097 684.959 958.736 685.158 958.293L714.601 868.481C714.68 868.245 714.711 867.995 714.693 867.747C714.674 867.499 714.607 867.257 714.495 867.035C714.383 866.813 714.227 866.615 714.038 866.453C713.849 866.291 713.63 866.168 713.393 866.092L623.592 836.632C623.226 836.53 622.837 836.545 622.481 836.676C622.204 836.771 621.951 836.923 621.736 837.122C621.521 837.32 621.35 837.561 621.233 837.829L591.789 927.641C591.682 928.113 591.74 928.608 591.954 929.043C592.167 929.478 592.524 929.827 592.963 930.031ZM771.996 789.616C769.562 785.118 768.038 780.184 767.51 775.096C766.983 770.009 767.462 764.867 768.922 759.965C770.382 755.063 772.793 750.497 776.017 746.528C779.242 742.558 783.217 739.263 787.715 736.83L870.864 691.915C879.949 687.005 890.611 685.903 900.508 688.852C910.405 691.801 918.727 698.56 923.644 707.642L968.564 790.81C973.471 799.896 974.571 810.558 971.623 820.454C968.675 830.35 961.92 838.67 952.841 843.586L869.682 888.505C860.596 893.4 849.939 894.494 840.048 891.545C830.157 888.596 821.837 881.846 816.912 872.774L771.996 789.616ZM804.606 771.999L849.525 855.167C849.797 855.564 850.196 855.856 850.657 855.996C851.117 856.136 851.612 856.114 852.058 855.936L935.208 811.02C935.643 810.784 935.968 810.385 936.111 809.911C936.255 809.437 936.206 808.925 935.976 808.487L891.053 725.309C890.838 724.911 890.487 724.604 890.065 724.443C889.642 724.283 889.176 724.279 888.751 724.434L888.483 724.531L805.333 769.447C805.114 769.569 804.922 769.733 804.768 769.93C804.613 770.126 804.5 770.352 804.433 770.594C804.367 770.835 804.349 771.087 804.381 771.335C804.413 771.583 804.495 771.823 804.62 772.039L804.606 771.999ZM767.364 685.654L684.215 730.569C675.132 735.482 664.47 736.584 654.574 733.634C644.677 730.684 636.357 723.923 631.445 714.838L586.525 631.67C581.612 622.585 580.508 611.919 583.456 602.02C586.403 592.122 593.162 583.799 602.244 578.884L685.394 533.969C694.481 529.079 705.135 527.99 715.025 530.938C724.915 533.886 733.234 540.632 738.164 549.7L783.083 632.868C785.524 637.367 787.054 642.304 787.586 647.395C788.118 652.486 787.641 657.632 786.182 662.539C784.723 667.445 782.312 672.016 779.086 675.989C775.859 679.962 771.881 683.26 767.379 685.694L767.364 685.654ZM750.517 650.48L705.598 567.312C705.343 566.933 704.973 566.645 704.542 566.494C704.111 566.342 703.642 566.333 703.206 566.47L703.037 566.531L619.888 611.447C619.454 611.685 619.13 612.084 618.985 612.558C618.839 613.031 618.884 613.543 619.11 613.984L664.029 697.152C664.268 697.586 664.666 697.91 665.14 698.055C665.613 698.2 666.125 698.155 666.566 697.93L749.715 653.015C750.147 652.785 750.473 652.396 750.625 651.932C750.777 651.467 750.743 650.961 750.531 650.52L750.517 650.48ZM859.812 461.616L776.662 506.531C767.58 511.444 756.918 512.546 747.021 509.596C737.125 506.646 728.805 499.885 723.892 490.8L678.973 407.632C676.539 403.134 675.015 398.201 674.488 393.114C673.961 388.027 674.441 382.886 675.901 377.985C677.361 373.084 679.772 368.519 682.997 364.55C686.222 360.582 690.197 357.288 694.695 354.856L777.845 309.941C782.342 307.505 787.275 305.98 792.362 305.453C797.449 304.925 802.591 305.405 807.492 306.866C812.394 308.326 816.96 310.739 820.929 313.965C824.898 317.191 828.193 321.168 830.625 325.669L875.541 408.826C877.983 413.325 879.514 418.261 880.047 423.351C880.58 428.442 880.104 433.588 878.646 438.494C877.189 443.4 874.778 447.971 871.552 451.944C868.326 455.917 864.348 459.215 859.846 461.649L859.812 461.616ZM843.017 426.525L798.098 343.357C797.842 342.98 797.472 342.695 797.042 342.545C796.612 342.395 796.145 342.388 795.71 342.524L795.531 342.589L712.382 387.505C711.948 387.743 711.625 388.142 711.482 388.615C711.338 389.088 711.386 389.599 711.613 390.038L756.533 473.206C756.773 473.637 757.172 473.958 757.644 474.102C758.117 474.245 758.626 474.2 759.066 473.974L842.215 429.059C842.435 428.946 842.63 428.79 842.789 428.601C842.948 428.413 843.069 428.194 843.143 427.959C843.218 427.723 843.245 427.475 843.223 427.229C843.202 426.983 843.131 426.744 843.017 426.525ZM423.955 623.76L379.036 540.592C374.123 531.508 373.019 520.844 375.968 510.946C378.916 501.049 385.675 492.729 394.758 487.816L477.907 442.901C486.997 438.019 497.65 436.933 507.539 439.88C517.427 442.827 525.749 449.567 530.687 458.629L575.607 541.796C578.041 546.295 579.565 551.229 580.093 556.316C580.62 561.404 580.14 566.546 578.681 571.447C577.221 576.349 574.81 580.915 571.586 584.885C568.361 588.854 564.386 592.15 559.888 594.582L476.739 639.498C472.24 641.932 467.306 643.456 462.219 643.982C457.131 644.509 451.99 644.028 447.088 642.566C442.186 641.105 437.62 638.692 433.651 635.465C429.682 632.238 426.387 628.261 423.955 623.76ZM459.128 606.901L542.277 561.986C542.71 561.747 543.033 561.349 543.177 560.875C543.32 560.402 543.273 559.891 543.045 559.452L498.122 476.274C497.867 475.897 497.496 475.612 497.066 475.462C496.636 475.312 496.169 475.305 495.735 475.441L495.556 475.507L412.406 520.422C411.969 520.657 411.642 521.055 411.498 521.53C411.354 522.005 411.405 522.518 411.638 522.956L456.557 606.123C456.678 606.347 456.842 606.543 457.04 606.703C457.238 606.862 457.465 606.98 457.709 607.051C457.952 607.122 458.208 607.143 458.46 607.114C458.712 607.085 458.956 607.007 459.177 606.883L459.128 606.901Z" fill="url(#paint0_linear_163_704)"/>
<defs>
<linearGradient id="paint0_linear_163_704" x1="1191.73" y1="821.612" x2="-16.612" y2="258.291" gradientUnits="userSpaceOnUse">
<stop stop-color="#FD5C70"/>
<stop offset="1" stop-color="#FFCE64"/>
</linearGradient>
</defs>
</svg>
