<svg width="572" height="742" viewBox="0 0 572 742" fill="none" xmlns="http://www.w3.org/2000/svg">
<path d="M210.733 387.417C212.581 389.33 213.604 391.892 213.582 394.552C213.559 397.212 212.493 399.756 210.612 401.638C208.732 403.519 206.188 404.586 203.528 404.61C200.868 404.634 198.305 403.612 196.391 401.764L177.952 383.324C176.049 381.421 174.981 378.84 174.981 376.148C174.982 373.457 176.051 370.877 177.955 368.974C179.858 367.071 182.439 366.003 185.13 366.003C187.821 366.004 190.402 367.074 192.305 368.977L210.733 387.417ZM542.616 127.236L499.371 170.48C497.469 172.381 494.889 173.449 492.2 173.449C489.511 173.449 486.932 172.381 485.029 170.48L483.65 169.101C477.36 199.244 461.407 257.567 426.84 297.212L434.66 305.032C435.603 305.973 436.351 307.09 436.861 308.321C437.371 309.551 437.634 310.87 437.634 312.202C437.634 313.534 437.371 314.853 436.861 316.084C436.351 317.314 435.603 318.432 434.66 319.373L338.142 415.874L281.501 472.521C279.597 474.421 277.017 475.487 274.328 475.487C271.638 475.487 269.058 474.421 267.154 472.521L257.485 462.851C236.883 473.187 168.497 512.305 131.884 591.815C94.8302 672.275 42.4787 707.943 5.84241 714.488C1.96187 715.201 -1.97404 715.569 -5.91945 715.589C-10.6462 715.852 -15.378 715.173 -19.8401 713.592C-24.3023 712.01 -28.4059 709.558 -31.9126 706.378L-134.378 603.918C-142.494 595.803 -145.392 582.383 -142.494 566.163C-135.949 529.527 -100.281 477.176 -19.8204 440.122C59.9331 403.393 98.8764 335.112 109.154 314.533L99.4735 304.852C97.5723 302.949 96.5043 300.368 96.5043 297.678C96.5043 294.988 97.5723 292.408 99.4735 290.505L139.472 250.506C139.657 250.303 139.849 250.112 140.052 249.926L252.65 137.34C253.591 136.397 254.709 135.649 255.939 135.139C257.17 134.629 258.489 134.366 259.821 134.366C261.153 134.366 262.472 134.629 263.702 135.139C264.933 135.649 266.051 136.397 266.992 137.34L274.812 145.16C314.433 110.593 372.727 94.6398 402.923 88.3502L401.52 86.9531C399.619 85.0509 398.551 82.4716 398.551 79.7824C398.551 77.0931 399.619 74.5139 401.52 72.6116L444.764 29.367C446.667 27.466 449.246 26.3982 451.935 26.3982C454.624 26.3982 457.204 27.466 459.106 29.367L478.236 48.4966C480.083 50.4103 481.105 52.973 481.081 55.6329C481.058 58.2928 479.99 60.8369 478.109 62.7174C476.228 64.5979 473.683 65.6643 471.023 65.6869C468.364 65.7094 465.801 64.6864 463.888 62.8381L451.947 50.9023L423.02 79.7998L492.177 148.956L521.074 120.065L496.125 95.0687C495.183 94.1267 494.435 93.0083 493.926 91.7774C493.416 90.5466 493.153 89.2274 493.153 87.8951C493.153 86.5628 493.416 85.2436 493.926 84.0128C494.435 82.7819 495.183 81.6635 496.125 80.7215C497.067 79.7794 498.185 79.0321 499.416 78.5223C500.647 78.0125 501.966 77.7501 503.298 77.7501C504.631 77.7501 505.95 78.0125 507.181 78.5223C508.412 79.0321 509.53 79.7794 510.472 80.7215L542.616 112.871C543.56 113.813 544.31 114.933 544.821 116.165C545.333 117.398 545.596 118.719 545.596 120.053C545.596 121.388 545.333 122.709 544.821 123.941C544.31 125.174 543.56 126.293 542.616 127.236ZM339.725 385.602C322.746 365.919 309.399 343.377 300.306 319.025C271.339 241.376 208.942 228.698 192.003 226.658L168.538 250.158C193.192 254.84 216.377 265.326 236.174 280.749C255.97 296.173 271.808 316.089 282.377 338.851C292.845 361.643 309.239 381.207 329.847 395.503L339.725 385.602ZM315.251 410.077C293.108 393.924 275.471 372.371 264.018 347.47C232.303 280.36 167.587 269.642 150.701 267.978L121.003 297.681L128.609 305.281L158.521 335.198C159.504 336.13 160.292 337.249 160.836 338.49C161.38 339.731 161.671 341.068 161.69 342.422C161.709 343.777 161.456 345.122 160.947 346.378C160.438 347.633 159.683 348.774 158.725 349.733C157.768 350.692 156.628 351.449 155.374 351.96C154.119 352.471 152.774 352.726 151.42 352.709C150.065 352.692 148.727 352.404 147.486 351.862C146.244 351.319 145.124 350.534 144.191 349.552L124.261 329.622C94.0113 385.985 46.4897 431.166 -11.3279 458.533C-84.7859 492.375 -117.127 539.59 -122.518 569.74C-124.46 580.592 -122.518 587.102 -120.031 589.577L-17.577 692.031C-15.0959 694.506 -8.58601 696.46 2.25994 694.518C32.4037 689.127 79.625 656.774 113.45 583.328C140.821 525.511 186.006 477.991 242.372 447.745L231.805 437.177C230.863 436.235 230.115 435.117 229.605 433.886C229.096 432.655 228.833 431.336 228.833 430.003C228.833 428.671 229.096 427.352 229.605 426.121C230.115 424.89 230.863 423.772 231.805 422.83C232.747 421.888 233.865 421.141 235.096 420.631C236.327 420.121 237.646 419.858 238.978 419.858C240.31 419.858 241.63 420.121 242.861 420.631C244.091 421.141 245.21 421.888 246.152 422.83L266.696 443.38L274.29 450.979L315.251 410.077ZM413.166 312.179L259.821 158.834L209.388 209.267C238.952 216.455 292.283 239.318 319.308 311.872C327.383 333.498 339.152 353.557 354.09 371.156L413.166 312.179ZM466.282 151.71L420.313 105.741C401.502 108.935 332.201 122.818 289.217 159.542L412.482 282.806C449.182 239.822 463.065 170.521 466.259 151.71H466.282ZM72.8021 566.842C71.5769 566.316 70.2601 566.036 68.9269 566.019C67.5937 566.002 66.2702 566.248 65.0321 566.743C63.7939 567.238 62.6654 567.972 61.7109 568.903C60.7564 569.834 59.9947 570.944 59.4693 572.169C59.2838 572.604 40.5077 615.646 3.43091 636.543C2.27037 637.198 1.25008 638.074 0.42827 639.123C-0.393535 640.171 -1.00076 641.371 -1.35872 642.655C-1.71668 643.938 -1.81838 645.279 -1.658 646.602C-1.49762 647.924 -1.07831 649.202 -0.42401 650.363C0.23029 651.524 1.10676 652.544 2.15538 653.366C3.20399 654.187 4.4042 654.795 5.68748 655.153C6.97076 655.511 8.31199 655.612 9.63458 655.452C10.9572 655.292 12.2352 654.872 13.3957 654.218C56.3912 629.981 77.2483 582.186 78.1178 580.163C79.1787 577.691 79.2146 574.9 78.2178 572.402C77.221 569.904 75.273 567.904 72.8021 566.842Z" fill="url(#paint0_linear_163_701)"/>
<defs>
<linearGradient id="paint0_linear_163_701" x1="299.866" y1="454.15" x2="117.844" y2="272.128" gradientUnits="userSpaceOnUse">
<stop stop-color="#F35D2E"/>
<stop offset="1" stop-color="#FFDE3E"/>
</linearGradient>
</defs>
</svg>
