<svg width="575" height="927" viewBox="0 0 575 927" fill="none" xmlns="http://www.w3.org/2000/svg">
<path d="M149.705 766.832L138.941 786.478C138.109 788.186 136.931 789.708 135.478 790.95C134.025 792.192 132.328 793.129 130.489 793.704C128.65 794.279 126.708 794.481 124.78 794.296C122.851 794.111 120.977 793.544 119.271 792.629C117.565 791.714 116.062 790.47 114.853 788.973C113.645 787.475 112.755 785.755 112.239 783.917C111.723 782.079 111.59 780.161 111.85 778.279C112.11 776.397 112.756 774.59 113.75 772.968L124.511 753.33C125.341 751.618 126.518 750.093 127.971 748.848C129.423 747.603 131.121 746.663 132.961 746.086C134.801 745.509 136.745 745.306 138.675 745.49C140.604 745.673 142.48 746.24 144.188 747.156C145.896 748.071 147.4 749.316 148.61 750.814C149.82 752.313 150.71 754.035 151.226 755.875C151.741 757.715 151.873 759.634 151.611 761.518C151.35 763.401 150.701 765.209 149.705 766.832ZM561.087 365.627C553.348 379.728 542.703 392.071 529.824 401.878C534.285 424.377 531.012 447.62 520.52 467.941C510.029 488.262 492.916 504.505 471.881 514.107C471.096 539.898 461.15 564.516 443.766 583.693C426.382 602.87 402.656 615.398 376.7 619.107C375.064 623.567 373.096 627.899 370.811 632.07C363.358 645.645 352.829 657.335 340.028 666.247C327.227 675.16 312.492 681.059 296.95 683.494C281.408 685.929 265.469 684.836 250.351 680.297C235.233 675.759 221.335 667.896 209.719 657.309L169.477 730.707C168.645 732.416 167.467 733.938 166.014 735.18C164.561 736.422 162.864 737.359 161.025 737.934C159.186 738.509 157.243 738.711 155.315 738.526C153.387 738.341 151.513 737.774 149.807 736.859C148.101 735.944 146.598 734.7 145.389 733.202C144.18 731.705 143.291 729.985 142.775 728.147C142.259 726.309 142.126 724.391 142.386 722.509C142.646 720.627 143.292 718.82 144.285 717.198L190.316 633.2C188.226 629.657 186.352 625.996 184.703 622.238C180.604 622.93 176.463 623.376 172.304 623.574L29.7816 883.779C29.135 884.933 28.7307 886.205 28.5923 887.52C28.4539 888.834 28.5843 890.166 28.9757 891.436C29.3554 892.683 29.983 893.847 30.8218 894.858C31.6607 895.87 32.6942 896.71 33.8622 897.329C35.0547 897.982 36.3651 898.396 37.7169 898.547C39.0688 898.698 40.435 898.583 41.7359 898.21C43.0175 897.847 44.2097 897.236 45.2426 896.412C46.2755 895.588 47.1282 894.567 47.7504 893.41L90.4545 815.472C92.342 812.391 95.372 810.154 98.9157 809.225C102.459 808.297 106.245 808.749 109.486 810.487C112.727 812.225 115.175 815.116 116.322 818.56C117.469 822.004 117.227 825.736 115.646 828.982L72.9584 906.891C68.8513 914.403 62.2776 920.312 54.2953 923.668C46.3129 927.025 37.3863 927.633 28.9521 925.394C25.9586 924.591 23.0689 923.444 20.3436 921.975C15.8504 919.569 11.876 916.32 8.64877 912.413C5.42151 908.507 3.00485 904.021 1.53761 899.211C0.0703686 894.402 -0.41854 889.365 0.0988749 884.39C0.61629 879.414 2.12987 874.598 4.55272 870.218L134.627 632.72C118.044 636.498 100.722 636.138 84.2322 631.673C75.8315 629.428 67.7395 626.161 60.1451 621.947L-13.4277 896.525C-16.0432 906.286 -22.5082 914.586 -31.4006 919.601C-40.2929 924.616 -50.8843 925.934 -60.8446 923.265C-70.8049 920.596 -79.3182 914.159 -84.5119 905.37C-89.7055 896.581 -91.1539 886.16 -88.5384 876.399L-14.9719 601.845C-30.7362 601.591 -46.2694 597.8 -60.3847 590.762C-74.5 583.724 -86.8238 573.624 -96.4144 561.235C-106.005 548.846 -112.609 534.495 -115.721 519.279C-118.833 504.063 -118.371 488.384 -114.371 473.44C-113.139 468.86 -111.575 464.375 -109.691 460.02C-110.431 459.083 -111.235 458.195 -111.946 457.241C-112.525 456.455 -113.024 455.614 -113.434 454.732C-127.881 434.376 -135.008 409.914 -133.674 385.263C-132.34 360.612 -122.623 337.198 -106.077 318.768C-114.699 297.428 -115.873 273.946 -109.414 252.028C-102.955 230.11 -89.2306 211.003 -70.4062 197.722C-72.8441 182.582 -72.2138 167.147 -68.5517 152.307C-64.8896 137.467 -58.2681 123.516 -49.0685 111.257C-39.869 98.9974 -28.2732 88.6726 -14.9494 80.8771C-1.62556 73.0816 13.1631 67.9694 28.5645 65.8351C36.4183 53.1959 46.3109 41.9067 57.8601 32.4037C60.7669 30.1882 64.4452 29.1733 68.1236 29.5718C71.8021 29.9702 75.1952 31.751 77.5915 34.5408C79.9878 37.3306 81.2013 40.9128 80.9776 44.5364C80.7538 48.16 79.1103 51.5437 76.3914 53.9779C65.6228 62.8449 56.6698 73.6417 50.0002 85.8042C48.8766 87.8566 47.2459 89.5952 45.2563 90.8619C43.2667 92.1287 40.9814 92.8834 38.6082 93.0575C15.5065 94.6367 -5.95943 105.037 -21.204 122.037C-36.4485 139.036 -44.263 161.288 -42.9779 184.037C-23.2901 177.434 -1.98416 176.781 18.2072 182.162C21.8767 183.145 25.0133 185.516 26.9267 188.754C28.8401 191.993 29.3737 195.832 28.4102 199.428C27.4466 203.024 25.0648 206.082 21.7886 207.93C18.5125 209.778 14.6104 210.263 10.9408 209.28C-1.88718 205.794 -15.3856 205.652 -28.2175 208.869C-41.0494 212.086 -52.7694 218.55 -62.2166 227.62C-71.6639 236.691 -78.5106 248.054 -82.0785 260.583C-85.6465 273.112 -85.8118 286.373 -82.5583 299.052C-72.7702 292.779 -62.032 288.052 -50.7299 285.042C-48.9026 284.522 -46.9842 284.368 -45.0876 284.587C-43.191 284.807 -41.3544 285.397 -39.6857 286.321C-38.017 287.246 -36.55 288.488 -35.3707 289.973C-34.1914 291.458 -33.3238 293.156 -32.8187 294.969C-32.3137 296.781 -32.1814 298.671 -32.4297 300.527C-32.678 302.383 -33.3019 304.168 -34.2646 305.776C-35.2274 307.385 -36.5096 308.785 -38.0359 309.894C-39.5623 311.003 -41.3019 311.799 -43.1526 312.235C-57.399 316.009 -70.3624 323.374 -80.7672 333.603C-91.1721 343.832 -98.66 356.574 -102.494 370.576C-106.153 384.099 -106.223 398.352 -102.698 411.98C-99.1729 425.609 -92.1696 438.161 -82.3532 448.445C-82.2533 448.546 -82.2133 448.682 -82.1213 448.781C-71.3547 460.166 -57.5556 468.353 -42.3235 472.391C-33.7332 474.697 -24.8404 475.662 -15.9725 475.25C-12.1848 475.071 -8.46476 476.379 -5.63069 478.886C-2.79662 481.392 -1.08067 484.893 -0.86037 488.617C-0.640072 492.341 -1.93345 495.983 -4.45598 498.743C-6.9785 501.502 -10.5236 503.153 -14.3112 503.332C-40.2358 504.569 -65.8868 496.939 -86.9018 481.739C-90.5242 495.878 -89.7546 510.802 -84.6917 524.595C-79.6288 538.388 -70.5033 550.422 -58.4857 559.154C-46.468 567.886 -32.1061 572.918 -17.2417 573.603C-2.37724 574.289 12.312 570.598 24.9421 563.004C26.5923 562.024 28.4312 561.386 30.3473 561.129C32.2633 560.871 34.2166 561 36.0885 561.506C37.9642 562.011 39.7196 562.885 41.2482 564.074C42.7767 565.263 44.0464 566.743 44.9802 568.423C49.8235 577.24 56.4524 585.001 64.4541 591.223C72.4558 597.444 81.659 601.993 91.4903 604.586C97.5977 606.194 103.88 607.041 110.187 607.104C98.2589 599.558 88.0146 589.695 80.092 578.129C72.1694 566.563 66.7381 553.543 64.1364 539.879C61.5346 526.214 61.818 512.198 64.9689 498.703C68.1198 485.208 74.0708 472.523 82.4514 461.438C82.2545 460.958 82.083 460.468 81.9376 459.971C71.3228 436.543 69.2644 410.305 76.1128 385.727C82.9613 361.149 98.2931 339.749 119.497 325.173C116.157 302.614 120.511 279.679 131.877 259.955C143.243 240.232 160.98 224.833 182.313 216.168C182.417 216.13 182.495 216.059 182.598 216.021L182.803 215.951L182.937 215.895C184.211 199.868 188.854 184.308 196.572 170.196C203.086 158.352 211.682 147.747 221.966 138.866C213.854 138.347 205.72 138.913 197.787 140.551C194.086 141.338 190.203 140.644 186.994 138.623C183.784 136.602 181.51 133.419 180.672 129.774C179.833 126.129 180.5 122.321 182.524 119.187C184.549 116.053 187.765 113.851 191.466 113.064C209.992 109.166 229.243 109.694 247.609 114.604C251.025 115.519 254.294 116.603 257.464 117.768C258.078 117.534 258.684 117.264 259.301 117.048C253.214 88.6924 236.08 63.6998 211.577 47.4338C187.074 31.1678 157.156 24.9248 128.242 30.0447C126.394 30.3831 124.492 30.3587 122.645 29.9729C120.799 29.5871 119.045 28.8475 117.483 27.7966C115.922 26.7457 114.584 25.4042 113.546 23.849C112.508 22.2938 111.791 20.5557 111.436 18.7343C111.081 16.913 111.095 15.0443 111.477 13.2355C111.859 11.4267 112.601 9.71353 113.662 8.19423C114.722 6.67493 116.08 5.37946 117.657 4.38218C119.233 3.38491 120.998 2.70548 122.85 2.38289C158.986 -4.02875 196.384 3.71271 227.068 23.9562C257.752 44.1997 279.294 75.343 287.099 110.744C294.918 109.901 302.812 109.832 310.661 110.539C332.069 89.4885 359.896 75.8689 389.996 71.7096C420.095 67.5503 450.855 73.0741 477.691 87.4577C504.526 101.841 526.001 124.315 538.914 151.528C551.827 178.741 555.486 209.237 549.347 238.471C563.678 256.367 572.422 277.932 574.504 300.519C576.587 323.107 571.918 345.734 561.071 365.622L561.087 365.627ZM35.5848 602.918C32.7037 599.929 30.0061 596.774 27.5067 593.47C23.7015 595.069 19.8016 596.445 15.8271 597.591L-60.8661 883.814C-61.5543 886.382 -61.1732 889.125 -59.8065 891.438C-58.4397 893.751 -56.1994 895.444 -53.5782 896.147C-50.9571 896.849 -48.1699 896.502 -45.8298 895.183C-43.4897 893.863 -41.7884 891.678 -41.1001 889.11L35.5848 602.918ZM523.16 251.385L523.094 251.284C514.842 242.23 504.789 234.934 493.569 229.855C482.348 224.776 470.202 222.024 457.895 221.773C455.993 221.773 454.106 221.4 452.345 220.677C450.583 219.953 448.983 218.892 447.637 217.558C446.292 216.223 445.228 214.64 444.508 212.903C443.788 211.165 443.427 209.307 443.446 207.438C443.464 205.569 443.862 203.726 444.615 202.017C445.369 200.309 446.463 198.768 447.835 197.486C449.206 196.204 450.826 195.206 452.601 194.551C454.376 193.896 456.27 193.596 458.172 193.67C477.202 194.068 495.9 198.972 512.676 207.968C516.39 209.977 519.996 212.176 523.478 214.557C524.393 191.781 518.116 169.212 505.508 149.943C492.9 130.673 474.577 115.645 453.048 106.917C431.519 98.1884 407.838 96.1868 385.248 101.186C362.658 106.185 342.264 117.941 326.859 134.843C325.278 136.576 323.278 137.889 321.04 138.664C318.803 139.439 316.398 139.651 314.043 139.281C291.144 135.529 267.749 140.707 248.853 153.711C229.957 166.714 217.058 186.512 212.909 208.879C233.669 206.977 254.596 211.228 272.998 221.085C274.743 221.922 276.3 223.097 277.576 224.537C278.852 225.978 279.82 227.655 280.421 229.467C281.023 231.279 281.245 233.188 281.075 235.079C280.906 236.97 280.347 238.804 279.434 240.47C278.52 242.135 277.27 243.598 275.76 244.77C274.25 245.942 272.51 246.798 270.647 247.287C268.783 247.776 266.834 247.888 264.918 247.615C263.001 247.343 261.157 246.692 259.496 245.702C247.825 239.397 234.713 236.178 221.455 236.362C208.197 236.546 195.252 240.127 183.9 246.752C172.549 253.376 163.182 262.814 156.728 274.134C150.273 285.453 146.953 298.261 147.096 311.293C158.125 307.491 169.709 305.417 181.428 305.145C185.221 305.06 188.908 306.46 191.678 309.036C194.448 311.612 196.075 315.154 196.199 318.882C196.324 322.61 194.937 326.219 192.344 328.915C189.75 331.611 186.162 333.174 182.369 333.259C167.832 333.565 153.661 337.563 141.234 344.865C128.807 352.168 118.548 362.525 111.453 374.93C104.359 387.335 100.671 401.366 100.748 415.658C100.825 429.949 104.665 444.016 111.894 456.488C111.961 456.639 112.018 456.793 112.067 456.95C118.221 467.448 126.616 476.525 136.666 483.55C146.716 490.576 158.182 495.381 170.264 497.631C172.144 497.941 173.945 498.616 175.563 499.615C177.181 500.615 178.583 501.92 179.687 503.454C180.791 504.987 181.575 506.719 181.992 508.547C182.41 510.375 182.453 512.263 182.119 514.1C181.785 515.937 181.081 517.687 180.048 519.247C179.014 520.806 177.673 522.144 176.101 523.183C174.53 524.221 172.76 524.939 170.896 525.294C169.032 525.65 167.111 525.635 165.244 525.252C162.281 524.707 159.34 524.043 156.454 523.27C134.318 517.336 114.471 504.952 99.5415 487.758C93.9469 498.247 91.0468 509.942 91.0914 521.833C91.136 533.725 94.1239 545.457 99.7975 556.017C105.471 566.577 113.66 575.649 123.658 582.449C133.656 589.249 145.162 593.574 157.185 595.05L157.336 595.09C159.783 595.386 162.242 595.56 164.704 595.611L164.997 595.624C173.268 595.775 181.494 594.587 189.345 592.107C191.188 591.526 193.136 591.32 195.07 591.503C197.005 591.686 198.885 592.254 200.597 593.172C202.308 594.09 203.815 595.338 205.026 596.842C206.237 598.345 207.126 600.072 207.639 601.917C211.551 616.046 219.654 628.749 230.91 638.399C242.167 648.049 256.064 654.206 270.823 656.084C285.582 657.961 300.531 655.473 313.756 648.937C326.981 642.401 337.879 632.116 345.056 619.397C340.094 618.755 335.179 617.788 330.342 616.501C321.776 614.199 313.505 610.921 305.698 606.733C302.438 604.895 300.027 601.882 298.983 598.341C297.939 594.799 298.343 591.011 300.11 587.786C301.877 584.562 304.866 582.159 308.436 581.092C312.006 580.025 315.874 580.379 319.211 582.078C332.788 589.336 348.101 592.798 363.467 592.084L363.397 592.348C363.883 592.271 364.318 592.071 364.818 592.039C383.039 590.946 400.347 584.066 414.14 572.434C427.932 560.802 437.464 545.046 441.303 527.536C445.142 510.026 443.079 491.707 435.427 475.332C427.774 458.958 414.943 445.414 398.864 436.735C397.117 435.9 395.557 434.727 394.278 433.286C392.999 431.846 392.028 430.169 391.424 428.356C390.82 426.543 390.596 424.632 390.765 422.739C390.933 420.846 391.491 419.011 392.405 417.343C393.319 415.676 394.57 414.211 396.082 413.039C397.593 411.866 399.335 411.009 401.2 410.521C403.066 410.032 405.016 409.921 406.935 410.196C408.853 410.47 410.698 411.123 412.359 412.116C426.266 419.573 438.452 429.804 448.125 442.146C457.797 454.488 464.742 468.664 468.506 483.755C479.22 477.039 488.009 467.757 494.058 456.769C502.656 441.141 505.231 422.944 501.317 405.483C497.782 389.036 488.727 374.18 475.611 363.31C472.693 360.898 470.858 357.456 470.509 353.74C470.16 350.024 471.327 346.339 473.752 343.496C476.177 340.652 479.661 338.884 483.44 338.578C487.218 338.273 490.98 339.457 493.898 341.869C504.398 350.558 513.07 361.182 519.418 373.13C536.089 357.489 545.811 336.002 546.51 313.256C547.209 290.51 538.83 268.307 523.16 251.385Z" fill="url(#paint0_linear_134_697)"/>
<defs>
<linearGradient id="paint0_linear_134_697" x1="359.586" y1="751.793" x2="-21.1409" y2="76.6928" gradientUnits="userSpaceOnUse">
<stop stop-color="#3BA9FD"/>
<stop offset="1" stop-color="#62E0DA"/>
</linearGradient>
</defs>
</svg>
