<svg width="773" height="1259" viewBox="0 0 773 1259" fill="none" xmlns="http://www.w3.org/2000/svg">
<g clip-path="url(#clip0_163_698)">
<path d="M802.019 254.604L808.423 241.302L794.966 235.227C788.34 232.236 785.525 224.502 788.678 217.952C791.832 211.401 799.759 208.516 806.385 211.507L819.842 217.581L826.246 204.278C829.399 197.727 837.326 194.842 843.953 197.833C850.579 200.824 853.394 208.558 850.24 215.109L843.837 228.412L857.293 234.486C863.92 237.477 866.735 245.211 863.581 251.762C862.004 255.037 859.233 257.398 856.031 258.564C852.828 259.73 849.187 259.702 845.874 258.207L832.418 252.132L826.014 265.435C824.437 268.711 821.666 271.072 818.463 272.238C815.26 273.403 811.62 273.376 808.307 271.88C801.677 268.89 798.862 261.156 802.019 254.604ZM310.305 512.537C317.22 510.02 320.836 502.509 318.38 495.761C315.925 489.014 308.327 485.584 301.411 488.102C294.495 490.619 290.88 498.13 293.335 504.877C295.791 511.624 303.389 515.054 310.305 512.537ZM559.119 338.959C566.034 336.442 569.65 328.931 567.195 322.183C564.739 315.436 557.141 312.006 550.225 314.523C543.31 317.041 539.694 324.552 542.15 331.299C544.605 338.046 552.203 341.476 559.119 338.959ZM839.523 485.951C841.978 492.698 849.577 496.128 856.492 493.611C863.408 491.094 867.024 483.583 864.568 476.836C862.112 470.088 854.514 466.659 847.598 469.176C840.683 471.693 837.067 479.204 839.523 485.951ZM392.186 544.627C387.379 534.81 388.292 523.505 394.612 514.384L475.111 398.473C481.414 389.382 491.812 384.356 502.931 385.031C514.023 385.708 523.537 391.948 528.34 401.725L589.751 526.276C594.583 536.091 593.688 547.406 587.377 556.542C583.593 562.014 578.336 566.02 572.341 568.203C568.318 569.667 563.981 570.308 559.517 570.034L417.634 561.398C406.503 560.71 396.987 554.436 392.186 544.627ZM416.175 533.028C416.567 533.844 417.557 535.227 419.712 535.363L561.596 543.998C563.766 544.136 564.943 542.88 565.458 542.133C565.984 541.367 566.721 539.815 565.792 537.916L504.383 413.371C503.449 411.487 501.774 411.111 500.853 411.055C499.945 410.995 498.206 411.168 496.99 412.921L416.502 528.831C415.288 530.591 415.77 532.218 416.175 533.028ZM634.767 461.375C626.283 454.39 622.43 443.765 624.469 432.964L650.437 295.691C650.437 295.691 650.437 295.691 650.435 295.684C652.485 284.914 659.965 276.204 670.456 272.385C680.946 268.567 692.274 270.428 700.769 277.364L808.902 365.829C817.409 372.799 821.287 383.414 819.277 394.218C817.255 405.027 809.77 413.763 799.242 417.595L665.138 466.405C654.61 470.237 643.261 468.356 634.767 461.375ZM652.03 441.269C652.728 441.852 654.216 442.708 656.245 441.97L790.348 393.16C792.377 392.422 792.967 390.809 793.127 389.914C793.302 389.02 793.33 387.315 791.69 385.965L683.561 297.512C681.925 296.174 680.217 296.505 679.349 296.821C678.482 297.136 676.96 297.981 676.567 300.058L650.594 437.326C650.203 439.406 651.32 440.694 652.03 441.269ZM1043.97 619.08C1075.85 706.662 1028.75 804.491 938.99 837.161L888.9 855.392L897.793 879.828C900.249 886.575 896.64 894.084 889.718 896.603L614.222 996.875C607.301 999.395 599.709 995.963 597.253 989.216L588.359 964.78L538.269 983.012C448.508 1015.68 349.545 971.016 317.667 883.434C315.211 876.687 318.821 869.178 325.743 866.658L375.774 848.449C375.196 847.593 374.472 846.878 373.976 845.955C368.821 836.32 369.323 824.989 375.316 815.661L411.109 760.039L384.957 662.977C382.111 652.46 385.133 641.505 393.028 633.671C400.902 625.859 412.02 622.76 422.81 625.433L553.989 658.01C558.854 651.971 565.58 648.039 573.221 646.821C572.719 639.121 575.198 631.449 580.512 625.25C587.761 616.821 598.606 612.867 609.543 614.649L617.418 615.937L687.634 514.828C693.949 505.732 704.348 500.706 715.454 501.385C726.546 502.062 736.061 508.302 740.864 518.08L775.206 587.732C779.398 586.099 783.89 585.163 788.597 585.453C799.689 586.13 809.203 592.37 814.006 602.147L826.423 627.331L846.86 567.225C850.419 556.801 858.995 549.2 869.943 546.824C880.843 544.472 891.774 547.864 899.187 555.907L969.494 632.352L1027 611.42C1033.93 608.901 1041.52 612.333 1043.97 619.08ZM836.092 680.906L942.458 642.192L879.331 573.553C877.906 571.996 876.17 572.095 875.269 572.288C874.405 572.467 872.754 573.103 872.063 575.122L836.092 680.906ZM786.523 611.479C785.614 611.419 783.876 611.592 782.66 613.345L702.17 729.252C702.059 729.414 702.054 729.564 701.966 729.724L804.269 692.489L814.3 662.978L790.049 613.793C789.119 611.911 787.443 611.535 786.523 611.479ZM646.083 620.623L735.522 635.265L755.069 607.116L716.91 529.728C715.976 527.843 714.301 527.467 713.38 527.412C712.472 527.351 710.734 527.524 709.518 529.278L646.083 620.623ZM599.964 645.995L638.615 752.782L675.788 739.252C673.758 731.094 675.178 722.165 680.292 714.797L718.992 659.068L604.773 640.37C602.692 640.02 601.358 641.146 600.74 641.845C600.149 642.548 599.244 644.018 599.964 645.995ZM574.213 674.288L497.911 792.867C496.75 794.666 497.306 796.269 497.726 797.074C498.154 797.87 499.196 799.213 501.353 799.276L510.24 799.507L613.57 761.898L582.176 675.167C582.016 674.911 581.755 674.76 581.61 674.488C580.618 672.638 578.923 672.318 578 672.294C577.077 672.27 575.355 672.517 574.213 674.288ZM430.556 729.816L451.621 697.081C457.584 687.778 467.77 682.4 478.942 682.686C490.069 682.973 499.794 688.877 504.98 698.477L515.217 717.477L538.568 681.187L415.914 650.72C413.81 650.189 412.434 651.202 411.774 651.864C411.124 652.512 410.106 653.903 410.654 655.935L430.556 729.816ZM410.06 835.969L475.957 811.985C475.38 811.13 474.655 810.414 474.159 809.491C469.004 799.856 469.506 788.525 475.499 779.197L498.742 743.076L481.433 710.949C480.441 709.1 478.746 708.779 477.823 708.755C476.887 708.736 475.173 708.976 474.035 710.75L397.734 829.328C396.573 831.127 397.129 832.731 397.549 833.536C397.977 834.331 399.019 835.675 401.176 835.737L410.06 835.969ZM1022.81 640.618L347.723 886.331C378.965 952.425 457.64 984.686 529.375 958.576L930.096 812.726C1001.83 786.616 1041.36 711.332 1022.81 640.618ZM711.843 407.897C718.759 405.38 722.375 397.869 719.919 391.122C717.463 384.375 709.865 380.945 702.95 383.462C696.034 385.979 692.418 393.49 694.874 400.237C697.33 406.985 704.928 410.414 711.843 407.897ZM711.025 366.686C717.941 364.169 721.557 356.658 719.101 349.911C716.645 343.164 709.047 339.734 702.132 342.251C695.216 344.768 691.6 352.279 694.056 359.027C696.512 365.774 704.11 369.204 711.025 366.686ZM507.854 509.816C514.77 507.298 518.386 499.787 515.93 493.04C513.474 486.293 505.876 482.863 498.961 485.38C492.045 487.897 488.429 495.409 490.885 502.156C493.341 508.903 500.939 512.333 507.854 509.816ZM437.628 784.427C430.712 786.944 427.096 794.455 429.552 801.203C432.008 807.95 439.606 811.379 446.521 808.862C453.437 806.345 457.053 798.834 454.597 792.087C452.141 785.34 444.543 781.91 437.628 784.427ZM579.822 746.509C586.738 743.992 590.354 736.48 587.898 729.733C585.442 722.986 577.844 719.556 570.928 722.073C564.013 724.59 560.397 732.102 562.853 738.849C565.308 745.596 572.907 749.026 579.822 746.509ZM724.009 597.176C730.925 594.659 734.541 587.147 732.085 580.4C729.629 573.653 722.031 570.223 715.116 572.74C708.2 575.257 704.584 582.769 707.04 589.516C709.496 596.263 717.094 599.693 724.009 597.176ZM650.51 706.944C657.426 704.427 661.042 696.916 658.586 690.169C656.13 683.421 648.532 679.992 641.617 682.509C634.701 685.026 631.085 692.537 633.541 699.284C635.997 706.031 643.595 709.461 650.51 706.944ZM897.332 644.781C904.247 642.264 907.863 634.752 905.408 628.005C902.952 621.258 895.354 617.828 888.438 620.345C881.523 622.863 877.907 630.374 880.363 637.121C882.818 643.868 890.416 647.298 897.332 644.781ZM763.213 665.924C756.297 668.441 752.682 675.952 755.137 682.699C757.593 689.446 765.191 692.876 772.107 690.359C779.022 687.842 782.638 680.331 780.182 673.584C777.727 666.836 770.129 663.407 763.213 665.924Z" fill="url(#paint0_linear_163_698)"/>
</g>
<defs>
<linearGradient id="paint0_linear_163_698" x1="478.22" y1="1010.8" x2="844.975" y2="198.295" gradientUnits="userSpaceOnUse">
<stop stop-color="#107EFF"/>
<stop offset="1" stop-color="#8F16FF"/>
</linearGradient>
<clipPath id="clip0_163_698">
<rect width="999.464" height="975.131" fill="white" transform="translate(0 341.837) rotate(-20)"/>
</clipPath>
</defs>
</svg>
