<svg width="457" height="695" viewBox="0 0 457 695" fill="none" xmlns="http://www.w3.org/2000/svg">
<path d="M629.626 226.198C626.761 226.198 624.011 224.586 622.693 221.826C619.866 215.899 591.279 195.204 524.228 180.937C520.081 180.057 517.431 175.976 518.314 171.83C519.195 167.684 523.267 165.036 527.422 165.917C592.891 179.845 629.883 201.234 636.55 215.211C638.376 219.04 636.757 223.625 632.928 225.446C631.862 225.959 630.737 226.198 629.626 226.198ZM0 535.296C0 498.302 29.5659 464.662 79.6784 437.897C74.8476 428.443 72.2286 418.606 72.2286 408.457C72.2286 394.531 77.122 381.188 86.0772 368.657C77.0923 356.075 72.2286 342.672 72.2286 328.698C72.2286 314.741 77.1298 301.365 86.096 288.803C77.1361 276.247 72.2286 262.882 72.2286 248.933C72.2286 168.741 216.006 130.04 299.309 119.885C303.862 102.338 310.576 86.8899 320.502 76.9636C340.043 57.4227 366.683 46.2558 396.587 47.6749C397.545 24.0708 412.573 4.0051 413.329 3.01356C415.624 0.00606257 419.781 -0.874252 423.104 0.936513C424.246 1.55681 447.994 14.8023 457.857 37.6562C478.587 23.8248 505.782 25.7092 507.063 25.7985C510.838 26.0914 513.838 29.0911 514.131 32.8661C514.229 34.1647 516.101 61.3779 502.248 82.1045C525.113 91.9541 538.375 115.684 538.996 116.826C540.81 120.151 539.926 124.302 536.919 126.6C536.745 126.733 535.947 127.327 534.693 128.182C602.41 142.352 710.968 180.24 710.968 248.933C710.968 262.907 706.044 276.295 697.052 288.872C706.033 301.411 710.968 314.758 710.968 328.698C710.968 342.654 706.058 356.027 697.085 368.589C706.056 381.146 710.968 394.51 710.968 408.459C710.968 418.617 708.346 428.464 703.506 437.925C753.603 464.688 783.197 498.313 783.197 535.299C783.197 624.679 611.187 694.696 391.6 694.696C172.013 694.696 0 624.676 0 535.296ZM673.865 205.553C675.264 209.826 675.986 214.186 675.986 218.618C675.986 238.935 661.188 258.303 633.196 274.635C618.762 283.051 609.797 298.289 609.797 314.406V330.928C662.61 309.381 695.61 280.352 695.61 248.93C695.61 233.714 687.836 219.068 673.865 205.553ZM686.861 301.029C669.349 319.03 642.928 334.938 609.797 347.874V410.679C662.599 389.131 695.61 360.112 695.61 328.694C695.61 319.202 692.533 309.94 686.861 301.029ZM490.84 94.3398C487.572 96.8397 484.082 98.8447 480.523 100.527C483.933 106.855 486.593 113.538 488.565 120.453C496.073 121.421 503.437 122.493 510.623 123.677C514.976 121.934 518.78 119.952 521.663 118.259C516.223 110.668 505.284 98.1258 490.84 94.3398ZM452.353 67.8596C456.044 70.6572 459.631 73.6287 462.962 76.962C466.3 80.3001 469.277 83.8934 472.079 87.5917C476.731 85.5867 481.208 82.9018 484.936 79.1738C495.94 68.1698 498.362 50.789 498.808 41.1148C489.135 41.5613 471.753 43.9829 460.749 54.9869C457.021 58.7197 454.355 63.2059 452.353 67.8596ZM411.944 49.4763C421.573 51.4296 430.812 54.7723 439.421 59.4152C441.103 55.8563 443.1 52.3742 445.596 49.1082C441.805 34.5798 429.281 23.676 421.692 18.2594C417.687 25.0999 412.078 37.0187 411.944 49.4763ZM305.894 216.751C306.093 226.241 313.685 233.833 323.175 234.032C387.587 235.442 434.568 226.106 452.106 208.567C485.498 175.166 485.5 121.221 452.106 87.8204C418.705 54.4277 364.76 54.4262 331.359 87.8204C313.815 105.358 304.533 152.355 305.894 216.751ZM122.568 218.618C122.568 236.997 141.692 252.013 157.74 261.37C176.872 272.525 188.758 292.849 188.758 314.407V374.976C188.758 384.172 196.241 391.656 205.442 391.656C214.643 391.656 222.126 384.173 222.126 374.976V335.366C222.126 311.337 243.816 292.954 267.667 297.153C286.934 300.546 300.454 316.657 300.454 335.576V463.839C300.454 473.04 307.937 480.523 317.135 480.523C326.336 480.523 333.818 473.04 333.818 463.839V353.077C333.818 326.83 355.72 306.701 380.151 307.385L380.894 307.393C405.748 307.742 425.937 328.22 425.937 353.04V374.976C425.937 384.172 433.42 391.656 442.621 391.656C451.822 391.656 459.305 384.173 459.305 374.976V349.185C459.305 324.128 477.409 303.156 502.353 299.313C501.585 299.432 502.455 299.298 503.222 299.179C533.657 294.472 561.073 318.22 561.073 349.055V439.71C561.073 448.907 568.555 456.391 577.756 456.391C586.958 456.391 594.44 448.908 594.44 439.71V314.407C594.44 292.849 606.325 272.525 625.458 261.37C641.504 252.013 660.63 236.997 660.63 218.618C660.63 172.258 556.812 147.737 511.161 139.823C505.384 141.728 498.96 143.107 492.254 143.384C493.658 173.237 482.522 199.867 462.964 219.425C434.786 247.613 362.628 250.192 322.852 249.389C305.111 249.015 290.916 234.823 290.537 217.079C290.08 195.317 290.716 164.396 295.778 136.116C245.55 142.9 122.568 167.884 122.568 218.618ZM349.174 382.201V446.606C363.077 447.408 377.228 447.854 391.597 447.854C447.422 447.854 500.182 441.512 545.716 430.718V367.145C523.444 372.206 499.505 376.153 474.262 378.903C472.3 394.701 458.94 407.012 442.619 407.012C427.781 407.012 415.381 396.822 411.755 383.108C393.5 383.592 376.921 383.727 349.174 382.201ZM410.579 367.754V353.038C410.579 336.567 397.18 322.98 380.709 322.748L379.966 322.741C363.419 322.435 349.174 335.803 349.174 353.076V366.829C375.322 368.348 392.238 368.252 410.579 367.754ZM545.716 350.942V349.053C545.716 327.57 526.585 311.052 505.584 314.354C505.581 314.354 504.696 314.489 504.691 314.489C487.292 317.169 474.66 331.762 474.66 349.185V363.193C499.737 360.292 523.596 356.177 545.716 350.942ZM265.642 312.39C249.729 309.611 237.481 321.458 237.481 335.364V350.936C252.605 354.515 268.527 357.588 285.097 360.115V335.574C285.097 324.125 276.916 314.376 265.642 312.39ZM87.584 248.93C87.584 280.346 120.609 309.354 173.4 330.9V314.406C173.4 298.287 164.435 283.051 150.001 274.635C122.009 258.303 107.211 238.935 107.211 218.618C107.211 214.176 107.935 209.806 109.341 205.525C95.3628 219.051 87.584 233.708 87.584 248.93ZM87.584 328.694C87.584 378.68 171.011 422.621 285.097 439.955V375.882C268.556 373.476 252.619 370.569 237.481 367.136V374.976C237.481 392.641 223.106 407.013 205.44 407.013C187.775 407.013 173.4 392.643 173.4 374.976V347.872C140.273 334.937 113.856 319.031 96.345 301.035C90.6965 309.948 87.584 319.207 87.584 328.694ZM87.584 408.456C87.584 473.047 226.803 527.617 391.597 527.617C556.391 527.617 695.61 473.047 695.61 408.456C695.61 398.984 692.447 389.751 686.803 380.854C669.291 398.829 642.894 414.718 609.797 427.64V439.709C609.797 457.375 595.422 471.747 577.756 471.747C562.522 471.747 549.788 461.037 546.557 446.766C500.891 457.235 448.237 463.213 391.597 463.213C377.166 463.213 363.048 462.755 349.174 462.01V463.839C349.174 481.505 334.799 495.88 317.133 495.88C299.467 495.88 285.095 481.505 285.095 463.839V455.813C198.924 443.363 130.566 416.072 96.3042 380.823C90.6495 389.725 87.584 398.976 87.584 408.456ZM87.584 488.216C87.584 552.811 226.803 607.38 391.597 607.38C556.391 607.38 695.61 552.81 695.61 488.216C695.61 478.759 692.457 469.543 686.836 460.656C639.343 509.441 526.493 542.974 391.597 542.974C256.643 542.974 143.757 509.412 96.2995 460.595C90.6573 469.496 87.584 478.742 87.584 488.216ZM15.3555 535.296C15.3555 613.373 187.654 679.336 391.597 679.336C595.54 679.336 767.838 613.373 767.838 535.296C767.838 505.772 743.066 478.023 701.376 454.881C707.621 465.506 710.967 476.664 710.967 488.217C710.967 563.651 570.683 622.739 391.598 622.739C212.514 622.739 72.2286 563.651 72.2286 488.216C72.2286 476.634 75.6136 465.453 81.8651 454.798C40.1235 477.956 15.3555 505.745 15.3555 535.296ZM420.203 121.323L429.189 112.336C432.189 109.337 432.189 104.478 429.189 101.478C426.189 98.4782 421.33 98.4782 418.331 101.478L409.344 110.464C406.345 113.464 406.345 118.323 409.344 121.323C412.345 124.321 417.204 124.322 420.203 121.323ZM334.306 188.803L343.289 179.817C346.289 176.817 346.289 171.955 343.289 168.959C340.289 165.959 335.422 165.959 332.431 168.959L323.447 177.945C320.448 180.945 320.448 185.807 323.447 188.803C326.444 191.8 331.309 191.808 334.306 188.803ZM429.296 176.214C432.295 179.214 437.154 179.214 440.154 176.214L449.14 167.231C452.14 164.236 452.14 159.372 449.14 156.373C446.141 153.373 441.282 153.373 438.282 156.373L429.296 165.356C426.296 168.352 426.296 173.215 429.296 176.214ZM376.821 193.941L367.834 202.928C364.835 205.927 364.835 210.786 367.834 213.786C370.834 216.786 375.693 216.786 378.693 213.786L387.679 204.8C390.679 201.8 390.679 196.941 387.679 193.941C384.68 190.942 379.821 190.942 376.821 193.941ZM357.847 121.052L366.83 112.068C369.83 109.069 369.83 104.21 366.83 101.21C363.831 98.2103 358.972 98.2103 355.972 101.21L346.989 110.193C343.989 113.193 343.989 118.052 346.989 121.052C349.988 124.051 354.847 124.051 357.847 121.052ZM387.679 162.89L396.663 153.904C399.662 150.904 399.662 146.042 396.663 143.046C393.663 140.046 388.796 140.046 385.804 143.046L376.821 152.032C373.821 155.032 373.821 159.894 376.821 162.89C379.817 165.885 384.683 165.893 387.679 162.89Z" fill="url(#paint0_linear_133_693)"/>
<defs>
<linearGradient id="paint0_linear_133_693" x1="126.982" y1="694.598" x2="656.02" y2="165.56" gradientUnits="userSpaceOnUse">
<stop stop-color="#696EFF"/>
<stop offset="1" stop-color="#F8ACFF"/>
</linearGradient>
</defs>
</svg>
