<svg width="632" height="1136" viewBox="0 0 632 1136" fill="none" xmlns="http://www.w3.org/2000/svg">
<path d="M171.805 1090.43L-158.833 970.091C-187.027 959.829 -202.538 929.079 -194.87 898.558L-37.0917 252.756C-35.7146 247.057 -31.9808 242.304 -26.8253 239.509C-21.6978 236.791 -15.6877 236.315 -10.1873 238.317L528.31 434.314C533.811 436.316 538.109 440.544 540.29 445.922C542.456 451.338 542.247 457.418 539.639 462.669L245.348 1058.92C231.646 1087.11 199.999 1100.69 171.805 1090.43ZM-2.75638 284.681L-155.111 908.401C-157.689 918.596 -153.225 928.472 -144.801 931.538L185.837 1051.88C194.26 1054.95 204.028 1050.25 208.603 1040.91L492.815 465.055L-2.75638 284.681Z" fill="url(#paint0_linear_163_717)"/>
<path d="M493.338 465.245C491.377 464.531 489.45 463.481 487.752 462.164C478.828 455.205 477.285 442.331 484.245 433.382C487.201 429.568 489.521 425.348 491.177 420.799C499.077 399.094 483.823 374.462 465.476 367.784C454.86 363.92 449.387 352.149 453.26 341.508C457.203 330.675 449.929 318.466 441.044 315.232C430.428 311.368 424.955 299.596 428.828 288.956C432.546 278.739 429.164 267.685 421.452 263.743C420.367 263.61 419.245 263.464 418.654 263.292C408.082 260.623 401.481 250.275 403.542 239.586C406.912 221.951 404.325 219.962 395.818 213.416C391.228 209.869 388.348 204.498 387.889 198.699C387.468 192.913 389.506 187.194 393.523 182.98C394.962 181.539 395.789 180.224 396.28 178.875C399.227 170.779 390.46 164.707 385.738 167.747C380.767 170.871 374.669 171.708 369.095 170.028C362.93 168.177 358.803 164.318 356.335 159.01C354.88 155.948 352.169 151.905 347.246 150.113C338.053 146.767 327.395 152.712 323.537 163.314C319.664 173.954 307.905 179.454 297.289 175.59C292.827 173.966 288.285 175.194 285.23 176.527C276.131 180.463 265.479 177.416 260.038 169.148C247.045 149.793 217.066 150.059 201.665 169.994C195.763 177.713 185.797 180.679 176.501 175.941C175.938 175.693 175.085 175.164 174.232 174.635C172.27 174.401 169.908 175.026 167.629 176.38C163.835 178.666 161.239 182.568 160.615 186.794C160.457 187.828 159.887 191.07 159.56 192.086C157.521 198.766 152.234 203.958 145.523 205.881C138.748 207.738 131.593 206.094 126.347 201.478C118.561 197.858 112.949 198.915 112.122 200.23C108.342 206.189 101.713 209.801 94.629 209.755C78.6886 209.629 60.719 223.216 54.5871 240.063C52.6762 247.707 45.5932 257.353 37.8575 258.86C30.692 260.356 22.4111 264.677 20.0537 271.154C16.1809 281.794 4.42179 287.294 -6.19429 283.43C-16.8104 279.566 -22.2832 267.795 -18.4103 257.154C-11.9275 239.343 2.91928 228.112 17.5751 222.313C29.4557 193.98 56.4367 173.107 85.205 169.345C96.1884 159.633 112.102 155.646 128.413 158.701C132.933 151.789 139.152 145.713 146.583 141.214C156.845 135.039 168.339 132.542 179.336 133.925C208.974 106.947 256.586 106.943 284.245 134.474C287.198 134.02 290.22 133.854 293.148 133.829C308.737 112.302 336.238 102.447 361.278 111.561C369.509 114.557 376.794 119.435 382.769 125.757C390.627 124.513 398.627 125.154 406.166 127.898C431.59 137.152 444.412 166.312 434.744 192.875L434.379 193.877C442.638 204.218 446.211 215.822 445.734 230.537C463.178 242.212 472.842 263.412 471.07 285.514C486.778 297.649 495.905 317.212 495.258 337.06C526.755 357.518 542.579 399.253 529.641 434.799C526.512 443.396 522.079 451.387 516.464 458.556C510.874 465.777 501.454 468.199 493.338 465.245Z" fill="url(#paint1_linear_163_717)"/>
<path d="M160.838 606.184C150.222 602.32 144.749 590.548 148.622 579.908L204.75 425.697C208.623 415.057 220.382 409.557 230.998 413.421C241.614 417.285 247.087 429.057 243.214 439.697L187.086 593.907C183.213 604.548 171.454 610.048 160.838 606.184Z" fill="url(#paint2_linear_163_717)"/>
<path d="M3.36629 609.6C-6.55744 605.988 -12.2272 595.236 -9.26756 584.83L50.4163 371.184C53.4289 360.274 64.7727 353.88 75.6309 356.959C86.0739 359.145 92.8965 371.277 89.793 382.197L30.1091 595.844C27.058 606.74 15.7527 613.147 4.89447 610.069C4.36637 609.964 3.90479 609.796 3.36629 609.6Z" fill="url(#paint3_linear_163_717)"/>
<path d="M-80.9234 911.128C-90.8856 907.502 -96.5168 896.764 -93.5572 886.359L-36.1522 681.008C-33.1011 670.112 -21.7958 663.704 -10.9376 666.783C-0.798739 668.727 6.32799 681.101 3.22445 692.021L-54.1806 897.373C-57.2317 908.269 -68.537 914.676 -79.3952 911.597C-79.9233 911.492 -80.3849 911.324 -80.9234 911.128Z" fill="url(#paint4_linear_163_717)"/>
<path d="M279.263 710.018C278.725 709.822 278.263 709.654 277.791 709.395C267.508 704.735 262.952 692.599 267.619 682.291L359.228 480.264C363.908 469.918 377.332 465.111 386.299 470.034C396.582 474.693 401.138 486.83 396.471 497.138L304.862 699.165C300.417 708.985 289.187 713.63 279.263 710.018Z" fill="url(#paint5_linear_163_717)"/>
<path d="M149.954 995.161C149.415 994.965 148.954 994.797 148.482 994.537C138.199 989.878 133.643 977.741 138.309 967.433L226.332 773.226C231.012 762.879 244.492 757.918 253.403 762.995C263.686 767.655 268.242 779.792 263.576 790.1L175.553 984.307C171.132 994.18 159.877 998.772 149.954 995.161Z" fill="url(#paint6_linear_163_717)"/>
<path d="M90.6781 798.947C-6.36752 763.625 -63.9308 685.174 -40.315 620.29C-16.6991 555.406 77.8244 532.31 174.87 567.631C271.915 602.953 329.478 681.404 305.862 746.288C282.246 811.172 187.723 834.268 90.6781 798.947ZM160.838 606.184C87.8717 579.626 13.3597 592.499 -1.85093 634.29C-17.0616 676.081 31.7437 733.837 104.71 760.394C177.676 786.952 252.188 774.079 267.398 732.288C282.609 690.497 233.804 632.742 160.838 606.184Z" fill="url(#paint7_linear_163_717)"/>
<path d="M34.5499 953.157C23.9338 949.293 18.461 937.521 22.3338 926.881L78.4618 772.671C82.3346 762.03 94.0937 756.53 104.71 760.394C115.326 764.258 120.799 776.03 116.926 786.67L60.7979 940.881C56.9251 951.521 45.1659 957.021 34.5499 953.157Z" fill="url(#paint8_linear_163_717)"/>
<defs>
<linearGradient id="paint0_linear_163_717" x1="343.246" y1="104.997" x2="6.47832" y2="1030.26" gradientUnits="userSpaceOnUse">
<stop stop-color="#FD7800"/>
<stop offset="1" stop-color="#FFC900"/>
</linearGradient>
<linearGradient id="paint1_linear_163_717" x1="343.246" y1="104.998" x2="6.47835" y2="1030.26" gradientUnits="userSpaceOnUse">
<stop stop-color="#FD7800"/>
<stop offset="1" stop-color="#FFC900"/>
</linearGradient>
<linearGradient id="paint2_linear_163_717" x1="343.246" y1="104.997" x2="6.47824" y2="1030.26" gradientUnits="userSpaceOnUse">
<stop stop-color="#FD7800"/>
<stop offset="1" stop-color="#FFC900"/>
</linearGradient>
<linearGradient id="paint3_linear_163_717" x1="343.246" y1="104.998" x2="6.47849" y2="1030.26" gradientUnits="userSpaceOnUse">
<stop stop-color="#FD7800"/>
<stop offset="1" stop-color="#FFC900"/>
</linearGradient>
<linearGradient id="paint4_linear_163_717" x1="343.246" y1="104.997" x2="6.47821" y2="1030.26" gradientUnits="userSpaceOnUse">
<stop stop-color="#FD7800"/>
<stop offset="1" stop-color="#FFC900"/>
</linearGradient>
<linearGradient id="paint5_linear_163_717" x1="343.246" y1="104.998" x2="6.47828" y2="1030.26" gradientUnits="userSpaceOnUse">
<stop stop-color="#FD7800"/>
<stop offset="1" stop-color="#FFC900"/>
</linearGradient>
<linearGradient id="paint6_linear_163_717" x1="343.246" y1="104.997" x2="6.47837" y2="1030.26" gradientUnits="userSpaceOnUse">
<stop stop-color="#FD7800"/>
<stop offset="1" stop-color="#FFC900"/>
</linearGradient>
<linearGradient id="paint7_linear_163_717" x1="343.246" y1="104.998" x2="6.47841" y2="1030.26" gradientUnits="userSpaceOnUse">
<stop stop-color="#FD7800"/>
<stop offset="1" stop-color="#FFC900"/>
</linearGradient>
<linearGradient id="paint8_linear_163_717" x1="343.246" y1="104.998" x2="6.4782" y2="1030.26" gradientUnits="userSpaceOnUse">
<stop stop-color="#FD7800"/>
<stop offset="1" stop-color="#FFC900"/>
</linearGradient>
</defs>
</svg>
