<svg id="Layer_1" enable-background="new 0 0 512 512" viewBox="0 0 512 512" xmlns="http://www.w3.org/2000/svg" xmlns:xlink="http://www.w3.org/1999/xlink"><linearGradient id="SVGID_1_" gradientUnits="userSpaceOnUse" x1="256" x2="256" y1=".5" y2="511.5"><stop offset="0" stop-color="#17a6d7"/><stop offset=".0617" stop-color="#259adb"/><stop offset=".1856" stop-color="#3b87e2"/><stop offset=".2649" stop-color="#4380e4"/><stop offset="1" stop-color="#9735fd"/></linearGradient><path d="m452.365 33.063h-80.175v-28.801c0-2.034 1.718-3.762 3.741-3.762h72.704c2.023 0 3.73 1.728 3.73 3.762zm43.797 231.062c-.294-17.715-6.681-39.381-15.006-62.85h-108.84v112.053h115.415c.949-3.52 1.865-6.934 2.729-10.211 3.7-14.248 5.965-23.764 5.702-38.992zm-24.164 133.941c0-22.204 5.88-47.623 11.771-69.985h-111.579c-.517 10.054-2.688 19.095-6.839 28.727-6.407 14.817-6.407 32.49-.01 47.296 4.826 11.149 6.976 21.519 6.976 33.638v46.6c0 10.054-3.488 19.18-9.843 26.261 2.55.59 5.101.896 7.535.896 7.714 0 15.354-2.245 22.7-6.66 12.635-7.609 26.546-7.609 39.181.01 9.548 5.744 19.896 7.82 29.939 5.986 7.819-1.444 19.074-8.283 23.332-16.145 4.257-7.904 4.974-16.292 2.118-24.902-6.808-20.601-15.281-46.219-15.281-71.722zm-164.713-395.026c0-1.37-1.169-2.54-2.54-2.54h-64.768c-1.359 0-2.508 1.17-2.508 2.54v24.849h69.816zm-5.564 77.698c-1.138-1.338-1.76-3.024-1.76-4.784v-33.301h-55.2v33.301c0 1.76-.622 3.446-1.76 4.784l-2.582 3.035c-20.613 24.206-38.455 45.167-53.229 76.455v10.37h170.361v-10.37c-14.795-31.277-32.637-52.238-53.239-76.445zm-262.308 112.802h136.376c2.592 0 4.71-1.844 4.71-4.099 0-2.213-2.16-4.089-4.71-4.089h-136.376c-2.55 0-4.71 1.876-4.71 4.089 0 2.223 2.159 4.099 4.71 4.099zm160.002 59.109-27.726-44.356h-128.177l-27.695 44.356v31.193h183.598zm-151.983 102.2c-5.68-19.833-11.097-38.76-7.398-56.253h-24.217v122.771h38.001c6.513-21.478-.042-44.356-6.386-66.518zm151.983 116.616v-35.335h-183.598v35.335c0 8.273 7.261 14.996 16.187 14.996h151.182c8.947 0 16.229-6.723 16.229-14.996zm-4.626-286.114h162.764v119.662h-143.384v-54.483c0-1.381-.39-2.74-1.117-3.91l-25.861-41.373-.243-.379c.084-.042.169-.105.243-.158 4.89-3.425 8.072-8.999 8.072-15.27 0-1.401-.158-2.771-.474-4.089zm48.718 59.837c0 9.6 13.215 17.715 28.854 17.715s28.854-8.115 28.854-17.715-13.215-17.715-28.854-17.715-28.854 8.115-28.854 17.715zm-44.092 176.178v-122.77h-144.153c-4.373 14.691.843 32.953 6.355 52.185 6.27 21.888 13.268 46.347 7.472 70.585zm14.754 50.099c0 12.899-8.579 23.901-20.55 28.021 2.213 2.392 4.953 4.373 8.083 5.807 9.126 4.194 19.095 2.803 26.683-3.72 3.266-2.803 6.048-6.091 8.262-9.769 1.506-2.508 4.352-3.889 7.25-3.52s5.312 2.413 6.144 5.216c3.72 12.53 13.373 17.019 21.161 17.051h.063c7.757 0 17.368-4.426 21.161-16.861.854-2.782 3.246-4.805 6.133-5.164 2.877-.369 5.712.991 7.218 3.467 3.678 6.017 8.821 10.939 14.891 14.248 8.03 4.374 16.788 4.215 24.669-.464 7.873-4.689 12.214-12.298 12.214-21.435v-46.6c0-10.001-1.771-18.579-5.754-27.779-7.988-18.473-7.988-40.53 0-59.003 3.983-9.232 5.754-17.799 5.754-27.779v-3.404h-143.382zm-166.03 39.076h118.924l4.437-9.316h-127.809zm324.177-351.957v27.926h103.475c-1.527-4.11-3.087-8.262-4.646-12.435-2.761-7.387-5.596-14.933-8.389-22.626-4.721.875-9.042 1.275-12.983 1.275-23.353 0-33.849-13.879-41.932-24.586-9.147-12.119-14.364-19-35.177-8.462v.01c-2.445 7.798-5.027 15.386-7.598 22.699 2.255 4.184 4.437 8.536 6.555 13.089.453.971.695 2.035.695 3.11zm14.975-110.767c-1.127 18.21-4.71 36.41-9.389 53.893 23.226-6.934 33.333 6.439 41.71 17.536 8.652 11.434 16.239 21.477 38.148 18.105-10.022-29.001-18.61-59.499-20.497-89.533h-49.972z" fill="url(#SVGID_1_)"/></svg>