<svg height="512" viewBox="0 0 128 128" width="512" xmlns="http://www.w3.org/2000/svg" xmlns:xlink="http://www.w3.org/1999/xlink"><linearGradient id="a" gradientUnits="userSpaceOnUse" x1="97.714" x2="30.31" y1="92.789" y2="25.384"><stop offset="0" stop-color="#FF00F5"/><stop offset="1" stop-color="#FF80F5"/></linearGradient><path d="m95.327 40.529a30.734 30.734 0 0 0 .29-4.151 1.75 1.75 0 0 0 -3.5 0 28.021 28.021 0 0 1 -.4 4.607 1.752 1.752 0 0 0 .723 1.715 6.406 6.406 0 0 1 -3.668 11.661 6.306 6.306 0 0 1 -4.432-1.788 1.751 1.751 0 0 0 -2.754.407 6.914 6.914 0 0 1 -9.765 2.523 1.75 1.75 0 0 0 -2 .091 9.528 9.528 0 0 1 -11.642 0 1.752 1.752 0 0 0 -2-.091 6.914 6.914 0 0 1 -9.765-2.523 1.751 1.751 0 0 0 -2.754-.407 6.308 6.308 0 0 1 -4.433 1.788 6.406 6.406 0 0 1 -3.667-11.661 1.752 1.752 0 0 0 .721-1.719 28.516 28.516 0 0 1 -.39-4.019 1.75 1.75 0 0 0 -3.5.083 31.227 31.227 0 0 0 .282 3.48 9.9 9.9 0 0 0 5.49 17.276l18.424 59.97a7.757 7.757 0 0 0 14.826 0l16.187-52.685a1.747 1.747 0 0 0 -3.313-1.107l-6.272-4.214a10.443 10.443 0 0 0 5.485-3.414 9.909 9.909 0 0 0 11.827-15.822zm-24.506 18.619.806.542-7.627 5.124-7.627-5.124.806-.542a12.99 12.99 0 0 0 13.642 0zm2.415 40.774-6.1-4.094 7.623-5.118 1.081.726zm-3.681 11.978-2.416-1.623 3.673-2.466zm-12.367-4.09 3.673 2.467-2.417 1.623zm-5.031-16.374 1.081-.726 7.623 5.118-6.1 4.094zm-6.157-20.047 4.1 2.758-2.7 1.815zm7.234-9.589 7.628 5.124-7.62 5.117-7.626-5.122zm-4.758 17.657 4.767-3.2 7.619 5.118-7.624 5.121-3.275-2.2zm15.524 4.024 7.623 5.12-7.623 5.119-7.623-5.12zm-7.621 19.572 7.621-5.118 7.621 5.118-7.621 5.117zm24.221-27.091-2.7-1.815 4.1-2.757zm-1.074 3.494-1.489 4.844-3.275 2.2-7.624-5.121 7.619-5.118zm-15.526-.191-7.619-5.118 7.619-5.117 7.619 5.117zm-19.5-22.914a10.443 10.443 0 0 0 5.486 3.414l-6.266 4.209-1.98-6.443a9.732 9.732 0 0 0 2.76-1.18zm19.5 63.4a4.14 4.14 0 0 1 -4.067-3l-.415-1.35 4.482-3.015 4.482 3.01-.415 1.349a4.14 4.14 0 0 1 -4.067 3.003zm10.757-47.712-7.619-5.117 7.628-5.122 7.618 5.119zm-41.115-44.527a31.773 31.773 0 0 1 30.358-22.762 31.4 31.4 0 0 1 25.184 12.5 1.751 1.751 0 0 1 -2.784 2.118 27.917 27.917 0 0 0 -22.4-11.118 28.254 28.254 0 0 0 -27 20.241 1.75 1.75 0 1 1 -3.361-.979zm56.386-1.8a1.75 1.75 0 1 1 3.239-1.326 31.431 31.431 0 0 1 1.552 4.9 1.75 1.75 0 1 1 -3.412.779 28.063 28.063 0 0 0 -1.379-4.349zm-43.418-5.765a1.75 1.75 0 0 1 .249 2.463 22.2 22.2 0 0 0 -2.91 4.633 1.75 1.75 0 1 1 -3.172-1.48 25.735 25.735 0 0 1 3.371-5.363 1.748 1.748 0 0 1 2.462-.253z" fill="url(#a)"/></svg>