<svg clip-rule="evenodd" fill-rule="evenodd" height="512" stroke-linejoin="round" stroke-miterlimit="2" viewBox="0 0 134 134" width="512" xmlns="http://www.w3.org/2000/svg" xmlns:xlink="http://www.w3.org/1999/xlink"><linearGradient id="_Linear1" gradientTransform="matrix(51.857 -58.95 85.138 74.894 43.976 88.116)" gradientUnits="userSpaceOnUse" x1="0" x2="1" y1="0" y2="0"><stop offset="0" stop-color="#8700ff"/><stop offset="1" stop-color="#8aeaff"/></linearGradient><g id="layer1" fill="url(#_Linear1)" fill-rule="nonzero"><path id="path1374" d="m66.652 12.488c-20.661 0-37.494 16.863-37.494 37.524 0 5.86 2.343 12.499 5.568 19.839 3.224 7.34 7.442 15.218 11.657 22.484 8.43 14.533 16.855 26.698 16.855 26.698.777 1.126 2.061 1.8 3.43 1.8 1.368 0 2.652-.674 3.429-1.8 0 0 8.425-12.165 16.856-26.698 4.215-7.266 8.432-15.144 11.657-22.484s5.567-13.979 5.567-19.839c0-20.661-16.863-37.524-37.525-37.524zm0 8.335c16.158 0 29.19 13.032 29.19 29.189 0 3.345-1.835 9.601-4.86 16.487-3.025 6.885-7.139 14.554-11.258 21.653-6.519 11.239-10.602 17.089-13.041 20.7-2.435-3.605-6.548-9.454-13.072-20.7-4.118-7.099-8.232-14.768-11.257-21.653-3.026-6.886-4.86-13.142-4.86-16.487 0-16.157 13.001-29.189 29.158-29.189z"/><path id="path1368" d="m66.652 31.25c-7.429 0-13.533 6.104-13.533 13.533 0 7.43 6.104 13.565 13.533 13.565 7.43 0 13.565-6.135 13.565-13.565 0-7.429-6.135-13.533-13.565-13.533zm0 8.335c2.926 0 5.229 2.273 5.229 5.198 0 2.926-2.303 5.229-5.229 5.229s-5.198-2.303-5.198-5.229c0-2.925 2.272-5.198 5.198-5.198z"/></g></svg>