<svg viewBox="0 0 24 24" xmlns="http://www.w3.org/2000/svg" xmlns:xlink="http://www.w3.org/1999/xlink"><linearGradient id="New_Gradient_Swatch_copy_4" gradientUnits="userSpaceOnUse" x1="4.16" x2="19.84" y1="19.84" y2="4.16"><stop offset="0" stop-color="#339"/><stop offset=".1" stop-color="#3c319b"/><stop offset=".26" stop-color="#542ba1"/><stop offset=".47" stop-color="#7c21ab"/><stop offset=".7" stop-color="#b313b9"/><stop offset=".97" stop-color="#f902ca"/><stop offset=".99" stop-color="#f0c"/></linearGradient><g id="Layer_2" data-name="Layer 2"><path d="m19.5 4.75h-15a2.25 2.25 0 0 0 -2.25 2.25v10a2.25 2.25 0 0 0 2.25 2.25h15a2.25 2.25 0 0 0 2.25-2.25v-10a2.25 2.25 0 0 0 -2.25-2.25zm-.42 1.5-6.63 5a.78.78 0 0 1 -.9 0l-6.63-5zm.42 11.5h-15a.76.76 0 0 1 -.75-.75v-9.75l6.9 5.18a2.29 2.29 0 0 0 2.7 0l6.9-5.18v9.75a.76.76 0 0 1 -.75.75z" fill="url(#New_Gradient_Swatch_copy_4)"/></g></svg>