<svg viewBox="0 0 24 24" xmlns="http://www.w3.org/2000/svg" xmlns:xlink="http://www.w3.org/1999/xlink"><linearGradient id="New_Gradient_Swatch_copy_4" gradientUnits="userSpaceOnUse" x1="6.02" x2="18.33" y1="17.12" y2="4.8"><stop offset="0" stop-color="#339"/><stop offset=".1" stop-color="#3c319b"/><stop offset=".26" stop-color="#542ba1"/><stop offset=".47" stop-color="#7c21ab"/><stop offset=".7" stop-color="#b313b9"/><stop offset=".97" stop-color="#f902ca"/><stop offset=".99" stop-color="#f0c"/></linearGradient><g id="Icon"><path d="m16 14.77a2.12 2.12 0 0 0 -1.37-.84 2.06 2.06 0 0 0 -1.56.38l-1.34 1a14.27 14.27 0 0 1 -3.33-4.64l1.34-1a2.12 2.12 0 0 0 .46-2.94l-1.59-2.15a2 2 0 0 0 -1.37-.84 2.07 2.07 0 0 0 -1.56.37l-1.93 1.4a3.44 3.44 0 0 0 -1.37 3.36 17.62 17.62 0 0 0 9.22 12.69 3.45 3.45 0 0 0 3.62-.27l1.92-1.4a2.1 2.1 0 0 0 .47-2.89zm.24 3.9-1.93 1.4a1.93 1.93 0 0 1 -2 .16 16.08 16.08 0 0 1 -8.45-11.61 1.93 1.93 0 0 1 .78-1.89l1.92-1.4a.6.6 0 0 1 .84.13l1.6 2.18a.61.61 0 0 1 -.13.84l-1.87 1.32a.75.75 0 0 0 -.26.89 15.55 15.55 0 0 0 4.45 6.12.75.75 0 0 0 .92 0l1.89-1.29a.6.6 0 0 1 .84.13l1.58 2.19a.58.58 0 0 1 -.16.83zm-4-10.4a.74.74 0 0 1 .86-.62 3.57 3.57 0 0 1 3 4.09.76.76 0 0 1 -.74.64h-.12a.75.75 0 0 1 -.62-.86 2.09 2.09 0 0 0 -1.73-2.38.74.74 0 0 1 -.65-.87zm6.63 3.81a.75.75 0 0 1 -.75.74.76.76 0 0 1 -.74-.76 5.94 5.94 0 0 0 -4.18-5.75.75.75 0 0 1 .44-1.43 7.44 7.44 0 0 1 5.23 7.2zm2.8.4a.76.76 0 0 1 -.72.78.75.75 0 0 1 -.75-.72 10 10 0 0 0 -6.57-9 .77.77 0 0 1 -.44-1 .76.76 0 0 1 1-.44 11.54 11.54 0 0 1 7.48 10.38z" fill="url(#New_Gradient_Swatch_copy_4)"/></g></svg>