<svg id="Layer_1" enable-background="new 0 0 491.5 491.5" height="512" viewBox="0 0 491.5 491.5" width="512" xmlns="http://www.w3.org/2000/svg" xmlns:xlink="http://www.w3.org/1999/xlink"><linearGradient id="Layer_x0020_1_1_" gradientUnits="userSpaceOnUse" x1="245.667" x2="245.667" y1="25.9" y2="465.6"><stop offset="0" stop-color="#00E0FF"/><stop offset="1" stop-color="#007BFF"/></linearGradient><path id="Layer_x0020_1" d="m364.6 35.7c-19.5 0-39.5 7.2-55.5 21.7l-179.7 161.6c-10.5 9.5-16.5 22.8-16.9 37.6-.4 16 5.8 31.7 17.1 43l71 71c11.3 11.3 27 17.5 43 17.1 14.8-.4 28.2-6.4 37.6-16.9l161.7-179.6c.4-.4.8-.9 1.2-1.3-7.6-3.6-13.5-10.1-16.4-18.3-3-8.6-2.2-17.7 2.1-25.5-6.7-3.8-11.2-10.5-12.2-18.6-1-8 1.7-15.4 7.1-20.7-5.2-5.3-8-12.7-7.5-20.4s4.2-14.7 10.1-19.3l-10-10c-14.3-14.3-33.3-21.4-52.7-21.4zm-122.5 361.6c-18 0-35.5-7.2-48.3-19.9l-71-71c-13.1-13.2-20.4-31.4-19.9-50 .5-17.5 7.6-33.3 20.1-44.5l179.6-161.7c17.1-15.4 38.9-24.1 61.2-24.3h.9c22.5 0 43.6 8.7 59.4 24.5l14.3 14.3c1.1 1.1 1.6 2.7 1.3 4.3s-1.3 2.9-2.8 3.5c-5.9 2.6-9.7 8-10.2 14.5-.4 6.5 2.6 12.4 8.2 15.7 1.5.9 2.4 2.5 2.3 4.2 0 1.7-1 3.3-2.5 4.1-6.6 3.7-8.3 10.3-7.7 15.2.6 5 3.9 11 11.2 12.9 1.6.4 2.8 1.6 3.3 3.2s.2 3.3-.9 4.5c-5 6-6.5 14-4 21.4 2.6 7.4 8.7 12.8 16.3 14.4 1.6.3 2.9 1.5 3.5 3s.3 3.3-.6 4.6c-1.8 2.5-3.8 4.9-5.9 7.2l-161.5 179.8c-11.3 12.5-27.1 19.6-44.5 20.1-.6 0-1.2 0-1.8 0zm-174.8 68.3c-2.6 0-5.2-.3-7.7-.8-12.5-2.7-21.5-11.7-24.2-24.2-4.1-19.4 8-41.7 32.5-59.7 6.6-4.8 12.7-9.2 18.6-13.4 19.8-14.1 36.9-26.3 58-46.4 1.9-1.8 5-1.8 6.8.2 1.8 1.9 1.8 4.9-.2 6.8-21.6 20.5-38.9 32.9-59.1 47.3-5.9 4.2-12 8.6-18.5 13.3-21.3 15.6-32.1 34.3-28.7 49.9 1.9 8.7 8.1 15 16.8 16.8 15.6 3.3 34.3-7.4 49.9-28.7 4.8-6.5 9.1-12.6 13.3-18.5 14.3-20.1 26.7-37.5 47.3-59.1 1.8-1.9 4.9-2 6.8-.2s2 4.9.2 6.8c-20.1 21.1-32.3 38.2-46.4 58-4.2 5.9-8.6 12-13.4 18.6-15.6 21.4-34.6 33.3-52 33.3zm235.9-202.9c-7.9 0-15.9-3.1-22-9.2-5.8-5.8-9-13.4-9.2-21.6-.1-8.2 2.9-15.8 8.6-21.5l52.6-52.6c3.8-3.8 5.9-9 5.8-14.5-.1-5.6-2.3-10.9-6.4-14.9-4-4-9.3-6.3-14.9-6.4s-10.7 2-14.5 5.8l-52.6 52.6c-5.7 5.7-13.3 8.7-21.5 8.6-8.1-.1-15.8-3.4-21.6-9.2s-9.1-13.5-9.3-21.7c-.2-8.3 2.8-16 8.5-21.7 1.9-1.9 4.9-1.9 6.8 0s1.9 4.9 0 6.8c-3.8 3.8-5.8 9-5.6 14.6.2 5.7 2.5 11.1 6.5 15.1s9.3 6.3 14.9 6.3c5.6.1 10.7-2 14.6-5.8l52.5-52.6c5.7-5.7 13.3-8.7 21.5-8.6 8.1.1 15.8 3.4 21.6 9.2s9 13.4 9.2 21.6c.1 8.2-2.9 15.8-8.6 21.5l-52.5 52.5c-3.8 3.8-5.9 9-5.8 14.5.1 5.6 2.3 10.9 6.4 14.9 8.3 8.3 21.5 8.5 29.5.5l52.5-52.6c5.7-5.7 13.3-8.7 21.5-8.6 8.1.1 15.8 3.4 21.6 9.2 12 12 12.2 31.2.5 42.9-1.9 1.9-4.9 1.9-6.8 0s-1.9-4.9 0-6.8c8-8 7.8-21.1-.5-29.4-4-4-9.3-6.3-14.9-6.4-5.5-.1-10.7 2-14.5 5.8l-52.6 52.5c-6.1 6.4-13.7 9.2-21.3 9.2zm148.9-70.4c-.3 0-.7 0-1-.1-11-2.3-19.7-10-23.4-20.7-3-8.6-2.2-17.7 2.1-25.5-6.7-3.8-11.2-10.5-12.2-18.6-1-8 1.7-15.4 7.1-20.7-5.2-5.3-8-12.7-7.5-20.4.7-10 6.7-18.7 15.9-22.7 2.4-1.1 5.3.1 6.3 2.5 1.1 2.4 0 5.3-2.5 6.3-5.9 2.6-9.7 8-10.2 14.5-.4 6.5 2.6 12.4 8.2 15.7 1.5.9 2.4 2.5 2.3 4.2 0 1.7-1 3.3-2.5 4.1-6.6 3.7-8.3 10.3-7.7 15.2.6 5 3.9 11 11.2 12.9 1.6.4 2.8 1.6 3.3 3.2s.2 3.3-.9 4.5c-5 6-6.5 14-4 21.4 2.6 7.4 8.7 12.8 16.3 14.4 2.6.6 4.3 3.1 3.7 5.7-.3 2.6-2.3 4.1-4.5 4.1z" fill="url(#Layer_x0020_1_1_)"/></svg>