<?xml version="1.0" encoding="UTF-8"?>
<svg xmlns="http://www.w3.org/2000/svg" xmlns:xlink="http://www.w3.org/1999/xlink" viewBox="0 0 512 512" width="512" height="512"><defs><linearGradient id="linear-gradient" x1="123.598" y1="470.912" x2="494.624" y2="99.885" gradientUnits="userSpaceOnUse"><stop offset="0" stop-color="#41dfd0"/><stop offset="1" stop-color="#ee83ef"/></linearGradient></defs><g id="gradient"><path d="M488,152H468.95l25.4-44a8,8,0,0,0-2.928-10.929l-27.713-16A8,8,0,0,0,452.785,84l-9.265,16.047.892-4.939a8,8,0,0,0-6.452-9.3l-31.49-5.686a8.011,8.011,0,0,0-5.983,1.3c-.169.117-.329.246-.487.375V64a8,8,0,0,0-8-8H360a8,8,0,0,0-8,8v54.353L341.957,77.872a8,8,0,0,0-9.691-5.838l-31.058,7.7a8,8,0,0,0-5.839,9.692l3.872,15.606-28.5,12.209a8,8,0,0,0-4.2,10.5L276.92,152H264a8,8,0,0,0-7.938,8.992l5.051,40.413a20.6,20.6,0,0,0-12.262,7.726,64.884,64.884,0,0,0-5.867,9.216A63.531,63.531,0,0,0,239.3,268.9a39.885,39.885,0,0,1-15.482,3.1,40.459,40.459,0,0,1-6.111-.47,64.7,64.7,0,0,0,6.948-11.967,63.447,63.447,0,0,0,.74-50.314,64.543,64.543,0,0,0-3.072-6.447,20.9,20.9,0,0,0-37.5,1.853,39.966,39.966,0,0,1-52.189,21.412,20.9,20.9,0,0,0-28,25.009,64.966,64.966,0,0,0,3.88,10.213,63.351,63.351,0,0,0,15.34,20.211,40.017,40.017,0,0,1-41.436-20.409,20.9,20.9,0,0,0-37.5,1.863,64.957,64.957,0,0,0-3.4,10.384A64.115,64.115,0,0,0,53.921,328H40a24,24,0,0,0,0,48H58.234l14.177,42.53A8,8,0,0,0,80,424H456a8,8,0,0,0,7.938-7.008l32-256A8,8,0,0,0,488,152ZM462.641,98.928l13.857,8-43.391,75.155a62.112,62.112,0,0,1-27.6,15.8ZM411.5,97.294l15.745,2.844-7.383,40.885L396.2,182ZM368,72h16v86.644c0,.238.015.473.036.706L376.7,200H368ZM328.354,89.489,352,184.8v14.286q-1.482-.255-2.941-.581l-24.105-56.276L312.825,93.342ZM299.1,122.5l28.615,66.8a62.1,62.1,0,0,1-24.124-31.839A8,8,0,0,0,296,152h-1.674l-9.936-23.2ZM257.155,225.775a48.87,48.87,0,0,1,4.416-6.939,4.734,4.734,0,0,1,4.851-1.751,4.656,4.656,0,0,1,3.7,3.45,55.966,55.966,0,0,0,67.723,40.658,4.649,4.649,0,0,1,4.783,1.645,4.742,4.742,0,0,1,.735,5.111,48.5,48.5,0,0,1-2.5,4.749,47.662,47.662,0,0,1-11.691,13.2c-.991-.292-1.977-.611-2.953-.981a20.607,20.607,0,0,0-21.635,4.41,21.439,21.439,0,0,0-3.052,3.62,40.125,40.125,0,0,1-10.627-8.066c.194,0,.387.012.581.012.741,0,1.485-.019,2.228-.056a8,8,0,0,0-.807-15.981,27.538,27.538,0,0,1-6.48-.434,20.934,20.934,0,0,0-33.306-9.093A47.527,47.527,0,0,1,257.155,225.775Zm131.46,80.786a8,8,0,0,0-11.3-.53,27.907,27.907,0,0,1-23.911,6.745A8,8,0,0,0,348.782,328H328.947a8.044,8.044,0,0,0-.613-.6,47.139,47.139,0,0,1-10.921-13.892,49.01,49.01,0,0,1-3.163-7.6,4.74,4.74,0,0,1,1.34-4.977,4.655,4.655,0,0,1,4.95-1.061,55.966,55.966,0,0,0,72.1-32.257,4.649,4.649,0,0,1,4.085-2.98,4.738,4.738,0,0,1,4.613,2.324,48.584,48.584,0,0,1,2.46,4.771A48.086,48.086,0,0,1,390.976,328H368.943a43.837,43.837,0,0,0,19.142-10.139A8,8,0,0,0,388.615,306.561ZM307.528,328h-41.4c.64-.566,1.277-1.137,1.9-1.731a63.655,63.655,0,0,0,16.379-25.6,56.1,56.1,0,0,0,10.473,6.867c1.2.607,2.444,1.155,3.694,1.676.125.528.266,1.055.434,1.578a64.924,64.924,0,0,0,4.2,10.086A63.426,63.426,0,0,0,307.528,328Zm-83.715-40a55.619,55.619,0,0,0,39.5-16.313,4.647,4.647,0,0,1,4.946-1.052,4.746,4.746,0,0,1,3.262,4,48.791,48.791,0,0,1,.3,5.36,48,48,0,0,1-47.732,48h-.055q-1.22,0-2.446-.051A48.026,48.026,0,0,1,178.664,296.3a63.266,63.266,0,0,0,9.049-2.491,64.575,64.575,0,0,0,17.041-9.158A55.55,55.55,0,0,0,223.813,288Zm-42.3,40H153.75a64.034,64.034,0,0,0,11.4-21.715c.043-.147.076-.3.119-.445A64.054,64.054,0,0,0,181.514,328Zm-58.582-73.629a48.962,48.962,0,0,1-2.923-7.69,4.741,4.741,0,0,1,1.5-4.935,4.9,4.9,0,0,1,3.184-1.278,4.642,4.642,0,0,1,1.8.373,55.968,55.968,0,0,0,73.08-29.983,4.651,4.651,0,0,1,4.176-2.851,4.757,4.757,0,0,1,4.538,2.469h0a48.568,48.568,0,0,1,2.308,4.845,48.058,48.058,0,0,1-12.546,54.141l-.022.019a48.037,48.037,0,0,1-75.087-15.111ZM57.085,277.019a48.866,48.866,0,0,1,2.557-7.819,4.741,4.741,0,0,1,4.264-2.9,4.672,4.672,0,0,1,4.442,2.425,55.972,55.972,0,0,0,73.238,23.832c.1.043.2.091.306.133a64.691,64.691,0,0,0,9.243,3,5.2,5.2,0,0,1-.073.8,48.566,48.566,0,0,1-1.249,5.22A47.993,47.993,0,0,1,130.313,328h-53A48.164,48.164,0,0,1,57.085,277.019ZM40,360a8,8,0,0,1,0-16H424a8,8,0,0,1,0,16Zm338.234,48H85.766L75.1,376H388.9Zm70.7,0H395.1l10.667-32H424a24,24,0,0,0,0-48H412.441a64.171,64.171,0,0,0,5.966-62.8,64.86,64.86,0,0,0-3.272-6.347,20.9,20.9,0,0,0-37.427,3.028,39.715,39.715,0,0,1-20.988,22.152,40.475,40.475,0,0,1-5.567,2.018c1.212-1.644,2.361-3.346,3.426-5.119a65.06,65.06,0,0,0,3.331-6.315A20.9,20.9,0,0,0,334,245.662a39.968,39.968,0,0,1-48.363-29.035,20.511,20.511,0,0,0-7.965-11.726L273.062,168h17.4a78.081,78.081,0,0,0,50.521,44.957l.013,0A78.294,78.294,0,0,0,362.6,216H389.4a78.093,78.093,0,0,0,72.135-48h17.4ZM211.391,301.067a27.91,27.91,0,0,0,24.844,0,8,8,0,0,1,7.156,14.311,43.98,43.98,0,0,1-39.156,0,8,8,0,0,1,7.156-14.311Zm-129.269.965a8,8,0,0,1,11.3-.58,27.9,27.9,0,0,0,23.942,6.639,8,8,0,0,1,3.07,15.7,43.4,43.4,0,0,1-8.321.8A44.013,44.013,0,0,1,82.7,313.331,8,8,0,0,1,82.122,302.032Zm71.086-40.556a8.011,8.011,0,0,1,8.744-7.18,27.9,27.9,0,0,0,23.2-8.886,8,8,0,1,1,11.8,10.807,44.027,44.027,0,0,1-32.345,14.209q-2.106,0-4.221-.206A8,8,0,0,1,153.208,261.476Z" style="fill:url(#linear-gradient)"/></g></svg>
