<svg width="875" height="987" viewBox="0 0 875 987" fill="none" xmlns="http://www.w3.org/2000/svg">
<g filter="url(#filter0_dd_75_1101)">
<path d="M262.045 479.696C259.048 479.696 254.721 479.464 249.065 479L249.825 463.614L249.065 435.312H265.97C271.669 435.312 276.122 437.022 279.33 440.441C282.538 443.86 284.142 448.609 284.142 454.687C284.142 462.369 282.158 468.469 278.19 472.985C274.222 477.459 268.841 479.696 262.045 479.696ZM263.691 442.151C260.905 442.151 258.942 442.172 257.803 442.214L257.17 462.538L257.613 472.795C261.158 473.048 263.543 473.175 264.767 473.175C268.102 473.175 270.719 471.824 272.618 469.123C274.56 466.421 275.531 462.496 275.531 457.346C275.531 452.197 274.581 448.377 272.682 445.886C270.825 443.396 267.828 442.151 263.691 442.151ZM288.071 448.419L295.732 446.773C296.112 450.023 296.366 453.104 296.492 456.017C300.333 450.065 303.942 447.089 307.319 447.089L306.623 456.966C304.175 456.966 302.233 457.198 300.798 457.663C299.405 458.085 297.97 458.95 296.492 460.259V462.538L297.189 477.417L288.704 479L289.464 463.614C289.295 457.958 288.831 452.893 288.071 448.419ZM318.871 446.773L318.111 462.538L318.807 477.417L310.323 479L311.083 463.614L310.387 448.355L318.871 446.773ZM309.943 437.529C309.943 436.093 310.492 434.827 311.589 433.73C312.687 432.59 313.953 432.02 315.388 432.02C316.824 432.02 317.921 432.421 318.681 433.223C319.441 433.983 319.82 435.144 319.82 436.705C319.82 438.267 319.272 439.618 318.174 440.758C317.119 441.855 315.874 442.404 314.439 442.404C313.046 442.404 311.948 441.939 311.146 441.011C310.344 440.082 309.943 438.921 309.943 437.529ZM343.256 462.981C343.256 460.069 343.003 458.127 342.496 457.156C341.99 456.185 340.808 455.7 338.951 455.7C337.093 455.7 334.983 456.439 332.619 457.916V462.538L333.316 477.417L324.831 479L325.591 463.614C325.422 457.958 324.958 452.893 324.198 448.419L331.859 446.773C332.155 449.221 332.366 451.606 332.492 453.927C333.126 453.083 333.843 452.26 334.645 451.458C335.447 450.614 336.713 449.685 338.444 448.672C340.175 447.617 341.99 447.089 343.889 447.089C345.831 447.089 347.456 447.849 348.764 449.368C350.073 450.846 350.727 452.872 350.727 455.447L350.347 462.538L351.044 477.734L342.496 479.317L343.256 462.981ZM376.841 479.633L364.938 462.095V462.538L365.634 477.417L357.086 479L357.846 463.614L357.086 431.577L365.761 429.994L364.938 460.575L377.601 446.709L383.552 450.761L372.472 461.145L384.059 474.821L376.841 479.633ZM396.242 473.112C398.437 473.112 399.534 472.141 399.534 470.199C399.534 469.524 399.049 468.891 398.078 468.3C397.149 467.709 395.989 467.118 394.596 466.527C393.245 465.936 391.873 465.282 390.48 464.564C389.13 463.804 387.969 462.77 386.998 461.462C386.069 460.153 385.605 458.655 385.605 456.966C385.605 454.138 386.85 451.669 389.341 449.558C391.831 447.448 394.701 446.393 397.951 446.393C399.471 446.393 400.948 446.583 402.384 446.962C403.861 447.3 405.275 447.849 406.626 448.609L402.384 456.333C402.088 456.08 401.708 455.763 401.244 455.383C400.78 455.004 399.893 454.518 398.585 453.927C397.318 453.294 396.179 452.977 395.166 452.977C394.195 452.977 393.435 453.21 392.886 453.674C392.38 454.096 392.126 454.708 392.126 455.51C392.126 456.27 392.844 457.051 394.279 457.853C395.757 458.612 397.36 459.33 399.091 460.005C400.822 460.639 402.405 461.715 403.84 463.235C405.317 464.712 406.056 466.485 406.056 468.553C406.056 471.508 404.832 474.104 402.384 476.341C399.978 478.578 397.192 479.696 394.026 479.696C392 479.696 390.1 479.253 388.328 478.367C386.597 477.48 385.352 476.594 384.592 475.708L383.452 474.378L388.454 468.553C388.707 468.891 389.066 469.313 389.531 469.819C389.995 470.326 390.902 471.001 392.253 471.845C393.646 472.69 394.976 473.112 396.242 473.112Z" fill="#76FF03"/>
</g>
<defs>
<filter id="filter0_dd_75_1101" x="-219.089" y="0.852692" width="1093.87" height="986.011" filterUnits="userSpaceOnUse" color-interpolation-filters="sRGB">
<feFlood flood-opacity="0" result="BackgroundImageFix"/>
<feColorMatrix in="SourceAlpha" type="matrix" values="0 0 0 0 0 0 0 0 0 0 0 0 0 0 0 0 0 0 127 0" result="hardAlpha"/>
<feOffset dy="39.0128"/>
<feGaussianBlur stdDeviation="234.077"/>
<feComposite in2="hardAlpha" operator="out"/>
<feColorMatrix type="matrix" values="0 0 0 0 0.0728993 0 0 0 0 0.920833 0 0 0 0 0.840714 0 0 0 1 0"/>
<feBlend mode="normal" in2="BackgroundImageFix" result="effect1_dropShadow_75_1101"/>
<feColorMatrix in="SourceAlpha" type="matrix" values="0 0 0 0 0 0 0 0 0 0 0 0 0 0 0 0 0 0 127 0" result="hardAlpha"/>
<feOffset dy="-4.35354"/>
<feGaussianBlur stdDeviation="48.9773"/>
<feComposite in2="hardAlpha" operator="out"/>
<feColorMatrix type="matrix" values="0 0 0 0 0.215156 0 0 0 0 0.485456 0 0 0 0 0.6375 0 0 0 1 0"/>
<feBlend mode="normal" in2="effect1_dropShadow_75_1101" result="effect2_dropShadow_75_1101"/>
<feBlend mode="normal" in="SourceGraphic" in2="effect2_dropShadow_75_1101" result="shape"/>
</filter>
</defs>
</svg>
