<svg width="938" height="982" viewBox="0 0 938 982" fill="none" xmlns="http://www.w3.org/2000/svg">
<g filter="url(#filter0_dd_75_1044)">
<path d="M246.507 429.996L245.62 457.538L246.38 474H237.516L238.276 458.614L237.516 431.579L246.507 429.996ZM265.17 449.624C263.312 449.624 261.877 450.299 260.864 451.65C259.851 452.958 259.345 454.984 259.345 457.728C259.345 460.472 259.851 462.688 260.864 464.376C261.919 466.022 263.439 466.845 265.423 466.845C266.436 466.845 267.428 466.529 268.399 465.896C269.369 465.262 270.108 464.629 270.615 463.996L271.311 462.983L274.477 466.276C274.35 466.487 274.181 466.782 273.97 467.162C273.801 467.542 273.337 468.217 272.577 469.188C271.86 470.159 271.079 471.024 270.235 471.784C269.433 472.502 268.377 473.177 267.069 473.81C265.76 474.401 264.389 474.696 262.953 474.696C259.788 474.696 257.213 473.409 255.229 470.834C253.245 468.259 252.253 464.904 252.253 460.767C252.253 455.617 253.752 451.101 256.749 447.218C259.746 443.334 263.249 441.393 267.259 441.393C268.483 441.393 269.707 441.583 270.931 441.962C272.155 442.3 273.4 442.849 274.667 443.609L270.235 451.396C268.715 450.215 267.027 449.624 265.17 449.624ZM289.088 467.542C290.312 467.542 291.599 467.225 292.95 466.592C294.301 465.959 295.356 465.326 296.116 464.693L297.255 463.743L300.168 467.289C299.746 468.006 299.092 468.829 298.205 469.758C297.319 470.687 296.411 471.488 295.483 472.164C294.596 472.797 293.393 473.388 291.874 473.937C290.396 474.443 288.856 474.696 287.252 474.696C283.833 474.696 281.047 473.409 278.894 470.834C276.741 468.217 275.665 464.862 275.665 460.767C275.665 455.617 277.163 451.101 280.16 447.218C283.157 443.334 286.661 441.393 290.671 441.393C293.752 441.393 296.137 442.258 297.825 443.989C299.556 445.719 300.421 448.146 300.421 451.27C300.421 453.127 300.105 455.238 299.472 457.601L298.205 458.931L282.376 460.387C283.094 465.157 285.331 467.542 289.088 467.542ZM289.088 447.914C287.231 447.914 285.669 448.674 284.403 450.193C283.136 451.671 282.398 453.57 282.186 455.892L292.95 454.562C293.077 453.591 293.14 452.789 293.14 452.156C293.14 449.328 291.789 447.914 289.088 447.914ZM328.697 474.696C324.012 474.696 320.065 472.734 316.857 468.808C313.649 464.883 312.045 460.071 312.045 454.372C312.045 447.408 313.966 441.54 317.807 436.771C321.69 432.001 326.439 429.616 332.053 429.616C334.248 429.616 336.274 429.848 338.131 430.312C340.03 430.735 341.381 431.178 342.183 431.642L343.323 432.339L339.017 441.139C338.046 440.295 336.675 439.514 334.902 438.797C333.129 438.037 331.525 437.657 330.09 437.657C327.177 437.657 324.835 438.86 323.062 441.266C321.331 443.672 320.466 447.112 320.466 451.586C320.466 456.018 321.373 459.67 323.189 462.54C325.004 465.368 327.473 466.782 330.596 466.782C332.622 466.782 334.459 466.149 336.105 464.883C337.751 463.616 338.912 461.928 339.587 459.817L344.842 462.857C343.449 466.571 341.318 469.484 338.447 471.594C335.577 473.662 332.327 474.696 328.697 474.696ZM347.044 443.419L354.706 441.773C355.086 445.023 355.339 448.104 355.465 451.017C359.307 445.065 362.916 442.089 366.292 442.089L365.596 451.966C363.148 451.966 361.206 452.198 359.771 452.663C358.378 453.085 356.943 453.95 355.465 455.259V457.538L356.162 472.417L347.678 474L348.437 458.614C348.269 452.958 347.804 447.893 347.044 443.419ZM380.756 467.542C381.98 467.542 383.268 467.225 384.619 466.592C385.969 465.959 387.025 465.326 387.784 464.693L388.924 463.743L391.837 467.289C391.414 468.006 390.76 468.829 389.874 469.758C388.987 470.687 388.08 471.488 387.151 472.164C386.265 472.797 385.062 473.388 383.542 473.937C382.065 474.443 380.524 474.696 378.92 474.696C375.501 474.696 372.715 473.409 370.563 470.834C368.41 468.217 367.334 464.862 367.334 460.767C367.334 455.617 368.832 451.101 371.829 447.218C374.826 443.334 378.329 441.393 382.339 441.393C385.421 441.393 387.805 442.258 389.494 443.989C391.225 445.719 392.09 448.146 392.09 451.27C392.09 453.127 391.773 455.238 391.14 457.601L389.874 458.931L374.045 460.387C374.763 465.157 377 467.542 380.756 467.542ZM380.756 447.914C378.899 447.914 377.337 448.674 376.071 450.193C374.805 451.671 374.066 453.57 373.855 455.892L384.619 454.562C384.745 453.591 384.809 452.789 384.809 452.156C384.809 449.328 383.458 447.914 380.756 447.914ZM402.998 474C400.508 474 398.461 473.219 396.857 471.657C395.295 470.053 394.514 467.922 394.514 465.262C394.514 462.561 395.738 460.239 398.186 458.298C400.635 456.314 403.61 455.322 407.114 455.322H411.419V454.246C411.419 452.177 410.997 450.763 410.153 450.004C409.309 449.244 407.726 448.864 405.404 448.864C404.433 448.864 403.273 449.075 401.922 449.497C400.613 449.877 399.136 450.489 397.49 451.333L395.654 446.331C397.469 445.065 399.664 443.925 402.239 442.912C404.856 441.899 407.008 441.393 408.697 441.393C415.324 441.393 418.637 444.601 418.637 451.017V463.426C418.637 465.79 419.376 468.428 420.853 471.341L414.142 474.19C413.087 472.164 412.306 470.349 411.799 468.745C409.478 472.248 406.544 474 402.998 474ZM405.658 467.542C407.346 467.542 409.267 466.677 411.419 464.946V460.704C409.182 460.197 407.367 459.944 405.974 459.944C403.315 459.944 401.985 461.126 401.985 463.49C401.985 464.714 402.323 465.706 402.998 466.465C403.674 467.183 404.56 467.542 405.658 467.542ZM443.758 457.981C443.758 455.069 443.504 453.127 442.998 452.156C442.491 451.185 441.309 450.7 439.452 450.7C437.595 450.7 435.484 451.439 433.121 452.916V457.538L433.817 472.417L425.333 474L426.093 458.614C425.924 452.958 425.459 447.893 424.7 443.419L432.361 441.773C432.656 444.221 432.867 446.606 432.994 448.927C433.627 448.083 434.345 447.26 435.147 446.458C435.949 445.614 437.215 444.685 438.946 443.672C440.676 442.617 442.428 442.089 444.201 442.089C445.974 442.089 447.472 442.659 448.696 443.799C449.92 444.938 450.701 446.5 451.039 448.484C454.542 444.221 458.088 442.089 461.676 442.089C463.913 442.089 465.686 442.849 466.994 444.368C468.303 445.846 468.957 447.872 468.957 450.447L468.577 457.538L469.274 472.734L460.726 474.317L461.486 457.981C461.486 455.069 461.233 453.127 460.726 452.156C460.219 451.185 459.059 450.7 457.244 450.7C455.429 450.7 453.381 451.396 451.102 452.789L450.849 457.538L451.545 472.734L442.998 474.317L443.758 457.981Z" fill="#FF00F5"/>
</g>
<defs>
<filter id="filter0_dd_75_1044" x="-230.638" y="0.474762" width="1168.07" height="981.389" filterUnits="userSpaceOnUse" color-interpolation-filters="sRGB">
<feFlood flood-opacity="0" result="BackgroundImageFix"/>
<feColorMatrix in="SourceAlpha" type="matrix" values="0 0 0 0 0 0 0 0 0 0 0 0 0 0 0 0 0 0 127 0" result="hardAlpha"/>
<feOffset dy="39.0128"/>
<feGaussianBlur stdDeviation="234.077"/>
<feComposite in2="hardAlpha" operator="out"/>
<feColorMatrix type="matrix" values="0 0 0 0 0.0728993 0 0 0 0 0.920833 0 0 0 0 0.840714 0 0 0 1 0"/>
<feBlend mode="normal" in2="BackgroundImageFix" result="effect1_dropShadow_75_1044"/>
<feColorMatrix in="SourceAlpha" type="matrix" values="0 0 0 0 0 0 0 0 0 0 0 0 0 0 0 0 0 0 127 0" result="hardAlpha"/>
<feOffset dy="-4.35354"/>
<feGaussianBlur stdDeviation="48.9773"/>
<feComposite in2="hardAlpha" operator="out"/>
<feColorMatrix type="matrix" values="0 0 0 0 0.215156 0 0 0 0 0.485456 0 0 0 0 0.6375 0 0 0 1 0"/>
<feBlend mode="normal" in2="effect1_dropShadow_75_1044" result="effect2_dropShadow_75_1044"/>
<feBlend mode="normal" in="SourceGraphic" in2="effect2_dropShadow_75_1044" result="shape"/>
</filter>
</defs>
</svg>
