<svg width="930" height="1000" viewBox="0 0 930 1000" fill="none" xmlns="http://www.w3.org/2000/svg">
<g filter="url(#filter0_dd_75_1059)">
<path d="M260.805 435.312C264.857 435.312 268.086 436.473 270.492 438.795C272.898 441.074 274.101 444.219 274.101 448.229C274.101 452.239 272.581 455.679 269.542 458.549C266.503 461.377 262.788 462.791 258.399 462.791H254.79L255.549 479H247.065L247.825 463.614L247.065 435.312H260.805ZM258.525 441.707H255.423L254.98 456.65H259.285C261.396 456.65 263.021 455.953 264.16 454.56C265.342 453.167 265.933 451.184 265.933 448.609C265.933 444.008 263.464 441.707 258.525 441.707ZM275.037 465.767C275.037 460.364 276.493 455.784 279.406 452.028C282.318 448.271 285.716 446.393 289.6 446.393C293.525 446.393 296.564 447.659 298.717 450.192C300.912 452.724 302.009 456.08 302.009 460.259C302.009 465.83 300.595 470.474 297.767 474.188C294.981 477.86 291.457 479.696 287.194 479.696C283.69 479.696 280.778 478.388 278.456 475.771C276.177 473.112 275.037 469.777 275.037 465.767ZM294.918 463.551C294.918 457.431 292.829 454.37 288.65 454.37C284.302 454.37 282.128 457.241 282.128 462.981C282.128 465.978 282.741 468.321 283.965 470.009C285.189 471.698 286.793 472.542 288.777 472.542C290.803 472.542 292.322 471.782 293.335 470.262C294.391 468.701 294.918 466.464 294.918 463.551ZM323.437 447.026C326.138 447.026 328.396 448.208 330.211 450.571C332.069 452.935 332.997 456.122 332.997 460.132C332.997 465.746 331.541 470.305 328.629 473.808C325.758 477.269 322.17 479 317.865 479C316.979 479 315.987 478.937 314.889 478.81L315.206 490.903L306.532 492.486L307.355 463.614H307.418C307.249 457.958 306.785 452.893 306.025 448.419L313.686 446.773C313.939 449.01 314.15 451.226 314.319 453.421C314.404 453.21 314.826 452.64 315.586 451.711C316.388 450.74 317.548 449.727 319.068 448.672C320.588 447.575 322.044 447.026 323.437 447.026ZM320.967 455.257C318.73 455.257 316.556 455.869 314.446 457.093V462.538L314.699 471.592C316.979 471.972 318.709 472.162 319.891 472.162C323.943 472.162 325.969 469.355 325.969 463.741C325.969 458.085 324.302 455.257 320.967 455.257ZM346.862 473.112C349.057 473.112 350.154 472.141 350.154 470.199C350.154 469.524 349.669 468.891 348.698 468.3C347.769 467.709 346.609 467.118 345.216 466.527C343.865 465.936 342.493 465.282 341.1 464.564C339.749 463.804 338.589 462.77 337.618 461.462C336.689 460.153 336.225 458.655 336.225 456.966C336.225 454.138 337.47 451.669 339.961 449.558C342.451 447.448 345.321 446.393 348.571 446.393C350.091 446.393 351.568 446.583 353.003 446.962C354.481 447.3 355.895 447.849 357.246 448.609L353.003 456.333C352.708 456.08 352.328 455.763 351.864 455.383C351.399 455.004 350.513 454.518 349.205 453.927C347.938 453.294 346.799 452.977 345.786 452.977C344.815 452.977 344.055 453.21 343.506 453.674C343 454.096 342.746 454.708 342.746 455.51C342.746 456.27 343.464 457.051 344.899 457.853C346.376 458.612 347.98 459.33 349.711 460.005C351.442 460.639 353.025 461.715 354.46 463.235C355.937 464.712 356.676 466.485 356.676 468.553C356.676 471.508 355.452 474.104 353.003 476.341C350.597 478.578 347.812 479.696 344.646 479.696C342.62 479.696 340.72 479.253 338.947 478.367C337.217 477.48 335.972 476.594 335.212 475.708L334.072 474.378L339.074 468.553C339.327 468.891 339.686 469.313 340.15 469.819C340.615 470.326 341.522 471.001 342.873 471.845C344.266 472.69 345.596 473.112 346.862 473.112ZM369.754 446.773L368.994 462.538L369.69 477.417L361.206 479L361.966 463.614L361.27 448.355L369.754 446.773ZM360.826 437.529C360.826 436.093 361.375 434.827 362.473 433.73C363.57 432.59 364.836 432.02 366.271 432.02C367.707 432.02 368.804 432.421 369.564 433.223C370.324 433.983 370.704 435.144 370.704 436.705C370.704 438.267 370.155 439.618 369.057 440.758C368.002 441.855 366.757 442.404 365.322 442.404C363.929 442.404 362.831 441.939 362.029 441.011C361.227 440.082 360.826 438.921 360.826 437.529ZM386.668 454.624C384.811 454.624 383.375 455.299 382.362 456.65C381.349 457.958 380.843 459.984 380.843 462.728C380.843 465.472 381.349 467.688 382.362 469.376C383.418 471.022 384.937 471.845 386.921 471.845C387.934 471.845 388.926 471.529 389.897 470.896C390.868 470.262 391.606 469.629 392.113 468.996L392.809 467.983L395.975 471.276C395.849 471.487 395.68 471.782 395.469 472.162C395.3 472.542 394.836 473.217 394.076 474.188C393.358 475.159 392.577 476.024 391.733 476.784C390.931 477.502 389.876 478.177 388.567 478.81C387.259 479.401 385.887 479.696 384.452 479.696C381.286 479.696 378.711 478.409 376.727 475.834C374.743 473.259 373.752 469.904 373.752 465.767C373.752 460.617 375.25 456.101 378.247 452.218C381.244 448.334 384.747 446.393 388.757 446.393C389.981 446.393 391.205 446.583 392.43 446.962C393.654 447.3 394.899 447.849 396.165 448.609L391.733 456.396C390.213 455.215 388.525 454.624 386.668 454.624ZM407.864 429.994L407.041 462.538L407.737 477.417L399.189 479L399.949 463.614L399.189 431.577L407.864 429.994ZM425.651 472.542C426.875 472.542 428.162 472.225 429.513 471.592C430.864 470.959 431.919 470.326 432.679 469.693L433.818 468.743L436.731 472.289C436.309 473.006 435.655 473.829 434.768 474.758C433.882 475.687 432.974 476.488 432.046 477.164C431.159 477.797 429.956 478.388 428.437 478.937C426.959 479.443 425.419 479.696 423.815 479.696C420.396 479.696 417.61 478.409 415.457 475.834C413.304 473.217 412.228 469.862 412.228 465.767C412.228 460.617 413.726 456.101 416.723 452.218C419.72 448.334 423.224 446.393 427.234 446.393C430.315 446.393 432.7 447.258 434.388 448.989C436.119 450.719 436.984 453.146 436.984 456.27C436.984 458.127 436.668 460.238 436.034 462.601L434.768 463.931L418.939 465.387C419.657 470.157 421.894 472.542 425.651 472.542ZM425.651 452.914C423.793 452.914 422.232 453.674 420.965 455.193C419.699 456.671 418.96 458.57 418.749 460.892L429.513 459.562C429.64 458.591 429.703 457.789 429.703 457.156C429.703 454.328 428.352 452.914 425.651 452.914ZM451.122 473.112C453.317 473.112 454.414 472.141 454.414 470.199C454.414 469.524 453.929 468.891 452.958 468.3C452.029 467.709 450.868 467.118 449.476 466.527C448.125 465.936 446.753 465.282 445.36 464.564C444.009 463.804 442.849 462.77 441.878 461.462C440.949 460.153 440.485 458.655 440.485 456.966C440.485 454.138 441.73 451.669 444.22 449.558C446.711 447.448 449.581 446.393 452.831 446.393C454.351 446.393 455.828 446.583 457.263 446.962C458.741 447.3 460.155 447.849 461.505 448.609L457.263 456.333C456.968 456.08 456.588 455.763 456.124 455.383C455.659 455.004 454.773 454.518 453.464 453.927C452.198 453.294 451.058 452.977 450.045 452.977C449.075 452.977 448.315 453.21 447.766 453.674C447.26 454.096 447.006 454.708 447.006 455.51C447.006 456.27 447.724 457.051 449.159 457.853C450.636 458.612 452.24 459.33 453.971 460.005C455.702 460.639 457.284 461.715 458.72 463.235C460.197 464.712 460.936 466.485 460.936 468.553C460.936 471.508 459.712 474.104 457.263 476.341C454.857 478.578 452.071 479.696 448.906 479.696C446.88 479.696 444.98 479.253 443.207 478.367C441.477 477.48 440.232 476.594 439.472 475.708L438.332 474.378L443.334 468.553C443.587 468.891 443.946 469.313 444.41 469.819C444.875 470.326 445.782 471.001 447.133 471.845C448.526 472.69 449.855 473.112 451.122 473.112Z" fill="#00FFE0"/>
</g>
<defs>
<filter id="filter0_dd_75_1059" x="-221.089" y="0.852692" width="1150.75" height="998.801" filterUnits="userSpaceOnUse" color-interpolation-filters="sRGB">
<feFlood flood-opacity="0" result="BackgroundImageFix"/>
<feColorMatrix in="SourceAlpha" type="matrix" values="0 0 0 0 0 0 0 0 0 0 0 0 0 0 0 0 0 0 127 0" result="hardAlpha"/>
<feOffset dy="39.0128"/>
<feGaussianBlur stdDeviation="234.077"/>
<feComposite in2="hardAlpha" operator="out"/>
<feColorMatrix type="matrix" values="0 0 0 0 0.0728993 0 0 0 0 0.920833 0 0 0 0 0.840714 0 0 0 1 0"/>
<feBlend mode="normal" in2="BackgroundImageFix" result="effect1_dropShadow_75_1059"/>
<feColorMatrix in="SourceAlpha" type="matrix" values="0 0 0 0 0 0 0 0 0 0 0 0 0 0 0 0 0 0 127 0" result="hardAlpha"/>
<feOffset dy="-4.35354"/>
<feGaussianBlur stdDeviation="48.9773"/>
<feComposite in2="hardAlpha" operator="out"/>
<feColorMatrix type="matrix" values="0 0 0 0 0.215156 0 0 0 0 0.485456 0 0 0 0 0.6375 0 0 0 1 0"/>
<feBlend mode="normal" in2="effect1_dropShadow_75_1059" result="effect2_dropShadow_75_1059"/>
<feBlend mode="normal" in="SourceGraphic" in2="effect2_dropShadow_75_1059" result="shape"/>
</filter>
</defs>
</svg>
