<svg width="897" height="987" viewBox="0 0 897 987" fill="none" xmlns="http://www.w3.org/2000/svg">
<g filter="url(#filter0_dd_75_1158)">
<path d="M265.762 466.4C269.35 469.988 272.937 471.782 276.525 471.782C278.383 471.782 279.86 471.36 280.957 470.516C282.097 469.629 282.667 468.511 282.667 467.16C282.667 465.767 281.991 464.606 280.641 463.678C279.29 462.707 277.644 461.863 275.702 461.145C273.803 460.428 271.903 459.626 270.004 458.739C268.104 457.811 266.479 456.502 265.129 454.814C263.778 453.125 263.102 451.078 263.102 448.672C263.102 444.873 264.685 441.602 267.851 438.858C271.017 436.072 274.774 434.679 279.121 434.679C281.105 434.679 283.026 434.89 284.883 435.312C286.74 435.735 288.534 436.347 290.265 437.149L285.959 446.393C284.777 445.464 283.152 444.62 281.084 443.86C279.058 443.058 277.264 442.657 275.702 442.657C274.183 442.657 272.937 443.037 271.967 443.797C271.038 444.514 270.574 445.485 270.574 446.709C270.574 447.933 271.249 449.031 272.6 450.002C273.95 450.93 275.576 451.753 277.475 452.471C279.417 453.188 281.337 453.99 283.237 454.877C285.178 455.721 286.825 456.987 288.175 458.676C289.526 460.364 290.201 462.411 290.201 464.817C290.201 468.785 288.618 472.267 285.453 475.264C282.287 478.219 278.594 479.696 274.373 479.696C271.207 479.696 268.4 478.937 265.952 477.417C263.799 476.109 262.279 474.948 261.393 473.935L260.823 473.238L265.762 466.4ZM312.927 462.981C312.927 460.069 312.674 458.127 312.167 457.156C311.661 456.185 310.479 455.7 308.622 455.7C306.764 455.7 304.654 456.439 302.29 457.916V462.538L302.987 477.417L294.502 479L295.262 463.614C295.093 457.958 294.629 452.893 293.869 448.419L301.53 446.773C301.826 449.221 302.037 451.606 302.163 453.927C302.797 453.083 303.514 452.26 304.316 451.458C305.118 450.614 306.384 449.685 308.115 448.672C309.846 447.617 311.661 447.089 313.56 447.089C315.502 447.089 317.127 447.849 318.435 449.368C319.744 450.846 320.398 452.872 320.398 455.447L320.018 462.538L320.715 477.734L312.167 479.317L312.927 462.981ZM333.089 479C330.599 479 328.551 478.219 326.947 476.657C325.386 475.053 324.605 472.922 324.605 470.262C324.605 467.561 325.829 465.239 328.277 463.298C330.725 461.314 333.701 460.322 337.204 460.322H341.51V459.246C341.51 457.177 341.088 455.763 340.244 455.004C339.399 454.244 337.817 453.864 335.495 453.864C334.524 453.864 333.363 454.075 332.013 454.497C330.704 454.877 329.227 455.489 327.581 456.333L325.744 451.331C327.559 450.065 329.754 448.925 332.329 447.912C334.946 446.899 337.099 446.393 338.787 446.393C345.414 446.393 348.728 449.601 348.728 456.017V468.426C348.728 470.79 349.467 473.428 350.944 476.341L344.232 479.19C343.177 477.164 342.396 475.349 341.89 473.745C339.568 477.248 336.635 479 333.089 479ZM335.748 472.542C337.437 472.542 339.357 471.677 341.51 469.946V465.704C339.273 465.197 337.458 464.944 336.065 464.944C333.406 464.944 332.076 466.126 332.076 468.49C332.076 469.714 332.414 470.706 333.089 471.465C333.764 472.183 334.651 472.542 335.748 472.542ZM366.377 454.624C364.52 454.624 363.085 455.299 362.072 456.65C361.059 457.958 360.552 459.984 360.552 462.728C360.552 465.472 361.059 467.688 362.072 469.376C363.127 471.022 364.646 471.845 366.63 471.845C367.643 471.845 368.635 471.529 369.606 470.896C370.577 470.262 371.316 469.629 371.822 468.996L372.519 467.983L375.684 471.276C375.558 471.487 375.389 471.782 375.178 472.162C375.009 472.542 374.545 473.217 373.785 474.188C373.067 475.159 372.286 476.024 371.442 476.784C370.64 477.502 369.585 478.177 368.276 478.81C366.968 479.401 365.596 479.696 364.161 479.696C360.995 479.696 358.42 478.409 356.436 475.834C354.453 473.259 353.461 469.904 353.461 465.767C353.461 460.617 354.959 456.101 357.956 452.218C360.953 448.334 364.456 446.393 368.466 446.393C369.69 446.393 370.915 446.583 372.139 446.962C373.363 447.3 374.608 447.849 375.874 448.609L371.442 456.396C369.923 455.215 368.234 454.624 366.377 454.624ZM398.653 479.633L386.75 462.095V462.538L387.446 477.417L378.899 479L379.658 463.614L378.899 431.577L387.573 429.994L386.75 460.575L399.413 446.709L405.364 450.761L394.284 461.145L405.871 474.821L398.653 479.633ZM418.054 473.112C420.249 473.112 421.346 472.141 421.346 470.199C421.346 469.524 420.861 468.891 419.89 468.3C418.962 467.709 417.801 467.118 416.408 466.527C415.057 465.936 413.685 465.282 412.292 464.564C410.942 463.804 409.781 462.77 408.81 461.462C407.881 460.153 407.417 458.655 407.417 456.966C407.417 454.138 408.662 451.669 411.153 449.558C413.643 447.448 416.513 446.393 419.764 446.393C421.283 446.393 422.761 446.583 424.196 446.962C425.673 447.3 427.087 447.849 428.438 448.609L424.196 456.333C423.9 456.08 423.52 455.763 423.056 455.383C422.592 455.004 421.705 454.518 420.397 453.927C419.13 453.294 417.991 452.977 416.978 452.977C416.007 452.977 415.247 453.21 414.698 453.674C414.192 454.096 413.939 454.708 413.939 455.51C413.939 456.27 414.656 457.051 416.091 457.853C417.569 458.612 419.173 459.33 420.903 460.005C422.634 460.639 424.217 461.715 425.652 463.235C427.129 464.712 427.868 466.485 427.868 468.553C427.868 471.508 426.644 474.104 424.196 476.341C421.79 478.578 419.004 479.696 415.838 479.696C413.812 479.696 411.913 479.253 410.14 478.367C408.409 477.48 407.164 476.594 406.404 475.708L405.264 474.378L410.266 468.553C410.52 468.891 410.878 469.313 411.343 469.819C411.807 470.326 412.714 471.001 414.065 471.845C415.458 472.69 416.788 473.112 418.054 473.112Z" fill="#FF9100"/>
</g>
<defs>
<filter id="filter0_dd_75_1158" x="-207.331" y="0.852692" width="1103.92" height="986.011" filterUnits="userSpaceOnUse" color-interpolation-filters="sRGB">
<feFlood flood-opacity="0" result="BackgroundImageFix"/>
<feColorMatrix in="SourceAlpha" type="matrix" values="0 0 0 0 0 0 0 0 0 0 0 0 0 0 0 0 0 0 127 0" result="hardAlpha"/>
<feOffset dy="39.0128"/>
<feGaussianBlur stdDeviation="234.077"/>
<feComposite in2="hardAlpha" operator="out"/>
<feColorMatrix type="matrix" values="0 0 0 0 0.0728993 0 0 0 0 0.920833 0 0 0 0 0.840714 0 0 0 1 0"/>
<feBlend mode="normal" in2="BackgroundImageFix" result="effect1_dropShadow_75_1158"/>
<feColorMatrix in="SourceAlpha" type="matrix" values="0 0 0 0 0 0 0 0 0 0 0 0 0 0 0 0 0 0 127 0" result="hardAlpha"/>
<feOffset dy="-4.35354"/>
<feGaussianBlur stdDeviation="48.9773"/>
<feComposite in2="hardAlpha" operator="out"/>
<feColorMatrix type="matrix" values="0 0 0 0 0.215156 0 0 0 0 0.485456 0 0 0 0 0.6375 0 0 0 1 0"/>
<feBlend mode="normal" in2="effect1_dropShadow_75_1158" result="effect2_dropShadow_75_1158"/>
<feBlend mode="normal" in="SourceGraphic" in2="effect2_dropShadow_75_1158" result="shape"/>
</filter>
</defs>
</svg>
