<svg width="281" height="281" viewBox="0 0 281 281" fill="none" xmlns="http://www.w3.org/2000/svg">
<g filter="url(#filter0_d_75_602)">
<path d="M4 30C4 13.4315 17.4315 0 34 0H247C263.569 0 277 13.4315 277 30V243C277 259.569 263.569 273 247 273H34C17.4315 273 4 259.569 4 243V30Z" fill="black"/>
</g>
<g filter="url(#filter1_d_75_602)">
<path d="M4 30C4 13.4315 17.4315 0 34 0H247C263.569 0 277 13.4315 277 30V243C277 259.569 263.569 273 247 273H34C17.4315 273 4 259.569 4 243V30Z" fill="url(#paint0_linear_75_602)" shape-rendering="crispEdges"/>
</g>
<defs>
<filter id="filter0_d_75_602" x="0" y="0" width="281" height="281" filterUnits="userSpaceOnUse" color-interpolation-filters="sRGB">
<feFlood flood-opacity="0" result="BackgroundImageFix"/>
<feColorMatrix in="SourceAlpha" type="matrix" values="0 0 0 0 0 0 0 0 0 0 0 0 0 0 0 0 0 0 127 0" result="hardAlpha"/>
<feOffset dy="4"/>
<feGaussianBlur stdDeviation="2"/>
<feComposite in2="hardAlpha" operator="out"/>
<feColorMatrix type="matrix" values="0 0 0 0 0 0 0 0 0 0 0 0 0 0 0 0 0 0 0.25 0"/>
<feBlend mode="normal" in2="BackgroundImageFix" result="effect1_dropShadow_75_602"/>
<feBlend mode="normal" in="SourceGraphic" in2="effect1_dropShadow_75_602" result="shape"/>
</filter>
<filter id="filter1_d_75_602" x="0" y="0" width="281" height="281" filterUnits="userSpaceOnUse" color-interpolation-filters="sRGB">
<feFlood flood-opacity="0" result="BackgroundImageFix"/>
<feColorMatrix in="SourceAlpha" type="matrix" values="0 0 0 0 0 0 0 0 0 0 0 0 0 0 0 0 0 0 127 0" result="hardAlpha"/>
<feOffset dy="4"/>
<feGaussianBlur stdDeviation="2"/>
<feComposite in2="hardAlpha" operator="out"/>
<feColorMatrix type="matrix" values="0 0 0 0 0 0 0 0 0 0 0 0 0 0 0 0 0 0 0.25 0"/>
<feBlend mode="normal" in2="BackgroundImageFix" result="effect1_dropShadow_75_602"/>
<feBlend mode="normal" in="SourceGraphic" in2="effect1_dropShadow_75_602" result="shape"/>
</filter>
<linearGradient id="paint0_linear_75_602" x1="385" y1="-28.5" x2="385" y2="244.5" gradientUnits="userSpaceOnUse">
<stop stop-color="#121212" stop-opacity="0.4"/>
<stop offset="1" stop-color="#E0E0E0" stop-opacity="0.15"/>
</linearGradient>
</defs>
</svg>
