<svg width="50" height="444" viewBox="0 0 50 444" fill="none" xmlns="http://www.w3.org/2000/svg">
<g style="mix-blend-mode:screen">
<path d="M49.9999 16.3714V427.628C49.6396 432.013 46.8487 436.136 42.1998 439.153C37.551 442.169 31.3967 443.85 24.9999 443.85C18.6031 443.85 12.4489 442.169 7.79999 439.153C3.15113 436.136 0.360155 432.013 -0.00012207 427.628V16.3714C0.360155 11.9868 3.15113 7.86316 7.79999 4.84659C12.4489 1.83002 18.6031 0.149292 24.9999 0.149292C31.3967 0.149292 37.551 1.83002 42.1998 4.84659C46.8487 7.86316 49.6396 11.9868 49.9999 16.3714V16.3714Z" fill="black"/>
<path d="M48.7271 16.3718V427.628C48.7271 431.97 46.2146 436.135 41.7424 439.205C37.2701 442.275 31.2044 444 24.8797 444C18.555 444 12.4893 442.275 8.01706 439.205C3.54481 436.135 1.03235 431.97 1.03235 427.628V16.3718C1.03235 12.0298 3.54481 7.86557 8.01706 4.79528C12.4893 1.72499 18.555 0.00012207 24.8797 0.00012207C31.2044 0.00012207 37.2701 1.72499 41.7424 4.79528C46.2146 7.86557 48.7271 12.0298 48.7271 16.3718V16.3718Z" fill="#02050B"/>
<path d="M47.4558 16.3723V427.629C47.638 429.731 47.1924 431.836 46.1462 433.815C45.1001 435.794 43.4756 437.605 41.3724 439.138C39.2693 440.67 36.7319 441.891 33.9163 442.726C31.1008 443.56 28.0663 443.991 24.9995 443.991C21.9327 443.991 18.8983 443.56 16.0827 442.726C13.2671 441.891 10.7298 440.67 8.62667 439.138C6.52353 437.605 4.89899 435.794 3.85284 433.815C2.80669 431.836 2.36107 429.731 2.54329 427.629V16.3723C2.36107 14.2706 2.80669 12.1656 3.85284 10.1864C4.89899 8.2073 6.52353 6.39592 8.62667 4.86358C10.7298 3.33123 13.2671 2.11029 16.0827 1.27576C18.8983 0.441231 21.9327 0.0107422 24.9995 0.0107422C28.0663 0.0107422 31.1008 0.441231 33.9163 1.27576C36.7319 2.11029 39.2693 3.33123 41.3724 4.86358C43.4756 6.39592 45.1001 8.2073 46.1462 10.1864C47.1924 12.1656 47.638 14.2706 47.4558 16.3723V16.3723Z" fill="#040A17"/>
<path d="M46.2655 16.3718V427.628C45.9343 431.346 43.5498 434.836 39.5984 437.388C35.6471 439.94 30.4265 441.361 25.0016 441.361C19.5767 441.361 14.3561 439.94 10.4048 437.388C6.45341 434.836 4.0689 431.346 3.73767 427.628V16.3718C4.0689 12.6544 6.45341 9.16386 10.4048 6.61204C14.3561 4.06022 19.5767 2.6394 25.0016 2.6394C30.4265 2.6394 35.6471 4.06022 39.5984 6.61204C43.5498 9.16386 45.9343 12.6544 46.2655 16.3718Z" fill="#070E22"/>
<path d="M44.9932 16.3718V427.628C44.38 430.95 42.0232 434.003 38.3646 436.217C34.706 438.43 29.9969 439.651 25.1204 439.651C20.2438 439.651 15.5348 438.43 11.8762 436.217C8.21756 434.003 5.86072 430.95 5.24756 427.628V16.3718C5.86072 13.0505 8.21756 9.99688 11.8762 7.78343C15.5348 5.56998 20.2438 4.34875 25.1204 4.34875C29.9969 4.34875 34.706 5.56998 38.3646 7.78343C42.0232 9.99688 44.38 13.0505 44.9932 16.3718V16.3718Z" fill="#09132E"/>
<path d="M43.7214 16.3724V427.629C43.8884 429.387 43.5282 431.15 42.663 432.809C41.7978 434.468 40.446 435.987 38.6913 437.273C36.9366 438.558 34.8163 439.583 32.4615 440.284C30.1068 440.985 27.5677 441.346 25.0013 441.346C22.4349 441.346 19.8958 440.985 17.541 440.284C15.1863 439.583 13.066 438.558 11.3113 437.273C9.55657 435.987 8.20483 434.468 7.33961 432.809C6.47439 431.15 6.11411 429.387 6.28108 427.629V16.3724C6.11411 14.6142 6.47439 12.8512 7.33961 11.1925C8.20483 9.53377 9.55657 8.01454 11.3113 6.72881C13.066 5.44308 15.1863 4.4182 17.541 3.71755C19.8958 3.0169 22.4349 2.6554 25.0013 2.6554C27.5677 2.6554 30.1068 3.0169 32.4615 3.71755C34.8163 4.4182 36.9366 5.44308 38.6913 6.72881C40.446 8.01454 41.7978 9.53377 42.663 11.1925C43.5282 12.8512 43.8884 14.6142 43.7214 16.3724V16.3724Z" fill="#0B1839"/>
<path d="M42.4477 16.372V427.629C42.4477 430.813 40.6052 433.867 37.3256 436.118C34.0459 438.37 29.5978 439.635 24.9597 439.635C20.3215 439.635 15.8733 438.37 12.5937 436.118C9.31403 433.867 7.47156 430.813 7.47156 427.629V16.372C7.47156 13.1878 9.31403 10.1341 12.5937 7.88254C15.8733 5.63099 20.3215 4.36609 24.9597 4.36609C29.5978 4.36609 34.0459 5.63099 37.3256 7.88254C40.6052 10.1341 42.4477 13.1878 42.4477 16.372Z" fill="#0D1D45"/>
<path d="M41.2565 16.3722V427.629C41.2565 430.589 39.5438 433.427 36.4952 435.52C33.4467 437.613 29.3119 438.789 25.0006 438.789C20.6892 438.789 16.5544 437.613 13.5058 435.52C10.4573 433.427 8.74463 430.589 8.74463 427.629V16.3722C8.74463 13.4124 10.4573 10.5738 13.5058 8.48086C16.5544 6.38794 20.6892 5.21216 25.0006 5.21216C29.3119 5.21216 33.4467 6.38794 36.4952 8.48086C39.5438 10.5738 41.2565 13.4124 41.2565 16.3722V16.3722Z" fill="#0F2250"/>
<path d="M39.9832 16.372V427.629C40.1333 429.043 39.8572 430.463 39.1722 431.8C38.4872 433.137 37.408 434.363 36.0019 435.402C34.5958 436.44 32.8931 437.268 31 437.834C29.1069 438.4 27.0641 438.693 24.9991 438.693C22.9341 438.693 20.8913 438.4 18.9982 437.834C17.1051 437.268 15.4023 436.44 13.9963 435.402C12.5902 434.363 11.5109 433.137 10.8259 431.8C10.1409 430.463 9.86486 429.043 10.015 427.629V16.372C9.86486 14.9581 10.1409 13.5382 10.8259 12.2008C11.5109 10.8634 12.5902 9.63735 13.9963 8.59913C15.4023 7.56091 17.1051 6.73282 18.9982 6.16658C20.8913 5.60034 22.9341 5.30811 24.9991 5.30811C27.0641 5.30811 29.1069 5.60034 31 6.16658C32.8931 6.73282 34.5958 7.56091 36.0019 8.59913C37.408 9.63735 38.4872 10.8634 39.1722 12.2008C39.8572 13.5382 40.1333 14.9581 39.9832 16.372V16.372Z" fill="#11275C"/>
<path d="M38.7125 16.3723V427.629C38.8564 428.925 38.6087 430.228 37.9848 431.456C37.3609 432.684 36.3744 433.81 35.087 434.763C33.7997 435.717 32.2392 436.478 30.5035 436.998C28.7678 437.519 26.8942 437.787 25.0003 437.787C23.1063 437.787 21.2327 437.519 19.497 436.998C17.7613 436.478 16.2009 435.717 14.9135 434.763C13.6262 433.81 12.6396 432.684 12.0157 431.456C11.3919 430.228 11.1441 428.925 11.288 427.629V16.3723C11.1441 15.0758 11.3919 13.7728 12.0157 12.5452C12.6396 11.3175 13.6262 10.1915 14.9135 9.2378C16.2009 8.2841 17.7613 7.52323 19.497 7.0029C21.2327 6.48257 23.1063 6.21399 25.0003 6.21399C26.8942 6.21399 28.7678 6.48257 30.5035 7.0029C32.2392 7.52323 33.7997 8.2841 35.087 9.2378C36.3744 10.1915 37.3609 11.3175 37.9848 12.5452C38.6087 13.7728 38.8564 15.0758 38.7125 16.3723V16.3723Z" fill="#142B67"/>
<path d="M37.5185 16.3721V427.629C37.2674 429.79 35.8395 431.807 33.5193 433.278C31.199 434.749 28.1568 435.566 24.9986 435.566C21.8404 435.566 18.7981 434.749 16.4779 433.278C14.1576 431.807 12.7298 429.79 12.4788 427.629V16.3721C12.7298 14.2108 14.1576 12.1937 16.4779 10.7228C18.7981 9.25189 21.8404 8.43506 24.9986 8.43506C28.1568 8.43506 31.199 9.25189 33.5193 10.7228C35.8395 12.1937 37.2674 14.2108 37.5185 16.3721V16.3721Z" fill="#163073"/>
<path d="M36.2477 16.3713V427.628C36.0105 429.564 34.7226 431.368 32.6394 432.683C30.5562 433.998 27.8296 434.727 24.9997 434.727C22.1699 434.727 19.4432 433.998 17.36 432.683C15.2768 431.368 13.989 429.564 13.7517 427.628V16.3713C13.989 14.4353 15.2768 12.6312 17.36 11.3163C19.4432 10.0015 22.1699 9.27173 24.9997 9.27173C27.8296 9.27173 30.5562 10.0015 32.6394 11.3163C34.7226 12.6312 36.0105 14.4353 36.2477 16.3713V16.3713Z" fill="#18357E"/>
<path d="M35.9302 16.3713V427.628C35.6965 429.508 34.4437 431.259 32.4197 432.534C30.3958 433.81 27.748 434.518 25.0001 434.518C22.2523 434.518 19.6045 433.81 17.5805 432.534C15.5565 431.259 14.3038 429.508 14.0701 427.628V16.3713C14.3038 14.4917 15.5565 12.7407 17.5805 11.4648C19.6045 10.1888 22.2523 9.48083 25.0001 9.48083C27.748 9.48083 30.3958 10.1888 32.4197 11.4648C34.4437 12.7407 35.6965 14.4917 35.9302 16.3713V16.3713Z" fill="#1A3A89"/>
<path d="M35.532 16.3713V427.628C35.659 428.63 35.481 429.64 35.0093 430.592C34.5377 431.545 33.7827 432.42 32.7923 433.162C31.8019 433.903 30.5977 434.495 29.2561 434.9C27.9146 435.306 26.465 435.515 24.9994 435.515C23.5339 435.515 22.0843 435.306 20.7427 434.9C19.4012 434.495 18.197 433.903 17.2066 433.162C16.2162 432.42 15.4612 431.545 14.9895 430.592C14.5179 429.64 14.3399 428.63 14.4669 427.628V16.3713C14.3399 15.3689 14.5179 14.3593 14.9895 13.4067C15.4612 12.4541 16.2162 11.5792 17.2066 10.8376C18.197 10.0959 19.4012 9.50377 20.7427 9.09867C22.0843 8.69357 23.5339 8.48438 24.9994 8.48438C26.465 8.48438 27.9146 8.69357 29.2561 9.09867C30.5977 9.50377 31.8019 10.0959 32.7923 10.8376C33.7827 11.5792 34.5377 12.4541 35.0093 13.4067C35.481 14.3593 35.659 15.3689 35.532 16.3713Z" fill="#1C3E95"/>
<path d="M35.2145 16.3712V427.628C35.3396 428.601 35.1685 429.581 34.712 430.506C34.2555 431.431 33.5237 432.281 32.563 433.001C31.6023 433.721 30.4338 434.297 29.1317 434.69C27.8296 435.084 26.4225 435.287 24.9999 435.287C23.5772 435.287 22.1701 435.084 20.8681 434.69C19.566 434.297 18.3975 433.721 17.4368 433.001C16.4761 432.281 15.7442 431.431 15.2877 430.506C14.8312 429.581 14.6601 428.601 14.7852 427.628V16.3712C14.6601 15.3983 14.8312 14.4182 15.2877 13.4931C15.7442 12.5681 16.4761 11.7184 17.4368 10.998C18.3975 10.2777 19.566 9.70246 20.8681 9.30892C22.1701 8.91539 23.5772 8.71216 24.9999 8.71216C26.4225 8.71216 27.8296 8.91539 29.1317 9.30892C30.4338 9.70246 31.6023 10.2777 32.563 10.998C33.5237 11.7184 34.2555 12.5681 34.712 13.4931C35.1685 14.4182 35.3396 15.3983 35.2145 16.3712V16.3712Z" fill="#1F43A0"/>
<path d="M34.8959 16.3711V427.628C34.6742 429.325 33.5355 430.903 31.7041 432.053C29.8726 433.202 27.4808 433.84 24.9992 433.84C22.5176 433.84 20.1259 433.202 18.2944 432.053C16.4629 430.903 15.3243 429.325 15.1025 427.628V16.3711C15.3243 14.6742 16.4629 13.0957 18.2944 11.9462C20.1259 10.7966 22.5176 10.1591 24.9992 10.1591C27.4808 10.1591 29.8726 10.7966 31.7041 11.9462C33.5355 13.0957 34.6742 14.6742 34.8959 16.3711V16.3711Z" fill="#2148AC"/>
<path d="M34.4987 16.372V427.629C34.4987 429.365 33.4937 431.031 31.7048 432.259C29.9159 433.487 27.4896 434.177 24.9598 434.177C22.4299 434.177 20.0036 433.487 18.2147 432.259C16.4258 431.031 15.4208 429.365 15.4208 427.629V16.372C15.4208 14.6352 16.4258 12.9695 18.2147 11.7414C20.0036 10.5133 22.4299 9.82336 24.9598 9.82336C27.4896 9.82336 29.9159 10.5133 31.7048 11.7414C33.4937 12.9695 34.4987 14.6352 34.4987 16.372Z" fill="#234DB7"/>
<path d="M34.18 16.3717V427.628C34.299 428.505 34.1501 429.39 33.7428 430.225C33.3355 431.06 32.6788 431.828 31.8147 432.479C30.9505 433.13 29.898 433.65 28.7244 434.006C27.5507 434.362 26.2818 434.546 24.9988 434.546C23.7158 434.546 22.4469 434.362 21.2733 434.006C20.0996 433.65 19.0471 433.13 18.1829 432.479C17.3188 431.828 16.6621 431.06 16.2548 430.225C15.8475 429.39 15.6986 428.505 15.8176 427.628V16.3717C15.6986 15.4947 15.8475 14.6103 16.2548 13.775C16.6621 12.9398 17.3188 12.1721 18.1829 11.521C19.0471 10.8699 20.0996 10.3498 21.2733 9.99392C22.4469 9.63804 23.7158 9.45422 24.9988 9.45422C26.2818 9.45422 27.5507 9.63804 28.7244 9.99392C29.898 10.3498 30.9505 10.8699 31.8147 11.521C32.6788 12.1721 33.3355 12.9398 33.7428 13.775C34.1501 14.6103 34.299 15.4947 34.18 16.3717V16.3717Z" fill="#2551C3"/>
<path d="M33.8615 16.3711V427.628C33.6524 429.142 32.6282 430.549 30.9892 431.572C29.3501 432.596 27.214 433.163 24.9983 433.163C22.7825 433.163 20.6464 432.596 19.0073 431.572C17.3683 430.549 16.3441 429.142 16.135 427.628V16.3711C16.3441 14.8568 17.3683 13.4504 19.0073 12.4268C20.6464 11.4032 22.7825 10.8359 24.9983 10.8359C27.214 10.8359 29.3501 11.4032 30.9892 12.4268C32.6282 13.4504 33.6524 14.8568 33.8615 16.3711V16.3711Z" fill="#2756CE"/>
<path d="M33.5438 16.371V427.628C33.3387 429.086 32.3499 430.44 30.77 431.424C29.1902 432.409 27.1326 432.955 24.9985 432.955C22.8645 432.955 20.8069 432.409 19.2271 431.424C17.6472 430.44 16.6584 429.086 16.4532 427.628V16.371C16.6584 14.9127 17.6472 13.5592 19.2271 12.5743C20.8069 11.5894 22.8645 11.0437 24.9985 11.0437C27.1326 11.0437 29.1902 11.5894 30.77 12.5743C32.3499 13.5592 33.3387 14.9127 33.5438 16.371V16.371Z" fill="#295BDA"/>
<path d="M33.1489 16.3722V427.629C33.1489 429.112 32.2904 430.535 30.7624 431.584C29.2344 432.633 27.162 433.223 25.001 433.223C22.8401 433.223 20.7676 432.633 19.2396 431.584C17.7116 430.535 16.8531 429.112 16.8531 427.629V16.3722C16.8531 14.8887 17.7116 13.4659 19.2396 12.4169C20.7676 11.3679 22.8401 10.7786 25.001 10.7786C27.162 10.7786 29.2344 11.3679 30.7624 12.4169C32.2904 13.4659 33.1489 14.8887 33.1489 16.3722V16.3722Z" fill="#2C60E5"/>
<path d="M32.8289 16.3717V427.628C32.8289 429.076 31.9914 430.464 30.5007 431.487C29.0099 432.511 26.988 433.086 24.8798 433.086C22.7715 433.086 20.7497 432.511 19.2589 431.487C17.7682 430.464 16.9307 429.076 16.9307 427.628V16.3717C16.9307 14.9243 17.7682 13.5362 19.2589 12.5128C20.7497 11.4894 22.7715 10.9144 24.8798 10.9144C26.988 10.9144 29.0099 11.4894 30.5007 12.5128C31.9914 13.5362 32.8289 14.9243 32.8289 16.3717V16.3717Z" fill="#2E64F1"/>
<path d="M32.5133 16.3724V427.629C32.3219 428.905 31.4478 430.087 30.0603 430.947C28.6728 431.806 26.8703 432.282 25.0014 432.282C23.1326 432.282 21.3301 431.806 19.9426 430.947C18.555 430.087 17.681 428.905 17.4895 427.629V16.3724C17.681 15.0961 18.555 13.914 19.9426 13.0545C21.3301 12.195 23.1326 11.7192 25.0014 11.7192C26.8703 11.7192 28.6728 12.195 30.0603 13.0545C31.4478 13.914 32.3219 15.0961 32.5133 16.3724Z" fill="#3069FC"/>
<path d="M32.034 16.3721V427.629C32.1391 428.306 32.0353 428.991 31.7297 429.639C31.424 430.287 30.9232 430.884 30.2598 431.39C29.5963 431.897 28.7851 432.302 27.8788 432.579C26.9724 432.857 25.9913 433 24.9991 433C24.0068 433 23.0257 432.857 22.1194 432.579C21.213 432.302 20.4018 431.897 19.7384 431.39C19.0749 430.884 18.5741 430.287 18.2684 429.639C17.9627 428.991 17.859 428.306 17.9641 427.629V16.3721C17.859 15.6948 17.9627 15.0098 18.2684 14.3618C18.5741 13.7137 19.0749 13.117 19.7384 12.6105C20.4018 12.104 21.213 11.6989 22.1194 11.4217C23.0257 11.1444 24.0068 11.0011 24.9991 11.0011C25.9913 11.0011 26.9724 11.1444 27.8788 11.4217C28.7851 11.6989 29.5963 12.104 30.2598 12.6105C30.9232 13.117 31.424 13.7137 31.7297 14.3618C32.0353 15.0098 32.1391 15.6948 32.034 16.3721V16.3721Z" fill="#386FFC"/>
<path d="M31.5575 16.3721V427.629C31.6591 428.262 31.5653 428.902 31.2821 429.508C30.9989 430.115 30.5327 430.673 29.9138 431.147C29.295 431.622 28.5375 432.001 27.6907 432.261C26.8439 432.52 25.9269 432.655 24.9995 432.655C24.072 432.655 23.155 432.52 22.3082 432.261C21.4614 432.001 20.704 431.622 20.0851 431.147C19.4663 430.673 19.0001 430.115 18.7169 429.508C18.4337 428.902 18.3398 428.262 18.4415 427.629V16.3721C18.3398 15.7392 18.4337 15.0988 18.7169 14.4925C19.0001 13.8862 19.4663 13.3277 20.0851 12.8535C20.704 12.3792 21.4614 11.9999 22.3082 11.7401C23.155 11.4804 24.072 11.3462 24.9995 11.3462C25.9269 11.3462 26.8439 11.4804 27.6907 11.7401C28.5375 11.9999 29.295 12.3792 29.9138 12.8535C30.5327 13.3277 30.9989 13.8862 31.2821 14.4925C31.5653 15.0988 31.6591 15.7392 31.5575 16.3721V16.3721Z" fill="#4175FC"/>
<path d="M31.1615 16.3714V427.628C30.9893 428.667 30.2662 429.626 29.1299 430.322C27.9937 431.019 26.524 431.403 25.0009 431.403C23.4779 431.403 22.0081 431.019 20.8719 430.322C19.7357 429.626 19.0125 428.667 18.8403 427.628V16.3714C19.0125 15.3325 19.7357 14.3734 20.8719 13.6771C22.0081 12.9808 23.4779 12.5959 25.0009 12.5959C26.524 12.5959 27.9937 12.9808 29.1299 13.6771C30.2662 14.3734 30.9893 15.3325 31.1615 16.3714V16.3714Z" fill="#497CFC"/>
<path d="M30.685 16.372V427.629C30.5201 428.584 29.8505 429.465 28.8029 430.104C27.7554 430.743 26.4027 431.096 25.0014 431.096C23.6001 431.096 22.2474 430.743 21.1999 430.104C20.1523 429.465 19.4826 428.584 19.3177 427.629V16.372C19.4826 15.4166 20.1523 14.536 21.1999 13.897C22.2474 13.258 23.6001 12.905 25.0014 12.905C26.4027 12.905 27.7554 13.258 28.8029 13.897C29.8505 14.536 30.5201 15.4166 30.685 16.372V16.372Z" fill="#5182FC"/>
<path d="M30.2055 16.3724V427.629C30.2969 428.136 30.2303 428.65 30.0104 429.137C29.7905 429.625 29.4222 430.074 28.9299 430.457C28.4376 430.839 27.8326 431.145 27.1549 431.355C26.4771 431.565 25.7422 431.673 24.9989 431.673C24.2555 431.673 23.5206 431.565 22.8429 431.355C22.1651 431.145 21.5601 430.839 21.0678 430.457C20.5755 430.074 20.2071 429.625 19.9872 429.137C19.7673 428.65 19.7009 428.136 19.7922 427.629V16.3724C19.7009 15.8659 19.7673 15.3519 19.9872 14.8644C20.2071 14.3769 20.5755 13.927 21.0678 13.5446C21.5601 13.1622 22.1651 12.856 22.8429 12.6463C23.5206 12.4366 24.2555 12.3281 24.9989 12.3281C25.7422 12.3281 26.4771 12.4366 27.1549 12.6463C27.8326 12.856 28.4376 13.1622 28.9299 13.5446C29.4222 13.927 29.7905 14.3769 30.0104 14.8644C30.2303 15.3519 30.2969 15.8659 30.2055 16.3724V16.3724Z" fill="#5988FC"/>
<path d="M29.73 16.3711V427.628C29.73 428.496 29.2275 429.329 28.3331 429.943C27.4386 430.557 26.2255 430.902 24.9606 430.902C23.6956 430.902 22.4824 430.557 21.588 429.943C20.6935 429.329 20.191 428.496 20.191 427.628V16.3711C20.191 15.5027 20.6935 14.6699 21.588 14.0558C22.4824 13.4418 23.6956 13.0968 24.9606 13.0968C26.2255 13.0968 27.4386 13.4418 28.3331 14.0558C29.2275 14.6699 29.73 15.5027 29.73 16.3711V16.3711Z" fill="#628EFD"/>
<path d="M29.0924 16.3715V427.628C29.0715 428.415 28.6018 429.164 27.7841 429.715C26.9664 430.266 25.8662 430.575 24.7203 430.575C24.1566 430.575 23.5984 430.499 23.0776 430.351C22.5569 430.203 22.0837 429.986 21.6851 429.712C21.2865 429.438 20.9703 429.113 20.7546 428.756C20.5388 428.398 20.4279 428.015 20.4279 427.628V16.3715C20.4279 15.5899 20.8801 14.8403 21.6851 14.2877C22.4901 13.735 23.5819 13.4246 24.7203 13.4246C25.8662 13.4244 26.9664 13.7332 27.7841 14.2843C28.6018 14.8354 29.0715 15.5849 29.0924 16.3715Z" fill="#6A94FD"/>
<path d="M29.095 16.3717V427.628C29.095 428.352 28.6763 429.046 27.9309 429.558C27.1855 430.069 26.1746 430.357 25.1204 430.357C24.0663 430.357 23.0554 430.069 22.31 429.558C21.5646 429.046 21.1459 428.352 21.1459 427.628V16.3717C21.1459 15.648 21.5646 14.954 22.31 14.4423C23.0554 13.9305 24.0663 13.6431 25.1204 13.6431C26.1746 13.6431 27.1855 13.9305 27.9309 14.4423C28.6763 14.954 29.095 15.648 29.095 16.3717Z" fill="#729AFD"/>
<path d="M28.3771 16.3719V427.629C28.452 427.963 28.4208 428.304 28.2854 428.63C28.1501 428.955 27.9138 429.256 27.5929 429.513C27.2721 429.77 26.8741 429.976 26.4263 430.117C25.9785 430.259 25.4915 430.332 24.9987 430.332C24.5059 430.332 24.0189 430.259 23.5711 430.117C23.1234 429.976 22.7254 429.77 22.4045 429.513C22.0836 429.256 21.8474 428.955 21.712 428.63C21.5767 428.304 21.5454 427.963 21.6203 427.629V16.3719C21.5454 16.0375 21.5767 15.6959 21.712 15.3706C21.8474 15.0453 22.0836 14.7439 22.4045 14.4871C22.7254 14.2303 23.1234 14.0242 23.5711 13.8829C24.0189 13.7416 24.5059 13.6685 24.9987 13.6685C25.4915 13.6685 25.9785 13.7416 26.4263 13.8829C26.8741 14.0242 27.2721 14.2303 27.5929 14.4871C27.9138 14.7439 28.1501 15.0453 28.2854 15.3706C28.4208 15.6959 28.452 16.0375 28.3771 16.3719Z" fill="#7AA1FD"/>
<path d="M27.981 16.3715V427.628C27.8652 428.114 27.5018 428.555 26.9557 428.873C26.4097 429.192 25.7166 429.367 25.0001 429.367C24.2836 429.367 23.5904 429.192 23.0444 428.873C22.4984 428.555 22.135 428.114 22.0192 427.628V16.3715C22.135 15.8861 22.4984 15.4448 23.0444 15.1263C23.5904 14.8079 24.2836 14.6331 25.0001 14.6331C25.7166 14.6331 26.4097 14.8079 26.9557 15.1263C27.5018 15.4448 27.8652 15.8861 27.981 16.3715V16.3715Z" fill="#83A7FD"/>
<path d="M27.5047 16.3716V427.628C27.3996 428.032 27.0911 428.397 26.6334 428.66C26.1756 428.923 25.5977 429.067 25.0007 429.067C24.4037 429.067 23.8258 428.923 23.368 428.66C22.9103 428.397 22.6018 428.032 22.4967 427.628V16.3716C22.6018 15.9681 22.9103 15.603 23.368 15.3399C23.8258 15.0769 24.4037 14.9327 25.0007 14.9327C25.5977 14.9327 26.1756 15.0769 26.6334 15.3399C27.0911 15.603 27.3996 15.9681 27.5047 16.3716Z" fill="#8BADFD"/>
<path d="M27.5047 16.3717V427.628C27.3996 428.032 27.0911 428.397 26.6334 428.66C26.1756 428.923 25.5977 429.067 25.0007 429.067C24.4037 429.067 23.8258 428.923 23.368 428.66C22.9103 428.397 22.6018 428.032 22.4967 427.628V16.3717C22.6018 15.9683 22.9103 15.6031 23.368 15.34C23.8258 15.077 24.4037 14.9329 25.0007 14.9329C25.5977 14.9329 26.1756 15.077 26.6334 15.34C27.0911 15.6031 27.3996 15.9683 27.5047 16.3717Z" fill="#8BADFD"/>
</g>
</svg>
