<svg width="1176" height="91" viewBox="0 0 1176 91" fill="none" xmlns="http://www.w3.org/2000/svg">
<g style="mix-blend-mode:screen">
<path d="M46.0369 0.141634L1130.32 0.141634C1142.3 0.141634 1153.79 4.90139 1162.27 13.374C1170.74 21.8466 1175.5 33.338 1175.5 45.3201C1175.5 57.3022 1170.74 68.7936 1162.27 77.2662C1153.79 85.7388 1142.3 90.4985 1130.32 90.4985L46.0369 90.4985C34.0548 90.4985 22.5635 85.7388 14.0909 77.2662C5.61825 68.7936 0.858398 57.3022 0.858398 45.3201C0.858398 33.338 5.61825 21.8466 14.0909 13.374C22.5635 4.90139 34.0548 0.141634 46.0369 0.141634V0.141634Z" fill="black"/>
<path d="M46.0352 2.44224L1130.32 2.44224C1141.77 2.44224 1152.75 6.98984 1160.84 15.0847C1168.93 23.1795 1173.48 34.1585 1173.48 45.6064C1173.48 57.0542 1168.93 68.0332 1160.84 76.1281C1152.75 84.2229 1141.77 88.7705 1130.32 88.7705L46.0352 88.7705C34.5874 88.7705 23.6084 84.2229 15.5136 76.1281C7.41874 68.0332 2.87109 57.0542 2.87109 45.6064C2.87109 34.1585 7.41874 23.1795 15.5136 15.0847C23.6084 6.98984 34.5874 2.44224 46.0352 2.44224V2.44224Z" fill="#040C01"/>
<path d="M46.0377 4.60121L1130.32 4.60121C1141.12 4.60121 1151.48 8.89115 1159.11 16.5273C1166.75 24.1634 1171.04 34.5203 1171.04 45.3194C1171.04 56.1185 1166.75 66.4754 1159.11 74.1115C1151.48 81.7477 1141.12 86.0376 1130.32 86.0376L46.0377 86.0376C35.2386 86.0376 24.8818 81.7477 17.2457 74.1115C9.60952 66.4754 5.31958 56.1185 5.31958 45.3194C5.31958 34.5203 9.60952 24.1634 17.2457 16.5273C24.8818 8.89115 35.2386 4.60121 46.0377 4.60121V4.60121Z" fill="#091701"/>
<path d="M46.0364 6.9008L1130.32 6.9008C1140.51 6.9008 1150.28 10.9482 1157.48 18.1527C1164.69 25.3571 1168.74 35.1283 1168.74 45.3169C1168.74 55.5054 1164.69 65.2766 1157.48 72.4811C1150.28 79.6855 1140.51 83.7329 1130.32 83.7329L46.0364 83.7329C35.8479 83.7329 26.0766 79.6855 18.8722 72.4811C11.6678 65.2766 7.62036 55.5054 7.62036 45.3169C7.62036 35.1283 11.6678 25.3571 18.8722 18.1527C26.0766 10.9482 35.8479 6.9008 46.0364 6.9008V6.9008Z" fill="#0D2302"/>
<path d="M46.0358 9.20397L1130.32 9.20397C1135.31 8.75684 1140.35 9.35452 1145.1 10.959C1149.85 12.5635 1154.21 15.1395 1157.91 18.5232C1161.61 21.9069 1164.57 26.024 1166.59 30.6124C1168.61 35.2008 1169.65 40.16 1169.65 45.1741C1169.65 50.1881 1168.61 55.1472 1166.59 59.7356C1164.57 64.324 1161.61 68.4411 1157.91 71.8248C1154.21 75.2085 1149.85 77.7847 1145.1 79.3892C1140.35 80.9937 1135.31 81.5913 1130.32 81.1442L46.0358 81.1442C37.0513 80.3398 28.693 76.202 22.6056 69.5452C16.5182 62.8884 13.1423 54.1946 13.1423 45.1741C13.1423 36.1536 16.5182 27.4595 22.6056 20.8027C28.693 14.1459 37.0513 10.0084 46.0358 9.20397V9.20397Z" fill="#112E02"/>
<path d="M46.0373 11.3672L1130.32 11.3672C1139.33 11.3672 1147.96 14.9446 1154.33 21.3126C1160.7 27.6805 1164.28 36.3174 1164.28 45.323C1164.28 54.3286 1160.7 62.9655 1154.33 69.3335C1147.96 75.7014 1139.33 79.2788 1130.32 79.2788L46.0373 79.2788C37.0317 79.2788 28.3949 75.7014 22.027 69.3335C15.659 62.9655 12.0815 54.3286 12.0815 45.323C12.0815 36.3174 15.659 27.6805 22.027 21.3126C28.3949 14.9446 37.0317 11.3672 46.0373 11.3672V11.3672Z" fill="#163A03"/>
<path d="M46.036 13.6673L1130.32 13.6673C1138.71 13.6673 1146.77 17.0022 1152.7 22.9384C1158.64 28.8746 1161.97 36.9259 1161.97 45.321C1161.97 53.716 1158.64 61.7673 1152.7 67.7035C1146.77 73.6397 1138.71 76.9746 1130.32 76.9746L46.036 76.9746C37.6409 76.9746 29.5897 73.6397 23.6535 67.7035C17.7173 61.7673 14.3823 53.716 14.3823 45.321C14.3823 36.9259 17.7173 28.8746 23.6535 22.9384C29.5897 17.0022 37.6409 13.6673 46.036 13.6673V13.6673Z" fill="#1A4503"/>
<path d="M46.0384 15.9674L1130.32 15.9674C1138.11 15.9674 1145.57 19.0598 1151.08 24.5643C1156.58 30.0688 1159.67 37.5344 1159.67 45.3189C1159.67 53.1034 1156.58 60.5692 1151.08 66.0737C1145.57 71.5782 1138.11 74.6704 1130.32 74.6704L46.0384 74.6704C38.2538 74.6704 30.7882 71.5782 25.2837 66.0737C19.7792 60.5692 16.6868 53.1034 16.6868 45.3189C16.6868 37.5344 19.7792 30.0688 25.2837 24.5643C30.7882 19.0598 38.2538 15.9674 46.0384 15.9674V15.9674Z" fill="#1F5104"/>
<path d="M46.0358 18.1284L1130.32 18.1284C1134.05 17.8567 1137.79 18.3564 1141.32 19.5963C1144.84 20.8362 1148.08 22.7895 1150.81 25.3345C1153.55 27.8796 1155.73 30.9618 1157.23 34.3883C1158.72 37.8148 1159.49 41.5122 1159.49 45.2498C1159.49 48.9874 1158.72 52.685 1157.23 56.1115C1155.73 59.5381 1153.55 62.6201 1150.81 65.1651C1148.08 67.7101 1144.84 69.6637 1141.32 70.9035C1137.79 72.1434 1134.05 72.6431 1130.32 72.3714L46.0358 72.3714C42.3081 72.6431 38.5644 72.1434 35.0384 70.9035C31.5124 69.6637 28.2798 67.7101 25.5425 65.1651C22.8053 62.6201 20.622 59.5381 19.1291 56.1115C17.6362 52.685 16.8657 48.9874 16.8657 45.2498C16.8657 41.5122 17.6362 37.8148 19.1291 34.3883C20.622 30.9618 22.8053 27.8796 25.5425 25.3345C28.2798 22.7895 31.5124 20.8362 35.0384 19.5963C38.5644 18.3564 42.3081 17.8567 46.0358 18.1284V18.1284Z" fill="#235C04"/>
<path d="M46.0356 20.4265L1130.32 20.4265C1136.92 20.4265 1143.25 23.0488 1147.92 27.7169C1152.59 32.3849 1155.21 38.7161 1155.21 45.3177C1155.21 51.9193 1152.59 58.2506 1147.92 62.9186C1143.25 67.5866 1136.92 70.209 1130.32 70.209L46.0356 70.209C39.434 70.209 33.1028 67.5866 28.4348 62.9186C23.7668 58.2506 21.1443 51.9193 21.1443 45.3177C21.1443 38.7161 23.7668 32.3849 28.4348 27.7169C33.1028 23.0488 39.434 20.4265 46.0356 20.4265V20.4265Z" fill="#276805"/>
<path d="M46.038 22.7337L1130.32 22.7337C1136.31 22.7337 1142.06 25.1135 1146.29 29.3498C1150.53 33.5861 1152.91 39.3317 1152.91 45.3228C1152.91 51.3138 1150.53 57.0594 1146.29 61.2957C1142.06 65.532 1136.31 67.9121 1130.32 67.9121L46.038 67.9121C43.0715 67.9121 40.1341 67.3276 37.3934 66.1924C34.6528 65.0572 32.1626 63.3933 30.065 61.2957C27.9674 59.1981 26.3034 56.708 25.1682 53.9673C24.033 51.2267 23.4487 48.2892 23.4487 45.3228C23.4487 42.3563 24.033 39.4189 25.1682 36.6782C26.3034 33.9376 27.9674 31.4474 30.065 29.3498C32.1626 27.2522 34.6528 25.5883 37.3934 24.4531C40.1341 23.3179 43.0715 22.7337 46.038 22.7337V22.7337Z" fill="#2C7305"/>
<path d="M46.0367 25.033L1130.32 25.033C1135.7 25.033 1140.86 27.1704 1144.66 30.975C1148.47 34.7796 1150.61 39.9397 1150.61 45.3202C1150.61 50.7007 1148.47 55.8609 1144.66 59.6655C1140.86 63.47 1135.7 65.6074 1130.32 65.6074L46.0367 65.6074C43.3725 65.6074 40.7345 65.0827 38.2731 64.0631C35.8118 63.0436 33.5753 61.5493 31.6915 59.6655C29.8076 57.7816 28.3133 55.5451 27.2938 53.0837C26.2743 50.6224 25.7495 47.9844 25.7495 45.3202C25.7495 42.6561 26.2743 40.0181 27.2938 37.5567C28.3133 35.0954 29.8076 32.8588 31.6915 30.975C33.5753 29.0912 35.8118 27.5968 38.2731 26.5773C40.7345 25.5578 43.3725 25.033 46.0367 25.033Z" fill="#307F06"/>
<path d="M46.0371 25.6081L1130.32 25.6081C1135.55 25.6081 1140.56 27.6849 1144.26 31.3815C1147.96 35.0781 1150.03 40.0919 1150.03 45.3197C1150.03 50.5475 1147.96 55.5613 1144.26 59.2579C1140.56 62.9545 1135.55 65.0313 1130.32 65.0313L46.0371 65.0312C40.8092 65.0312 35.7955 62.9545 32.0988 59.2579C28.4022 55.5613 26.3254 50.5475 26.3254 45.3197C26.3254 40.0919 28.4022 35.0781 32.0988 31.3815C35.7955 27.6849 40.8092 25.6081 46.0371 25.6081Z" fill="#348B06"/>
<path d="M46.0377 26.1833L1130.32 26.1833C1135.4 26.1833 1140.26 28.1996 1143.85 31.7883C1147.44 35.377 1149.46 40.2442 1149.46 45.3194C1149.46 50.3947 1147.44 55.2621 1143.85 58.8508C1140.26 62.4395 1135.4 64.4556 1130.32 64.4556L46.0377 64.4556C40.9625 64.4556 36.0952 62.4395 32.5064 58.8508C28.9177 55.2621 26.9016 50.3947 26.9016 45.3194C26.9016 40.2442 28.9177 35.377 32.5064 31.7883C36.0952 28.1996 40.9625 26.1833 46.0377 26.1833V26.1833Z" fill="#399607"/>
<path d="M46.0374 26.9006L1130.32 26.9006C1132.89 26.6741 1135.47 26.9837 1137.91 27.8099C1140.35 28.6362 1142.59 29.9609 1144.49 31.6998C1146.39 33.4387 1147.9 35.5538 1148.94 37.9105C1149.98 40.2673 1150.51 42.8142 1150.51 45.3893C1150.51 47.9643 1149.98 50.5111 1148.94 52.8678C1147.9 55.2246 1146.39 57.3396 1144.49 59.0785C1142.59 60.8174 1140.35 62.1422 1137.91 62.9684C1135.47 63.7946 1132.89 64.1043 1130.32 63.8778L46.0374 63.8778C43.4724 64.1043 40.8882 63.7946 38.4494 62.9684C36.0105 62.1422 33.7702 60.8174 31.871 59.0785C29.9718 57.3396 28.4552 55.2246 27.4176 52.8678C26.3801 50.5111 25.8442 47.9643 25.8442 45.3893C25.8442 42.8142 26.3801 40.2673 27.4176 37.9105C28.4552 35.5538 29.9718 33.4387 31.871 31.6998C33.7702 29.9609 36.0105 28.6362 38.4494 27.8099C40.8882 26.9837 43.4724 26.6741 46.0374 26.9006V26.9006Z" fill="#3DA207"/>
<path d="M46.0355 27.4801L1130.32 27.4801C1132.66 27.4801 1134.98 27.9416 1137.15 28.8382C1139.31 29.7348 1141.28 31.049 1142.93 32.7057C1144.59 34.3624 1145.9 36.3291 1146.8 38.4937C1147.7 40.6583 1148.16 42.9784 1148.16 45.3213C1148.16 47.6643 1147.7 49.9844 1146.8 52.1489C1145.9 54.3135 1144.59 56.2803 1142.93 57.937C1141.28 59.5937 1139.31 60.9079 1137.15 61.8045C1134.98 62.7011 1132.66 63.1626 1130.32 63.1626L46.0355 63.1626C41.3037 63.1626 36.7658 61.2829 33.4199 57.937C30.074 54.5911 28.1943 50.0531 28.1943 45.3213C28.1943 40.5896 30.074 36.0515 33.4199 32.7057C36.7658 29.3598 41.3037 27.4801 46.0355 27.4801V27.4801Z" fill="#41AD08"/>
<path d="M46.0359 28.0552L1130.32 28.0552C1134.9 28.0552 1139.29 29.8742 1142.53 33.1122C1145.77 36.3501 1147.58 40.7417 1147.58 45.3208C1147.58 49.9 1145.77 54.2915 1142.53 57.5294C1139.29 60.7674 1134.9 62.5864 1130.32 62.5864L46.0359 62.5864C41.4568 62.5864 37.0652 60.7674 33.8273 57.5294C30.5893 54.2915 28.7703 49.9 28.7703 45.3208C28.7703 40.7417 30.5893 36.3501 33.8273 33.1122C37.0652 29.8742 41.4568 28.0552 46.0359 28.0552V28.0552Z" fill="#46B908"/>
<path d="M46.0366 28.6304L1130.32 28.6304C1134.75 28.6304 1138.99 30.389 1142.12 33.519C1145.25 36.649 1147.01 40.8941 1147.01 45.3206C1147.01 49.7471 1145.25 53.9924 1142.12 57.1224C1138.99 60.2524 1134.75 62.0107 1130.32 62.0107L46.0366 62.0107C41.6101 62.0107 37.3649 60.2524 34.2349 57.1224C31.1049 53.9924 29.3464 49.7471 29.3464 45.3206C29.3464 40.8941 31.1049 36.649 34.2349 33.519C37.3649 30.389 41.6101 28.6304 46.0366 28.6304Z" fill="#4AC409"/>
<path d="M46.0374 29.3525L1130.32 29.3525C1134.56 29.3525 1138.62 31.0352 1141.61 34.0303C1144.61 37.0254 1146.29 41.0875 1146.29 45.3232C1146.29 49.5589 1144.61 53.621 1141.61 56.6161C1138.62 59.6112 1134.56 61.2939 1130.32 61.2939L46.0374 61.2939C41.8017 61.2939 37.7395 59.6112 34.7444 56.6161C31.7493 53.621 30.0667 49.5589 30.0667 45.3232C30.0667 41.0875 31.7493 37.0254 34.7444 34.0303C37.7395 31.0352 41.8017 29.3525 46.0374 29.3525Z" fill="#4FD009"/>
<path d="M46.0378 29.9274L1130.32 29.9274C1134.4 29.9274 1138.32 31.5492 1141.21 34.4364C1144.09 37.3235 1145.72 41.2394 1145.72 45.3225C1145.72 49.4055 1144.09 53.3214 1141.21 56.2086C1138.32 59.0957 1134.4 60.7178 1130.32 60.7178L46.0378 60.7178C44.0161 60.7178 42.0141 60.3195 40.1463 59.5458C38.2785 58.7722 36.5813 57.6381 35.1517 56.2086C33.7221 54.779 32.5881 53.0818 31.8145 51.2139C31.0408 49.3461 30.6426 47.3442 30.6426 45.3225C30.6426 43.3007 31.0408 41.2988 31.8145 39.431C32.5881 37.5632 33.7221 35.8659 35.1517 34.4364C36.5813 33.0068 38.2785 31.8728 40.1463 31.0991C42.0141 30.3254 44.0161 29.9274 46.0378 29.9274Z" fill="#53DB0A"/>
<path d="M46.0384 30.5023L1130.32 30.5023C1134.25 30.5023 1138.02 32.0636 1140.8 34.8429C1143.58 37.6221 1145.14 41.3915 1145.14 45.3219C1145.14 49.2524 1143.58 53.0218 1140.8 55.801C1138.02 58.5802 1134.25 60.1416 1130.32 60.1416L46.0384 60.1416C42.108 60.1416 38.3386 58.5802 35.5593 55.801C32.7801 53.0218 31.2188 49.2524 31.2188 45.3219C31.2188 41.3915 32.7801 37.6221 35.5593 34.8429C38.3386 32.0636 42.108 30.5023 46.0384 30.5023V30.5023Z" fill="#57E70A"/>
<path d="M46.0353 31.2181L1130.32 31.2181C1134.13 31.2181 1137.79 32.7339 1140.49 35.4322C1143.19 38.1305 1144.71 41.7901 1144.71 45.6061C1144.71 49.422 1143.19 53.0817 1140.49 55.78C1137.79 58.4783 1134.13 59.9941 1130.32 59.9941L46.0353 59.9941C42.2193 59.9941 38.5597 58.4783 35.8614 55.78C33.1631 53.0817 31.6472 49.422 31.6472 45.6061C31.6472 41.7901 33.1631 38.1305 35.8614 35.4322C38.5597 32.7339 42.2193 31.2181 46.0353 31.2181V31.2181Z" fill="#5CF20B"/>
<path d="M46.0362 31.7927L1130.32 31.7927C1133.91 31.7927 1137.35 33.2178 1139.88 35.7541C1142.42 38.2905 1143.84 41.7305 1143.84 45.3175C1143.84 48.9045 1142.42 52.3447 1139.88 54.8811C1137.35 57.4174 1133.91 58.8423 1130.32 58.8423L46.0362 58.8423C42.4492 58.8423 39.0092 57.4174 36.4728 54.8811C33.9364 52.3447 32.5115 48.9045 32.5115 45.3175C32.5115 41.7305 33.9364 38.2905 36.4728 35.7541C39.0092 33.2178 42.4492 31.7927 46.0362 31.7927V31.7927Z" fill="#60FE0B"/>
<path d="M46.0368 32.5148L1130.32 32.5148C1133.72 32.5148 1136.97 33.864 1139.37 36.2655C1141.78 38.6669 1143.13 41.9239 1143.13 45.3201C1143.13 48.7163 1141.78 51.9733 1139.37 54.3748C1136.97 56.7763 1133.72 58.1255 1130.32 58.1255L46.0368 58.1255C42.6406 58.1255 39.3835 56.7763 36.982 54.3748C34.5806 51.9733 33.2314 48.7163 33.2314 45.3201C33.2314 41.9239 34.5806 38.6669 36.982 36.2655C39.3835 33.864 42.6406 32.5148 46.0368 32.5148V32.5148Z" fill="#67FE16"/>
<path d="M46.0378 33.377L1130.32 33.377C1133.49 33.377 1136.53 34.6352 1138.77 36.8748C1141 39.1144 1142.26 42.1519 1142.26 45.3191C1142.26 48.4864 1141 51.5239 1138.77 53.7635C1136.53 56.003 1133.49 57.2612 1130.32 57.2612L46.0378 57.2612C42.8705 57.2612 39.833 56.003 37.5935 53.7635C35.3539 51.5239 34.0957 48.4864 34.0957 45.3191C34.0957 42.1519 35.3539 39.1144 37.5935 36.8748C39.833 34.6352 42.8705 33.377 46.0378 33.377V33.377Z" fill="#6FFE21"/>
<path d="M46.0385 34.2397L1130.32 34.2397C1133.26 34.2397 1136.08 35.4072 1138.16 37.4848C1140.23 39.5625 1141.4 42.3803 1141.4 45.3186C1141.4 48.2569 1140.23 51.0749 1138.16 53.1526C1136.08 55.2303 1133.26 56.3975 1130.32 56.3975L46.0385 56.3975C43.1002 56.3975 40.2823 55.2303 38.2046 53.1526C36.1269 51.0749 34.9597 48.2569 34.9597 45.3186C34.9597 42.3803 36.1269 39.5625 38.2046 37.4848C40.2823 35.4072 43.1002 34.2397 46.0385 34.2397Z" fill="#76FE2C"/>
<path d="M46.0358 35.102L1130.32 35.102C1133.03 35.102 1135.63 36.1784 1137.54 38.0942C1139.46 40.0099 1140.53 42.6083 1140.53 45.3176C1140.53 48.0269 1139.46 50.6253 1137.54 52.541C1135.63 54.4568 1133.03 55.5332 1130.32 55.5332L46.0358 55.5332C43.3265 55.5332 40.7281 54.4568 38.8124 52.541C36.8966 50.6253 35.8203 48.0269 35.8203 45.3176C35.8203 42.6083 36.8966 40.0099 38.8124 38.0942C40.7281 36.1784 43.3265 35.102 46.0358 35.102V35.102Z" fill="#7DFE37"/>
<path d="M46.0366 35.8241L1130.32 35.8241C1132.84 35.8241 1135.25 36.8246 1137.03 38.6055C1138.82 40.3864 1139.82 42.8017 1139.82 45.3202C1139.82 47.8388 1138.82 50.2541 1137.03 52.035C1135.25 53.8159 1132.84 54.8164 1130.32 54.8164L46.0366 54.8164C44.7896 54.8164 43.5548 54.5707 42.4026 54.0934C41.2505 53.6162 40.2037 52.9168 39.3219 52.035C38.4401 51.1532 37.7406 50.1065 37.2634 48.9544C36.7862 47.8022 36.5405 46.5673 36.5405 45.3202C36.5405 44.0732 36.7862 42.8385 37.2634 41.6863C37.7406 40.5342 38.4401 39.4873 39.3219 38.6055C40.2037 37.7237 41.2505 37.0243 42.4026 36.547C43.5548 36.0698 44.7896 35.8241 46.0366 35.8241V35.8241Z" fill="#84FE42"/>
<path d="M46.0374 36.6863L1130.32 36.6863C1132.61 36.6863 1134.81 37.5958 1136.42 39.2148C1138.04 40.8338 1138.95 43.0297 1138.95 45.3192C1138.95 47.6088 1138.04 49.8047 1136.42 51.4237C1134.81 53.0426 1132.61 53.9521 1130.32 53.9521L46.0374 53.9521C44.9037 53.9521 43.7811 53.7287 42.7337 53.2948C41.6863 52.861 40.7347 52.2253 39.933 51.4237C39.1314 50.622 38.4955 49.6703 38.0617 48.6229C37.6278 47.5756 37.4045 46.4529 37.4045 45.3192C37.4045 44.1856 37.6278 43.0629 38.0617 42.0155C38.4955 40.9682 39.1314 40.0164 39.933 39.2148C40.7347 38.4132 41.6863 37.7775 42.7337 37.3436C43.7811 36.9098 44.9037 36.6863 46.0374 36.6863V36.6863Z" fill="#8CFE4D"/>
<path d="M46.0383 37.5495L1130.32 37.5495C1132.38 37.5495 1134.36 38.368 1135.82 39.8251C1137.27 41.2821 1138.09 43.2583 1138.09 45.3189C1138.09 47.3795 1137.27 49.3557 1135.82 50.8128C1134.36 52.2699 1132.38 53.0884 1130.32 53.0884L46.0383 53.0884C43.9777 53.0884 42.0015 52.2699 40.5445 50.8128C39.0874 49.3557 38.2688 47.3795 38.2688 45.3189C38.2688 43.2583 39.0874 41.2821 40.5445 39.8251C42.0015 38.368 43.9777 37.5495 46.0383 37.5495V37.5495Z" fill="#93FE58"/>
<path d="M46.0353 38.2716L1130.32 38.2716C1132.23 38.2716 1134.06 39.0297 1135.41 40.3788C1136.75 41.7279 1137.51 43.5577 1137.51 45.4656C1137.51 47.3736 1136.75 49.2036 1135.41 50.5527C1134.06 51.9018 1132.23 52.6597 1130.32 52.6597L46.0353 52.6597C44.1274 52.6597 42.2975 51.9018 40.9484 50.5527C39.5993 49.2036 38.8413 47.3736 38.8413 45.4656C38.8413 43.5577 39.5993 41.7279 40.9484 40.3788C42.2975 39.0297 44.1274 38.2716 46.0353 38.2716Z" fill="#9AFE63"/>
<path d="M46.0362 39.1336L1130.32 39.1336C1131.96 39.1336 1133.53 39.7852 1134.69 40.9455C1135.85 42.1058 1136.51 43.6795 1136.51 45.3204C1136.51 46.9612 1135.85 48.5349 1134.69 49.6952C1133.53 50.8555 1131.96 51.5073 1130.32 51.5073L46.0362 51.5073C44.3954 51.5073 42.8217 50.8555 41.6615 49.6952C40.5012 48.5349 39.8494 46.9612 39.8494 45.3204C39.8494 43.6795 40.5012 42.1058 41.6615 40.9455C42.8217 39.7852 44.3954 39.1336 46.0362 39.1336V39.1336Z" fill="#A1FE6E"/>
<path d="M46.0356 39.9945L1130.32 39.9945C1131.73 39.9945 1133.08 40.5553 1134.08 41.5537C1135.08 42.5521 1135.64 43.9061 1135.64 45.318C1135.66 46.0225 1135.54 46.7235 1135.28 47.3784C1135.02 48.0333 1134.63 48.6283 1134.13 49.1266C1133.63 49.625 1133.03 50.0163 1132.38 50.2768C1131.72 50.5373 1131.02 50.6614 1130.32 50.6415L46.0356 50.6415C45.3311 50.6614 44.63 50.5373 43.9751 50.2768C43.3202 50.0163 42.7254 49.625 42.2271 49.1266C41.7287 48.6283 41.3373 48.0333 41.0768 47.3784C40.8163 46.7235 40.6922 46.0225 40.712 45.318C40.712 43.9061 41.2729 42.5521 42.2713 41.5537C43.2696 40.5553 44.6237 39.9945 46.0356 39.9945V39.9945Z" fill="#A9FE79"/>
<path d="M46.0379 40.8588L1130.32 40.8588C1131.5 40.8588 1132.64 41.3286 1133.47 42.1651C1134.31 43.0015 1134.78 44.1361 1134.78 45.319C1134.78 46.502 1134.31 47.6365 1133.47 48.473C1132.64 49.3095 1131.5 49.7793 1130.32 49.7793L46.0379 49.7793C44.855 49.7793 43.7205 49.3095 42.884 48.473C42.0476 47.6365 41.5776 46.502 41.5776 45.319C41.5776 44.1361 42.0476 43.0015 42.884 42.1651C43.7205 41.3286 44.855 40.8588 46.0379 40.8588Z" fill="#B0FE84"/>
</g>
</svg>
