<svg width="50" height="798" viewBox="0 0 50 798" fill="none" xmlns="http://www.w3.org/2000/svg">
<g style="mix-blend-mode:screen">
<path d="M50 30.6923V767.308C50 775.448 47.3661 783.254 42.6777 789.01C37.9893 794.766 31.6304 798 25 798C18.3696 798 12.0107 794.766 7.32228 789.01C2.63387 783.254 0 775.448 0 767.308V30.6923C0 22.5522 2.63387 14.7455 7.32228 8.98957C12.0107 3.23364 18.3696 0 25 0C31.6304 0 37.9893 3.23364 42.6777 8.98957C47.3661 14.7455 50 22.5522 50 30.6923V30.6923Z" fill="black"/>
<path d="M48.7271 30.6919V767.307C48.7271 775.084 46.2107 782.543 41.7313 788.042C37.2519 793.542 31.1766 796.631 24.8418 796.631C18.507 796.631 12.4316 793.542 7.95226 788.042C3.47289 782.543 0.956421 775.084 0.956421 767.307V30.6919C0.956421 22.9147 3.47289 15.4561 7.95226 9.95681C12.4316 4.45752 18.507 1.36804 24.8418 1.36804C31.1766 1.36804 37.2519 4.45752 41.7313 9.95681C46.2107 15.4561 48.7271 22.9147 48.7271 30.6919V30.6919Z" fill="#040C01"/>
<path d="M47.5321 30.6935V767.309C47.5321 774.645 45.1582 781.681 40.9327 786.869C36.7071 792.057 30.9761 794.971 25.0002 794.971C19.0244 794.971 13.2934 792.057 9.06781 786.869C4.84227 781.681 2.46838 774.645 2.46838 767.309V30.6935C2.46838 23.357 4.84227 16.321 9.06781 11.1334C13.2934 5.94571 19.0244 3.03131 25.0002 3.03131C30.9761 3.03131 36.7071 5.94571 40.9327 11.1334C45.1582 16.321 47.5321 23.357 47.5321 30.6935V30.6935Z" fill="#091701"/>
<path d="M46.2604 30.6929V767.308C46.2604 774.23 44.0207 780.868 40.0341 785.763C36.0474 790.657 30.6404 793.407 25.0025 793.407C19.3645 793.407 13.9575 790.657 9.97085 785.763C5.98421 780.868 3.74451 774.23 3.74451 767.308V30.6929C3.74451 23.7712 5.98421 17.133 9.97085 12.2387C13.9575 7.3443 19.3645 4.59467 25.0025 4.59467C30.6404 4.59467 36.0474 7.3443 40.0341 12.2387C44.0207 17.133 46.2604 23.7712 46.2604 30.6929V30.6929Z" fill="#0D2302"/>
<path d="M44.9852 30.6923V767.308C45.2327 770.7 44.9019 774.119 44.0141 777.347C43.1262 780.574 41.7007 783.539 39.8283 786.052C37.9559 788.566 35.6777 790.574 33.1386 791.947C30.5996 793.321 27.8553 794.03 25.0808 794.03C22.3062 794.03 19.562 793.321 17.023 791.947C14.484 790.574 12.2057 788.566 10.3333 786.052C8.46091 783.539 7.03533 780.574 6.14747 777.347C5.25961 774.119 4.92888 770.7 5.1763 767.308V30.6923C5.62143 24.5886 7.9111 18.9103 11.5947 14.7748C15.2783 10.6393 20.0892 8.34589 25.0808 8.34589C30.0724 8.34589 34.8833 10.6393 38.5669 14.7748C42.2505 18.9103 44.5401 24.5886 44.9852 30.6923V30.6923Z" fill="#112E02"/>
<path d="M43.7875 30.6929V767.308C43.7875 773.426 41.8079 779.294 38.2841 783.62C34.7604 787.946 29.9811 790.377 24.9977 790.377C20.0143 790.377 15.235 787.946 11.7113 783.62C8.18748 779.294 6.20789 773.426 6.20789 767.308V30.6929C6.20789 24.5748 8.18748 18.7074 11.7113 14.3812C15.235 10.0551 20.0143 7.62476 24.9977 7.62476C29.9811 7.62476 34.7604 10.0551 38.2841 14.3812C41.8079 18.7074 43.7875 24.5748 43.7875 30.6929V30.6929Z" fill="#163A03"/>
<path d="M42.5159 30.6923V767.308C42.5159 773.011 40.6705 778.481 37.3857 782.513C34.1008 786.546 29.6455 788.812 25 788.812C20.3545 788.812 15.8993 786.546 12.6144 782.513C9.32954 778.481 7.48413 773.011 7.48413 767.308V30.6923C7.48413 24.989 9.32954 19.5194 12.6144 15.4865C15.8993 11.4537 20.3545 9.18811 25 9.18811C29.6455 9.18811 34.1008 11.4537 37.3857 15.4865C40.6705 19.5194 42.5159 24.989 42.5159 30.6923V30.6923Z" fill="#1A4503"/>
<path d="M41.2428 30.6936V767.309C41.2428 772.598 39.5315 777.669 36.4856 781.409C33.4396 785.148 29.3084 787.249 25.0008 787.249C20.6931 787.249 16.5618 785.148 13.5159 781.409C10.4699 777.669 8.75879 772.598 8.75879 767.309V30.6936C8.75879 25.4052 10.4699 20.3333 13.5159 16.5938C16.5618 12.8543 20.6931 10.7534 25.0008 10.7534C29.3084 10.7534 33.4396 12.8543 36.4856 16.5938C39.5315 20.3333 41.2428 25.4052 41.2428 30.6936V30.6936Z" fill="#1F5104"/>
<path d="M40.047 30.692V767.307C40.1973 769.84 39.9208 772.383 39.2347 774.779C38.5486 777.174 37.4677 779.37 36.0594 781.23C34.6511 783.089 32.9455 784.572 31.0494 785.587C29.1533 786.601 27.1073 787.124 25.0391 787.124C22.9708 787.124 20.9247 786.601 19.0286 785.587C17.1325 784.572 15.427 783.089 14.0187 781.23C12.6104 779.37 11.5294 777.174 10.8433 774.779C10.1572 772.383 9.88068 769.84 10.031 767.307V30.692C9.88068 28.1595 10.1572 25.6162 10.8433 23.2208C11.5294 20.8254 12.6104 18.6293 14.0187 16.7697C15.427 14.9101 17.1325 13.4269 19.0286 12.4127C20.9247 11.3985 22.9708 10.8751 25.0391 10.8751C27.1073 10.8751 29.1533 11.3985 31.0494 12.4127C32.9455 13.4269 34.6511 14.9101 36.0594 16.7697C37.4677 18.6293 38.5486 20.8254 39.2347 23.2208C39.9208 25.6162 40.1973 28.1595 40.047 30.692V30.692Z" fill="#235C04"/>
<path d="M38.7749 30.6916V767.307C38.7749 771.792 37.3238 776.093 34.7407 779.264C32.1576 782.435 28.6541 784.217 25.001 784.217C21.348 784.217 17.8445 782.435 15.2614 779.264C12.6783 776.093 11.2272 771.792 11.2272 767.307V30.6916C11.2272 26.2067 12.6783 21.9056 15.2614 18.7343C17.8445 15.5631 21.348 13.7815 25.001 13.7815C28.6541 13.7815 32.1576 15.5631 34.7407 18.7343C37.3238 21.9056 38.7749 26.2067 38.7749 30.6916V30.6916Z" fill="#276805"/>
<path d="M37.4983 30.6936V767.309C37.4983 771.379 36.1814 775.283 33.8372 778.16C31.4929 781.038 28.3136 782.655 24.9984 782.655C21.6831 782.655 18.5038 781.038 16.1596 778.16C13.8153 775.283 12.4983 771.379 12.4983 767.309V30.6936C12.4983 28.6783 12.8217 26.6828 13.4499 24.8209C14.0781 22.959 14.9988 21.2673 16.1596 19.8423C17.3203 18.4172 18.6982 17.2868 20.2148 16.5156C21.7314 15.7444 23.3568 15.3475 24.9984 15.3475C26.6399 15.3475 28.2653 15.7444 29.7819 16.5156C31.2985 17.2868 32.6764 18.4172 33.8372 19.8423C34.9979 21.2673 35.9186 22.959 36.5468 24.8209C37.175 26.6828 37.4983 28.6783 37.4983 30.6936V30.6936Z" fill="#2C7305"/>
<path d="M36.2251 30.6924V767.308C36.2251 770.963 35.0424 774.469 32.9371 777.053C30.8318 779.638 27.9763 781.09 24.999 781.09C22.0216 781.09 19.1662 779.638 17.0609 777.053C14.9556 774.469 13.7728 770.963 13.7728 767.308V30.6924C13.7728 28.8825 14.0632 27.0903 14.6274 25.4181C15.1915 23.746 16.0184 22.2267 17.0609 20.9469C18.1033 19.6671 19.3409 18.6519 20.7029 17.9593C22.065 17.2666 23.5247 16.9102 24.999 16.9102C26.4732 16.9102 27.933 17.2666 29.295 17.9593C30.657 18.6519 31.8946 19.6671 32.9371 20.9469C33.9795 22.2267 34.8064 23.746 35.3706 25.4181C35.9347 27.0903 36.2251 28.8825 36.2251 30.6924Z" fill="#307F06"/>
<path d="M35.908 30.6927V767.308C35.908 770.86 34.7588 774.266 32.7132 776.777C30.6677 779.289 27.8933 780.699 25.0004 780.699C22.1075 780.699 19.3331 779.289 17.2875 776.777C15.2419 774.266 14.0928 770.86 14.0928 767.308V30.6927C14.0928 27.1412 15.2419 23.7351 17.2875 21.2237C19.3331 18.7124 22.1075 17.3015 25.0004 17.3015C27.8933 17.3015 30.6677 18.7124 32.7132 21.2237C34.7588 23.7351 35.908 27.1412 35.908 30.6927Z" fill="#348B06"/>
<path d="M35.5894 30.6931V767.308C35.5894 770.756 34.4737 774.063 32.4878 776.501C30.502 778.939 27.8086 780.309 25.0002 780.309C22.1918 780.309 19.4983 778.939 17.5125 776.501C15.5266 774.063 14.411 770.756 14.411 767.308V30.6931C14.411 27.2452 15.5266 23.9385 17.5125 21.5005C19.4983 19.0625 22.1918 17.6928 25.0002 17.6928C27.8086 17.6928 30.502 19.0625 32.4878 21.5005C34.4737 23.9385 35.5894 27.2452 35.5894 30.6931V30.6931Z" fill="#399607"/>
<path d="M35.1921 30.6932V767.309C35.3174 769.051 35.1461 770.807 34.6889 772.464C34.2317 774.12 33.4986 775.642 32.5364 776.933C31.5741 778.223 30.4038 779.253 29.0996 779.958C27.7955 780.663 26.3861 781.027 24.9612 781.027C23.5362 781.027 22.127 780.663 20.8228 779.958C19.5187 779.253 18.3483 778.223 17.3861 776.933C16.4238 775.642 15.6908 774.12 15.2336 772.464C14.7764 770.807 14.605 769.051 14.7304 767.309V30.6932C14.605 28.9506 14.7764 27.1951 15.2336 25.5382C15.6908 23.8814 16.4238 22.3594 17.3861 21.0692C18.3483 19.7789 19.5187 18.7486 20.8228 18.0437C22.127 17.3389 23.5362 16.9749 24.9612 16.9749C26.3861 16.9749 27.7955 17.3389 29.0996 18.0437C30.4038 18.7486 31.5741 19.7789 32.5364 21.0692C33.4986 22.3594 34.2317 23.8814 34.6889 25.5382C35.1461 27.1951 35.3174 28.9506 35.1921 30.6932V30.6932Z" fill="#3DA207"/>
<path d="M34.8719 30.6921V767.307C34.8719 768.899 34.6165 770.475 34.1204 771.946C33.6242 773.416 32.897 774.753 31.9803 775.878C31.0635 777.004 29.9752 777.896 28.7774 778.505C27.5796 779.114 26.2957 779.428 24.9992 779.428C23.7028 779.428 22.4189 779.114 21.2211 778.505C20.0233 777.896 18.935 777.004 18.0182 775.878C17.1015 774.753 16.3743 773.416 15.8781 771.946C15.382 770.475 15.1266 768.899 15.1266 767.307V30.6921C15.1266 27.4775 16.1668 24.3946 18.0182 22.1216C19.8697 19.8485 22.3809 18.5715 24.9992 18.5715C27.6176 18.5715 30.1288 19.8485 31.9803 22.1216C33.8317 24.3946 34.8719 27.4775 34.8719 30.6921V30.6921Z" fill="#41AD08"/>
<path d="M34.5532 30.6918V767.307C34.5532 770.418 33.5466 773.401 31.7548 775.601C29.9631 777.801 27.533 779.037 24.9991 779.037C22.4651 779.037 20.035 777.801 18.2433 775.601C16.4515 773.401 15.4449 770.418 15.4449 767.307V30.6918C15.4449 27.5809 16.4515 24.5974 18.2433 22.3977C20.035 20.198 22.4651 18.9622 24.9991 18.9622C27.533 18.9622 29.9631 20.198 31.7548 22.3977C33.5466 24.5974 34.5532 27.5809 34.5532 30.6918V30.6918Z" fill="#46B908"/>
<path d="M34.2362 30.6921V767.308C34.2362 770.315 33.263 773.199 31.531 775.325C29.799 777.452 27.4499 778.646 25.0005 778.646C22.551 778.646 20.2018 777.452 18.4698 775.325C16.7378 773.199 15.7648 770.315 15.7648 767.308V30.6921C15.7648 27.685 16.7378 24.801 18.4698 22.6746C20.2018 20.5482 22.551 19.3536 25.0005 19.3536C27.4499 19.3536 29.799 20.5482 31.531 22.6746C33.263 24.801 34.2362 27.685 34.2362 30.6921Z" fill="#4AC409"/>
<path d="M33.8356 30.6933V767.309C33.8356 770.186 32.9044 772.946 31.247 774.981C29.5897 777.016 27.3419 778.159 24.998 778.159C22.6541 778.159 20.4063 777.016 18.7489 774.981C17.0916 772.946 16.1604 770.186 16.1604 767.309V30.6933C16.1604 27.8158 17.0916 25.0561 18.7489 23.0213C20.4063 20.9866 22.6541 19.8435 24.998 19.8435C27.3419 19.8435 29.5897 20.9866 31.247 23.0213C32.9044 25.0561 33.8356 27.8158 33.8356 30.6933Z" fill="#4FD009"/>
<path d="M33.5186 30.6937V767.309C33.5186 770.083 32.6211 772.743 31.0235 774.705C29.4258 776.666 27.2589 777.768 24.9995 777.768C22.7401 777.768 20.5732 776.666 18.9756 774.705C17.3779 772.743 16.4803 770.083 16.4803 767.309V30.6937C16.4803 29.3202 16.7007 27.9602 17.1288 26.6913C17.557 25.4224 18.1845 24.2694 18.9756 23.2982C19.7666 22.327 20.7058 21.5566 21.7394 21.031C22.773 20.5054 23.8808 20.2349 24.9995 20.2349C26.1183 20.2349 27.226 20.5054 28.2596 21.031C29.2932 21.5566 30.2324 22.327 31.0235 23.2982C31.8145 24.2694 32.4421 25.4224 32.8702 26.6913C33.2983 27.9602 33.5186 29.3202 33.5186 30.6937Z" fill="#53DB0A"/>
<path d="M33.1998 30.694V767.31C33.1998 769.98 32.3358 772.54 30.7979 774.429C29.26 776.317 27.1742 777.377 24.9992 777.377C22.8243 777.377 20.7384 776.317 19.2005 774.429C17.6626 772.54 16.7986 769.98 16.7986 767.31V30.694C16.7986 28.0239 17.6626 25.4631 19.2005 23.575C20.7384 21.6869 22.8243 20.6262 24.9992 20.6262C27.1742 20.6262 29.26 21.6869 30.7979 23.575C32.3358 25.4631 33.1998 28.0239 33.1998 30.694V30.694Z" fill="#57E70A"/>
<path d="M32.8028 30.6916V767.307C32.8028 769.899 31.964 772.386 30.4709 774.219C28.9778 776.052 26.9527 777.082 24.8411 777.082C22.7295 777.082 20.7043 776.052 19.2112 774.219C17.7181 772.386 16.8793 769.899 16.8793 767.307V30.6916C16.8793 28.0992 17.7181 25.613 19.2112 23.7799C20.7043 21.9468 22.7295 20.9169 24.8411 20.9169C26.9527 20.9169 28.9778 21.9468 30.4709 23.7799C31.964 25.613 32.8028 28.0992 32.8028 30.6916V30.6916Z" fill="#5CF20B"/>
<path d="M32.4858 30.6924V767.308C32.4858 769.745 31.6972 772.082 30.2937 773.805C28.8901 775.528 26.9866 776.496 25.0017 776.496C23.0168 776.496 21.1131 775.528 19.7096 773.805C18.306 772.082 17.5176 769.745 17.5176 767.308V30.6924C17.5176 28.2555 18.306 25.9185 19.7096 24.1954C21.1131 22.4722 23.0168 21.5042 25.0017 21.5042C26.9866 21.5042 28.8901 22.4722 30.2937 24.1954C31.6972 25.9185 32.4858 28.2555 32.4858 30.6924V30.6924Z" fill="#60FE0B"/>
<path d="M32.0868 30.6929V767.308C32.0868 769.616 31.3402 771.828 30.0113 773.46C28.6824 775.091 26.8801 776.008 25.0008 776.008C23.1215 776.008 21.3192 775.091 19.9903 773.46C18.6614 771.828 17.9148 769.616 17.9148 767.308V30.6929C17.9148 28.3857 18.6614 26.173 19.9903 24.5415C21.3192 22.9101 23.1215 21.9935 25.0008 21.9935C26.8801 21.9935 28.6824 22.9101 30.0113 24.5415C31.3402 26.173 32.0868 28.3857 32.0868 30.6929V30.6929Z" fill="#67FE16"/>
<path d="M31.608 30.6931V767.309C31.608 769.46 30.9117 771.524 29.6724 773.045C28.4331 774.567 26.7523 775.421 24.9997 775.421C23.247 775.421 21.5662 774.567 20.3269 773.045C19.0876 771.524 18.3914 769.46 18.3914 767.309V30.6931C18.3914 28.5415 19.0876 26.4779 20.3269 24.9564C21.5662 23.435 23.247 22.5802 24.9997 22.5802C26.7523 22.5802 28.4331 23.435 29.6724 24.9564C30.9117 26.4779 31.608 28.5415 31.608 30.6931V30.6931Z" fill="#6FFE21"/>
<path d="M31.1324 30.694V767.309C31.1324 769.306 30.4864 771.22 29.3367 772.631C28.187 774.043 26.6278 774.836 25.0018 774.836C23.3759 774.836 21.8165 774.043 20.6668 772.631C19.5171 771.22 18.8712 769.306 18.8712 767.309V30.694C18.8712 28.6979 19.5171 26.7835 20.6668 25.372C21.8165 23.9605 23.3759 23.1675 25.0018 23.1675C26.6278 23.1675 28.187 23.9605 29.3367 25.372C30.4864 26.7835 31.1324 28.6979 31.1324 30.694Z" fill="#76FE2C"/>
<path d="M30.6535 30.6922V767.308C30.6535 769.148 30.0579 770.913 28.9977 772.215C27.9376 773.516 26.4998 774.248 25.0006 774.248C23.5013 774.248 22.0635 773.516 21.0034 772.215C19.9433 770.913 19.3477 769.148 19.3477 767.308V30.6922C19.3477 28.8516 19.9433 27.0864 21.0034 25.7849C22.0635 24.4834 23.5013 23.7523 25.0006 23.7523C26.4998 23.7523 27.9376 24.4834 28.9977 25.7849C30.0579 27.0864 30.6535 28.8516 30.6535 30.6922V30.6922Z" fill="#7DFE37"/>
<path d="M30.2547 30.6922V767.308C30.2547 769.019 29.7011 770.66 28.7156 771.869C27.7301 773.079 26.3936 773.759 24.9999 773.759C23.6063 773.759 22.2697 773.079 21.2842 771.869C20.2988 770.66 19.7451 769.019 19.7451 767.308V30.6922C19.7451 29.845 19.8811 29.0061 20.1452 28.2234C20.4093 27.4407 20.7963 26.7296 21.2842 26.1305C21.7722 25.5314 22.3514 25.0562 22.9889 24.732C23.6265 24.4078 24.3099 24.241 24.9999 24.241C25.69 24.241 26.3732 24.4078 27.0108 24.732C27.6483 25.0562 28.2277 25.5314 28.7156 26.1305C29.2036 26.7296 29.5906 27.4407 29.8547 28.2234C30.1188 29.0061 30.2547 29.845 30.2547 30.6922V30.6922Z" fill="#84FE42"/>
<path d="M29.7775 30.6936V767.309C29.7775 768.864 29.2742 770.356 28.3783 771.456C27.4825 772.556 26.2673 773.174 25.0004 773.174C23.7334 773.174 22.5183 772.556 21.6224 771.456C20.7266 770.356 20.2233 768.864 20.2233 767.309V30.6936C20.2233 29.9235 20.3469 29.1608 20.587 28.4493C20.8271 27.7377 21.1788 27.0912 21.6224 26.5466C22.066 26.002 22.5927 25.57 23.1722 25.2753C23.7518 24.9805 24.3731 24.8289 25.0004 24.8289C25.6277 24.8289 26.2489 24.9805 26.8285 25.2753C27.4081 25.57 27.9347 26.002 28.3783 26.5466C28.8219 27.0912 29.1737 27.7377 29.4138 28.4493C29.6538 29.1608 29.7775 29.9235 29.7775 30.6936V30.6936Z" fill="#8CFE4D"/>
<path d="M29.3 30.6938V767.309C29.3 768.709 28.8471 770.052 28.0408 771.042C27.2345 772.031 26.141 772.588 25.0007 772.588C23.8605 772.588 22.7669 772.031 21.9606 771.042C21.1543 770.052 20.7014 768.709 20.7014 767.309V30.6938C20.7014 29.2939 21.1543 27.9514 21.9606 26.9615C22.7669 25.9716 23.8605 25.4155 25.0007 25.4155C26.141 25.4155 27.2345 25.9716 28.0408 26.9615C28.8471 27.9514 29.3 29.2939 29.3 30.6938V30.6938Z" fill="#93FE58"/>
<path d="M28.9006 30.6916V767.307C28.9006 768.603 28.4812 769.846 27.7346 770.763C26.988 771.679 25.9755 772.194 24.9197 772.194C23.8639 772.194 22.8513 771.679 22.1048 770.763C21.3582 769.846 20.9388 768.603 20.9388 767.307V30.6916C20.9388 29.3954 21.3582 28.1523 22.1048 27.2358C22.8513 26.3192 23.8639 25.8043 24.9197 25.8043C25.9755 25.8043 26.988 26.3192 27.7346 27.2358C28.4812 28.1523 28.9006 29.3954 28.9006 30.6916Z" fill="#9AFE63"/>
<path d="M28.4225 30.6927V767.308C28.4225 768.423 28.0619 769.492 27.4198 770.28C26.7778 771.068 25.9069 771.511 24.9989 771.511C24.091 771.511 23.2201 771.068 22.5781 770.28C21.936 769.492 21.5753 768.423 21.5753 767.308V30.6927C21.5753 29.578 21.936 28.5089 22.5781 27.7207C23.2201 26.9324 24.091 26.4896 24.9989 26.4896C25.9069 26.4896 26.7778 26.9324 27.4198 27.7207C28.0619 28.5089 28.4225 29.578 28.4225 30.6927V30.6927Z" fill="#A1FE6E"/>
<path d="M27.9462 30.6917V767.307C27.9462 768.266 27.6359 769.186 27.0834 769.865C26.531 770.543 25.7817 770.924 25.0004 770.924C24.6106 770.937 24.2226 770.853 23.8603 770.676C23.4979 770.499 23.1686 770.233 22.8929 769.895C22.6171 769.556 22.4005 769.152 22.2564 768.707C22.1122 768.262 22.0436 767.786 22.0546 767.307V30.6917C22.0436 30.2131 22.1122 29.7368 22.2564 29.2919C22.4005 28.847 22.6171 28.4429 22.8929 28.1044C23.1686 27.7658 23.4979 27.4999 23.8603 27.3229C24.2226 27.146 24.6106 27.0616 25.0004 27.0751C25.7817 27.0751 26.531 27.4562 27.0834 28.1344C27.6359 28.8127 27.9462 29.7326 27.9462 30.6917V30.6917Z" fill="#A9FE79"/>
<path d="M27.4679 30.6931V767.309C27.4679 768.112 27.2079 768.883 26.745 769.451C26.2822 770.019 25.6543 770.339 24.9998 770.339C24.3452 770.339 23.7173 770.019 23.2545 769.451C22.7916 768.883 22.5316 768.112 22.5316 767.309V30.6931C22.5316 29.8895 22.7916 29.1187 23.2545 28.5505C23.7173 27.9822 24.3452 27.663 24.9998 27.663C25.6543 27.663 26.2822 27.9822 26.745 28.5505C27.2079 29.1187 27.4679 29.8895 27.4679 30.6931Z" fill="#B0FE84"/>
</g>
</svg>
