<svg width="1175" height="49" viewBox="0 0 1175 49" fill="none" xmlns="http://www.w3.org/2000/svg">
<g style="mix-blend-mode:screen">
<path d="M45.1785 9.11896e-07L1129.46 9.11896e-07C1141.44 9.11896e-07 1152.93 2.54731 1161.41 7.08166C1169.88 11.616 1174.64 17.7659 1174.64 24.1785C1174.64 30.591 1169.88 36.7409 1161.41 41.2753C1152.93 45.8096 1141.44 48.3569 1129.46 48.3569L45.1785 48.3569C33.1964 48.3569 21.7051 45.8096 13.2325 41.2753C4.75986 36.7409 0 30.591 0 24.1785C0 17.7659 4.75986 11.616 13.2325 7.08166C21.7051 2.54731 33.1964 9.11896e-07 45.1785 9.11896e-07V9.11896e-07Z" fill="black"/>
<path d="M45.1768 1.23123L1129.46 1.23123C1140.91 1.23123 1151.89 3.665 1159.98 7.99718C1168.08 12.3294 1172.62 18.2051 1172.62 24.3317C1172.62 30.4583 1168.08 36.334 1159.98 40.6662C1151.89 44.9984 1140.91 47.4321 1129.46 47.4321L45.1768 47.4321C33.729 47.4321 22.75 44.9984 14.6552 40.6662C6.56034 36.334 2.0127 30.4583 2.0127 24.3317C2.0127 18.2051 6.56034 12.3294 14.6552 7.99718C22.75 3.665 33.729 1.23123 45.1768 1.23123V1.23123Z" fill="#040C01"/>
<path d="M45.1793 2.38685L1129.46 2.38685C1140.26 2.38685 1150.62 4.68273 1158.25 8.76941C1165.89 12.8561 1170.18 18.3988 1170.18 24.1783C1170.18 29.9577 1165.89 35.5005 1158.25 39.5872C1150.62 43.6738 1140.26 45.9697 1129.46 45.9697L45.1793 45.9697C34.3802 45.9697 24.0234 43.6738 16.3873 39.5872C8.75112 35.5005 4.46118 29.9577 4.46118 24.1783C4.46118 18.3988 8.75112 12.8561 16.3873 8.76941C24.0234 4.68273 34.3802 2.38685 45.1793 2.38685V2.38685Z" fill="#091701"/>
<path d="M45.178 3.61755L1129.46 3.61755C1139.65 3.61755 1149.42 5.78365 1156.63 9.63929C1163.83 13.4949 1167.88 18.7242 1167.88 24.1769C1167.88 29.6296 1163.83 34.859 1156.63 38.7146C1149.42 42.5702 1139.65 44.7363 1129.46 44.7363L45.178 44.7363C34.9895 44.7363 25.2182 42.5702 18.0138 38.7146C10.8094 34.859 6.76196 29.6296 6.76196 24.1769C6.76196 18.7242 10.8094 13.4949 18.0138 9.63929C25.2182 5.78365 34.9895 3.61755 45.178 3.61755V3.61755Z" fill="#0D2302"/>
<path d="M45.1774 4.84997L1129.46 4.84997C1134.45 4.61068 1139.49 4.93054 1144.24 5.78923C1148.99 6.64792 1153.35 8.02653 1157.05 9.8374C1160.75 11.6483 1163.71 13.8517 1165.73 16.3073C1167.75 18.7629 1168.8 21.417 1168.8 24.1004C1168.8 26.7838 1167.75 29.4377 1165.73 31.8933C1163.71 34.3489 1160.75 36.5523 1157.05 38.3632C1153.35 40.1741 1148.99 41.5528 1144.24 42.4115C1139.49 43.2702 1134.45 43.59 1129.46 43.3507L45.1774 43.3507C36.1929 42.9202 27.8346 40.7058 21.7472 37.1432C15.6598 33.5807 12.2839 28.9279 12.2839 24.1004C12.2839 19.2728 15.6598 14.6199 21.7472 11.0574C27.8346 7.49479 36.1929 5.28048 45.1774 4.84997V4.84997Z" fill="#112E02"/>
<path d="M45.1789 6.00782L1129.46 6.00782C1138.47 6.00782 1147.1 7.92236 1153.47 11.3303C1159.84 14.7383 1163.42 19.3606 1163.42 24.1802C1163.42 28.9998 1159.84 33.622 1153.47 37.03C1147.1 40.438 1138.47 42.3525 1129.46 42.3525L45.1789 42.3525C36.1733 42.3525 27.5365 40.438 21.1686 37.03C14.8006 33.622 11.2231 28.9998 11.2231 24.1802C11.2231 19.3606 14.8006 14.7383 21.1686 11.3303C27.5365 7.92236 36.1733 6.00782 45.1789 6.00782V6.00782Z" fill="#163A03"/>
<path d="M45.1776 7.23853L1129.46 7.23853C1137.86 7.23853 1145.91 9.02329 1151.84 12.2002C1157.78 15.3771 1161.11 19.686 1161.11 24.1788C1161.11 28.6717 1157.78 32.9805 1151.84 36.1574C1145.91 39.3344 1137.86 41.1191 1129.46 41.1191L45.1776 41.1191C36.7825 41.1191 28.7313 39.3344 22.7951 36.1574C16.8589 32.9805 13.5239 28.6717 13.5239 24.1788C13.5239 19.686 16.8589 15.3771 22.7951 12.2002C28.7313 9.02329 36.7825 7.23853 45.1776 7.23853V7.23853Z" fill="#1A4503"/>
<path d="M45.18 8.46972L1129.46 8.46972C1137.25 8.46972 1144.71 10.1247 1150.22 13.0706C1155.72 16.0165 1158.81 20.0119 1158.81 24.178C1158.81 28.3441 1155.72 32.3396 1150.22 35.2855C1144.71 38.2314 1137.25 39.8862 1129.46 39.8862L45.18 39.8862C37.3954 39.8862 29.9298 38.2314 24.4253 35.2855C18.9208 32.3396 15.8284 28.3441 15.8284 24.178C15.8284 20.0119 18.9208 16.0165 24.4253 13.0706C29.9298 10.1247 37.3954 8.46972 45.18 8.46972V8.46972Z" fill="#1F5104"/>
<path d="M45.1774 9.62623L1129.46 9.62623C1133.19 9.48083 1136.93 9.74825 1140.46 10.4118C1143.98 11.0754 1147.22 12.1207 1149.95 13.4828C1152.69 14.8448 1154.87 16.4943 1156.37 18.3281C1157.86 20.162 1158.63 22.1407 1158.63 24.141C1158.63 26.1413 1157.86 28.1201 1156.37 29.9539C1154.87 31.7877 1152.69 33.4371 1149.95 34.7992C1147.22 36.1612 1143.98 37.2067 1140.46 37.8703C1136.93 38.5338 1133.19 38.8012 1129.46 38.6558L45.1774 38.6558C41.4497 38.8012 37.706 38.5338 34.18 37.8703C30.654 37.2067 27.4214 36.1612 24.6841 34.7992C21.9469 33.4371 19.7636 31.7877 18.2707 29.9539C16.7778 28.1201 16.0073 26.1413 16.0073 24.141C16.0073 22.1407 16.7778 20.162 18.2707 18.3281C19.7636 16.4943 21.9469 14.8448 24.6841 13.4828C27.4214 12.1207 30.654 11.0754 34.18 10.4118C37.706 9.74825 41.4497 9.48083 45.1774 9.62623V9.62623Z" fill="#235C04"/>
<path d="M45.1772 10.8561L1129.46 10.8561C1136.06 10.8561 1142.39 12.2595 1147.06 14.7577C1151.73 17.256 1154.35 20.6443 1154.35 24.1773C1154.35 27.7103 1151.73 31.0987 1147.06 33.5969C1142.39 36.0951 1136.06 37.4985 1129.46 37.4985L45.1772 37.4985C38.5756 37.4985 32.2444 36.0951 27.5764 33.5969C22.9084 31.0987 20.2859 27.7103 20.2859 24.1773C20.2859 20.6443 22.9084 17.256 27.5764 14.7577C32.2444 12.2595 38.5756 10.8561 45.1772 10.8561V10.8561Z" fill="#276805"/>
<path d="M45.1796 12.0906L1129.46 12.0906C1135.45 12.0906 1141.2 13.3642 1145.44 15.6314C1149.67 17.8986 1152.05 20.9735 1152.05 24.1798C1152.05 27.386 1149.67 30.4609 1145.44 32.7281C1141.2 34.9953 1135.45 36.269 1129.46 36.269L45.1796 36.269C42.2131 36.269 39.2757 35.9562 36.535 35.3487C33.7944 34.7412 31.3042 33.8507 29.2066 32.7281C27.109 31.6055 25.445 30.2728 24.3098 28.8061C23.1746 27.3394 22.5903 25.7673 22.5903 24.1798C22.5903 22.5922 23.1746 21.0201 24.3098 19.5534C25.445 18.0867 27.109 16.754 29.2066 15.6314C31.3042 14.5088 33.7944 13.6183 36.535 13.0108C39.2757 12.4033 42.2131 12.0906 45.1796 12.0906V12.0906Z" fill="#2C7305"/>
<path d="M45.1783 13.3212L1129.46 13.3212C1134.84 13.3212 1140 14.465 1143.81 16.5012C1147.61 18.5373 1149.75 21.2989 1149.75 24.1784C1149.75 27.0579 1147.61 29.8195 1143.81 31.8556C1140 33.8918 1134.84 35.0356 1129.46 35.0356L45.1783 35.0356C42.5141 35.0356 39.8761 34.7548 37.4147 34.2092C34.9534 33.6636 32.7169 32.8638 30.8331 31.8556C28.9492 30.8475 27.4549 29.6505 26.4354 28.3333C25.4159 27.016 24.8911 25.6042 24.8911 24.1784C24.8911 22.7526 25.4159 21.3408 26.4354 20.0235C27.4549 18.7063 28.9492 17.5094 30.8331 16.5012C32.7169 15.493 34.9534 14.6932 37.4147 14.1476C39.8761 13.602 42.5141 13.3212 45.1783 13.3212Z" fill="#307F06"/>
<path d="M45.1787 13.6292L1129.46 13.6292C1134.69 13.6292 1139.7 14.7406 1143.4 16.719C1147.1 18.6973 1149.17 21.3805 1149.17 24.1784C1149.17 26.9762 1147.1 29.6594 1143.4 31.6378C1139.7 33.6161 1134.69 34.7275 1129.46 34.7275L45.1787 34.7275C39.9508 34.7275 34.9371 33.6161 31.2404 31.6378C27.5438 29.6594 25.467 26.9762 25.467 24.1784C25.467 21.3805 27.5438 18.6973 31.2404 16.719C34.9371 14.7406 39.9508 13.6292 45.1787 13.6292Z" fill="#348B06"/>
<path d="M45.1793 13.937L1129.46 13.937C1134.54 13.937 1139.4 15.0161 1142.99 16.9367C1146.58 18.8573 1148.6 21.4621 1148.6 24.1782C1148.6 26.8944 1146.58 29.4993 1142.99 31.4199C1139.4 33.3405 1134.54 34.4194 1129.46 34.4194L45.1793 34.4194C40.1041 34.4194 35.2368 33.3405 31.6481 31.4199C28.0593 29.4993 26.0432 26.8944 26.0432 24.1782C26.0432 21.4621 28.0593 18.8573 31.6481 16.9367C35.2368 15.0161 40.1041 13.937 45.1793 13.937V13.937Z" fill="#399607"/>
<path d="M45.179 14.3206L1129.46 14.3206C1132.03 14.1994 1134.61 14.3651 1137.05 14.8073C1139.49 15.2495 1141.73 15.9584 1143.63 16.889C1145.53 17.8197 1147.04 18.9516 1148.08 20.2129C1149.12 21.4741 1149.66 22.8372 1149.66 24.2153C1149.66 25.5934 1149.12 26.9564 1148.08 28.2177C1147.04 29.479 1145.53 30.6109 1143.63 31.5415C1141.73 32.4721 1139.49 33.1811 1137.05 33.6233C1134.61 34.0655 1132.03 34.2311 1129.46 34.1099L45.179 34.1099C42.614 34.2311 40.0298 34.0655 37.591 33.6233C35.1521 33.1811 32.9118 32.4721 31.0126 31.5415C29.1134 30.6109 27.5968 29.479 26.5592 28.2177C25.5217 26.9564 24.9858 25.5934 24.9858 24.2153C24.9858 22.8372 25.5217 21.4741 26.5592 20.2129C27.5968 18.9516 29.1134 17.8197 31.0126 16.889C32.9118 15.9584 35.1521 15.2495 37.591 14.8073C40.0298 14.3651 42.614 14.1994 45.179 14.3206V14.3206Z" fill="#3DA207"/>
<path d="M45.1771 14.6311L1129.46 14.6311C1131.8 14.6311 1134.12 14.8781 1136.29 15.3579C1138.45 15.8377 1140.42 16.5411 1142.08 17.4277C1143.73 18.3143 1145.05 19.3669 1145.94 20.5253C1146.84 21.6838 1147.3 22.9254 1147.3 24.1793C1147.3 25.4332 1146.84 26.6748 1145.94 27.8333C1145.05 28.9917 1143.73 30.0443 1142.08 30.9309C1140.42 31.8176 1138.45 32.5209 1136.29 33.0007C1134.12 33.4806 1131.8 33.7275 1129.46 33.7275L45.1771 33.7275C40.4453 33.7275 35.9074 32.7216 32.5615 30.9309C29.2156 29.1403 27.3359 26.7116 27.3359 24.1793C27.3359 21.647 29.2156 19.2183 32.5615 17.4277C35.9074 15.6371 40.4453 14.6311 45.1771 14.6311V14.6311Z" fill="#41AD08"/>
<path d="M45.1775 14.9386L1129.46 14.9386C1134.04 14.9386 1138.43 15.9121 1141.67 17.645C1144.91 19.3779 1146.73 21.7281 1146.73 24.1788C1146.73 26.6294 1144.91 28.9797 1141.67 30.7126C1138.43 32.4454 1134.04 33.4189 1129.46 33.4189L45.1775 33.4189C40.5984 33.4189 36.2068 32.4454 32.9689 30.7126C29.7309 28.9797 27.9119 26.6294 27.9119 24.1788C27.9119 21.7281 29.7309 19.3779 32.9689 17.645C36.2068 15.9121 40.5984 14.9386 45.1775 14.9386V14.9386Z" fill="#46B908"/>
<path d="M45.1782 15.2464L1129.46 15.2464C1133.89 15.2464 1138.13 16.1876 1141.26 17.8627C1144.39 19.5378 1146.15 21.8097 1146.15 24.1786C1146.15 26.5476 1144.39 28.8196 1141.26 30.4947C1138.13 32.1698 1133.89 33.1108 1129.46 33.1108L45.1782 33.1108C40.7517 33.1108 36.5065 32.1698 33.3765 30.4947C30.2465 28.8196 28.488 26.5476 28.488 24.1786C28.488 21.8097 30.2465 19.5378 33.3765 17.8627C36.5065 16.1876 40.7517 15.2464 45.1782 15.2464Z" fill="#4AC409"/>
<path d="M45.179 15.6332L1129.46 15.6332C1133.7 15.6332 1137.76 16.5338 1140.76 18.1367C1143.75 19.7396 1145.43 21.9135 1145.43 24.1804C1145.43 26.4472 1143.75 28.6212 1140.76 30.2241C1137.76 31.827 1133.7 32.7275 1129.46 32.7275L45.179 32.7275C40.9433 32.7275 36.8811 31.827 33.886 30.2241C30.8909 28.6212 29.2083 26.4472 29.2083 24.1804C29.2083 21.9135 30.8909 19.7396 33.886 18.1367C36.8811 16.5338 40.9433 15.6332 45.179 15.6332Z" fill="#4FD009"/>
<path d="M45.1794 15.9406L1129.46 15.9406C1133.55 15.9406 1137.46 16.8086 1140.35 18.3537C1143.24 19.8989 1144.86 21.9946 1144.86 24.1797C1144.86 26.3649 1143.24 28.4606 1140.35 30.0057C1137.46 31.5509 1133.55 32.4189 1129.46 32.4189L45.1794 32.4189C43.1577 32.4189 41.1557 32.2058 39.2879 31.7918C37.4201 31.3777 35.7229 30.7708 34.2933 30.0057C32.8638 29.2406 31.7297 28.3323 30.9561 27.3327C30.1824 26.3331 29.7842 25.2617 29.7842 24.1797C29.7842 23.0977 30.1824 22.0264 30.9561 21.0268C31.7297 20.0271 32.8638 19.1188 34.2933 18.3537C35.7229 17.5887 37.4201 16.9818 39.2879 16.5677C41.1557 16.1536 43.1577 15.9406 45.1794 15.9406Z" fill="#53DB0A"/>
<path d="M45.18 16.2485L1129.46 16.2485C1133.39 16.2485 1137.16 17.0842 1139.94 18.5715C1142.72 20.0589 1144.28 22.0762 1144.28 24.1797C1144.28 26.2832 1142.72 28.3005 1139.94 29.7878C1137.16 31.2752 1133.39 32.1108 1129.46 32.1108L45.18 32.1108C41.2496 32.1108 37.4802 31.2752 34.7009 29.7878C31.9217 28.3005 30.3604 26.2832 30.3604 24.1797C30.3604 22.0762 31.9217 20.0589 34.7009 18.5715C37.4802 17.0842 41.2496 16.2485 45.18 16.2485V16.2485Z" fill="#57E70A"/>
<path d="M45.1769 16.6314L1129.46 16.6314C1133.28 16.6314 1136.94 17.4427 1139.63 18.8868C1142.33 20.3308 1143.85 22.2894 1143.85 24.3316C1143.85 26.3738 1142.33 28.3324 1139.63 29.7764C1136.94 31.2205 1133.28 32.0317 1129.46 32.0317L45.1769 32.0317C41.3609 32.0317 37.7013 31.2205 35.003 29.7764C32.3047 28.3324 30.7888 26.3738 30.7888 24.3316C30.7888 22.2894 32.3047 20.3308 35.003 18.8868C37.7013 17.4427 41.3609 16.6314 45.1769 16.6314V16.6314Z" fill="#5CF20B"/>
<path d="M45.1778 16.9387L1129.46 16.9387C1133.05 16.9387 1136.49 17.7014 1139.02 19.0588C1141.56 20.4162 1142.99 22.2572 1142.99 24.1769C1142.99 26.0966 1141.56 27.9377 1139.02 29.2951C1136.49 30.6525 1133.05 31.415 1129.46 31.415L45.1778 31.415C41.5908 31.415 38.1508 30.6525 35.6144 29.2951C33.078 27.9377 31.6531 26.0966 31.6531 24.1769C31.6531 22.2572 33.078 20.4162 35.6144 19.0588C38.1508 17.7014 41.5908 16.9387 45.1778 16.9387V16.9387Z" fill="#60FE0B"/>
<path d="M45.1784 17.3255L1129.46 17.3255C1132.86 17.3255 1136.11 18.0476 1138.52 19.3328C1140.92 20.618 1142.27 22.361 1142.27 24.1786C1142.27 25.9962 1140.92 27.7392 1138.52 29.0245C1136.11 30.3097 1132.86 31.0317 1129.46 31.0317L45.1784 31.0317C41.7822 31.0317 38.5251 30.3097 36.1236 29.0245C33.7222 27.7392 32.373 25.9962 32.373 24.1786C32.373 22.361 33.7222 20.618 36.1236 19.3328C38.5251 18.0476 41.7822 17.3255 45.1784 17.3255V17.3255Z" fill="#67FE16"/>
<path d="M45.1794 17.7871L1129.46 17.7871C1132.63 17.7871 1135.67 18.4604 1137.91 19.659C1140.15 20.8576 1141.4 22.4832 1141.4 24.1782C1141.4 25.8732 1140.15 27.4988 1137.91 28.6974C1135.67 29.896 1132.63 30.5693 1129.46 30.5693L45.1794 30.5693C42.0121 30.5693 38.9746 29.896 36.7351 28.6974C34.4955 27.4988 33.2373 25.8732 33.2373 24.1782C33.2373 22.4832 34.4955 20.8576 36.7351 19.659C38.9746 18.4604 42.0121 17.7871 45.1794 17.7871V17.7871Z" fill="#6FFE21"/>
<path d="M45.1801 18.2486L1129.46 18.2486C1132.4 18.2486 1135.22 18.8734 1137.3 19.9853C1139.37 21.0973 1140.54 22.6053 1140.54 24.1778C1140.54 25.7503 1139.37 27.2584 1137.3 28.3704C1135.22 29.4823 1132.4 30.1069 1129.46 30.1069L45.1801 30.1069C42.2418 30.1069 39.4239 29.4823 37.3462 28.3704C35.2685 27.2584 34.1013 25.7503 34.1013 24.1778C34.1013 22.6053 35.2685 21.0973 37.3462 19.9853C39.4239 18.8734 42.2418 18.2486 45.1801 18.2486Z" fill="#76FE2C"/>
<path d="M45.1774 18.7102L1129.46 18.7102C1132.17 18.7102 1134.77 19.2863 1136.68 20.3116C1138.6 21.3368 1139.68 22.7274 1139.68 24.1774C1139.68 25.6273 1138.6 27.0179 1136.68 28.0432C1134.77 29.0685 1132.17 29.6445 1129.46 29.6445L45.1774 29.6445C42.4681 29.6445 39.8698 29.0685 37.954 28.0432C36.0382 27.0179 34.9619 25.6273 34.9619 24.1774C34.9619 22.7274 36.0382 21.3368 37.954 20.3116C39.8698 19.2863 42.4681 18.7102 45.1774 18.7102V18.7102Z" fill="#7DFE37"/>
<path d="M45.1782 19.0965L1129.46 19.0965C1131.98 19.0965 1134.4 19.632 1136.18 20.585C1137.96 21.5381 1138.96 22.8308 1138.96 24.1786C1138.96 25.5265 1137.96 26.8191 1136.18 27.7722C1134.4 28.7253 1131.98 29.2607 1129.46 29.2607L45.1782 29.2607C43.9312 29.2607 42.6964 29.1292 41.5442 28.8738C40.3921 28.6184 39.3453 28.2441 38.4635 27.7722C37.5817 27.3003 36.8822 26.7401 36.405 26.1235C35.9278 25.5069 35.6821 24.846 35.6821 24.1786C35.6821 23.5112 35.9278 22.8504 36.405 22.2338C36.8822 21.6172 37.5817 21.0569 38.4635 20.585C39.3453 20.1131 40.3921 19.7388 41.5442 19.4834C42.6964 19.228 43.9312 19.0965 45.1782 19.0965V19.0965Z" fill="#84FE42"/>
<path d="M45.179 19.5581L1129.46 19.5581C1131.75 19.5581 1133.95 20.0448 1135.57 20.9113C1137.19 21.7777 1138.09 22.9529 1138.09 24.1782C1138.09 25.4035 1137.19 26.5787 1135.57 27.4452C1133.95 28.3116 1131.75 28.7983 1129.46 28.7983L45.179 28.7983C44.0453 28.7983 42.9227 28.6787 41.8753 28.4466C40.8279 28.2144 39.8763 27.8742 39.0746 27.4452C38.273 27.0161 37.6371 26.5068 37.2033 25.9463C36.7694 25.3857 36.5461 24.7849 36.5461 24.1782C36.5461 23.5715 36.7694 22.9707 37.2033 22.4101C37.6371 21.8496 38.273 21.3403 39.0746 20.9113C39.8763 20.4822 40.8279 20.142 41.8753 19.9098C42.9227 19.6777 44.0453 19.5581 45.179 19.5581V19.5581Z" fill="#8CFE4D"/>
<path d="M45.1799 20.0199L1129.46 20.0199C1131.52 20.0199 1133.5 20.4579 1134.96 21.2377C1136.41 22.0175 1137.23 23.0751 1137.23 24.1779C1137.23 25.2807 1136.41 26.3383 1134.96 27.1181C1133.5 27.8979 1131.52 28.3359 1129.46 28.3359L45.1799 28.3359C43.1193 28.3359 41.1431 27.8979 39.6861 27.1181C38.229 26.3383 37.4104 25.2807 37.4104 24.1779C37.4104 23.0751 38.229 22.0175 39.6861 21.2377C41.1431 20.4579 43.1193 20.0199 45.1799 20.0199V20.0199Z" fill="#93FE58"/>
<path d="M45.1769 20.4063L1129.46 20.4063C1131.37 20.4063 1133.2 20.812 1134.55 21.534C1135.9 22.256 1136.65 23.2353 1136.65 24.2564C1136.65 25.2775 1135.9 26.2568 1134.55 26.9788C1133.2 27.7009 1131.37 28.1064 1129.46 28.1064L45.1769 28.1064C43.269 28.1064 41.4391 27.7009 40.09 26.9788C38.7409 26.2568 37.9829 25.2775 37.9829 24.2564C37.9829 23.2353 38.7409 22.256 40.09 21.534C41.4391 20.812 43.269 20.4063 45.1769 20.4063Z" fill="#9AFE63"/>
<path d="M45.1778 20.8676L1129.46 20.8676C1131.1 20.8676 1132.68 21.2164 1133.84 21.8373C1135 22.4582 1135.65 23.3005 1135.65 24.1786C1135.65 25.0568 1135 25.899 1133.84 26.5199C1132.68 27.1409 1131.1 27.4897 1129.46 27.4897L45.1778 27.4897C43.537 27.4897 41.9633 27.1409 40.8031 26.5199C39.6428 25.899 38.991 25.0568 38.991 24.1786C38.991 23.3005 39.6428 22.4582 40.8031 21.8373C41.9633 21.2164 43.537 20.8676 45.1778 20.8676V20.8676Z" fill="#A1FE6E"/>
<path d="M45.1772 21.3282L1129.46 21.3282C1130.87 21.3282 1132.23 21.6284 1133.22 22.1627C1134.22 22.697 1134.78 23.4216 1134.78 24.1772C1134.8 24.5543 1134.68 24.9294 1134.42 25.2799C1134.16 25.6304 1133.77 25.9488 1133.27 26.2155C1132.77 26.4822 1132.18 26.6917 1131.52 26.8311C1130.87 26.9705 1130.16 27.0369 1129.46 27.0262L45.1772 27.0262C44.4727 27.0369 43.7716 26.9705 43.1167 26.8311C42.4618 26.6917 41.867 26.4822 41.3687 26.2155C40.8703 25.9488 40.4789 25.6304 40.2184 25.2799C39.9579 24.9294 39.8338 24.5543 39.8536 24.1772C39.8536 23.4216 40.4145 22.697 41.4129 22.1627C42.4112 21.6284 43.7653 21.3282 45.1772 21.3282V21.3282Z" fill="#A9FE79"/>
<path d="M45.1795 21.7909L1129.46 21.7909C1130.65 21.7909 1131.78 22.0423 1132.62 22.49C1133.45 22.9376 1133.92 23.5448 1133.92 24.1779C1133.92 24.811 1133.45 25.4182 1132.62 25.8658C1131.78 26.3135 1130.65 26.5649 1129.46 26.5649L45.1795 26.5649C43.9966 26.5649 42.8621 26.3135 42.0256 25.8658C41.1892 25.4182 40.7192 24.811 40.7192 24.1779C40.7192 23.5448 41.1892 22.9376 42.0256 22.49C42.8621 22.0423 43.9966 21.7909 45.1795 21.7909Z" fill="#B0FE84"/>
</g>
</svg>
