<svg width="91" height="1175" viewBox="0 0 91 1175" fill="none" xmlns="http://www.w3.org/2000/svg">
<g style="mix-blend-mode:screen">
<path d="M90.6237 45.1785V1129.46C90.6237 1141.44 85.864 1152.93 77.3914 1161.41C68.9188 1169.88 57.4274 1174.64 45.4453 1174.64C33.4632 1174.64 21.9718 1169.88 13.4992 1161.41C5.02661 1152.93 0.266846 1141.44 0.266846 1129.46V45.1785C0.266846 33.1964 5.02661 21.7051 13.4992 13.2325C21.9718 4.75986 33.4632 0 45.4453 0C57.4274 0 68.9188 4.75986 77.3914 13.2325C85.864 21.7051 90.6237 33.1964 90.6237 45.1785Z" fill="black"/>
<path d="M88.3234 45.1768V1129.46C88.3234 1140.91 83.7758 1151.89 75.6809 1159.98C67.5861 1168.08 56.6071 1172.62 45.1593 1172.62C33.7114 1172.62 22.7324 1168.08 14.6376 1159.98C6.54272 1151.89 1.99512 1140.91 1.99512 1129.46V45.1768C1.99512 33.729 6.54272 22.75 14.6376 14.6552C22.7324 6.56034 33.7114 2.0127 45.1593 2.0127C56.6071 2.0127 67.5861 6.56034 75.6809 14.6552C83.7758 22.75 88.3234 33.729 88.3234 45.1768Z" fill="#040C01"/>
<path d="M86.1644 45.1793V1129.46C86.1644 1140.26 81.8745 1150.62 74.2383 1158.25C66.6022 1165.89 56.2453 1170.18 45.4462 1170.18C34.6471 1170.18 24.2902 1165.89 16.6541 1158.25C9.01797 1150.62 4.72803 1140.26 4.72803 1129.46V45.1793C4.72803 34.3802 9.01797 24.0234 16.6541 16.3873C24.2902 8.75112 34.6471 4.46118 45.4462 4.46118C56.2453 4.46118 66.6022 8.75112 74.2383 16.3873C81.8745 24.0234 86.1644 34.3802 86.1644 45.1793Z" fill="#091701"/>
<path d="M83.8643 45.178V1129.46C83.8643 1139.65 79.8169 1149.42 72.6125 1156.63C65.4081 1163.83 55.6369 1167.88 45.4483 1167.88C35.2597 1167.88 25.4885 1163.83 18.2841 1156.63C11.0797 1149.42 7.03223 1139.65 7.03223 1129.46V45.178C7.03223 34.9895 11.0797 25.2182 18.2841 18.0138C25.4885 10.8094 35.2597 6.76196 45.4483 6.76196C55.6369 6.76196 65.4081 10.8094 72.6125 18.0138C79.8169 25.2182 83.8643 34.9895 83.8643 45.178Z" fill="#0D2302"/>
<path d="M81.5612 45.1774V1129.46C82.0083 1134.45 81.4106 1139.49 79.8061 1144.24C78.2016 1148.99 75.6256 1153.35 72.242 1157.05C68.8583 1160.75 64.7411 1163.71 60.1528 1165.73C55.5644 1167.75 50.6051 1168.8 45.591 1168.8C40.577 1168.8 35.618 1167.75 31.0296 1165.73C26.4412 1163.71 22.3241 1160.75 18.9404 1157.05C15.5567 1153.35 12.9805 1148.99 11.376 1144.24C9.77148 1139.49 9.17381 1134.45 9.62094 1129.46V45.1774C10.4253 36.1929 14.5631 27.8346 21.2199 21.7472C27.8767 15.6598 36.5705 12.2839 45.591 12.2839C54.6116 12.2839 63.3056 15.6598 69.9624 21.7472C76.6192 27.8346 80.7568 36.1929 81.5612 45.1774Z" fill="#112E02"/>
<path d="M79.3979 45.1789V1129.46C79.3979 1138.47 75.8205 1147.1 69.4526 1153.47C63.0846 1159.84 54.4478 1163.42 45.4421 1163.42C36.4365 1163.42 27.7996 1159.84 21.4317 1153.47C15.0637 1147.1 11.4863 1138.47 11.4863 1129.46V45.1789C11.4863 36.1733 15.0637 27.5365 21.4317 21.1686C27.7996 14.8006 36.4365 11.2231 45.4421 11.2231C54.4478 11.2231 63.0846 14.8006 69.4526 21.1686C75.8205 27.5365 79.3979 36.1733 79.3979 45.1789Z" fill="#163A03"/>
<path d="M77.0981 45.1776V1129.46C77.0981 1137.86 73.7632 1145.91 67.827 1151.84C61.8907 1157.78 53.8395 1161.11 45.4444 1161.11C37.0493 1161.11 28.9981 1157.78 23.0619 1151.84C17.1257 1145.91 13.7908 1137.86 13.7908 1129.46V45.1776C13.7908 36.7825 17.1257 28.7313 23.0619 22.7951C28.9981 16.8589 37.0493 13.5239 45.4444 13.5239C53.8395 13.5239 61.8907 16.8589 67.827 22.7951C73.7632 28.7313 77.0981 36.7825 77.0981 45.1776Z" fill="#1A4503"/>
<path d="M74.798 45.18V1129.46C74.798 1137.25 71.7056 1144.71 66.2011 1150.22C60.6966 1155.72 53.231 1158.81 45.4465 1158.81C37.662 1158.81 30.1962 1155.72 24.6917 1150.22C19.1872 1144.71 16.095 1137.25 16.095 1129.46V45.18C16.095 37.3955 19.1872 29.9298 24.6917 24.4253C30.1962 18.9208 37.662 15.8284 45.4465 15.8284C53.231 15.8284 60.6966 18.9208 66.2011 24.4253C71.7056 29.9298 74.798 37.3955 74.798 45.18Z" fill="#1F5104"/>
<path d="M72.637 45.1774V1129.46C72.9086 1133.19 72.409 1136.93 71.1691 1140.46C69.9292 1143.98 67.9759 1147.22 65.4309 1149.95C62.8858 1152.69 59.8036 1154.87 56.3771 1156.37C52.9505 1157.86 49.2532 1158.63 45.5156 1158.63C41.7779 1158.63 38.0804 1157.86 34.6538 1156.37C31.2273 1154.87 28.1453 1152.69 25.6003 1149.95C23.0552 1147.22 21.1017 1143.98 19.8618 1140.46C18.622 1136.93 18.1223 1133.19 18.394 1129.46V45.1774C18.1223 41.4497 18.622 37.706 19.8618 34.18C21.1017 30.654 23.0552 27.4214 25.6003 24.6841C28.1453 21.9469 31.2273 19.7636 34.6538 18.2707C38.0804 16.7778 41.7779 16.0073 45.5156 16.0073C49.2532 16.0073 52.9505 16.7778 56.3771 18.2707C59.8036 19.7636 62.8858 21.9469 65.4309 24.6841C67.9759 27.4214 69.9292 30.654 71.1691 34.18C72.409 37.706 72.9086 41.4497 72.637 45.1774Z" fill="#235C04"/>
<path d="M70.3387 45.1772V1129.46C70.3387 1136.06 67.7163 1142.39 63.0483 1147.06C58.3802 1151.73 52.049 1154.35 45.4474 1154.35C38.8458 1154.35 32.5146 1151.73 27.8466 1147.06C23.1785 1142.39 20.5562 1136.06 20.5562 1129.46V45.1772C20.5562 38.5756 23.1785 32.2444 27.8466 27.5764C32.5146 22.9084 38.8458 20.2859 45.4474 20.2859C52.049 20.2859 58.3802 22.9084 63.0483 27.5764C67.7163 32.2444 70.3387 38.5756 70.3387 45.1772Z" fill="#276805"/>
<path d="M68.032 45.1796V1129.46C68.032 1135.45 65.6521 1141.2 61.4158 1145.44C57.1795 1149.67 51.4339 1152.05 45.4429 1152.05C39.4518 1152.05 33.7062 1149.67 29.4699 1145.44C25.2336 1141.2 22.8535 1135.45 22.8535 1129.46V45.1796C22.8535 42.2131 23.438 39.2757 24.5732 36.535C25.7084 33.7944 27.3723 31.3042 29.4699 29.2066C31.5675 27.109 34.0576 25.445 36.7983 24.3098C39.539 23.1746 42.4764 22.5903 45.4429 22.5903C48.4093 22.5903 51.3467 23.1746 54.0874 24.3098C56.8281 25.445 59.3182 27.109 61.4158 29.2066C63.5134 31.3042 65.1773 33.7944 66.3125 36.535C67.4477 39.2757 68.032 42.2131 68.032 45.1796Z" fill="#2C7305"/>
<path d="M65.7321 45.1783V1129.46C65.7321 1134.84 63.5947 1140 59.7901 1143.81C55.9856 1147.61 50.8254 1149.75 45.4449 1149.75C40.0644 1149.75 34.9043 1147.61 31.0997 1143.81C27.2951 1140 25.1577 1134.84 25.1577 1129.46V45.1783C25.1577 42.5141 25.6825 39.8761 26.702 37.4147C27.7215 34.9534 29.2158 32.7169 31.0997 30.8331C32.9835 28.9492 35.22 27.4549 37.6814 26.4354C40.1427 25.4159 42.7808 24.8911 45.4449 24.8911C48.1091 24.8911 50.7471 25.4159 53.2084 26.4354C55.6698 27.4549 57.9063 28.9492 59.7901 30.8331C61.674 32.7169 63.1683 34.9534 64.1878 37.4147C65.2074 39.8761 65.7321 42.5141 65.7321 45.1783Z" fill="#307F06"/>
<path d="M65.157 45.1787V1129.46C65.157 1134.69 63.0803 1139.7 59.3836 1143.4C55.687 1147.1 50.6733 1149.17 45.4454 1149.17C40.2176 1149.17 35.2039 1147.1 31.5072 1143.4C27.8106 1139.7 25.7339 1134.69 25.7339 1129.46V45.1787C25.7339 39.9508 27.8106 34.9371 31.5072 31.2404C35.2039 27.5438 40.2176 25.467 45.4454 25.467C50.6733 25.467 55.687 27.5438 59.3836 31.2404C63.0803 34.9371 65.157 39.9508 65.157 45.1787Z" fill="#348B06"/>
<path d="M64.5823 45.1793V1129.46C64.5823 1134.54 62.5661 1139.4 58.9773 1142.99C55.3886 1146.58 50.5214 1148.6 45.4462 1148.6C40.371 1148.6 35.5035 1146.58 31.9148 1142.99C28.3261 1139.4 26.3101 1134.54 26.3101 1129.46V45.1793C26.3101 40.1041 28.3261 35.2368 31.9148 31.6481C35.5035 28.0593 40.371 26.0432 45.4462 26.0432C50.5214 26.0432 55.3886 28.0593 58.9773 31.6481C62.5661 35.2368 64.5823 40.1041 64.5823 45.1793Z" fill="#399607"/>
<path d="M63.865 45.179V1129.46C64.0915 1132.03 63.7819 1134.61 62.9557 1137.05C62.1294 1139.49 60.8047 1141.73 59.0658 1143.63C57.3269 1145.53 55.2119 1147.04 52.8551 1148.08C50.4984 1149.12 47.9514 1149.66 45.3763 1149.66C42.8013 1149.66 40.2545 1149.12 37.8978 1148.08C35.541 1147.04 33.426 1145.53 31.6871 1143.63C29.9482 1141.73 28.6235 1139.49 27.7972 1137.05C26.971 1134.61 26.6614 1132.03 26.8879 1129.46V45.179C26.6614 42.614 26.971 40.0298 27.7972 37.591C28.6235 35.1521 29.9482 32.9118 31.6871 31.0126C33.426 29.1134 35.541 27.5968 37.8978 26.5592C40.2545 25.5217 42.8013 24.9858 45.3763 24.9858C47.9514 24.9858 50.4984 25.5217 52.8551 26.5592C55.2119 27.5968 57.3269 29.1134 59.0658 31.0126C60.8047 32.9118 62.1294 35.1521 62.9557 37.591C63.7819 40.0298 64.0915 42.614 63.865 45.179Z" fill="#3DA207"/>
<path d="M63.2853 45.1771V1129.46C63.2853 1131.8 62.8238 1134.12 61.9272 1136.29C61.0306 1138.45 59.7164 1140.42 58.0597 1142.08C56.403 1143.73 54.4362 1145.05 52.2716 1145.94C50.107 1146.84 47.787 1147.3 45.444 1147.3C43.1011 1147.3 40.781 1146.84 38.6164 1145.94C36.4518 1145.05 34.4851 1143.73 32.8284 1142.08C31.1717 1140.42 29.8575 1138.45 28.9609 1136.29C28.0643 1134.12 27.6028 1131.8 27.6028 1129.46V45.1771C27.6028 40.4453 29.4825 35.9074 32.8284 32.5615C36.1742 29.2156 40.7123 27.3359 45.444 27.3359C50.1758 27.3359 54.7138 29.2156 58.0597 32.5615C61.4056 35.9074 63.2853 40.4453 63.2853 45.1771Z" fill="#41AD08"/>
<path d="M62.7099 45.1775V1129.46C62.7099 1134.04 60.8909 1138.43 57.653 1141.67C54.415 1144.91 50.0235 1146.73 45.4443 1146.73C40.8652 1146.73 36.4736 1144.91 33.2357 1141.67C29.9978 1138.43 28.1787 1134.04 28.1787 1129.46V45.1775C28.1787 40.5984 29.9978 36.2068 33.2357 32.9689C36.4736 29.7309 40.8652 27.9119 45.4443 27.9119C50.0235 27.9119 54.415 29.7309 57.653 32.9689C60.8909 36.2068 62.7099 40.5984 62.7099 45.1775Z" fill="#46B908"/>
<path d="M62.1353 45.1782V1129.46C62.1353 1133.89 60.3767 1138.13 57.2467 1141.26C54.1167 1144.39 49.8716 1146.15 45.4451 1146.15C41.0186 1146.15 36.7733 1144.39 33.6433 1141.26C30.5132 1138.13 28.7549 1133.89 28.7549 1129.46V45.1782C28.7549 40.7517 30.5132 36.5065 33.6433 33.3765C36.7733 30.2465 41.0186 28.488 45.4451 28.488C49.8716 28.488 54.1167 30.2465 57.2467 33.3765C60.3767 36.5065 62.1353 40.7517 62.1353 45.1782Z" fill="#4AC409"/>
<path d="M61.4129 45.179V1129.46C61.4129 1133.7 59.7302 1137.76 56.7351 1140.76C53.74 1143.75 49.6779 1145.43 45.4422 1145.43C41.2065 1145.43 37.1444 1143.75 34.1493 1140.76C31.1542 1137.76 29.4714 1133.7 29.4714 1129.46V45.179C29.4714 40.9433 31.1542 36.8811 34.1493 33.886C37.1444 30.8909 41.2065 29.2083 45.4422 29.2083C49.6779 29.2083 53.74 30.8909 56.7351 33.886C59.7302 36.8811 61.4129 40.9433 61.4129 45.179Z" fill="#4FD009"/>
<path d="M60.838 45.1794V1129.46C60.838 1133.55 59.2162 1137.46 56.329 1140.35C53.4419 1143.24 49.526 1144.86 45.4429 1144.86C41.3599 1144.86 37.444 1143.24 34.5568 1140.35C31.6697 1137.46 30.0476 1133.55 30.0476 1129.46V45.1794C30.0476 43.1577 30.4459 41.1557 31.2195 39.2879C31.9932 37.4201 33.1272 35.7229 34.5568 34.2933C35.9864 32.8638 37.6836 31.7297 39.5515 30.9561C41.4193 30.1824 43.4212 29.7842 45.4429 29.7842C47.4646 29.7842 49.4666 30.1824 51.3344 30.9561C53.2022 31.7297 54.8994 32.8638 56.329 34.2933C57.7586 35.7229 58.8926 37.4201 59.6663 39.2879C60.44 41.1557 60.838 43.1577 60.838 45.1794Z" fill="#53DB0A"/>
<path d="M60.2629 45.18V1129.46C60.2629 1133.39 58.7015 1137.16 55.9223 1139.94C53.143 1142.72 49.3736 1144.28 45.4432 1144.28C41.5128 1144.28 37.7434 1142.72 34.9641 1139.94C32.1849 1137.16 30.6235 1133.39 30.6235 1129.46V45.18C30.6235 41.2496 32.1849 37.4802 34.9641 34.7009C37.7434 31.9217 41.5128 30.3604 45.4432 30.3604C49.3736 30.3604 53.143 31.9217 55.9223 34.7009C58.7015 37.4802 60.2629 41.2496 60.2629 45.18Z" fill="#57E70A"/>
<path d="M59.5473 45.1769V1129.46C59.5473 1133.28 58.0315 1136.94 55.3332 1139.63C52.6349 1142.33 48.9752 1143.85 45.1593 1143.85C41.3433 1143.85 37.6837 1142.33 34.9854 1139.63C32.2871 1136.94 30.7712 1133.28 30.7712 1129.46V45.1769C30.7712 41.3609 32.2871 37.7013 34.9854 35.003C37.6837 32.3047 41.3433 30.7888 45.1593 30.7888C48.9752 30.7888 52.6349 32.3047 55.3332 35.003C58.0315 37.7013 59.5473 41.3609 59.5473 45.1769Z" fill="#5CF20B"/>
<path d="M58.9729 45.1778V1129.46C58.9729 1133.05 57.5479 1136.49 55.0115 1139.02C52.4751 1141.56 49.0351 1142.99 45.4481 1142.99C41.8611 1142.99 38.421 1141.56 35.8846 1139.02C33.3482 1136.49 31.9233 1133.05 31.9233 1129.46V45.1778C31.9233 41.5908 33.3482 38.1508 35.8846 35.6144C38.421 33.078 41.8611 31.6531 45.4481 31.6531C49.0351 31.6531 52.4751 33.078 55.0115 35.6144C57.5479 38.1508 58.9729 41.5908 58.9729 45.1778Z" fill="#60FE0B"/>
<path d="M58.2506 45.1784V1129.46C58.2506 1132.86 56.9014 1136.11 54.4999 1138.52C52.0984 1140.92 48.8414 1142.27 45.4452 1142.27C42.0491 1142.27 38.7921 1140.92 36.3906 1138.52C33.9891 1136.11 32.6399 1132.86 32.6399 1129.46V45.1784C32.6399 41.7822 33.9891 38.5251 36.3906 36.1236C38.7921 33.7222 42.0491 32.373 45.4452 32.373C48.8414 32.373 52.0984 33.7222 54.4999 36.1236C56.9014 38.5251 58.2506 41.7822 58.2506 45.1784Z" fill="#67FE16"/>
<path d="M57.3881 45.1794V1129.46C57.3881 1132.63 56.1299 1135.67 53.8903 1137.91C51.6508 1140.15 48.6132 1141.4 45.446 1141.4C42.2788 1141.4 39.2413 1140.15 37.0017 1137.91C34.7621 1135.67 33.5039 1132.63 33.5039 1129.46V45.1794C33.5039 42.0121 34.7621 38.9746 37.0017 36.7351C39.2413 34.4955 42.2788 33.2373 45.446 33.2373C48.6132 33.2373 51.6508 34.4955 53.8903 36.7351C56.1299 38.9746 57.3881 42.0121 57.3881 45.1794Z" fill="#6FFE21"/>
<path d="M56.5259 45.1801V1129.46C56.5259 1132.4 55.3585 1135.22 53.2808 1137.3C51.2031 1139.37 48.3853 1140.54 45.447 1140.54C42.5087 1140.54 39.6907 1139.37 37.613 1137.3C35.5353 1135.22 34.3682 1132.4 34.3682 1129.46V45.1801C34.3682 42.2418 35.5353 39.4239 37.613 37.3462C39.6907 35.2685 42.5087 34.1013 45.447 34.1013C48.3853 34.1013 51.2031 35.2685 53.2808 37.3462C55.3585 39.4239 56.5259 42.2418 56.5259 45.1801Z" fill="#76FE2C"/>
<path d="M55.6634 45.1774V1129.46C55.6634 1132.17 54.587 1134.77 52.6712 1136.68C50.7554 1138.6 48.1571 1139.68 45.4478 1139.68C42.7385 1139.68 40.1401 1138.6 38.2243 1136.68C36.3086 1134.77 35.2322 1132.17 35.2322 1129.46V45.1774C35.2322 42.4681 36.3086 39.8698 38.2243 37.954C40.1401 36.0382 42.7385 34.9619 45.4478 34.9619C48.1571 34.9619 50.7554 36.0382 52.6712 37.954C54.587 39.8698 55.6634 42.4681 55.6634 45.1774Z" fill="#7DFE37"/>
<path d="M54.9413 45.1782V1129.46C54.9413 1131.98 53.9408 1134.4 52.1599 1136.18C50.379 1137.96 47.9637 1138.96 45.4451 1138.96C42.9266 1138.96 40.5112 1137.96 38.7304 1136.18C36.9495 1134.4 35.949 1131.98 35.949 1129.46V45.1782C35.949 43.9312 36.1947 42.6964 36.6719 41.5442C37.1492 40.3921 37.8486 39.3453 38.7304 38.4635C39.6122 37.5817 40.6589 36.8822 41.811 36.405C42.9631 35.9278 44.1981 35.6821 45.4451 35.6821C46.6922 35.6821 47.9269 35.9278 49.079 36.405C50.2312 36.8822 51.2781 37.5817 52.1599 38.4635C53.0417 39.3453 53.7411 40.3921 54.2183 41.5442C54.6956 42.6964 54.9413 43.9312 54.9413 45.1782Z" fill="#84FE42"/>
<path d="M54.0788 45.179V1129.46C54.0788 1131.75 53.1693 1133.95 51.5503 1135.57C49.9314 1137.19 47.7355 1138.09 45.4459 1138.09C43.1563 1138.09 40.9604 1137.19 39.3415 1135.57C37.7225 1133.95 36.813 1131.75 36.813 1129.46V45.179C36.813 44.0453 37.0365 42.9227 37.4703 41.8753C37.9041 40.8279 38.5398 39.8763 39.3415 39.0746C40.1431 38.273 41.0948 37.6371 42.1422 37.2033C43.1896 36.7694 44.3122 36.5461 45.4459 36.5461C46.5796 36.5461 47.7022 36.7694 48.7496 37.2033C49.797 37.6371 50.7487 38.273 51.5503 39.0746C52.352 39.8763 52.9877 40.8279 53.4215 41.8753C53.8553 42.9227 54.0788 44.0453 54.0788 45.179Z" fill="#8CFE4D"/>
<path d="M53.2159 45.1799V1129.46C53.2159 1131.52 52.3974 1133.5 50.9403 1134.96C49.4833 1136.41 47.5071 1137.23 45.4464 1137.23C43.3858 1137.23 41.4096 1136.41 39.9526 1134.96C38.4955 1133.5 37.677 1131.52 37.677 1129.46V45.1799C37.677 43.1193 38.4955 41.1431 39.9526 39.6861C41.4096 38.229 43.3858 37.4104 45.4464 37.4104C47.5071 37.4104 49.4833 38.229 50.9403 39.6861C52.3974 41.1431 53.2159 43.1193 53.2159 45.1799Z" fill="#93FE58"/>
<path d="M52.4938 45.1769V1129.46C52.4938 1131.37 51.7357 1133.2 50.3866 1134.55C49.0374 1135.9 47.2077 1136.65 45.2997 1136.65C43.3918 1136.65 41.5618 1135.9 40.2127 1134.55C38.8635 1133.2 38.1057 1131.37 38.1057 1129.46V45.1769C38.1057 43.269 38.8635 41.4391 40.2127 40.09C41.5618 38.7409 43.3918 37.9829 45.2997 37.9829C47.2077 37.9829 49.0374 38.7409 50.3866 40.09C51.7357 41.4391 52.4938 43.269 52.4938 45.1769Z" fill="#9AFE63"/>
<path d="M51.6315 45.1778V1129.46C51.6315 1131.1 50.9799 1132.68 49.8196 1133.84C48.6594 1135 47.0856 1135.65 45.4448 1135.65C43.8039 1135.65 42.2302 1135 41.0699 1133.84C39.9097 1132.68 39.2578 1131.1 39.2578 1129.46V45.1778C39.2578 43.537 39.9097 41.9633 41.0699 40.8031C42.2302 39.6428 43.8039 38.991 45.4448 38.991C47.0856 38.991 48.6594 39.6428 49.8196 40.8031C50.9799 41.9633 51.6315 43.537 51.6315 45.1778Z" fill="#A1FE6E"/>
<path d="M50.7711 45.1772V1129.46C50.7711 1130.87 50.2103 1132.23 49.2119 1133.22C48.2136 1134.22 46.8595 1134.78 45.4476 1134.78C44.7431 1134.8 44.0421 1134.68 43.3872 1134.42C42.7323 1134.16 42.1373 1133.77 41.639 1133.27C41.1406 1132.77 40.7493 1132.18 40.4888 1131.52C40.2283 1130.87 40.1043 1130.16 40.1241 1129.46V45.1772C40.1043 44.4727 40.2283 43.7716 40.4888 43.1167C40.7493 42.4618 41.1406 41.867 41.639 41.3687C42.1373 40.8703 42.7323 40.4789 43.3872 40.2184C44.0421 39.9579 44.7431 39.8338 45.4476 39.8536C46.8595 39.8536 48.2136 40.4145 49.2119 41.4129C50.2103 42.4112 50.7711 43.7653 50.7711 45.1772Z" fill="#A9FE79"/>
<path d="M49.9066 45.1795V1129.46C49.9066 1130.65 49.4368 1131.78 48.6003 1132.62C47.7638 1133.45 46.6293 1133.92 45.4463 1133.92C44.2634 1133.92 43.1288 1133.45 42.2924 1132.62C41.4559 1131.78 40.9861 1130.65 40.9861 1129.46V45.1795C40.9861 43.9966 41.4559 42.8621 42.2924 42.0256C43.1288 41.1892 44.2634 40.7192 45.4463 40.7192C46.6293 40.7192 47.7638 41.1892 48.6003 42.0256C49.4368 42.8621 49.9066 43.9966 49.9066 45.1795Z" fill="#B0FE84"/>
</g>
</svg>
