<svg width="50" height="1514" viewBox="0 0 50 1514" fill="none" xmlns="http://www.w3.org/2000/svg">
<g style="mix-blend-mode:screen">
<path d="M50 58.2308V1455.77C50 1471.21 47.3661 1486.02 42.6777 1496.94C37.9893 1507.86 31.6304 1514 25 1514C18.3696 1514 12.0107 1507.86 7.32234 1496.94C2.63393 1486.02 0 1471.21 0 1455.77V58.2308C0 42.787 2.63393 27.9758 7.32234 17.0554C12.0107 6.135 18.3696 0 25 0C31.6304 0 37.9893 6.135 42.6777 17.0554C47.3661 27.9758 50 42.787 50 58.2308V58.2308Z" fill="black"/>
<path d="M48.7269 58.2288V1455.77C48.7269 1470.52 46.2104 1484.67 41.731 1495.11C37.2516 1505.54 31.1763 1511.4 24.8415 1511.4C18.5067 1511.4 12.4314 1505.54 7.95205 1495.11C3.47267 1484.67 0.956177 1470.52 0.956177 1455.77V58.2288C0.956177 43.4736 3.47267 29.3228 7.95205 18.8893C12.4314 8.45578 18.5067 2.5943 24.8415 2.5943C31.1763 2.5943 37.2516 8.45578 41.731 18.8893C46.2104 29.3228 48.7269 43.4736 48.7269 58.2288V58.2288Z" fill="#0B0602"/>
<path d="M47.5326 58.2319V1455.77C47.5326 1469.69 45.1587 1483.04 40.9331 1492.88C36.7076 1502.72 30.9766 1508.25 25.0007 1508.25C19.0249 1508.25 13.2938 1502.72 9.0683 1492.88C4.84276 1483.04 2.46887 1469.69 2.46887 1455.77V58.2319C2.46887 44.3129 4.84276 30.9639 9.0683 21.1216C13.2938 11.2794 19.0249 5.75006 25.0007 5.75006C30.9766 5.75006 36.7076 11.2794 40.9331 21.1216C45.1587 30.9639 47.5326 44.3129 47.5326 58.2319V58.2319Z" fill="#160C04"/>
<path d="M46.2597 58.2302V1455.77C46.2597 1468.9 44.02 1481.5 40.0334 1490.78C36.0468 1500.07 30.6397 1505.28 25.0018 1505.28C19.3638 1505.28 13.9567 1500.07 9.97008 1490.78C5.98344 1481.5 3.74377 1468.9 3.74377 1455.77V58.2302C3.74377 45.0981 5.98344 32.5038 9.97008 23.218C13.9567 13.9322 19.3638 8.71552 25.0018 8.71552C30.6397 8.71552 36.0468 13.9322 40.0334 23.218C44.02 32.5038 46.2597 45.0981 46.2597 58.2302V58.2302Z" fill="#211106"/>
<path d="M44.9853 58.2322V1455.77C44.5402 1467.35 42.2506 1478.12 38.567 1485.97C34.8834 1493.82 30.0725 1498.17 25.0809 1498.17C20.0893 1498.17 15.2784 1493.82 11.5948 1485.97C7.91116 1478.12 5.62155 1467.35 5.17642 1455.77V58.2322C4.929 51.7953 5.25976 45.3089 6.14762 39.1861C7.03548 33.0633 8.461 27.4382 10.3334 22.669C12.2058 17.8999 14.4841 14.0911 17.0231 11.4853C19.5621 8.87951 22.3063 7.53375 25.0809 7.53375C27.8555 7.53375 30.5996 8.87951 33.1387 11.4853C35.6777 14.0911 37.956 17.8999 39.8284 22.669C41.7008 27.4382 43.1263 33.0633 44.0142 39.1861C44.902 45.3089 45.2328 51.7953 44.9853 58.2322V58.2322Z" fill="#2C1708"/>
<path d="M43.7879 58.2314V1455.77C43.7879 1467.38 41.8082 1478.51 38.2845 1486.72C34.7607 1494.92 29.9814 1499.54 24.9981 1499.54C20.0147 1499.54 15.2354 1494.92 11.7117 1486.72C8.18788 1478.51 6.20825 1467.38 6.20825 1455.77V58.2314C6.20825 46.624 8.18788 35.492 11.7117 27.2843C15.2354 19.0766 20.0147 14.4656 24.9981 14.4656C29.9814 14.4656 34.7607 19.0766 38.2845 27.2843C41.8082 35.492 43.7879 46.624 43.7879 58.2314V58.2314Z" fill="#371D0A"/>
<path d="M42.5159 58.2297V1455.77C42.5159 1466.59 40.6704 1476.97 37.3856 1484.62C34.1007 1492.27 29.6455 1496.57 24.9999 1496.57C20.3544 1496.57 15.8992 1492.27 12.6143 1484.62C9.32942 1476.97 7.48401 1466.59 7.48401 1455.77V58.2297C7.48401 47.4092 9.32942 37.0319 12.6143 29.3807C15.8992 21.7294 20.3544 17.431 24.9999 17.431C29.6455 17.431 34.1007 21.7294 37.3856 29.3807C40.6704 37.0319 42.5159 47.4092 42.5159 58.2297V58.2297Z" fill="#43230C"/>
<path d="M41.243 58.2325V1455.77C41.243 1460.74 40.8229 1465.66 40.0066 1470.25C39.1904 1474.84 37.994 1479.01 36.4858 1482.52C34.9776 1486.03 33.1871 1488.82 31.2165 1490.72C29.2459 1492.62 27.1339 1493.6 25.001 1493.6C22.868 1493.6 20.756 1492.62 18.7854 1490.72C16.8148 1488.82 15.0243 1486.03 13.5161 1482.52C12.0079 1479.01 10.8115 1474.84 9.99526 1470.25C9.17902 1465.66 8.75891 1460.74 8.75891 1455.77V58.2325C8.75891 53.2644 9.17902 48.345 9.99526 43.755C10.8115 39.1651 12.0079 34.9946 13.5161 31.4816C15.0243 27.9687 16.8148 25.182 18.7854 23.2808C20.756 21.3796 22.868 20.4011 25.001 20.4011C27.1339 20.4011 29.2459 21.3796 31.2165 23.2808C33.1871 25.182 34.9776 27.9687 36.4858 31.4816C37.994 34.9946 39.1904 39.1651 40.0066 43.755C40.8229 48.345 41.243 53.2644 41.243 58.2325V58.2325Z" fill="#4E290E"/>
<path d="M39.9687 58.2295V1455.77C40.1191 1460.57 39.8425 1465.4 39.1564 1469.94C38.4703 1474.49 37.3894 1478.65 35.9811 1482.18C34.5727 1485.71 32.8673 1488.52 30.9712 1490.45C29.075 1492.37 27.029 1493.37 24.9607 1493.37C22.8925 1493.37 20.8464 1492.37 18.9503 1490.45C17.0542 1488.52 15.3487 1485.71 13.9404 1482.18C12.5321 1478.65 11.4511 1474.49 10.765 1469.94C10.0789 1465.4 9.80243 1460.57 9.95277 1455.77V58.2295C9.80243 53.4248 10.0789 48.5995 10.765 44.0548C11.4511 39.5102 12.5321 35.3437 13.9404 31.8156C15.3487 28.2875 17.0542 25.4735 18.9503 23.5493C20.8464 21.6251 22.8925 20.632 24.9607 20.632C27.029 20.632 29.075 21.6251 30.9712 23.5493C32.8673 25.4735 34.5727 28.2875 35.9811 31.8156C37.3894 35.3437 38.4703 39.5102 39.1564 44.0548C39.8425 48.5995 40.1191 53.4248 39.9687 58.2295V58.2295Z" fill="#592F10"/>
<path d="M38.7747 58.2291V1455.77C38.7747 1464.28 37.3235 1472.44 34.7404 1478.45C32.1573 1484.47 28.6539 1487.85 25.0008 1487.85C21.3478 1487.85 17.8443 1484.47 15.2612 1478.45C12.6781 1472.44 11.2269 1464.28 11.2269 1455.77V58.2291C11.2269 49.7203 12.6781 41.56 15.2612 35.5433C17.8443 29.5267 21.3478 26.1465 25.0008 26.1465C28.6539 26.1465 32.1573 29.5267 34.7404 35.5433C37.3235 41.56 38.7747 49.7203 38.7747 58.2291V58.2291Z" fill="#643412"/>
<path d="M37.4982 58.232V1455.77C37.4982 1463.49 36.1812 1470.9 33.837 1476.36C31.4928 1481.82 28.3134 1484.89 24.9982 1484.89C21.683 1484.89 18.5035 1481.82 16.1593 1476.36C13.8151 1470.9 12.4982 1463.49 12.4982 1455.77V58.232C12.4982 50.5101 13.8151 43.1045 16.1593 37.6443C18.5035 32.1841 21.683 29.1166 24.9982 29.1166C28.3134 29.1166 31.4928 32.1841 33.837 37.6443C36.1812 43.1045 37.4982 50.5101 37.4982 58.232V58.232Z" fill="#6F3A14"/>
<path d="M36.2262 58.2304V1455.77C36.2262 1462.7 35.0434 1469.35 32.9381 1474.26C30.8328 1479.16 27.9774 1481.92 25 1481.92C22.0227 1481.92 19.1673 1479.16 17.062 1474.26C14.9567 1469.35 13.7739 1462.7 13.7739 1455.77V58.2304C13.7739 51.2954 14.9567 44.6445 17.062 39.7408C19.1673 34.837 22.0227 32.0822 25 32.0822C27.9774 32.0822 30.8328 34.837 32.9381 39.7408C35.0434 44.6445 36.2262 51.2954 36.2262 58.2304V58.2304Z" fill="#7A4016"/>
<path d="M35.9079 58.2311V1455.77C35.9079 1462.51 34.7587 1468.97 32.7131 1473.73C30.6676 1478.5 27.8932 1481.18 25.0003 1481.18C22.1074 1481.18 19.333 1478.5 17.2874 1473.73C15.2418 1468.97 14.0927 1462.51 14.0927 1455.77V58.2311C14.0927 51.4929 15.2418 45.0307 17.2874 40.2661C19.333 35.5015 22.1074 32.8247 25.0003 32.8247C27.8932 32.8247 30.6676 35.5015 32.7131 40.2661C34.7587 45.0307 35.9079 51.4929 35.9079 58.2311V58.2311Z" fill="#854618"/>
<path d="M35.5897 58.2318V1455.77C35.5897 1462.31 34.4741 1468.59 32.4882 1473.21C30.5024 1477.84 27.809 1480.43 25.0006 1480.43C22.1921 1480.43 19.4987 1477.84 17.5129 1473.21C15.527 1468.59 14.4114 1462.31 14.4114 1455.77V58.2318C14.4114 51.6904 15.527 45.4168 17.5129 40.7913C19.4987 36.1658 22.1921 33.5672 25.0006 33.5672C27.809 33.5672 30.5024 36.1658 32.4882 40.7913C34.4741 45.4168 35.5897 51.6904 35.5897 58.2318V58.2318Z" fill="#904C1A"/>
<path d="M35.1926 58.2314V1455.77C35.318 1459.08 35.1466 1462.41 34.6894 1465.55C34.2322 1468.69 33.4991 1471.58 32.5369 1474.03C31.5747 1476.48 30.4043 1478.43 29.1001 1479.77C27.796 1481.11 26.3867 1481.8 24.9617 1481.8C23.5368 1481.8 22.1275 1481.11 20.8234 1479.77C19.5192 1478.43 18.3488 1476.48 17.3866 1474.03C16.4244 1471.58 15.6913 1468.69 15.2341 1465.55C14.7769 1462.41 14.6055 1459.08 14.7308 1455.77V58.2314C14.6055 54.9253 14.7769 51.5946 15.2341 48.4512C15.6913 45.3077 16.4244 42.4202 17.3866 39.9723C18.3488 37.5244 19.5192 35.5696 20.8234 34.2323C22.1275 32.895 23.5368 32.2043 24.9617 32.2043C26.3867 32.2043 27.796 32.895 29.1001 34.2323C30.4043 35.5696 31.5747 37.5244 32.5369 39.9723C33.4991 42.4202 34.2322 45.3077 34.6894 48.4512C35.1466 51.5946 35.318 54.9253 35.1926 58.2314V58.2314Z" fill="#9B511C"/>
<path d="M34.8722 58.229V1455.77C34.8722 1461.87 33.832 1467.72 31.9806 1472.03C30.1291 1476.34 27.618 1478.76 24.9996 1478.76C22.3812 1478.76 19.8701 1476.34 18.0186 1472.03C16.1671 1467.72 15.127 1461.87 15.127 1455.77V58.229C15.127 52.1302 16.1671 46.2812 18.0186 41.9687C19.8701 37.6562 22.3812 35.2335 24.9996 35.2335C27.618 35.2335 30.1291 37.6562 31.9806 41.9687C33.832 46.2812 34.8722 52.1302 34.8722 58.229V58.229Z" fill="#A6571E"/>
<path d="M34.554 58.2297V1455.77C34.554 1461.67 33.5474 1467.33 31.7556 1471.5C29.9639 1475.68 27.5337 1478.02 24.9998 1478.02C22.4659 1478.02 20.0358 1475.68 18.244 1471.5C16.4523 1467.33 15.4457 1461.67 15.4457 1455.77V58.2297C15.4457 52.3276 16.4523 46.6673 18.244 42.4939C20.0358 38.3205 22.4659 35.9759 24.9998 35.9759C27.5337 35.9759 29.9639 38.3205 31.7556 42.4939C33.5474 46.6673 34.554 52.3276 34.554 58.2297V58.2297Z" fill="#B15D20"/>
<path d="M34.076 58.2303V1455.77C34.076 1461.47 33.1029 1466.95 31.3709 1470.98C29.6389 1475.01 27.2897 1477.28 24.8403 1477.28C22.3908 1477.28 20.0417 1475.01 18.3097 1470.98C16.5777 1466.95 15.6046 1461.47 15.6046 1455.77V58.2303C15.6046 52.525 16.5777 47.0533 18.3097 43.019C20.0417 38.9848 22.3908 36.7183 24.8403 36.7183C27.2897 36.7183 29.6389 38.9848 31.3709 43.019C33.1029 47.0533 34.076 52.525 34.076 58.2303V58.2303Z" fill="#BD6321"/>
<path d="M34.077 58.2313V1455.77C34.077 1458.47 33.8484 1461.15 33.4043 1463.65C32.9602 1466.14 32.3092 1468.41 31.4886 1470.33C30.6679 1472.24 29.6937 1473.75 28.6214 1474.79C27.5492 1475.82 26.4 1476.35 25.2394 1476.35C24.0789 1476.35 22.9297 1475.82 21.8575 1474.79C20.7852 1473.75 19.811 1472.24 18.9903 1470.33C18.1697 1468.41 17.5187 1466.14 17.0746 1463.65C16.6305 1461.15 16.4019 1458.47 16.4019 1455.77V58.2313C16.4019 52.7719 17.333 47.5361 18.9903 43.6757C20.6477 39.8153 22.8956 37.6465 25.2394 37.6465C27.5833 37.6465 29.8312 39.8153 31.4886 43.6757C33.1459 47.5361 34.077 52.7719 34.077 58.2313V58.2313Z" fill="#C86923"/>
<path d="M33.5172 58.2319V1455.77C33.5172 1461.03 32.6197 1466.08 31.022 1469.8C29.4244 1473.52 27.2575 1475.61 24.9981 1475.61C22.7387 1475.61 20.5718 1473.52 18.9742 1469.8C17.3766 1466.08 16.479 1461.03 16.479 1455.77V58.2319C16.479 52.9693 17.3766 47.9221 18.9742 44.2008C20.5718 40.4796 22.7387 38.389 24.9981 38.389C27.2575 38.389 29.4244 40.4796 31.022 44.2008C32.6197 47.9221 33.5172 52.9693 33.5172 58.2319Z" fill="#D36F25"/>
<path d="M33.2 58.2328V1455.77C33.2 1460.84 32.336 1465.7 30.7981 1469.28C29.2602 1472.86 27.1743 1474.87 24.9993 1474.87C22.8244 1474.87 20.7385 1472.86 19.2006 1469.28C17.6627 1465.7 16.7987 1460.84 16.7987 1455.77V58.2328C16.7987 53.1668 17.6627 48.3084 19.2006 44.7262C20.7385 41.144 22.8244 39.1316 24.9993 39.1316C27.1743 39.1316 29.2602 41.144 30.7981 44.7262C32.336 48.3084 33.2 53.1668 33.2 58.2328V58.2328Z" fill="#DE7427"/>
<path d="M32.8039 58.2287V1455.77C32.8039 1460.69 31.9651 1465.4 30.472 1468.88C28.9789 1472.36 26.9538 1474.31 24.8422 1474.31C22.7306 1474.31 20.7054 1472.36 19.2123 1468.88C17.7192 1465.4 16.8804 1460.69 16.8804 1455.77V58.2287C16.8804 53.3103 17.7192 48.5933 19.2123 45.1155C20.7054 41.6377 22.7306 39.6838 24.8422 39.6838C26.9538 39.6838 28.9789 41.6377 30.472 45.1155C31.9651 48.5933 32.8039 53.3103 32.8039 58.2287V58.2287Z" fill="#E97A29"/>
<path d="M32.4859 58.2298V1455.77C32.4859 1460.39 31.6974 1464.83 30.2938 1468.09C28.8903 1471.36 26.9867 1473.2 25.0018 1473.2C23.0169 1473.2 21.1133 1471.36 19.7098 1468.09C18.3062 1464.83 17.5177 1460.39 17.5177 1455.77V58.2298C17.5177 53.6065 18.3062 49.1726 19.7098 45.9034C21.1133 42.6343 23.0169 40.7977 25.0018 40.7977C26.9867 40.7977 28.8903 42.6343 30.2938 45.9034C31.6974 49.1726 32.4859 53.6065 32.4859 58.2298V58.2298Z" fill="#F4802B"/>
<path d="M32.0077 58.2302V1455.77C32.1129 1458.07 32.009 1460.4 31.7028 1462.6C31.3967 1464.8 30.8951 1466.83 30.2305 1468.55C29.566 1470.27 28.7535 1471.65 27.8458 1472.59C26.938 1473.53 25.9553 1474.02 24.9615 1474.02C23.9676 1474.02 22.9849 1473.53 22.0772 1472.59C21.1694 1471.65 20.3569 1470.27 19.6924 1468.55C19.0279 1466.83 18.5263 1464.8 18.2201 1462.6C17.9139 1460.4 17.8101 1458.07 17.9153 1455.77V58.2302C17.8101 55.9283 17.9139 53.6007 18.2201 51.3985C18.5263 49.1962 19.0279 47.1686 19.6924 45.4473C20.3569 43.7261 21.1694 42.3496 22.0772 41.4074C22.9849 40.4651 23.9676 39.9782 24.9615 39.9782C25.9553 39.9782 26.938 40.4651 27.8458 41.4074C28.7535 42.3496 29.566 43.7261 30.2305 45.4473C30.8951 47.1686 31.3967 49.1962 31.7028 51.3985C32.009 53.6007 32.1129 55.9283 32.0077 58.2302Z" fill="#F58635"/>
<path d="M31.6088 58.2317V1455.77C31.6088 1459.85 30.9126 1463.77 29.6733 1466.65C28.434 1469.54 26.7531 1471.16 25.0005 1471.16C23.2479 1471.16 21.567 1469.54 20.3277 1466.65C19.0885 1463.77 18.3922 1459.85 18.3922 1455.77V58.2317C18.3922 56.2104 18.5632 54.2089 18.8953 52.3414C19.2274 50.4739 19.7141 48.7771 20.3277 47.3478C20.9414 45.9185 21.6699 44.7847 22.4716 44.0112C23.2734 43.2377 24.1327 42.8395 25.0005 42.8395C25.8683 42.8395 26.7276 43.2377 27.5294 44.0112C28.3311 44.7847 29.0596 45.9185 29.6733 47.3478C30.2869 48.7771 30.7737 50.4739 31.1058 52.3414C31.4379 54.2089 31.6088 56.2104 31.6088 58.2317V58.2317Z" fill="#F68C3F"/>
<path d="M31.1319 58.2329V1455.77C31.1319 1459.56 30.486 1463.19 29.3363 1465.87C28.1866 1468.55 26.6272 1470.05 25.0013 1470.05C23.3754 1470.05 21.816 1468.55 20.6663 1465.87C19.5166 1463.19 18.8707 1459.56 18.8707 1455.77V58.2329C18.8707 56.3577 19.0293 54.5008 19.3374 52.7683C19.6455 51.0359 20.0971 49.4617 20.6663 48.1357C21.2356 46.8098 21.9114 45.7579 22.6552 45.0403C23.399 44.3227 24.1962 43.9534 25.0013 43.9534C25.8064 43.9534 26.6036 44.3227 27.3474 45.0403C28.0912 45.7579 28.767 46.8098 29.3363 48.1357C29.9055 49.4617 30.3571 51.0359 30.6652 52.7683C30.9733 54.5008 31.1319 56.3577 31.1319 58.2329V58.2329Z" fill="#F79249"/>
<path d="M30.6541 58.2294V1455.77C30.6541 1457.5 30.5079 1459.21 30.2238 1460.81C29.9397 1462.4 29.5233 1463.86 28.9984 1465.08C28.4735 1466.3 27.8503 1467.27 27.1645 1467.93C26.4787 1468.59 25.7436 1468.93 25.0012 1468.93C24.2589 1468.93 23.5238 1468.59 22.838 1467.93C22.1521 1467.27 21.529 1466.3 21.0041 1465.08C20.4792 1463.86 20.0627 1462.4 19.7787 1460.81C19.4946 1459.21 19.3484 1457.5 19.3484 1455.77V58.2294C19.3484 54.7373 19.944 51.3883 21.0041 48.919C22.0642 46.4498 23.502 45.0626 25.0012 45.0626C26.5005 45.0626 27.9383 46.4498 28.9984 48.919C30.0585 51.3883 30.6541 54.7373 30.6541 58.2294Z" fill="#F89853"/>
<path d="M30.2548 58.2305V1455.77C30.2548 1459.02 29.7012 1462.13 28.7157 1464.42C27.7302 1466.72 26.3937 1468.01 25 1468.01C23.6064 1468.01 22.2698 1466.72 21.2843 1464.42C20.2989 1462.13 19.7452 1459.02 19.7452 1455.77V58.2305C19.7452 54.9844 20.2989 51.8712 21.2843 49.5758C22.2698 47.2804 23.6064 45.9909 25 45.9909C26.3937 45.9909 27.7302 47.2804 28.7157 49.5758C29.7012 51.8712 30.2548 54.9844 30.2548 58.2305V58.2305Z" fill="#F99E5D"/>
<path d="M29.7779 58.2314V1455.77C29.7779 1458.72 29.2746 1461.55 28.3787 1463.64C27.4829 1465.72 26.2678 1466.9 25.0008 1466.9C23.7339 1466.9 22.5188 1465.72 21.623 1463.64C20.7271 1461.55 20.2238 1458.72 20.2238 1455.77V58.2314C20.2238 55.2803 20.7271 52.4502 21.623 50.3635C22.5188 48.2768 23.7339 47.1045 25.0008 47.1045C26.2678 47.1045 27.4829 48.2768 28.3787 50.3635C29.2746 52.4502 29.7779 55.2803 29.7779 58.2314V58.2314Z" fill="#FAA566"/>
<path d="M29.3 58.2325V1455.77C29.3 1457.09 29.1888 1458.39 28.9728 1459.6C28.7567 1460.82 28.44 1461.92 28.0408 1462.85C27.6415 1463.78 27.1676 1464.52 26.646 1465.02C26.1243 1465.53 25.5653 1465.79 25.0007 1465.79C24.4361 1465.79 23.877 1465.53 23.3554 1465.02C22.8337 1464.52 22.3598 1463.78 21.9605 1462.85C21.5613 1461.92 21.2446 1460.82 21.0286 1459.6C20.8125 1458.39 20.7013 1457.09 20.7013 1455.77V58.2325C20.7013 56.9174 20.8125 55.6152 21.0286 54.4002C21.2446 53.1852 21.5613 52.0813 21.9605 51.1514C22.3598 50.2214 22.8337 49.4838 23.3554 48.9806C23.877 48.4773 24.4361 48.2183 25.0007 48.2183C25.5653 48.2183 26.1243 48.4773 26.646 48.9806C27.1676 49.4838 27.6415 50.2214 28.0408 51.1514C28.44 52.0813 28.7567 53.1852 28.9728 54.4002C29.1888 55.6152 29.3 56.9174 29.3 58.2325V58.2325Z" fill="#FBAB70"/>
<path d="M28.8211 58.229V1455.77C28.8317 1456.95 28.7407 1458.13 28.5534 1459.23C28.3661 1460.33 28.0862 1461.34 27.7303 1462.18C27.3743 1463.03 26.9495 1463.7 26.4805 1464.16C26.0116 1464.62 25.5081 1464.85 24.9994 1464.85C24.4871 1464.85 23.9798 1464.62 23.5065 1464.16C23.0332 1463.71 22.6031 1463.04 22.2408 1462.19C21.8786 1461.35 21.5912 1460.35 21.3951 1459.24C21.1991 1458.14 21.0981 1456.96 21.0981 1455.77V58.229C21.0981 57.0357 21.1991 55.8541 21.3951 54.7516C21.5912 53.6491 21.8786 52.6473 22.2408 51.8035C22.6031 50.9597 23.0332 50.2904 23.5065 49.8337C23.9798 49.3771 24.4871 49.142 24.9994 49.142C25.5081 49.1418 26.0116 49.378 26.4805 49.8369C26.9495 50.2958 27.3743 50.9681 27.7303 51.8144C28.0862 52.6608 28.3661 53.6641 28.5534 54.7656C28.7407 55.867 28.8317 57.0445 28.8211 58.229V58.229Z" fill="#FCB17A"/>
<path d="M28.4229 58.2301V1455.77C28.4229 1457.88 28.0622 1459.91 27.4202 1461.41C26.7781 1462.9 25.9074 1463.74 24.9994 1463.74C24.0914 1463.74 23.2206 1462.9 22.5785 1461.41C21.9365 1459.91 21.5758 1457.88 21.5758 1455.77V58.2301C21.5758 56.1152 21.9365 54.0869 22.5785 52.5914C23.2206 51.0959 24.0914 50.2558 24.9994 50.2558C25.9074 50.2558 26.7781 51.0959 27.4202 52.5914C28.0622 54.0869 28.4229 56.1152 28.4229 58.2301Z" fill="#FDB784"/>
<path d="M27.9472 58.2293V1455.77C27.9472 1457.59 27.6368 1459.33 27.0843 1460.62C26.5319 1461.91 25.7826 1462.63 25.0013 1462.63C24.6115 1462.65 24.2235 1462.49 23.8611 1462.16C23.4987 1461.82 23.1696 1461.32 22.8938 1460.68C22.618 1460.03 22.4015 1459.27 22.2573 1458.42C22.1132 1457.58 22.0445 1456.68 22.0555 1455.77V58.2293C22.0445 57.3213 22.1132 56.4176 22.2573 55.5735C22.4015 54.7294 22.618 53.9628 22.8938 53.3205C23.1696 52.6781 23.4987 52.1736 23.8611 51.8379C24.2235 51.5021 24.6115 51.3421 25.0013 51.3677C25.7826 51.3677 26.5319 52.0906 27.0843 53.3774C27.6368 54.6642 27.9472 56.4095 27.9472 58.2293V58.2293Z" fill="#FEBD8E"/>
<path d="M27.4683 58.2321V1455.77C27.4683 1457.3 27.2083 1458.76 26.7454 1459.84C26.2825 1460.91 25.6547 1461.52 25.0001 1461.52C24.3456 1461.52 23.7178 1460.91 23.2549 1459.84C22.792 1458.76 22.532 1457.3 22.532 1455.77V58.2321C22.532 56.7074 22.792 55.2451 23.2549 54.167C23.7178 53.0889 24.3456 52.4832 25.0001 52.4832C25.6547 52.4832 26.2825 53.0889 26.7454 54.167C27.2083 55.2451 27.4683 56.7074 27.4683 58.2321Z" fill="#FFC398"/>
</g>
</svg>
