<svg width="91" height="1175" viewBox="0 0 91 1175" fill="none" xmlns="http://www.w3.org/2000/svg">
<g style="mix-blend-mode:screen">
<path d="M90.9384 45.1785V1129.46C90.9384 1141.44 86.1786 1152.93 77.706 1161.41C69.2334 1169.88 57.7421 1174.64 45.76 1174.64C33.7779 1174.64 22.2866 1169.88 13.814 1161.41C5.34141 1152.93 0.581543 1141.44 0.581543 1129.46V45.1785C0.581543 33.1964 5.34141 21.7051 13.814 13.2325C22.2866 4.75986 33.7779 0 45.76 0C57.7421 0 69.2334 4.75986 77.706 13.2325C86.1786 21.7051 90.9384 33.1964 90.9384 45.1785Z" fill="black"/>
<path d="M88.6383 45.1768V1129.46C88.6383 1140.91 84.0907 1151.89 75.9958 1159.98C67.901 1168.08 56.922 1172.62 45.4742 1172.62C34.0264 1172.62 23.0474 1168.08 14.9526 1159.98C6.85772 1151.89 2.31006 1140.91 2.31006 1129.46V45.1768C2.31006 33.729 6.85772 22.75 14.9526 14.6552C23.0474 6.56034 34.0264 2.0127 45.4742 2.0127C56.922 2.0127 67.901 6.56034 75.9958 14.6552C84.0907 22.75 88.6383 33.729 88.6383 45.1768Z" fill="#0B0602"/>
<path d="M86.4788 45.1793V1129.46C86.4788 1140.26 82.1889 1150.62 74.5527 1158.25C66.9166 1165.89 56.5598 1170.18 45.7607 1170.18C34.9615 1170.18 24.6047 1165.89 16.9686 1158.25C9.33242 1150.62 5.04248 1140.26 5.04248 1129.46V45.1793C5.04248 34.3802 9.33242 24.0234 16.9686 16.3873C24.6047 8.75112 34.9615 4.46118 45.7607 4.46118C56.5598 4.46118 66.9166 8.75112 74.5527 16.3873C82.1889 24.0234 86.4788 34.3802 86.4788 45.1793Z" fill="#160C04"/>
<path d="M84.1793 45.178V1129.46C84.1793 1139.65 80.1319 1149.42 72.9275 1156.63C65.7231 1163.83 55.9519 1167.88 45.7633 1167.88C35.5747 1167.88 25.8034 1163.83 18.599 1156.63C11.3946 1149.42 7.34717 1139.65 7.34717 1129.46V45.178C7.34717 34.9895 11.3946 25.2182 18.599 18.0138C25.8034 10.8094 35.5747 6.76196 45.7633 6.76196C55.9519 6.76196 65.7231 10.8094 72.9275 18.0138C80.1319 25.2182 84.1793 34.9895 84.1793 45.178Z" fill="#211106"/>
<path d="M81.8761 45.1797V1129.46C81.0717 1138.45 76.9341 1146.81 70.2773 1152.89C63.6205 1158.98 54.9265 1162.36 45.906 1162.36C36.8855 1162.36 28.1915 1158.98 21.5347 1152.89C14.8779 1146.81 10.7403 1138.45 9.93587 1129.46V45.1797C9.48874 40.1856 10.0865 35.1532 11.691 30.4028C13.2955 25.6524 15.8716 21.2881 19.2552 17.588C22.6389 13.8878 26.7561 10.9328 31.3444 8.91104C35.9328 6.88932 40.8919 5.84521 45.906 5.84521C50.92 5.84521 55.8791 6.88932 60.4675 8.91104C65.0559 10.9328 69.173 13.8878 72.5567 17.588C75.9404 21.2881 78.5166 25.6524 80.1211 30.4028C81.7256 35.1532 82.3232 40.1856 81.8761 45.1797Z" fill="#2C1708"/>
<path d="M79.7129 45.1789V1129.46C79.7129 1138.47 76.1353 1147.1 69.7674 1153.47C63.3995 1159.84 54.7627 1163.42 45.7571 1163.42C36.7514 1163.42 28.1146 1159.84 21.7467 1153.47C15.3787 1147.1 11.8013 1138.47 11.8013 1129.46V45.1789C11.8013 36.1733 15.3787 27.5365 21.7467 21.1686C28.1146 14.8006 36.7514 11.2231 45.7571 11.2231C54.7627 11.2231 63.3995 14.8006 69.7674 21.1686C76.1353 27.5365 79.7129 36.1733 79.7129 45.1789Z" fill="#371D0A"/>
<path d="M77.4129 45.1776V1129.46C77.4129 1137.86 74.0779 1145.91 68.1417 1151.84C62.2055 1157.78 54.1543 1161.11 45.7592 1161.11C37.3641 1161.11 29.3128 1157.78 23.3766 1151.84C17.4404 1145.91 14.1055 1137.86 14.1055 1129.46V45.1776C14.1055 36.7825 17.4404 28.7313 23.3766 22.7951C29.3128 16.8589 37.3641 13.5239 45.7592 13.5239C54.1543 13.5239 62.2055 16.8589 68.1417 22.7951C74.0779 28.7313 77.4129 36.7825 77.4129 45.1776Z" fill="#43230C"/>
<path d="M75.1129 45.18V1129.46C75.1129 1133.32 74.3537 1137.13 72.8786 1140.7C71.4036 1144.26 69.2416 1147.49 66.516 1150.22C63.7905 1152.94 60.5548 1155.11 56.9937 1156.58C53.4326 1158.06 49.6158 1158.81 45.7613 1158.81C41.9068 1158.81 38.09 1158.06 34.5289 1156.58C30.9678 1155.11 27.7321 1152.94 25.0066 1150.22C22.281 1147.49 20.119 1144.26 18.6439 1140.7C17.1689 1137.13 16.4097 1133.32 16.4097 1129.46V45.18C16.4097 41.3255 17.1689 37.5087 18.6439 33.9476C20.119 30.3865 22.281 27.1508 25.0066 24.4253C27.7321 21.6997 30.9678 19.5377 34.5289 18.0626C38.09 16.5876 41.9068 15.8284 45.7613 15.8284C49.6158 15.8284 53.4326 16.5876 56.9937 18.0626C60.5548 19.5377 63.7905 21.6997 66.516 24.4253C69.2416 27.1508 71.4036 30.3865 72.8786 33.9476C74.3537 37.5087 75.1129 41.3255 75.1129 45.18Z" fill="#4E290E"/>
<path d="M72.8115 45.1774V1129.46C73.0832 1133.19 72.5835 1136.93 71.3436 1140.46C70.1037 1143.98 68.1503 1147.22 65.6053 1149.95C63.0602 1152.69 59.9782 1154.87 56.5516 1156.37C53.1251 1157.86 49.4276 1158.63 45.69 1158.63C41.9523 1158.63 38.2548 1157.86 34.8283 1156.37C31.4018 1154.87 28.3198 1152.69 25.7747 1149.95C23.2297 1147.22 21.2763 1143.98 20.0364 1140.46C18.7965 1136.93 18.2968 1133.19 18.5685 1129.46V45.1774C18.2968 41.4497 18.7965 37.706 20.0364 34.18C21.2763 30.654 23.2297 27.4214 25.7747 24.6841C28.3198 21.9469 31.4018 19.7636 34.8283 18.2707C38.2548 16.7778 41.9523 16.0073 45.69 16.0073C49.4276 16.0073 53.1251 16.7778 56.5516 18.2707C59.9782 19.7636 63.0602 21.9469 65.6053 24.6841C68.1503 27.4214 70.1037 30.654 71.3436 34.18C72.5835 37.706 73.0832 41.4497 72.8115 45.1774Z" fill="#592F10"/>
<path d="M70.6537 45.1772V1129.46C70.6537 1136.06 68.0312 1142.39 63.3632 1147.06C58.6952 1151.73 52.364 1154.35 45.7624 1154.35C39.1608 1154.35 32.8296 1151.73 28.1616 1147.06C23.4935 1142.39 20.8711 1136.06 20.8711 1129.46V45.1772C20.8711 38.5756 23.4935 32.2444 28.1616 27.5764C32.8296 22.9084 39.1608 20.2859 45.7624 20.2859C52.364 20.2859 58.6952 22.9084 63.3632 27.5764C68.0312 32.2444 70.6537 38.5756 70.6537 45.1772Z" fill="#643412"/>
<path d="M68.3469 45.1796V1129.46C68.3469 1135.45 65.967 1141.2 61.7307 1145.44C57.4944 1149.67 51.7487 1152.05 45.7577 1152.05C39.7666 1152.05 34.021 1149.67 29.7847 1145.44C25.5484 1141.2 23.1685 1135.45 23.1685 1129.46V45.1796C23.1685 39.1885 25.5484 33.4429 29.7847 29.2066C34.021 24.9703 39.7666 22.5903 45.7577 22.5903C51.7487 22.5903 57.4944 24.9703 61.7307 29.2066C65.967 33.4429 68.3469 39.1885 68.3469 45.1796Z" fill="#6F3A14"/>
<path d="M66.0469 45.1783V1129.46C66.0469 1134.84 63.9096 1140 60.105 1143.81C56.3004 1147.61 51.1403 1149.75 45.7598 1149.75C40.3793 1149.75 35.2192 1147.61 31.4146 1143.81C27.61 1140 25.4727 1134.84 25.4727 1129.46V45.1783C25.4727 39.7978 27.61 34.6377 31.4146 30.8331C35.2192 27.0285 40.3793 24.8911 45.7598 24.8911C51.1403 24.8911 56.3004 27.0285 60.105 30.8331C63.9096 34.6377 66.0469 39.7978 66.0469 45.1783Z" fill="#7A4016"/>
<path d="M65.472 45.1787V1129.46C65.472 1134.69 63.3953 1139.7 59.6986 1143.4C56.002 1147.1 50.9883 1149.17 45.7604 1149.17C40.5326 1149.17 35.5188 1147.1 31.8222 1143.4C28.1255 1139.7 26.0488 1134.69 26.0488 1129.46V45.1787C26.0488 39.9508 28.1255 34.9371 31.8222 31.2404C35.5188 27.5438 40.5326 25.467 45.7604 25.467C50.9883 25.467 56.002 27.5438 59.6986 31.2404C63.3953 34.9371 65.472 39.9508 65.472 45.1787Z" fill="#854618"/>
<path d="M64.8972 45.1793V1129.46C64.8972 1134.54 62.8811 1139.4 59.2924 1142.99C55.7037 1146.58 50.8363 1148.6 45.7611 1148.6C40.6859 1148.6 35.8186 1146.58 32.2299 1142.99C28.6411 1139.4 26.625 1134.54 26.625 1129.46V45.1793C26.625 40.1041 28.6411 35.2368 32.2299 31.6481C35.8186 28.0593 40.6859 26.0432 45.7611 26.0432C50.8363 26.0432 55.7037 28.0593 59.2924 31.6481C62.8811 35.2368 64.8972 40.1041 64.8972 45.1793Z" fill="#904C1A"/>
<path d="M64.1801 45.179V1129.46C64.4066 1132.03 64.0969 1134.61 63.2706 1137.05C62.4444 1139.49 61.1197 1141.73 59.3808 1143.63C57.6419 1145.53 55.5268 1147.04 53.1701 1148.08C50.8134 1149.12 48.2665 1149.66 45.6914 1149.66C43.1164 1149.66 40.5696 1149.12 38.2128 1148.08C35.8561 1147.04 33.741 1145.53 32.0021 1143.63C30.2632 1141.73 28.9385 1139.49 28.1123 1137.05C27.286 1134.61 26.9763 1132.03 27.2028 1129.46V45.179C26.9763 42.614 27.286 40.0298 28.1123 37.591C28.9385 35.1521 30.2632 32.9118 32.0021 31.0126C33.741 29.1134 35.8561 27.5968 38.2128 26.5592C40.5696 25.5217 43.1164 24.9858 45.6914 24.9858C48.2665 24.9858 50.8134 25.5217 53.1701 26.5592C55.5268 27.5968 57.6419 29.1134 59.3808 31.0126C61.1197 32.9118 62.4444 35.1521 63.2706 37.591C64.0969 40.0298 64.4066 42.614 64.1801 45.179Z" fill="#9B511C"/>
<path d="M63.5998 45.1771V1129.46C63.5998 1134.19 61.7202 1138.73 58.3743 1142.08C55.0284 1145.42 50.4905 1147.3 45.7587 1147.3C41.0269 1147.3 36.4889 1145.42 33.1431 1142.08C29.7972 1138.73 27.9175 1134.19 27.9175 1129.46V45.1771C27.9175 40.4453 29.7972 35.9074 33.1431 32.5615C36.4889 29.2156 41.0269 27.3359 45.7587 27.3359C50.4905 27.3359 55.0284 29.2156 58.3743 32.5615C61.7202 35.9074 63.5998 40.4453 63.5998 45.1771Z" fill="#A6571E"/>
<path d="M63.025 45.1775V1129.46C63.025 1134.04 61.2059 1138.43 57.9679 1141.67C54.73 1144.91 50.3385 1146.73 45.7593 1146.73C41.1802 1146.73 36.7886 1144.91 33.5506 1141.67C30.3127 1138.43 28.4937 1134.04 28.4937 1129.46V45.1775C28.4937 40.5984 30.3127 36.2068 33.5506 32.9689C36.7886 29.7309 41.1802 27.9119 45.7593 27.9119C50.3385 27.9119 54.73 29.7309 57.9679 32.9689C61.2059 36.2068 63.025 40.5984 63.025 45.1775Z" fill="#B15D20"/>
<path d="M62.162 45.1782V1129.46C62.162 1133.89 60.4036 1138.13 57.2736 1141.26C54.1436 1144.39 49.8984 1146.15 45.4719 1146.15C41.0454 1146.15 36.8002 1144.39 33.6702 1141.26C30.5402 1138.13 28.7817 1133.89 28.7817 1129.46V45.1782C28.7817 40.7517 30.5402 36.5065 33.6702 33.3765C36.8002 30.2465 41.0454 28.488 45.4719 28.488C49.8984 28.488 54.1436 30.2465 57.2736 33.3765C60.4036 36.5065 62.162 40.7517 62.162 45.1782Z" fill="#BD6321"/>
<path d="M62.1632 45.179V1129.46C62.1632 1131.56 61.75 1133.64 60.9474 1135.57C60.1448 1137.51 58.9685 1139.27 57.4854 1140.76C56.0024 1142.24 54.2418 1143.41 52.3041 1144.22C50.3665 1145.02 48.2897 1145.43 46.1924 1145.43C44.0951 1145.43 42.0184 1145.02 40.0807 1144.22C38.143 1143.41 36.3824 1142.24 34.8994 1140.76C33.4164 1139.27 32.24 1137.51 31.4374 1135.57C30.6348 1133.64 30.2217 1131.56 30.2217 1129.46V45.179C30.2217 40.9433 31.9043 36.8811 34.8994 33.886C37.8945 30.8909 41.9567 29.2083 46.1924 29.2083C50.4281 29.2083 54.4903 30.8909 57.4854 33.886C60.4805 36.8811 62.1632 40.9433 62.1632 45.179Z" fill="#C86923"/>
<path d="M61.1527 45.1794V1129.46C61.1527 1133.55 59.5307 1137.46 56.6436 1140.35C53.7564 1143.24 49.8406 1144.86 45.7575 1144.86C41.6744 1144.86 37.7586 1143.24 34.8715 1140.35C31.9843 1137.46 30.3623 1133.55 30.3623 1129.46V45.1794C30.3623 41.0963 31.9843 37.1805 34.8715 34.2933C37.7586 31.4062 41.6744 29.7842 45.7575 29.7842C49.8406 29.7842 53.7564 31.4062 56.6436 34.2933C59.5307 37.1805 61.1527 41.0963 61.1527 45.1794Z" fill="#D36F25"/>
<path d="M60.5778 45.18V1129.46C60.5778 1133.39 59.0165 1137.16 56.2373 1139.94C53.458 1142.72 49.6886 1144.28 45.7581 1144.28C41.8277 1144.28 38.0583 1142.72 35.279 1139.94C32.4998 1137.16 30.9385 1133.39 30.9385 1129.46V45.18C30.9385 41.2496 32.4998 37.4802 35.279 34.7009C38.0583 31.9217 41.8277 30.3604 45.7581 30.3604C49.6886 30.3604 53.458 31.9217 56.2373 34.7009C59.0165 37.4802 60.5778 41.2496 60.5778 45.18Z" fill="#DE7427"/>
<path d="M59.862 45.1769V1129.46C59.862 1133.28 58.3462 1136.94 55.6479 1139.63C52.9496 1142.33 49.2899 1143.85 45.474 1143.85C41.658 1143.85 37.9984 1142.33 35.3001 1139.63C32.6018 1136.94 31.0859 1133.28 31.0859 1129.46V45.1769C31.0859 41.3609 32.6018 37.7013 35.3001 35.003C37.9984 32.3047 41.658 30.7888 45.474 30.7888C49.2899 30.7888 52.9496 32.3047 55.6479 35.003C58.3462 37.7013 59.862 41.3609 59.862 45.1769Z" fill="#E97A29"/>
<path d="M59.2878 45.1778V1129.46C59.2878 1133.05 57.8629 1136.49 55.3265 1139.02C52.7901 1141.56 49.3501 1142.99 45.7631 1142.99C42.1761 1142.99 38.736 1141.56 36.1996 1139.02C33.6632 1136.49 32.2383 1133.05 32.2383 1129.46V45.1778C32.2383 41.5908 33.6632 38.1508 36.1996 35.6144C38.736 33.078 42.1761 31.6531 45.7631 31.6531C49.3501 31.6531 52.7901 33.078 55.3265 35.6144C57.8629 38.1508 59.2878 41.5908 59.2878 45.1778Z" fill="#F4802B"/>
<path d="M58.4231 45.1779V1129.46C58.6132 1131.25 58.4255 1133.05 57.8722 1134.76C57.3189 1136.47 56.4124 1138.04 55.2116 1139.38C54.0107 1140.71 52.5424 1141.78 50.9019 1142.51C49.2615 1143.24 47.4856 1143.62 45.6896 1143.62C43.8937 1143.62 42.1178 1143.24 40.4773 1142.51C38.8369 1141.78 37.3686 1140.71 36.1677 1139.38C34.9669 1138.04 34.0603 1136.47 33.5071 1134.76C32.9538 1133.05 32.7661 1131.25 32.9562 1129.46V45.1779C32.7661 43.392 32.9538 41.5861 33.5071 39.8775C34.0603 38.1689 34.9669 36.5958 36.1677 35.2603C37.3686 33.9249 38.8369 32.8569 40.4773 32.1259C42.1178 31.3949 43.8937 31.0171 45.6896 31.0171C47.4856 31.0171 49.2615 31.3949 50.9019 32.1259C52.5424 32.8569 54.0107 33.9249 55.2116 35.2603C56.4124 36.5958 57.3189 38.1689 57.8722 39.8775C58.4255 41.5861 58.6132 43.392 58.4231 45.1779Z" fill="#F58635"/>
<path d="M57.703 45.1794V1129.46C57.703 1132.63 56.4449 1135.67 54.2053 1137.91C51.9657 1140.15 48.9282 1141.4 45.761 1141.4C42.5937 1141.4 39.5562 1140.15 37.3166 1137.91C35.0771 1135.67 33.8188 1132.63 33.8188 1129.46V45.1794C33.8188 43.6111 34.1278 42.0582 34.7279 40.6094C35.3281 39.1605 36.2077 37.844 37.3166 36.7351C38.4255 35.6261 39.742 34.7465 41.1909 34.1463C42.6398 33.5462 44.1927 33.2373 45.761 33.2373C47.3292 33.2373 48.8821 33.5462 50.331 34.1463C51.7799 34.7465 53.0964 35.6261 54.2053 36.7351C55.3142 37.844 56.1938 39.1605 56.794 40.6094C57.3941 42.0582 57.703 43.6111 57.703 45.1794Z" fill="#F68C3F"/>
<path d="M56.8407 45.1801V1129.46C56.8407 1132.4 55.6735 1135.22 53.5958 1137.3C51.5181 1139.37 48.7002 1140.54 45.7619 1140.54C42.8236 1140.54 40.0057 1139.37 37.928 1137.3C35.8503 1135.22 34.6831 1132.4 34.6831 1129.46V45.1801C34.6831 43.7252 34.9697 42.2846 35.5264 40.9404C36.0832 39.5963 36.8993 38.375 37.928 37.3462C38.9568 36.3175 40.1781 35.5014 41.5222 34.9446C42.8664 34.3879 44.307 34.1013 45.7619 34.1013C47.2168 34.1013 48.6574 34.3879 50.0016 34.9446C51.3457 35.5014 52.567 36.3175 53.5958 37.3462C54.6246 38.375 55.4406 39.5963 55.9974 40.9404C56.5541 42.2846 56.8407 43.7252 56.8407 45.1801Z" fill="#F79249"/>
<path d="M55.9779 45.1774V1129.46C55.9779 1130.8 55.7136 1132.13 55.2002 1133.37C54.6869 1134.61 53.9344 1135.74 52.9858 1136.68C52.0372 1137.63 50.9111 1138.39 49.6717 1138.9C48.4323 1139.41 47.1039 1139.68 45.7624 1139.68C44.4209 1139.68 43.0925 1139.41 41.8531 1138.9C40.6137 1138.39 39.4875 1137.63 38.5389 1136.68C37.5903 1135.74 36.8378 1134.61 36.3244 1133.37C35.8111 1132.13 35.5469 1130.8 35.5469 1129.46V45.1774C35.5469 42.4681 36.6232 39.8698 38.5389 37.954C40.4547 36.0382 43.0531 34.9619 45.7624 34.9619C48.4717 34.9619 51.07 36.0382 52.9858 37.954C54.9016 39.8698 55.9779 42.4681 55.9779 45.1774Z" fill="#F89853"/>
<path d="M55.2559 45.1782V1129.46C55.2559 1131.98 54.2554 1134.4 52.4745 1136.18C50.6937 1137.96 48.2783 1138.96 45.7598 1138.96C43.2413 1138.96 40.8259 1137.96 39.045 1136.18C37.2642 1134.4 36.2637 1131.98 36.2637 1129.46V45.1782C36.2637 42.6597 37.2642 40.2443 39.045 38.4635C40.8259 36.6826 43.2413 35.6821 45.7598 35.6821C48.2783 35.6821 50.6937 36.6826 52.4745 38.4635C54.2554 40.2443 55.2559 42.6597 55.2559 45.1782Z" fill="#F99E5D"/>
<path d="M54.3936 45.179V1129.46C54.3936 1131.75 53.4841 1133.95 51.8651 1135.57C50.2461 1137.19 48.0504 1138.09 45.7608 1138.09C43.4712 1138.09 41.2754 1137.19 39.6565 1135.57C38.0375 1133.95 37.1279 1131.75 37.1279 1129.46V45.179C37.1279 42.8894 38.0375 40.6936 39.6565 39.0746C41.2754 37.4557 43.4712 36.5461 45.7608 36.5461C48.0504 36.5461 50.2461 37.4557 51.8651 39.0746C53.4841 40.6936 54.3936 42.8894 54.3936 45.179Z" fill="#FAA566"/>
<path d="M53.5308 45.1799V1129.46C53.5308 1130.48 53.3298 1131.49 52.9394 1132.44C52.5489 1133.38 51.9766 1134.24 51.2551 1134.96C50.5337 1135.68 49.6772 1136.25 48.7345 1136.64C47.7919 1137.03 46.7816 1137.23 45.7613 1137.23C44.7409 1137.23 43.7306 1137.03 42.788 1136.64C41.8453 1136.25 40.9888 1135.68 40.2673 1134.96C39.5459 1134.24 38.9736 1133.38 38.5832 1132.44C38.1927 1131.49 37.9917 1130.48 37.9917 1129.46V45.1799C37.9917 44.1596 38.1927 43.1493 38.5832 42.2067C38.9736 41.264 39.5459 40.4075 40.2673 39.686C40.9888 38.9646 41.8453 38.3923 42.788 38.0018C43.7306 37.6114 44.7409 37.4104 45.7613 37.4104C46.7816 37.4104 47.7919 37.6114 48.7345 38.0018C49.6772 38.3923 50.5337 38.9646 51.2551 39.686C51.9766 40.4075 52.5489 41.264 52.9394 42.2067C53.3298 43.1493 53.5308 44.1596 53.5308 45.1799Z" fill="#FBAB70"/>
<path d="M52.6649 45.1771V1129.46C52.6841 1130.38 52.5196 1131.29 52.1811 1132.15C51.8426 1133 51.3369 1133.78 50.6937 1134.44C50.0505 1135.09 49.2827 1135.62 48.4352 1135.97C47.5878 1136.33 46.6778 1136.51 45.7587 1136.51C44.8328 1136.51 43.916 1136.33 43.0607 1135.97C42.2053 1135.62 41.4281 1135.1 40.7735 1134.45C40.1188 1133.79 39.5995 1133.01 39.2452 1132.16C38.8909 1131.3 38.7085 1130.39 38.7085 1129.46V45.1771C38.7085 44.2513 38.8909 43.3345 39.2452 42.4791C39.5995 41.6238 40.1188 40.8466 40.7735 40.1919C41.4281 39.5372 42.2053 39.0179 43.0607 38.6636C43.916 38.3093 44.8328 38.127 45.7587 38.127C46.6778 38.1268 47.5878 38.3101 48.4352 38.6661C49.2827 39.0221 50.0505 39.5437 50.6937 40.2004C51.3369 40.857 51.8426 41.6354 52.1811 42.49C52.5196 43.3446 52.6841 44.2581 52.6649 45.1771Z" fill="#FCB17A"/>
<path d="M51.9465 45.1778V1129.46C51.9465 1131.1 51.2946 1132.68 50.1344 1133.84C48.9741 1135 47.4005 1135.65 45.7596 1135.65C44.1188 1135.65 42.5451 1135 41.3848 1133.84C40.2246 1132.68 39.5728 1131.1 39.5728 1129.46V45.1778C39.5728 43.537 40.2246 41.9633 41.3848 40.8031C42.5451 39.6428 44.1188 38.991 45.7596 38.991C47.4005 38.991 48.9741 39.6428 50.1344 40.8031C51.2946 41.9633 51.9465 43.537 51.9465 45.1778Z" fill="#FDB784"/>
<path d="M51.0857 45.1772V1129.46C51.0857 1130.87 50.5248 1132.23 49.5264 1133.22C48.5281 1134.22 47.174 1134.78 45.7621 1134.78C45.0576 1134.8 44.3565 1134.68 43.7016 1134.42C43.0467 1134.16 42.452 1133.77 41.9536 1133.27C41.4552 1132.77 41.0639 1132.18 40.8034 1131.52C40.5428 1130.87 40.4187 1130.16 40.4386 1129.46V45.1772C40.4187 44.4727 40.5428 43.7716 40.8034 43.1167C41.0639 42.4618 41.4552 41.867 41.9536 41.3687C42.452 40.8703 43.0467 40.4789 43.7016 40.2184C44.3565 39.9579 45.0576 39.8338 45.7621 39.8536C47.174 39.8536 48.5281 40.4145 49.5264 41.4129C50.5248 42.4112 51.0857 43.7653 51.0857 45.1772Z" fill="#FEBD8E"/>
<path d="M50.2214 45.1795V1129.46C50.2214 1130.65 49.7515 1131.78 48.915 1132.62C48.0785 1133.45 46.944 1133.92 45.7611 1133.92C44.5782 1133.92 43.4436 1133.45 42.6072 1132.62C41.7707 1131.78 41.3008 1130.65 41.3008 1129.46V45.1795C41.3008 43.9966 41.7707 42.8621 42.6072 42.0256C43.4436 41.1892 44.5782 40.7192 45.7611 40.7192C46.944 40.7192 48.0785 41.1892 48.915 42.0256C49.7515 42.8621 50.2214 43.9966 50.2214 45.1795Z" fill="#FFC398"/>
</g>
</svg>
