<svg width="92" height="1175" viewBox="0 0 92 1175" fill="none" xmlns="http://www.w3.org/2000/svg">
<g style="mix-blend-mode:screen">
<path d="M91.3247 45.1785V1129.46C91.3247 1141.44 86.5648 1152.93 78.0922 1161.41C69.6196 1169.88 58.1283 1174.64 46.1462 1174.64C34.1642 1174.64 22.6729 1169.88 14.2002 1161.41C5.72764 1152.93 0.967773 1141.44 0.967773 1129.46V45.1785C0.967773 33.1964 5.72764 21.7051 14.2002 13.2325C22.6729 4.75986 34.1642 0 46.1462 0C58.1283 0 69.6196 4.75986 78.0922 13.2325C86.5648 21.7051 91.3247 33.1964 91.3247 45.1785Z" fill="black"/>
<path d="M89.1647 45.1768V1129.46C89.1647 1140.91 84.617 1151.89 76.5221 1159.98C68.4273 1168.08 57.4484 1172.62 46.0006 1172.62C34.5527 1172.62 23.5737 1168.08 15.4789 1159.98C7.38403 1151.89 2.83643 1140.91 2.83643 1129.46V45.1768C2.83643 33.729 7.38403 22.75 15.4789 14.6552C23.5737 6.56034 34.5527 2.0127 46.0006 2.0127C57.4484 2.0127 68.4273 6.56034 76.5221 14.6552C84.617 22.75 89.1647 33.729 89.1647 45.1768Z" fill="#0A0109"/>
<path d="M86.8653 45.1793V1129.46C86.8653 1140.26 82.5754 1150.62 74.9393 1158.25C67.3031 1165.89 56.9463 1170.18 46.1471 1170.18C35.348 1170.18 24.9912 1165.89 17.355 1158.25C9.71889 1150.62 5.42896 1140.26 5.42896 1129.46V45.1793C5.42896 34.3802 9.71889 24.0234 17.355 16.3873C24.9912 8.75112 35.348 4.46118 46.1471 4.46118C56.9463 4.46118 67.3031 8.75112 74.9393 16.3873C82.5754 24.0234 86.8653 34.3802 86.8653 45.1793Z" fill="#150211"/>
<path d="M84.5653 45.178V1129.46C84.5653 1139.65 80.5179 1149.42 73.3135 1156.63C66.1091 1163.83 56.3378 1167.88 46.1492 1167.88C35.9606 1167.88 26.1894 1163.83 18.985 1156.63C11.7806 1149.42 7.73315 1139.65 7.73315 1129.46V45.178C7.73315 34.9895 11.7806 25.2182 18.985 18.0138C26.1894 10.8094 35.9606 6.76196 46.1492 6.76196C56.3378 6.76196 66.1091 10.8094 73.3135 18.0138C80.5179 25.2182 84.5653 34.9895 84.5653 45.178Z" fill="#1F041A"/>
<path d="M82.4063 45.1772V1129.46C81.2964 1138.22 77.0304 1146.27 70.4083 1152.1C63.7862 1157.94 55.2628 1161.16 46.4362 1161.16C37.6096 1161.16 29.0861 1157.94 22.4639 1152.1C15.8418 1146.27 11.5759 1138.22 10.4661 1129.46V45.1772C11.5759 36.4206 15.8418 28.3696 22.4639 22.5338C29.0861 16.698 37.6096 13.4783 46.4362 13.4783C55.2628 13.4783 63.7862 16.698 70.4083 22.5338C77.0304 28.3696 81.2964 36.4206 82.4063 45.1772Z" fill="#2A0523"/>
<path d="M80.1043 45.1786V1129.46C80.4065 1134.1 79.7544 1138.75 78.1883 1143.12C76.6222 1147.49 74.1756 1151.5 70.9995 1154.89C67.8235 1158.28 63.9858 1160.98 59.7237 1162.83C55.4615 1164.67 50.8657 1165.63 46.2205 1165.63C41.5753 1165.63 36.9793 1164.67 32.7172 1162.83C28.4551 1160.98 24.6173 1158.28 21.4413 1154.89C18.2653 1151.5 15.8186 1147.49 14.2526 1143.12C12.6865 1138.75 12.0344 1134.1 12.3366 1129.46V45.1786C12.0344 40.5432 12.6865 35.8951 14.2526 31.5219C15.8186 27.1486 18.2653 23.1431 21.4413 19.7533C24.6173 16.3634 28.4551 13.6613 32.7172 11.8141C36.9793 9.96679 41.5753 9.01367 46.2205 9.01367C50.8657 9.01367 55.4615 9.96679 59.7237 11.8141C63.9858 13.6613 67.8235 16.3634 70.9995 19.7533C74.1756 23.1431 76.6222 27.1486 78.1883 31.5219C79.7544 35.8951 80.4065 40.5432 80.1043 45.1786Z" fill="#34062C"/>
<path d="M77.7991 45.1776V1129.46C77.7991 1137.86 74.4641 1145.91 68.5279 1151.84C62.5917 1157.78 54.5404 1161.11 46.1454 1161.11C37.7503 1161.11 29.699 1157.78 23.7628 1151.84C17.8266 1145.91 14.4917 1137.86 14.4917 1129.46V45.1776C14.4917 36.7825 17.8266 28.7313 23.7628 22.7951C29.699 16.8589 37.7503 13.5239 46.1454 13.5239C54.5404 13.5239 62.5917 16.8589 68.5279 22.7951C74.4641 28.7313 77.7991 36.7825 77.7991 45.1776Z" fill="#3F0734"/>
<path d="M75.4991 45.18V1129.46C75.4991 1137.25 72.4067 1144.71 66.9022 1150.22C61.3977 1155.72 53.9321 1158.81 46.1475 1158.81C38.363 1158.81 30.8973 1155.72 25.3928 1150.22C19.8883 1144.71 16.7959 1137.25 16.7959 1129.46V45.18C16.7959 37.3955 19.8883 29.9298 25.3928 24.4253C30.8973 18.9208 38.363 15.8284 46.1475 15.8284C53.9321 15.8284 61.3977 18.9208 66.9022 24.4253C72.4067 29.9298 75.4991 37.3955 75.4991 45.18Z" fill="#49083D"/>
<path d="M73.3378 45.1774V1129.46C73.6095 1133.19 73.1098 1136.93 71.8699 1140.46C70.63 1143.98 68.6766 1147.22 66.1316 1149.95C63.5865 1152.69 60.5045 1154.87 57.078 1156.37C53.6515 1157.86 49.954 1158.63 46.2164 1158.63C42.4788 1158.63 38.7812 1157.86 35.3547 1156.37C31.9281 1154.87 28.8461 1152.69 26.3011 1149.95C23.7561 1147.22 21.8026 1143.98 20.5628 1140.46C19.3229 1136.93 18.8232 1133.19 19.0949 1129.46V45.1774C18.8232 41.4497 19.3229 37.706 20.5628 34.18C21.8026 30.654 23.7561 27.4214 26.3011 24.6841C28.8461 21.9469 31.9281 19.7636 35.3547 18.2707C38.7812 16.7778 42.4788 16.0073 46.2164 16.0073C49.954 16.0073 53.6515 16.7778 57.078 18.2707C60.5045 19.7636 63.5865 21.9469 66.1316 24.6841C68.6766 27.4214 70.63 30.654 71.8699 34.18C73.1098 37.706 73.6095 41.4497 73.3378 45.1774Z" fill="#540946"/>
<path d="M71.0397 45.1772V1129.46C71.0397 1136.06 68.4172 1142.39 63.7492 1147.06C59.0812 1151.73 52.7499 1154.35 46.1483 1154.35C39.5467 1154.35 33.2156 1151.73 28.5476 1147.06C23.8796 1142.39 21.2571 1136.06 21.2571 1129.46V45.1772C21.2571 38.5756 23.8796 32.2444 28.5476 27.5764C33.2156 22.9084 39.5467 20.2859 46.1483 20.2859C52.7499 20.2859 59.0812 22.9084 63.7492 27.5764C68.4172 32.2444 71.0397 38.5756 71.0397 45.1772Z" fill="#5E0B4F"/>
<path d="M68.7329 45.1796V1129.46C68.7329 1135.45 66.353 1141.2 62.1167 1145.44C57.8804 1149.67 52.1347 1152.05 46.1437 1152.05C40.1526 1152.05 34.407 1149.67 30.1707 1145.44C25.9344 1141.2 23.5544 1135.45 23.5544 1129.46V45.1796C23.5544 39.1885 25.9344 33.4429 30.1707 29.2066C34.407 24.9703 40.1526 22.5903 46.1437 22.5903C52.1347 22.5903 57.8804 24.9703 62.1167 29.2066C66.353 33.4429 68.7329 39.1885 68.7329 45.1796Z" fill="#690C57"/>
<path d="M66.577 45.1792V1129.46C66.1475 1134.57 63.8166 1139.32 60.046 1142.79C56.2753 1146.26 51.3401 1148.18 46.218 1148.18C41.0959 1148.18 36.1605 1146.26 32.3899 1142.79C28.6192 1139.32 26.2883 1134.57 25.8589 1129.46V45.1792C26.2883 40.0751 28.6192 35.3185 32.3899 31.8518C36.1605 28.3851 41.0959 26.4612 46.218 26.4612C51.3401 26.4612 56.2753 28.3851 60.046 31.8518C63.8166 35.3185 66.1475 40.0751 66.577 45.1792Z" fill="#730D60"/>
<path d="M65.858 45.1787V1129.46C65.858 1132.05 65.3482 1134.61 64.3576 1137.01C63.367 1139.4 61.915 1141.57 60.0846 1143.4C58.2542 1145.23 56.0812 1146.68 53.6897 1147.67C51.2982 1148.66 48.7349 1149.17 46.1464 1149.17C43.5578 1149.17 40.9946 1148.66 38.603 1147.67C36.2115 1146.68 34.0386 1145.23 32.2082 1143.4C30.3778 1141.57 28.9258 1139.4 27.9352 1137.01C26.9446 1134.61 26.4348 1132.05 26.4348 1129.46V45.1787C26.4348 39.9508 28.5115 34.9371 32.2082 31.2404C35.9048 27.5438 40.9185 25.467 46.1464 25.467C51.3742 25.467 56.3879 27.5438 60.0846 31.2404C63.7812 34.9371 65.858 39.9508 65.858 45.1787Z" fill="#7D0E69"/>
<path d="M65.2832 45.1793V1129.46C65.2832 1134.54 63.2671 1139.4 59.6784 1142.99C56.0897 1146.58 51.2223 1148.6 46.1471 1148.6C41.0719 1148.6 36.2046 1146.58 32.6158 1142.99C29.0271 1139.4 27.011 1134.54 27.011 1129.46V45.1793C27.011 40.1041 29.0271 35.2368 32.6158 31.6481C36.2046 28.0593 41.0719 26.0432 46.1471 26.0432C51.2223 26.0432 56.0897 28.0593 59.6784 31.6481C63.2671 35.2368 65.2832 40.1041 65.2832 45.1793Z" fill="#880F71"/>
<path d="M64.7064 45.179V1129.46C64.9329 1132.03 64.6232 1134.61 63.797 1137.05C62.9707 1139.49 61.6461 1141.73 59.9072 1143.63C58.1683 1145.53 56.0532 1147.04 53.6964 1148.08C51.3397 1149.12 48.7929 1149.66 46.2179 1149.66C43.6428 1149.66 41.0959 1149.12 38.7392 1148.08C36.3825 1147.04 34.2674 1145.53 32.5285 1143.63C30.7896 1141.73 29.4649 1139.49 28.6386 1137.05C27.8124 1134.61 27.5027 1132.03 27.7292 1129.46V45.179C27.5027 42.614 27.8124 40.0298 28.6386 37.591C29.4649 35.1521 30.7896 32.9118 32.5285 31.0126C34.2674 29.1134 36.3825 27.5968 38.7392 26.5592C41.0959 25.5217 43.6428 24.9858 46.2179 24.9858C48.7929 24.9858 51.3397 25.5217 53.6964 26.5592C56.0532 27.5968 58.1683 29.1134 59.9072 31.0126C61.6461 32.9118 62.9707 35.1521 63.797 37.591C64.6232 40.0298 64.9329 42.614 64.7064 45.179Z" fill="#92117A"/>
<path d="M63.9861 45.1771V1129.46C63.9861 1134.19 62.1064 1138.73 58.7605 1142.08C55.4147 1145.42 50.8766 1147.3 46.1449 1147.3C41.4131 1147.3 36.8752 1145.42 33.5293 1142.08C30.1834 1138.73 28.3037 1134.19 28.3037 1129.46V45.1771C28.3037 40.4453 30.1834 35.9074 33.5293 32.5615C36.8752 29.2156 41.4131 27.3359 46.1449 27.3359C50.8766 27.3359 55.4147 29.2156 58.7605 32.5615C62.1064 35.9074 63.9861 40.4453 63.9861 45.1771Z" fill="#9D1283"/>
<path d="M63.411 45.1775V1129.46C63.411 1134.04 61.5919 1138.43 58.354 1141.67C55.1161 1144.91 50.7244 1146.73 46.1452 1146.73C41.5661 1146.73 37.1746 1144.91 33.9366 1141.67C30.6987 1138.43 28.8796 1134.04 28.8796 1129.46V45.1775C28.8796 40.5984 30.6987 36.2068 33.9366 32.9689C37.1746 29.7309 41.5661 27.9119 46.1452 27.9119C50.7244 27.9119 55.1161 29.7309 58.354 32.9689C61.5919 36.2068 63.411 40.5984 63.411 45.1775Z" fill="#A7138C"/>
<path d="M62.8345 45.1771V1129.46C63.0499 1131.77 62.7804 1134.1 62.0432 1136.31C61.306 1138.51 60.1173 1140.53 58.5532 1142.25C56.9891 1143.97 55.084 1145.34 52.9597 1146.28C50.8353 1147.21 48.5386 1147.7 46.2164 1147.7C43.8941 1147.7 41.5972 1147.21 39.4729 1146.28C37.3486 1145.34 35.4435 1143.97 33.8794 1142.25C32.3153 1140.53 31.1266 1138.51 30.3894 1136.31C29.6522 1134.1 29.3827 1131.77 29.5981 1129.46V45.1771C29.3827 42.8648 29.6522 40.533 30.3894 38.3308C31.1266 36.1287 32.3153 34.1046 33.8794 32.388C35.4435 30.6714 37.3486 29.3001 39.4729 28.3619C41.5972 27.4236 43.8941 26.939 46.2164 26.939C48.5386 26.939 50.8353 27.4236 52.9597 28.3619C55.084 29.3001 56.9891 30.6714 58.5532 32.388C60.1173 34.1046 61.306 36.1287 62.0432 38.3308C62.7804 40.533 63.0499 42.8648 62.8345 45.1771Z" fill="#B21494"/>
<path d="M62.2578 45.1788V1129.46C61.8792 1133.45 60.0254 1137.16 57.0587 1139.86C54.092 1142.56 50.2257 1144.06 46.2151 1144.06C42.2046 1144.06 38.3381 1142.56 35.3714 1139.86C32.4047 1137.16 30.5509 1133.45 30.1724 1129.46V45.1788C30.5509 41.1862 32.4047 37.4782 35.3714 34.7794C38.3381 32.0807 42.2046 30.5852 46.2151 30.5852C50.2257 30.5852 54.092 32.0807 57.0587 34.7794C60.0254 37.4782 61.8792 41.1862 62.2578 45.1788Z" fill="#BC159D"/>
<path d="M61.5389 45.1794V1129.46C61.5389 1133.55 59.917 1137.46 57.0298 1140.35C54.1427 1143.24 50.2268 1144.86 46.1437 1144.86C42.0607 1144.86 38.1449 1143.24 35.2578 1140.35C32.3706 1137.46 30.7485 1133.55 30.7485 1129.46V45.1794C30.7485 41.0963 32.3706 37.1805 35.2578 34.2933C38.1449 31.4062 42.0607 29.7842 46.1437 29.7842C50.2268 29.7842 54.1427 31.4062 57.0298 34.2933C59.917 37.1805 61.5389 41.0963 61.5389 45.1794Z" fill="#C716A6"/>
<path d="M60.9638 45.18V1129.46C60.9638 1133.39 59.4025 1137.16 56.6233 1139.94C53.8441 1142.72 50.0746 1144.28 46.1441 1144.28C42.2137 1144.28 38.4443 1142.72 35.6651 1139.94C32.8858 1137.16 31.3245 1133.39 31.3245 1129.46V45.18C31.3245 41.2496 32.8858 37.4802 35.6651 34.7009C38.4443 31.9217 42.2137 30.3604 46.1441 30.3604C50.0746 30.3604 53.8441 31.9217 56.6233 34.7009C59.4025 37.4802 60.9638 41.2496 60.9638 45.18Z" fill="#D118AF"/>
<path d="M60.3886 45.1769V1129.46C60.3886 1133.28 58.8727 1136.94 56.1744 1139.63C53.4761 1142.33 49.8165 1143.85 46.0006 1143.85C42.1846 1143.85 38.525 1142.33 35.8267 1139.63C33.1284 1136.94 31.6125 1133.28 31.6125 1129.46V45.1769C31.6125 41.3609 33.1284 37.7013 35.8267 35.003C38.525 32.3047 42.1846 30.7888 46.0006 30.7888C49.8165 30.7888 53.4761 32.3047 56.1744 35.003C58.8727 37.7013 60.3886 41.3609 60.3886 45.1769Z" fill="#DC19B7"/>
<path d="M59.6738 45.1778V1129.46C59.6738 1133.05 58.2488 1136.49 55.7124 1139.02C53.176 1141.56 49.7359 1142.99 46.149 1142.99C42.562 1142.99 39.1219 1141.56 36.5855 1139.02C34.0491 1136.49 32.6243 1133.05 32.6243 1129.46V45.1778C32.6243 41.5908 34.0491 38.1508 36.5855 35.6144C39.1219 33.078 42.562 31.6531 46.149 31.6531C49.7359 31.6531 53.176 33.078 55.7124 35.6144C58.2488 38.1508 59.6738 41.5908 59.6738 45.1778Z" fill="#E61AC0"/>
<path d="M58.9499 45.1779V1129.46C59.14 1131.25 58.9523 1133.05 58.399 1134.76C57.8458 1136.47 56.9392 1138.04 55.7384 1139.38C54.5375 1140.71 53.0693 1141.78 51.4288 1142.51C49.7884 1143.24 48.0125 1143.62 46.2165 1143.62C44.4206 1143.62 42.6447 1143.24 41.0042 1142.51C39.3638 1141.78 37.8954 1140.71 36.6946 1139.38C35.4937 1138.04 34.5872 1136.47 34.0339 1134.76C33.4806 1133.05 33.293 1131.25 33.4831 1129.46V45.1779C33.293 43.392 33.4806 41.5861 34.0339 39.8775C34.5872 38.1689 35.4937 36.5958 36.6946 35.2603C37.8954 33.9249 39.3638 32.8569 41.0042 32.1259C42.6447 31.3949 44.4206 31.0171 46.2165 31.0171C48.0125 31.0171 49.7884 31.3949 51.4288 32.1259C53.0693 32.8569 54.5375 33.9249 55.7384 35.2603C56.9392 36.5958 57.8458 38.1689 58.399 39.8775C58.9523 41.5861 59.14 43.392 58.9499 45.1779Z" fill="#E725C3"/>
<path d="M58.0893 45.1794V1129.46C58.0893 1132.63 56.8311 1135.67 54.5915 1137.91C52.3519 1140.15 49.3144 1141.4 46.1472 1141.4C42.9799 1141.4 39.9424 1140.15 37.7029 1137.91C35.4633 1135.67 34.2051 1132.63 34.2051 1129.46V45.1794C34.2051 42.0121 35.4633 38.9746 37.7029 36.7351C39.9424 34.4955 42.9799 33.2373 46.1472 33.2373C49.3144 33.2373 52.3519 34.4955 54.5915 36.7351C56.8311 38.9746 58.0893 42.0121 58.0893 45.1794Z" fill="#E82FC6"/>
<path d="M57.2267 45.1801V1129.46C57.2267 1132.4 56.0594 1135.22 53.9817 1137.3C51.904 1139.37 49.0861 1140.54 46.1478 1140.54C43.2096 1140.54 40.3916 1139.37 38.314 1137.3C36.2363 1135.22 35.0691 1132.4 35.0691 1129.46V45.1801C35.0691 42.2418 36.2363 39.4239 38.314 37.3462C40.3916 35.2685 43.2096 34.1013 46.1478 34.1013C49.0861 34.1013 51.904 35.2685 53.9817 37.3462C56.0594 39.4239 57.2267 42.2418 57.2267 45.1801Z" fill="#EA3AC9"/>
<path d="M56.5083 45.1775V1129.46C56.2099 1131.98 54.9977 1134.3 53.1016 1135.99C51.2055 1137.67 48.7573 1138.6 46.2209 1138.6C43.6844 1138.6 41.2361 1137.67 39.34 1135.99C37.4439 1134.3 36.2318 1131.98 35.9333 1129.46V45.1775C36.2318 42.6587 37.4439 40.3369 39.34 38.6521C41.2361 36.9674 43.6844 36.0369 46.2209 36.0369C48.7573 36.0369 51.2055 36.9674 53.1016 38.6521C54.9977 40.3369 56.2099 42.6587 56.5083 45.1775Z" fill="#EB45CC"/>
<path d="M55.6421 45.1782V1129.46C55.6421 1131.98 54.6416 1134.4 52.8607 1136.18C51.0798 1137.96 48.6645 1138.96 46.146 1138.96C43.6274 1138.96 41.2121 1137.96 39.4312 1136.18C37.6503 1134.4 36.6499 1131.98 36.6499 1129.46V45.1782C36.6499 43.9312 36.8955 42.6964 37.3728 41.5442C37.85 40.3921 38.5494 39.3453 39.4312 38.4635C40.313 37.5817 41.3598 36.8822 42.512 36.405C43.6641 35.9278 44.8989 35.6821 46.146 35.6821C47.393 35.6821 48.6278 35.9278 49.78 36.405C50.9321 36.8822 51.9789 37.5817 52.8607 38.4635C53.7425 39.3453 54.442 40.3921 54.9193 41.5442C55.3965 42.6964 55.6421 43.9312 55.6421 45.1782Z" fill="#EC4FCF"/>
<path d="M54.7795 45.179V1129.46C54.7795 1131.75 53.87 1133.95 52.251 1135.57C50.6321 1137.19 48.4363 1138.09 46.1467 1138.09C43.8572 1138.09 41.6614 1137.19 40.0424 1135.57C38.4234 1133.95 37.5139 1131.75 37.5139 1129.46V45.179C37.5139 42.8894 38.4234 40.6936 40.0424 39.0746C41.6614 37.4557 43.8572 36.5461 46.1467 36.5461C48.4363 36.5461 50.6321 37.4557 52.251 39.0746C53.87 40.6936 54.7795 42.8894 54.7795 45.179Z" fill="#ED5AD2"/>
<path d="M53.9173 45.1799V1129.46C53.9173 1131.52 53.0987 1133.5 51.6416 1134.96C50.1845 1136.41 48.2083 1137.23 46.1477 1137.23C44.0871 1137.23 42.1109 1136.41 40.6539 1134.96C39.1968 1133.5 38.3782 1131.52 38.3782 1129.46V45.1799C38.3782 44.1596 38.5792 43.1493 38.9696 42.2067C39.3601 41.264 39.9324 40.4075 40.6539 39.686C41.3753 38.9646 42.2318 38.3923 43.1744 38.0018C44.1171 37.6114 45.1274 37.4104 46.1477 37.4104C47.168 37.4104 48.1784 37.6114 49.121 38.0018C50.0637 38.3923 50.9201 38.9646 51.6416 39.686C52.3631 40.4075 52.9354 41.264 53.3258 42.2067C53.7163 43.1493 53.9173 44.1596 53.9173 45.1799Z" fill="#EE64D5"/>
<path d="M53.193 45.1771V1129.46C53.193 1131.33 52.4502 1133.12 51.128 1134.45C49.8058 1135.77 48.0126 1136.51 46.1428 1136.51C45.2236 1136.51 44.3137 1136.33 43.4662 1135.97C42.6188 1135.62 41.851 1135.09 41.2078 1134.44C40.5646 1133.78 40.0589 1133 39.7204 1132.15C39.3819 1131.29 39.2175 1130.38 39.2366 1129.46V45.1771C39.2175 44.2581 39.3819 43.3446 39.7204 42.49C40.0589 41.6354 40.5646 40.857 41.2078 40.2004C41.851 39.5437 42.6188 39.0221 43.4662 38.6661C44.3137 38.3101 45.2236 38.1268 46.1428 38.127C48.0126 38.127 49.8058 38.8697 51.128 40.1919C52.4502 41.514 53.193 43.3073 53.193 45.1771Z" fill="#EF6FD8"/>
<path d="M52.3325 45.1778V1129.46C52.3325 1131.1 51.6806 1132.68 50.5204 1133.84C49.3601 1135 47.7865 1135.65 46.1456 1135.65C44.5047 1135.65 42.9311 1135 41.7709 1133.84C40.6106 1132.68 39.9587 1131.1 39.9587 1129.46V45.1778C39.9587 43.537 40.6106 41.9633 41.7709 40.8031C42.9311 39.6428 44.5047 38.991 46.1456 38.991C47.7865 38.991 49.3601 39.6428 50.5204 40.8031C51.6806 41.9633 52.3325 43.537 52.3325 45.1778Z" fill="#F17ADB"/>
<path d="M51.4701 45.1772V1129.46C51.49 1130.16 51.3659 1130.87 51.1053 1131.52C50.8448 1132.18 50.4534 1132.77 49.955 1133.27C49.4567 1133.77 48.8619 1134.16 48.207 1134.42C47.5522 1134.68 46.851 1134.8 46.1465 1134.78C44.7346 1134.78 43.3806 1134.22 42.3822 1133.22C41.3838 1132.23 40.823 1130.87 40.823 1129.46V45.1772C40.823 43.7653 41.3838 42.4112 42.3822 41.4129C43.3806 40.4145 44.7346 39.8536 46.1465 39.8536C46.851 39.8338 47.5522 39.9579 48.207 40.2184C48.8619 40.4789 49.4567 40.8703 49.955 41.3687C50.4534 41.867 50.8448 42.4618 51.1053 43.1167C51.3659 43.7716 51.49 44.4727 51.4701 45.1772Z" fill="#F284DE"/>
<path d="M50.7514 45.1802V1129.46C50.5612 1130.53 50.0029 1131.49 49.1743 1132.18C48.3458 1132.88 47.2998 1133.26 46.2193 1133.26C45.1388 1133.26 44.0927 1132.88 43.2641 1132.18C42.4355 1131.49 41.8773 1130.53 41.687 1129.46V45.1802C41.8773 44.1166 42.4355 43.1537 43.2641 42.4602C44.0927 41.7667 45.1388 41.3867 46.2193 41.3867C47.2998 41.3867 48.3458 41.7667 49.1743 42.4602C50.0029 43.1537 50.5612 44.1166 50.7514 45.1802Z" fill="#F38FE1"/>
</g>
</svg>
