<svg width="50" height="457" viewBox="0 0 50 457" fill="none" xmlns="http://www.w3.org/2000/svg">
<g style="mix-blend-mode:screen">
<path d="M50 17.5769V439.423C50 444.085 47.3661 448.556 42.6777 451.852C37.9893 455.148 31.6304 457 25 457C18.3696 457 12.0107 455.148 7.32234 451.852C2.63393 448.556 0 444.085 0 439.423V17.5769C0 12.9152 2.63393 8.44447 7.32234 5.14816C12.0107 1.85185 18.3696 0 25 0C31.6304 0 37.9893 1.85185 42.6777 5.14816C47.3661 8.44447 50 12.9152 50 17.5769V17.5769Z" fill="black"/>
<path d="M48.8046 17.5763V439.422C48.8046 443.876 46.2881 448.148 41.8087 451.297C37.3294 454.446 31.2541 456.216 24.9193 456.216C18.5845 456.216 12.5091 454.446 8.02978 451.297C3.5504 448.148 1.03394 443.876 1.03394 439.422V17.5763C1.03394 13.1225 3.5504 8.85105 8.02978 5.70171C12.5091 2.55237 18.5845 0.783081 24.9193 0.783081C31.2541 0.783081 37.3294 2.55237 41.8087 5.70171C46.2881 8.85105 48.8046 13.1225 48.8046 17.5763V17.5763Z" fill="#0A0109"/>
<path d="M47.5327 17.5772V439.423C47.5327 443.625 45.1588 447.654 40.9333 450.625C36.7078 453.596 30.9767 455.265 25.0009 455.265C19.025 455.265 13.294 453.596 9.06842 450.625C4.84288 447.654 2.46899 443.625 2.46899 439.423V17.5772C2.46899 13.3758 4.84288 9.34638 9.06842 6.3755C13.294 3.40462 19.025 1.7356 25.0009 1.7356C30.9767 1.7356 36.7078 3.40462 40.9333 6.3755C45.1588 9.34638 47.5327 13.3758 47.5327 17.5772V17.5772Z" fill="#150211"/>
<path d="M46.2598 17.5767V439.423C46.2598 443.387 44.0202 447.188 40.0335 449.991C36.0469 452.794 30.6398 454.369 25.0018 454.369C19.3639 454.369 13.9569 452.794 9.97024 449.991C5.9836 447.188 3.7439 443.387 3.7439 439.423V17.5767C3.7439 13.6128 5.9836 9.81123 9.97024 7.00832C13.9569 4.2054 19.3639 2.63074 25.0018 2.63074C30.6398 2.63074 36.0469 4.2054 40.0335 7.00832C44.0202 9.81123 46.2598 13.6128 46.2598 17.5767V17.5767Z" fill="#1F041A"/>
<path d="M45.0654 17.5764V439.423C44.4513 442.829 42.0906 445.962 38.4262 448.232C34.7618 450.503 30.0452 451.755 25.1609 451.755C20.2766 451.755 15.56 450.503 11.8956 448.232C8.2312 445.962 5.87061 442.829 5.25647 439.423V17.5764C5.87061 14.1696 8.2312 11.0373 11.8956 8.76689C15.56 6.49644 20.2766 5.24377 25.1609 5.24377C30.0452 5.24377 34.7618 6.49644 38.4262 8.76689C42.0906 11.0373 44.4513 14.1696 45.0654 17.5764V17.5764Z" fill="#2A0523"/>
<path d="M43.7909 17.5769V439.423C43.9581 441.226 43.5973 443.035 42.7307 444.736C41.8641 446.438 40.5102 447.996 38.7527 449.315C36.9952 450.634 34.8716 451.685 32.5131 452.404C30.1546 453.122 27.6114 453.493 25.0409 453.493C22.4705 453.493 19.9272 453.122 17.5687 452.404C15.2102 451.685 13.0866 450.634 11.3291 449.315C9.57161 447.996 8.21772 446.438 7.35113 444.736C6.48453 443.035 6.12367 441.226 6.29091 439.423V17.5769C6.12367 15.7735 6.48453 13.9651 7.35113 12.2636C8.21772 10.5622 9.57161 9.00385 11.3291 7.68501C13.0866 6.36618 15.2102 5.31491 17.5687 4.59622C19.9272 3.87753 22.4705 3.50671 25.0409 3.50671C27.6114 3.50671 30.1546 3.87753 32.5131 4.59622C34.8716 5.31491 36.9952 6.36618 38.7527 7.68501C40.5102 9.00385 41.8641 10.5622 42.7307 12.2636C43.5973 13.9651 43.9581 15.7735 43.7909 17.5769V17.5769Z" fill="#34062C"/>
<path d="M42.5153 17.5766V439.423C42.5153 442.689 40.6698 445.821 37.3849 448.131C34.1 450.44 29.6448 451.738 24.9993 451.738C20.3538 451.738 15.8986 450.44 12.6137 448.131C9.32881 445.821 7.4834 442.689 7.4834 439.423V17.5766C7.4834 14.3105 9.32881 11.1781 12.6137 8.86859C15.8986 6.55907 20.3538 5.2616 24.9993 5.2616C29.6448 5.2616 34.1 6.55907 37.3849 8.86859C40.6698 11.1781 42.5153 14.3105 42.5153 17.5766Z" fill="#3F0734"/>
<path d="M41.2424 17.5775V439.424C41.2424 442.452 39.5312 445.357 36.4852 447.498C33.4392 449.64 29.308 450.843 25.0003 450.843C20.6927 450.843 16.5615 449.64 13.5155 447.498C10.4695 445.357 8.7583 442.452 8.7583 439.424V17.5775C8.7583 14.5489 10.4695 11.6443 13.5155 9.50275C16.5615 7.3612 20.6927 6.15808 25.0003 6.15808C29.308 6.15808 33.4392 7.3612 36.4852 9.50275C39.5312 11.6443 41.2424 14.5489 41.2424 17.5775V17.5775Z" fill="#49083D"/>
<path d="M40.0463 17.5766V439.423C40.1967 440.873 39.9201 442.33 39.2341 443.701C38.548 445.073 37.467 446.331 36.0587 447.396C34.6504 448.461 32.9449 449.31 31.0488 449.891C29.1527 450.472 27.1067 450.772 25.0384 450.772C22.9701 450.772 20.924 450.472 19.0279 449.891C17.1318 449.31 15.4264 448.461 14.018 447.396C12.6097 446.331 11.5288 445.073 10.8427 443.701C10.1566 442.33 9.88007 440.873 10.0304 439.423V17.5766C9.88007 16.1263 10.1566 14.6698 10.8427 13.2979C11.5288 11.9261 12.6097 10.6685 14.018 9.60355C15.4264 8.53859 17.1318 7.68919 19.0279 7.10837C20.924 6.52755 22.9701 6.22778 25.0384 6.22778C27.1067 6.22778 29.1527 6.52755 31.0488 7.10837C32.9449 7.68919 34.6504 8.53859 36.0587 9.60355C37.467 10.6685 38.548 11.9261 39.2341 13.2979C39.9201 14.6698 40.1967 16.1263 40.0463 17.5766V17.5766Z" fill="#540946"/>
<path d="M38.7751 17.5764V439.423C38.7751 441.991 37.3239 444.454 34.7408 446.27C32.1577 448.086 28.6542 449.107 25.0011 449.107C21.3481 449.107 17.8447 448.086 15.2616 446.27C12.6785 444.454 11.2273 441.991 11.2273 439.423V17.5764C11.2273 15.008 12.6785 12.5449 15.2616 10.7287C17.8447 8.91262 21.3481 7.89233 25.0011 7.89233C28.6542 7.89233 32.1577 8.91262 34.7408 10.7287C37.3239 12.5449 38.7751 15.008 38.7751 17.5764V17.5764Z" fill="#5E0B4F"/>
<path d="M37.4989 17.5774V439.424C37.4989 441.754 36.182 443.99 33.8378 445.638C31.4936 447.286 28.3141 448.212 24.9989 448.212C21.6837 448.212 18.5043 447.286 16.1601 445.638C13.8159 443.99 12.4989 441.754 12.4989 439.424V17.5774C12.4989 15.2466 13.8159 13.0112 16.1601 11.363C18.5043 9.71487 21.6837 8.78894 24.9989 8.78894C28.3141 8.78894 31.4936 9.71487 33.8378 11.363C36.182 13.0112 37.4989 15.2466 37.4989 17.5774V17.5774Z" fill="#690C57"/>
<path d="M36.3056 17.5773V439.423C36.068 441.409 34.7781 443.26 32.6916 444.608C30.6051 445.957 27.8741 446.706 25.0397 446.706C22.2054 446.706 19.4743 445.957 17.3878 444.608C15.3013 443.26 14.0114 441.409 13.7738 439.423V17.5773C14.0114 15.5915 15.3013 13.7409 17.3878 12.3922C19.4743 11.0434 22.2054 10.2949 25.0397 10.2949C27.8741 10.2949 30.6051 11.0434 32.6916 12.3922C34.7781 13.7409 36.068 15.5915 36.3056 17.5773V17.5773Z" fill="#730D60"/>
<path d="M35.9074 17.577V439.423C35.9074 440.43 35.6253 441.427 35.0771 442.358C34.529 443.288 33.7255 444.134 32.7126 444.846C31.6998 445.558 30.4973 446.123 29.1739 446.508C27.8506 446.894 26.4322 447.092 24.9998 447.092C23.5674 447.092 22.149 446.894 20.8256 446.508C19.5022 446.123 18.2998 445.558 17.2869 444.846C16.274 444.134 15.4706 443.288 14.9224 442.358C14.3742 441.427 14.0922 440.43 14.0922 439.423V17.577C14.0922 15.5431 15.2413 13.5925 17.2869 12.1543C19.3325 10.7161 22.1069 9.90808 24.9998 9.90808C27.8927 9.90808 30.667 10.7161 32.7126 12.1543C34.7582 13.5925 35.9074 15.5431 35.9074 17.577V17.577Z" fill="#7D0E69"/>
<path d="M35.589 17.5772V439.423C35.589 441.398 34.4734 443.292 32.4875 444.688C30.5017 446.084 27.8083 446.868 24.9998 446.868C22.1914 446.868 19.498 446.084 17.5122 444.688C15.5263 443.292 14.4106 441.398 14.4106 439.423V17.5772C14.4106 15.6027 15.5263 13.709 17.5122 12.3128C19.498 10.9166 22.1914 10.1322 24.9998 10.1322C27.8083 10.1322 30.5017 10.9166 32.4875 12.3128C34.4734 13.709 35.589 15.6027 35.589 17.5772V17.5772Z" fill="#880F71"/>
<path d="M35.271 17.5771V439.423C35.3963 440.421 35.225 441.426 34.7677 442.375C34.3105 443.324 33.5775 444.196 32.6153 444.935C31.6531 445.674 30.4826 446.264 29.1785 446.667C27.8743 447.071 26.4651 447.279 25.0401 447.279C23.6152 447.279 22.2059 447.071 20.9017 446.667C19.5976 446.264 18.4272 445.674 17.465 444.935C16.5027 444.196 15.7697 443.324 15.3125 442.375C14.8553 441.426 14.6839 440.421 14.8092 439.423V17.5771C14.6839 16.5791 14.8553 15.5738 15.3125 14.6249C15.7697 13.6761 16.5027 12.8045 17.465 12.0656C18.4272 11.3267 19.5976 10.7366 20.9017 10.333C22.2059 9.92929 23.6152 9.72083 25.0401 9.72083C26.4651 9.72083 27.8743 9.92929 29.1785 10.333C30.4826 10.7366 31.6531 11.3267 32.6153 12.0656C33.5775 12.8045 34.3105 13.6761 34.7677 14.6249C35.225 15.5738 35.3963 16.5791 35.271 17.5771Z" fill="#92117A"/>
<path d="M34.8714 17.5763V439.422C34.8714 441.263 33.8312 443.029 31.9797 444.331C30.1282 445.632 27.6171 446.364 24.9987 446.364C22.3803 446.364 19.8692 445.632 18.0177 444.331C16.1663 443.029 15.1261 441.263 15.1261 439.422V17.5763C15.1261 15.7354 16.1663 13.9699 18.0177 12.6682C19.8692 11.3664 22.3803 10.6351 24.9987 10.6351C27.6171 10.6351 30.1282 11.3664 31.9797 12.6682C33.8312 13.9699 34.8714 15.7354 34.8714 17.5763V17.5763Z" fill="#9D1283"/>
<path d="M34.5539 17.5765V439.423C34.5539 441.204 33.5473 442.913 31.7555 444.172C29.9638 445.432 27.5336 446.14 24.9997 446.14C22.4658 446.14 20.0356 445.432 18.2439 444.172C16.4521 442.913 15.4456 441.204 15.4456 439.423V17.5765C15.4456 15.795 16.4521 14.0864 18.2439 12.8267C20.0356 11.567 22.4658 10.8593 24.9997 10.8593C27.5336 10.8593 29.9638 11.567 31.7555 12.8267C33.5473 14.0864 34.5539 15.795 34.5539 17.5765Z" fill="#A7138C"/>
<path d="M34.2349 17.5765V439.423C34.3541 440.322 34.205 441.229 33.797 442.086C33.3891 442.943 32.7313 443.73 31.8658 444.398C31.0003 445.066 29.9461 445.6 28.7705 445.965C27.595 446.33 26.3241 446.518 25.0391 446.518C23.754 446.518 22.483 446.33 21.3075 445.965C20.132 445.6 19.0778 445.066 18.2123 444.398C17.3468 443.73 16.689 442.943 16.2811 442.086C15.8731 441.229 15.724 440.322 15.8432 439.423V17.5765C15.724 16.6769 15.8731 15.7697 16.2811 14.9129C16.689 14.0561 17.3468 13.2687 18.2123 12.6008C19.0778 11.933 20.132 11.3995 21.3075 11.0344C22.483 10.6694 23.754 10.4808 25.0391 10.4808C26.3241 10.4808 27.595 10.6694 28.7705 11.0344C29.9461 11.3995 31.0003 11.933 31.8658 12.6008C32.7313 13.2687 33.3891 14.0561 33.797 14.9129C34.205 15.7697 34.3541 16.6769 34.2349 17.5765V17.5765Z" fill="#B21494"/>
<path d="M33.9158 17.5771V439.423C33.7064 440.977 32.6805 442.419 31.0389 443.469C29.3972 444.519 27.2577 445.101 25.0384 445.101C22.8192 445.101 20.6796 444.519 19.0379 443.469C17.3963 442.419 16.3705 440.977 16.161 439.423V17.5771C16.3705 16.0238 17.3963 14.5812 19.0379 13.5312C20.6796 12.4812 22.8192 11.8994 25.0384 11.8994C27.2577 11.8994 29.3972 12.4812 31.0389 13.5312C32.6805 14.5812 33.7064 16.0238 33.9158 17.5771V17.5771Z" fill="#BC159D"/>
<path d="M33.5177 17.5772V439.423C33.5177 441.012 32.6202 442.535 31.0225 443.659C29.4249 444.782 27.258 445.413 24.9986 445.413C22.7392 445.413 20.5724 444.782 18.9747 443.659C17.3771 442.535 16.4795 441.012 16.4795 439.423V17.5772C16.4795 15.9887 17.3771 14.4652 18.9747 13.342C20.5724 12.2187 22.7392 11.5876 24.9986 11.5876C27.258 11.5876 29.4249 12.2187 31.0225 13.342C32.6202 14.4652 33.5177 15.9887 33.5177 17.5772Z" fill="#C716A6"/>
<path d="M33.1992 17.5776V439.424C33.1992 440.953 32.3353 442.419 30.7974 443.501C29.2595 444.582 27.1735 445.189 24.9986 445.189C22.8237 445.189 20.7378 444.582 19.1999 443.501C17.662 442.419 16.798 440.953 16.798 439.424V17.5776C16.798 16.0484 17.662 14.5819 19.1999 13.5006C20.7378 12.4193 22.8237 11.8119 24.9986 11.8119C27.1735 11.8119 29.2595 12.4193 30.7974 13.5006C32.3353 14.5819 33.1992 16.0484 33.1992 17.5776V17.5776Z" fill="#D118AF"/>
<path d="M32.8818 17.5764V439.423C32.8818 440.907 32.0429 442.331 30.5498 443.381C29.0567 444.431 27.0316 445.02 24.92 445.02C22.8084 445.02 20.7833 444.431 19.2902 443.381C17.7971 442.331 16.9583 440.907 16.9583 439.423V17.5764C16.9583 16.0918 17.7971 14.668 19.2902 13.6182C20.7833 12.5684 22.8084 11.9786 24.92 11.9786C27.0316 11.9786 29.0567 12.5684 30.5498 13.6182C32.0429 14.668 32.8818 16.0918 32.8818 17.5764V17.5764Z" fill="#DC19B7"/>
<path d="M32.4857 17.5767V439.423C32.4857 440.818 31.6972 442.157 30.2937 443.143C28.8901 444.13 26.9865 444.685 25.0016 444.685C23.0167 444.685 21.1131 444.13 19.7096 443.143C18.306 442.157 17.5176 440.818 17.5176 439.423V17.5767C17.5176 16.1812 18.306 14.8428 19.7096 13.856C21.1131 12.8692 23.0167 12.3148 25.0016 12.3148C26.9865 12.3148 28.8901 12.8692 30.2937 13.856C31.6972 14.8428 32.4857 16.1812 32.4857 17.5767V17.5767Z" fill="#E61AC0"/>
<path d="M32.085 17.5767V439.423C32.1902 440.118 32.0864 440.82 31.7802 441.485C31.4741 442.15 30.9724 442.762 30.3079 443.281C29.6434 443.801 28.8309 444.216 27.9232 444.501C27.0154 444.785 26.0327 444.932 25.0389 444.932C24.0451 444.932 23.0624 444.785 22.1546 444.501C21.2468 444.216 20.4343 443.801 19.7698 443.281C19.1053 442.762 18.6037 442.15 18.2975 441.485C17.9913 440.82 17.8875 440.118 17.9927 439.423V17.5767C17.8875 16.8819 17.9913 16.1793 18.2975 15.5146C18.6037 14.8498 19.1053 14.2378 19.7698 13.7182C20.4343 13.1987 21.2468 12.7832 22.1546 12.4988C23.0624 12.2144 24.0451 12.0674 25.0389 12.0674C26.0327 12.0674 27.0154 12.2144 27.9232 12.4988C28.8309 12.7832 29.6434 13.1987 30.3079 13.7182C30.9724 14.2378 31.4741 14.8498 31.7802 15.5146C32.0864 16.1793 32.1902 16.8819 32.085 17.5767V17.5767Z" fill="#E725C3"/>
<path d="M31.6089 17.5773V439.423C31.6089 440.656 30.9127 441.837 29.6734 442.709C28.4341 443.58 26.7533 444.07 25.0006 444.07C23.248 444.07 21.5672 443.58 20.3279 442.709C19.0886 441.837 18.3923 440.656 18.3923 439.423V17.5773C18.3923 16.3451 19.0886 15.1633 20.3279 14.292C21.5672 13.4207 23.248 12.9312 25.0006 12.9312C26.7533 12.9312 28.4341 13.4207 29.6734 14.292C30.9127 15.1633 31.6089 16.3451 31.6089 17.5773V17.5773Z" fill="#E82FC6"/>
<path d="M31.1321 17.5776V439.424C31.1321 440.567 30.4862 441.663 29.3365 442.471C28.1868 443.28 26.6274 443.734 25.0015 443.734C23.3756 443.734 21.8163 443.28 20.6666 442.471C19.5168 441.663 18.871 440.567 18.871 439.424V17.5776C18.871 16.4344 19.5168 15.3381 20.6666 14.5298C21.8163 13.7214 23.3756 13.2673 25.0015 13.2673C26.6274 13.2673 28.1868 13.7214 29.3365 14.5298C30.4862 15.3381 31.1321 16.4344 31.1321 17.5776Z" fill="#EA3AC9"/>
<path d="M30.734 17.5766V439.423C30.5689 440.403 29.8981 441.306 28.8489 441.961C27.7996 442.617 26.4449 442.979 25.0413 442.979C23.6378 442.979 22.283 442.617 21.2337 441.961C20.1845 441.306 19.5138 440.403 19.3486 439.423V17.5766C19.5138 16.5966 20.1845 15.6933 21.2337 15.0379C22.283 14.3824 23.6378 14.0204 25.0413 14.0204C26.4449 14.0204 27.7996 14.3824 28.8489 15.0379C29.8981 15.6933 30.5689 16.5966 30.734 17.5766V17.5766Z" fill="#EB45CC"/>
<path d="M30.2553 17.5767V439.423C30.2553 440.403 29.7016 441.342 28.7162 442.035C27.7307 442.728 26.3941 443.117 25.0005 443.117C23.6068 443.117 22.2703 442.728 21.2848 442.035C20.2993 441.342 19.7457 440.403 19.7457 439.423V17.5767C19.7457 17.0915 19.8816 16.6111 20.1457 16.1629C20.4098 15.7146 20.7968 15.3074 21.2848 14.9643C21.7727 14.6212 22.352 14.3491 22.9896 14.1634C23.6271 13.9778 24.3104 13.8822 25.0005 13.8822C25.6905 13.8822 26.3739 13.9778 27.0114 14.1634C27.6489 14.3491 28.2282 14.6212 28.7162 14.9643C29.2041 15.3074 29.5912 15.7146 29.8553 16.1629C30.1194 16.6111 30.2553 17.0915 30.2553 17.5767V17.5767Z" fill="#EC4FCF"/>
<path d="M29.7775 17.5772V439.423C29.7775 440.314 29.2742 441.168 28.3783 441.798C27.4825 442.428 26.2674 442.782 25.0004 442.782C23.7335 442.782 22.5184 442.428 21.6226 441.798C20.7267 441.168 20.2234 440.314 20.2234 439.423V17.5772C20.2234 16.6864 20.7267 15.8321 21.6226 15.2022C22.5184 14.5724 23.7335 14.2185 25.0004 14.2185C26.2674 14.2185 27.4825 14.5724 28.3783 15.2022C29.2742 15.8321 29.7775 16.6864 29.7775 17.5772V17.5772Z" fill="#ED5AD2"/>
<path d="M29.2998 17.5775V439.424C29.2998 440.225 28.8468 440.994 28.0405 441.561C27.2342 442.128 26.1407 442.446 25.0004 442.446C23.8602 442.446 22.7666 442.128 21.9603 441.561C21.154 440.994 20.701 440.225 20.701 439.424V17.5775C20.701 17.1805 20.8123 16.7874 21.0283 16.4207C21.2444 16.054 21.5611 15.7207 21.9603 15.44C22.3596 15.1593 22.8335 14.9367 23.3551 14.7848C23.8767 14.6329 24.4358 14.5547 25.0004 14.5547C25.565 14.5547 26.1241 14.6329 26.6457 14.7848C27.1673 14.9367 27.6413 15.1593 28.0405 15.44C28.4397 15.7207 28.7564 16.054 28.9725 16.4207C29.1886 16.7874 29.2998 17.1805 29.2998 17.5775V17.5775Z" fill="#EE64D5"/>
<path d="M28.8993 17.5764V439.423C28.8993 440.15 28.4882 440.848 27.7566 441.362C27.025 441.876 26.0327 442.165 24.998 442.165C24.4894 442.165 23.9858 442.094 23.5169 441.956C23.0479 441.817 22.6231 441.614 22.2671 441.359C21.9112 441.103 21.6314 440.8 21.4441 440.468C21.2568 440.135 21.1658 439.78 21.1764 439.423V17.5764C21.1658 17.2189 21.2568 16.8634 21.4441 16.531C21.6314 16.1985 21.9112 15.8956 22.2671 15.6402C22.6231 15.3847 23.0479 15.1818 23.5169 15.0432C23.9858 14.9047 24.4894 14.8334 24.998 14.8335C26.0327 14.8335 27.025 15.1225 27.7566 15.6369C28.4882 16.1513 28.8993 16.8489 28.8993 17.5764V17.5764Z" fill="#EF6FD8"/>
<path d="M28.4228 17.5767V439.423C28.4228 440.061 28.0621 440.673 27.4201 441.125C26.778 441.576 25.9072 441.83 24.9993 441.83C24.0913 441.83 23.2205 441.576 22.5784 441.125C21.9364 440.673 21.5757 440.061 21.5757 439.423V17.5767C21.5757 16.9383 21.9364 16.3261 22.5784 15.8747C23.2205 15.4233 24.0913 15.1697 24.9993 15.1697C25.9072 15.1697 26.778 15.4233 27.4201 15.8747C28.0621 16.3261 28.4228 16.9383 28.4228 17.5767V17.5767Z" fill="#F17ADB"/>
<path d="M27.9461 17.5765V439.423C27.9571 439.697 27.8885 439.969 27.7443 440.224C27.6001 440.479 27.3835 440.71 27.1078 440.904C26.832 441.098 26.5029 441.25 26.1405 441.352C25.7781 441.453 25.3901 441.501 25.0003 441.494C24.219 441.494 23.4697 441.276 22.9172 440.887C22.3648 440.499 22.0544 439.972 22.0544 439.423V17.5765C22.0544 17.0272 22.3648 16.5004 22.9172 16.1119C23.4697 15.7235 24.219 15.5053 25.0003 15.5053C25.3901 15.4976 25.7781 15.5459 26.1405 15.6472C26.5029 15.7486 26.832 15.9009 27.1078 16.0948C27.3835 16.2886 27.6001 16.5201 27.7443 16.7748C27.8885 17.0296 27.9571 17.3024 27.9461 17.5765V17.5765Z" fill="#F284DE"/>
<path d="M27.548 17.5777V439.424C27.4427 439.838 27.1338 440.212 26.6753 440.482C26.2168 440.752 25.638 440.9 25.0401 440.9C24.4422 440.9 23.8633 440.752 23.4048 440.482C22.9463 440.212 22.6374 439.838 22.5321 439.424V17.5777C22.6374 17.1639 22.9463 16.7893 23.4048 16.5195C23.8633 16.2497 24.4422 16.1018 25.0401 16.1018C25.638 16.1018 26.2168 16.2497 26.6753 16.5195C27.1338 16.7893 27.4427 17.1639 27.548 17.5777Z" fill="#F38FE1"/>
</g>
</svg>
