<svg width="1176" height="91" viewBox="0 0 1176 91" fill="none" xmlns="http://www.w3.org/2000/svg">
<g style="mix-blend-mode:screen">
<path d="M46.0369 0.141634L1130.32 0.141634C1142.3 0.141634 1153.79 4.9015 1162.27 13.3741C1170.74 21.8467 1175.5 33.338 1175.5 45.3201C1175.5 57.3022 1170.74 68.7935 1162.27 77.2661C1153.79 85.7387 1142.3 90.4985 1130.32 90.4985L46.0369 90.4985C34.0548 90.4985 22.5635 85.7387 14.0909 77.2661C5.61825 68.7935 0.858398 57.3022 0.858398 45.3201C0.858398 33.338 5.61825 21.8467 14.0909 13.3741C22.5635 4.9015 34.0548 0.141634 46.0369 0.141634V0.141634Z" fill="black"/>
<path d="M46.0353 2.30161L1130.32 2.30161C1141.77 2.30161 1152.75 6.84932 1160.84 14.9442C1168.93 23.039 1173.48 34.0179 1173.48 45.4657C1173.48 56.9136 1168.93 67.8926 1160.84 75.9874C1152.75 84.0823 1141.77 88.6299 1130.32 88.6299L46.0353 88.6299C34.5875 88.6299 23.6086 84.0823 15.5137 75.9874C7.41886 67.8926 2.87122 56.9136 2.87122 45.4657C2.87122 34.0179 7.41886 23.039 15.5137 14.9442C23.6086 6.84932 34.5875 2.30161 46.0353 2.30161V2.30161Z" fill="#0A0109"/>
<path d="M46.0377 4.60121L1130.32 4.60121C1141.12 4.60121 1151.48 8.89115 1159.11 16.5273C1166.75 24.1634 1171.04 34.5203 1171.04 45.3194C1171.04 56.1185 1166.75 66.4754 1159.11 74.1115C1151.48 81.7477 1141.12 86.0376 1130.32 86.0376L46.0377 86.0376C35.2386 86.0376 24.8818 81.7477 17.2457 74.1115C9.60952 66.4754 5.31958 56.1185 5.31958 45.3194C5.31958 34.5203 9.60952 24.1634 17.2457 16.5273C24.8818 8.89115 35.2386 4.60121 46.0377 4.60121V4.60121Z" fill="#150211"/>
<path d="M46.0364 6.9008L1130.32 6.9008C1140.51 6.9008 1150.28 10.9481 1157.48 18.1525C1164.69 25.357 1168.74 35.1283 1168.74 45.3169C1168.74 55.5054 1164.69 65.2766 1157.48 72.4811C1150.28 79.6855 1140.51 83.7329 1130.32 83.7329L46.0364 83.7329C35.8479 83.7329 26.0766 79.6855 18.8722 72.4811C11.6678 65.2766 7.62036 55.5054 7.62036 45.3169C7.62036 35.1283 11.6678 25.357 18.8722 18.1525C26.0766 10.9481 35.8479 6.9008 46.0364 6.9008V6.9008Z" fill="#1F041A"/>
<path d="M46.0356 9.05978L1130.32 9.05978C1139.08 10.1696 1147.13 14.4356 1152.96 21.0578C1158.8 27.6799 1162.02 36.2033 1162.02 45.0299C1162.02 53.8565 1158.8 62.38 1152.96 69.0021C1147.13 75.6243 1139.08 79.8902 1130.32 81L46.0356 81C37.279 79.8902 29.228 75.6243 23.3922 69.0021C17.5564 62.38 14.3367 53.8565 14.3367 45.0299C14.3367 36.2033 17.5564 27.6799 23.3922 21.0578C29.228 14.4356 37.279 10.1696 46.0356 9.05978V9.05978Z" fill="#2A0523"/>
<path d="M46.0369 11.362L1130.32 11.362C1134.96 11.0598 1139.6 11.7119 1143.98 13.278C1148.35 14.8441 1152.36 17.2907 1155.75 20.4668C1159.14 23.6428 1161.84 27.4805 1163.68 31.7427C1165.53 36.0048 1166.48 40.6006 1166.48 45.2458C1166.48 49.8911 1165.53 54.487 1163.68 58.7491C1161.84 63.0112 1159.14 66.849 1155.75 70.025C1152.36 73.201 1148.35 75.6477 1143.98 77.2138C1139.6 78.7798 1134.96 79.4319 1130.32 79.1297L46.0369 79.1297C41.4015 79.4319 36.7534 78.7798 32.3801 77.2138C28.0069 75.6477 24.0014 73.201 20.6116 70.025C17.2217 66.849 14.5196 63.0112 12.6723 58.7491C10.8251 54.487 9.87195 49.8911 9.87195 45.2458C9.87195 40.6006 10.8251 36.0048 12.6723 31.7427C14.5196 27.4805 17.2217 23.6428 20.6116 20.4668C24.0014 17.2907 28.0069 14.8441 32.3801 13.278C36.7534 11.7119 41.4015 11.0598 46.0369 11.362V11.362Z" fill="#34062C"/>
<path d="M46.036 13.6672L1130.32 13.6672C1138.71 13.6672 1146.77 17.0022 1152.7 22.9384C1158.64 28.8747 1161.97 36.9259 1161.97 45.321C1161.97 53.716 1158.64 61.7673 1152.7 67.7035C1146.77 73.6397 1138.71 76.9746 1130.32 76.9746L46.036 76.9746C37.6409 76.9746 29.5897 73.6397 23.6535 67.7035C17.7173 61.7673 14.3823 53.716 14.3823 45.321C14.3823 36.9259 17.7173 28.8747 23.6535 22.9384C29.5897 17.0022 37.6409 13.6672 46.036 13.6672Z" fill="#3F0734"/>
<path d="M46.0383 15.9672L1130.32 15.9672C1138.11 15.9672 1145.57 19.0596 1151.08 24.5641C1156.58 30.0686 1159.67 37.5343 1159.67 45.3188C1159.67 53.1033 1156.58 60.569 1151.08 66.0735C1145.57 71.578 1138.11 74.6704 1130.32 74.6704L46.0383 74.6704C38.2537 74.6704 30.788 71.578 25.2835 66.0735C19.779 60.569 16.6866 53.1033 16.6866 45.3188C16.6866 37.5343 19.779 30.0686 25.2835 24.5641C30.788 19.0596 38.2537 15.9672 46.0383 15.9672V15.9672Z" fill="#49083D"/>
<path d="M46.036 18.1285L1130.32 18.1285C1134.05 17.8568 1137.79 18.3565 1141.32 19.5964C1144.84 20.8363 1148.08 22.7897 1150.81 25.3347C1153.55 27.8798 1155.73 30.9618 1157.23 34.3883C1158.72 37.8148 1159.49 41.5123 1159.49 45.2499C1159.49 48.9876 1158.72 52.6851 1157.23 56.1116C1155.73 59.5382 1153.55 62.6202 1150.81 65.1652C1148.08 67.7102 1144.84 69.6637 1141.32 70.9035C1137.79 72.1434 1134.05 72.6431 1130.32 72.3714L46.036 72.3714C42.3082 72.6431 38.5645 72.1434 35.0385 70.9035C31.5125 69.6637 28.2799 67.7102 25.5427 65.1652C22.8054 62.6202 20.6221 59.5382 19.1292 56.1116C17.6363 52.6851 16.8658 48.9876 16.8658 45.2499C16.8658 41.5123 17.6363 37.8148 19.1292 34.3883C20.6221 30.9618 22.8054 27.8798 25.5427 25.3347C28.2799 22.7897 31.5125 20.8363 35.0385 19.5964C38.5645 18.3565 42.3082 17.8568 46.036 18.1285V18.1285Z" fill="#540946"/>
<path d="M46.0356 20.4264L1130.32 20.4264C1136.92 20.4264 1143.25 23.0488 1147.92 27.7169C1152.59 32.3849 1155.21 38.7161 1155.21 45.3177C1155.21 51.9193 1152.59 58.2504 1147.92 62.9185C1143.25 67.5865 1136.92 70.209 1130.32 70.209L46.0356 70.209C39.434 70.209 33.1028 67.5865 28.4348 62.9185C23.7668 58.2504 21.1443 51.9193 21.1443 45.3177C21.1443 38.7161 23.7668 32.3849 28.4348 27.7169C33.1028 23.0488 39.434 20.4264 46.0356 20.4264V20.4264Z" fill="#5E0B4F"/>
<path d="M46.0378 22.7332L1130.32 22.7332C1136.31 22.7332 1142.06 25.1131 1146.29 29.3494C1150.53 33.5857 1152.91 39.3314 1152.91 45.3224C1152.91 51.3134 1150.53 57.059 1146.29 61.2953C1142.06 65.5316 1136.31 67.9116 1130.32 67.9116L46.0378 67.9116C40.0468 67.9116 34.3011 65.5316 30.0648 61.2953C25.8285 57.059 23.4486 51.3134 23.4486 45.3224C23.4486 39.3314 25.8285 33.5857 30.0648 29.3494C34.3011 25.1131 40.0468 22.7332 46.0378 22.7332V22.7332Z" fill="#690C57"/>
<path d="M46.0376 24.8893L1130.32 24.8893C1135.42 25.3188 1140.18 27.6497 1143.65 31.4203C1147.11 35.191 1149.04 40.1262 1149.04 45.2483C1149.04 50.3704 1147.11 55.3058 1143.65 59.0764C1140.18 62.8471 1135.42 65.178 1130.32 65.6074L46.0376 65.6074C40.9335 65.178 36.1769 62.8471 32.7102 59.0764C29.2435 55.3058 27.3196 50.3704 27.3196 45.2483C27.3196 40.1262 29.2435 35.191 32.7102 31.4203C36.1769 27.6497 40.9335 25.3188 46.0376 24.8893V24.8893Z" fill="#730D60"/>
<path d="M46.0372 25.608L1130.32 25.608C1132.91 25.608 1135.47 26.1179 1137.86 27.1085C1140.26 28.0991 1142.43 29.5511 1144.26 31.3815C1146.09 33.2119 1147.54 35.3849 1148.53 37.7764C1149.52 40.1679 1150.03 42.7311 1150.03 45.3197C1150.03 47.9083 1149.52 50.4715 1148.53 52.863C1147.54 55.2545 1146.09 57.4275 1144.26 59.2579C1142.43 61.0883 1140.26 62.5403 1137.86 63.5309C1135.47 64.5215 1132.91 65.0313 1130.32 65.0312L46.0372 65.0312C40.8093 65.0312 35.7956 62.9545 32.099 59.2579C28.4023 55.5613 26.3256 50.5475 26.3256 45.3197C26.3256 40.0919 28.4023 35.0781 32.099 31.3815C35.7956 27.6849 40.8093 25.608 46.0372 25.608V25.608Z" fill="#7D0E69"/>
<path d="M46.0377 26.1833L1130.32 26.1833C1135.4 26.1833 1140.26 28.1995 1143.85 31.7882C1147.44 35.3769 1149.46 40.2442 1149.46 45.3194C1149.46 50.3947 1147.44 55.262 1143.85 58.8507C1140.26 62.4394 1135.4 64.4556 1130.32 64.4556L46.0377 64.4556C40.9625 64.4556 36.0952 62.4394 32.5064 58.8507C28.9177 55.262 26.9016 50.3947 26.9016 45.3194C26.9016 40.2442 28.9177 35.3769 32.5064 31.7882C36.0952 28.1995 40.9625 26.1833 46.0377 26.1833V26.1833Z" fill="#880F71"/>
<path d="M46.0374 26.7599L1130.32 26.7599C1132.89 26.5334 1135.47 26.8431 1137.91 27.6693C1140.35 28.4956 1142.59 29.8202 1144.49 31.5591C1146.39 33.298 1147.9 35.4132 1148.94 37.7699C1149.98 40.1266 1150.51 42.6734 1150.51 45.2484C1150.51 47.8235 1149.98 50.3704 1148.94 52.7271C1147.9 55.0839 1146.39 57.1989 1144.49 58.9378C1142.59 60.6767 1140.35 62.0014 1137.91 62.8277C1135.47 63.6539 1132.89 63.9636 1130.32 63.7371L46.0374 63.7371C43.4724 63.9636 40.8882 63.6539 38.4494 62.8277C36.0105 62.0014 33.7702 60.6767 31.871 58.9378C29.9718 57.1989 28.4552 55.0839 27.4176 52.7271C26.3801 50.3704 25.8442 47.8235 25.8442 45.2484C25.8442 42.6734 26.3801 40.1266 27.4176 37.7699C28.4552 35.4132 29.9718 33.298 31.871 31.5591C33.7702 29.8202 36.0105 28.4956 38.4494 27.6693C40.8882 26.8431 43.4724 26.5334 46.0374 26.7599Z" fill="#92117A"/>
<path d="M46.0355 27.4802L1130.32 27.4802C1135.05 27.4802 1139.59 29.3599 1142.93 32.7058C1146.28 36.0517 1148.16 40.5897 1148.16 45.3215C1148.16 50.0532 1146.28 54.5911 1142.93 57.937C1139.59 61.2829 1135.05 63.1626 1130.32 63.1626L46.0355 63.1626C41.3037 63.1626 36.7658 61.2829 33.4199 57.937C30.074 54.5911 28.1943 50.0532 28.1943 45.3215C28.1943 40.5897 30.074 36.0517 33.4199 32.7058C36.7658 29.3599 41.3037 27.4802 46.0355 27.4802V27.4802Z" fill="#9D1283"/>
<path d="M46.036 28.0551L1130.32 28.0551C1134.9 28.0551 1139.29 29.8741 1142.53 33.1121C1145.77 36.35 1147.58 40.7417 1147.58 45.3208C1147.58 49.9 1145.77 54.2915 1142.53 57.5294C1139.29 60.7674 1134.9 62.5864 1130.32 62.5864L46.036 62.5864C41.4569 62.5864 37.0653 60.7674 33.8274 57.5294C30.5894 54.2915 28.7704 49.9 28.7704 45.3208C28.7704 40.7417 30.5894 36.35 33.8274 33.1121C37.0653 29.8741 41.4569 28.0551 46.036 28.0551Z" fill="#A7138C"/>
<path d="M46.0355 28.632L1130.32 28.632C1132.63 28.4166 1134.96 28.6862 1137.16 29.4234C1139.37 30.1606 1141.39 31.3493 1143.11 32.9134C1144.82 34.4775 1146.2 36.3826 1147.13 38.5069C1148.07 40.6312 1148.56 42.9279 1148.56 45.2502C1148.56 47.5725 1148.07 49.8693 1147.13 51.9936C1146.2 54.1179 1144.82 56.0231 1143.11 57.5872C1141.39 59.1513 1139.37 60.3399 1137.16 61.0771C1134.96 61.8143 1132.63 62.0839 1130.32 61.8685L46.0355 61.8685C43.7232 62.0839 41.3914 61.8143 39.1892 61.0771C36.987 60.3399 34.963 59.1513 33.2464 57.5872C31.5298 56.0231 30.1585 54.1179 29.2203 51.9936C28.282 49.8693 27.7974 47.5725 27.7974 45.2502C27.7974 42.9279 28.282 40.6312 29.2203 38.5069C30.1585 36.3826 31.5298 34.4775 33.2464 32.9134C34.963 31.3493 36.987 30.1606 39.1892 29.4234C41.3914 28.6862 43.7232 28.4166 46.0355 28.632V28.632Z" fill="#B21494"/>
<path d="M46.0371 29.2086L1130.32 29.2086C1134.31 29.5871 1138.02 31.4409 1140.72 34.4076C1143.42 37.3743 1144.91 41.2407 1144.91 45.2512C1144.91 49.2617 1143.42 53.1282 1140.72 56.0949C1138.02 59.0616 1134.31 60.9154 1130.32 61.2939L46.0371 61.2939C42.0445 60.9154 38.3365 59.0616 35.6377 56.0949C32.939 53.1282 31.4435 49.2617 31.4435 45.2512C31.4435 41.2407 32.939 37.3743 35.6377 34.4076C38.3365 31.4409 42.0445 29.5871 46.0371 29.2086V29.2086Z" fill="#BC159D"/>
<path d="M46.0378 29.9274L1130.32 29.9274C1134.4 29.9274 1138.32 31.5493 1141.21 34.4365C1144.09 37.3236 1145.72 41.2395 1145.72 45.3226C1145.72 49.4056 1144.09 53.3214 1141.21 56.2086C1138.32 59.0957 1134.4 60.7178 1130.32 60.7178L46.0378 60.7178C41.9547 60.7178 38.0389 59.0957 35.1517 56.2086C32.2646 53.3214 30.6426 49.4056 30.6426 45.3226C30.6426 41.2395 32.2646 37.3236 35.1517 34.4365C38.0389 31.5493 41.9547 29.9274 46.0378 29.9274Z" fill="#C716A6"/>
<path d="M46.0384 30.5023L1130.32 30.5023C1134.25 30.5023 1138.02 32.0635 1140.8 34.8428C1143.58 37.622 1145.14 41.3915 1145.14 45.3219C1145.14 49.2524 1143.58 53.0218 1140.8 55.801C1138.02 58.5802 1134.25 60.1416 1130.32 60.1416L46.0384 60.1416C42.108 60.1416 38.3386 58.5802 35.5593 55.801C32.7801 53.0218 31.2188 49.2524 31.2188 45.3219C31.2188 41.3915 32.7801 37.622 35.5593 34.8428C38.3386 32.0635 42.108 30.5023 46.0384 30.5023V30.5023Z" fill="#D118AF"/>
<path d="M46.0353 31.0774L1130.32 31.0774C1134.13 31.0774 1137.79 32.5934 1140.49 35.2917C1143.19 37.99 1144.71 41.6495 1144.71 45.4655C1144.71 49.2814 1143.19 52.9411 1140.49 55.6394C1137.79 58.3376 1134.13 59.8535 1130.32 59.8535L46.0353 59.8535C42.2193 59.8535 38.5597 58.3376 35.8614 55.6394C33.1631 52.9411 31.6472 49.2814 31.6472 45.4655C31.6472 41.6495 33.1631 37.99 35.8614 35.2917C38.5597 32.5934 42.2193 31.0774 46.0353 31.0774V31.0774Z" fill="#DC19B7"/>
<path d="M46.0361 31.7923L1130.32 31.7923C1133.91 31.7923 1137.35 33.2173 1139.88 35.7537C1142.42 38.29 1143.84 41.7301 1143.84 45.3171C1143.84 48.9041 1142.42 52.3442 1139.88 54.8806C1137.35 57.4169 1133.91 58.8418 1130.32 58.8418L46.0361 58.8418C42.4491 58.8418 39.009 57.4169 36.4727 54.8806C33.9363 52.3442 32.5114 48.9041 32.5114 45.3171C32.5114 41.7301 33.9363 38.29 36.4727 35.7537C39.009 33.2173 42.4491 31.7923 46.0361 31.7923V31.7923Z" fill="#E61AC0"/>
<path d="M46.0364 32.5164L1130.32 32.5164C1132.11 32.3263 1133.91 32.514 1135.62 33.0673C1137.33 33.6206 1138.9 34.5271 1140.24 35.7279C1141.57 36.9288 1142.64 38.397 1143.37 40.0375C1144.1 41.6779 1144.48 43.4538 1144.48 45.2498C1144.48 47.0457 1144.1 48.8216 1143.37 50.4621C1142.64 52.1025 1141.57 53.5709 1140.24 54.7717C1138.9 55.9726 1137.33 56.8791 1135.62 57.4324C1133.91 57.9857 1132.11 58.1733 1130.32 57.9832L46.0364 57.9832C44.2506 58.1733 42.4447 57.9857 40.736 57.4324C39.0274 56.8791 37.4543 55.9726 36.1188 54.7717C34.7834 53.5709 33.7155 52.1025 32.9844 50.4621C32.2534 48.8216 31.8756 47.0457 31.8756 45.2498C31.8756 43.4538 32.2534 41.6779 32.9844 40.0375C33.7155 38.397 34.7834 36.9288 36.1188 35.7279C37.4543 34.5271 39.0274 33.6206 40.736 33.0673C42.4447 32.514 44.2506 32.3263 46.0364 32.5164V32.5164Z" fill="#E725C3"/>
<path d="M46.0377 33.377L1130.32 33.377C1133.49 33.377 1136.53 34.6352 1138.77 36.8748C1141 39.1144 1142.26 42.1519 1142.26 45.3191C1142.26 48.4864 1141 51.5239 1138.77 53.7635C1136.53 56.003 1133.49 57.2612 1130.32 57.2612L46.0377 57.2612C42.8704 57.2612 39.8329 56.003 37.5933 53.7635C35.3538 51.5239 34.0956 48.4864 34.0956 45.3191C34.0956 42.1519 35.3538 39.1144 37.5933 36.8748C39.8329 34.6352 42.8704 33.377 46.0377 33.377V33.377Z" fill="#E82FC6"/>
<path d="M46.0385 34.2394L1130.32 34.2394C1133.26 34.2394 1136.08 35.4067 1138.16 37.4843C1140.23 39.562 1141.4 42.3799 1141.4 45.3182C1141.4 48.2565 1140.23 51.0744 1138.16 53.1521C1136.08 55.2298 1133.26 56.397 1130.32 56.397L46.0385 56.397C43.1002 56.397 40.2823 55.2298 38.2046 53.1521C36.1269 51.0744 34.9597 48.2565 34.9597 45.3182C34.9597 42.3799 36.1269 39.562 38.2046 37.4843C40.2823 35.4067 43.1002 34.2394 46.0385 34.2394Z" fill="#EA3AC9"/>
<path d="M46.0359 34.9583L1130.32 34.9583C1132.84 35.2567 1135.16 36.4689 1136.84 38.365C1138.53 40.2611 1139.46 42.7093 1139.46 45.2457C1139.46 47.7821 1138.53 50.2304 1136.84 52.1265C1135.16 54.0226 1132.84 55.2348 1130.32 55.5332L46.0359 55.5332C43.5171 55.2348 41.1953 54.0226 39.5105 52.1265C37.8258 50.2304 36.8953 47.7821 36.8953 45.2457C36.8953 42.7093 37.8258 40.2611 39.5105 38.365C41.1953 36.4689 43.5171 35.2567 46.0359 34.9583V34.9583Z" fill="#EB45CC"/>
<path d="M46.0366 35.8242L1130.32 35.8242C1132.84 35.8242 1135.25 36.8247 1137.03 38.6056C1138.82 40.3865 1139.82 42.8018 1139.82 45.3204C1139.82 47.8389 1138.82 50.2542 1137.03 52.0351C1135.25 53.816 1132.84 54.8164 1130.32 54.8164L46.0366 54.8164C44.7896 54.8164 43.5548 54.5708 42.4026 54.0936C41.2505 53.6163 40.2037 52.9169 39.3219 52.0351C38.4401 51.1533 37.7406 50.1065 37.2634 48.9544C36.7862 47.8022 36.5405 46.5674 36.5405 45.3204C36.5405 44.0733 36.7862 42.8385 37.2634 41.6863C37.7406 40.5342 38.4401 39.4874 39.3219 38.6056C40.2037 37.7238 41.2505 37.0243 42.4026 36.547C43.5548 36.0698 44.7896 35.8242 46.0366 35.8242V35.8242Z" fill="#EC4FCF"/>
<path d="M46.0374 36.6865L1130.32 36.6865C1132.61 36.6865 1134.81 37.5961 1136.42 39.215C1138.04 40.834 1138.95 43.0298 1138.95 45.3193C1138.95 47.6089 1138.04 49.8047 1136.42 51.4237C1134.81 53.0426 1132.61 53.9521 1130.32 53.9521L46.0374 53.9521C43.7478 53.9521 41.552 53.0426 39.933 51.4237C38.3141 49.8047 37.4045 47.6089 37.4045 45.3193C37.4045 43.0298 38.3141 40.834 39.933 39.215C41.552 37.5961 43.7478 36.6865 46.0374 36.6865V36.6865Z" fill="#ED5AD2"/>
<path d="M46.0382 37.5493L1130.32 37.5493C1132.38 37.5493 1134.36 38.3679 1135.82 39.8249C1137.27 41.282 1138.09 43.2582 1138.09 45.3188C1138.09 47.3794 1137.27 49.3556 1135.82 50.8127C1134.36 52.2698 1132.38 53.0884 1130.32 53.0884L46.0382 53.0884C45.0179 53.0884 44.0076 52.8874 43.0649 52.4969C42.1223 52.1065 41.2658 51.5342 40.5443 50.8127C39.8229 50.0912 39.2506 49.2348 38.8601 48.2921C38.4696 47.3495 38.2687 46.3391 38.2687 45.3188C38.2687 44.2985 38.4696 43.2882 38.8601 42.3455C39.2506 41.4029 39.8229 40.5464 40.5443 39.8249C41.2658 39.1035 42.1223 38.5312 43.0649 38.1407C44.0076 37.7503 45.0179 37.5493 46.0382 37.5493V37.5493Z" fill="#EE64D5"/>
<path d="M46.0355 38.273L1130.32 38.273C1132.19 38.273 1133.98 39.0159 1135.3 40.3381C1136.63 41.6602 1137.37 43.4534 1137.37 45.3233C1137.37 46.2424 1137.19 47.1524 1136.83 47.9998C1136.47 48.8473 1135.95 49.6151 1135.3 50.2583C1134.64 50.9015 1133.86 51.4072 1133.01 51.7457C1132.15 52.0842 1131.24 52.2486 1130.32 52.2295L46.0355 52.2295C45.1165 52.2486 44.203 52.0842 43.3484 51.7457C42.4938 51.4072 41.7154 50.9015 41.0588 50.2583C40.4021 49.6151 39.8805 48.8473 39.5245 47.9998C39.1684 47.1524 38.9852 46.2424 38.9854 45.3233C38.9854 43.4534 39.7281 41.6602 41.0503 40.3381C42.3724 39.0159 44.1657 38.273 46.0355 38.273V38.273Z" fill="#EF6FD8"/>
<path d="M46.0363 39.1336L1130.32 39.1336C1131.96 39.1336 1133.53 39.7855 1134.69 40.9457C1135.85 42.106 1136.51 43.6796 1136.51 45.3205C1136.51 46.9613 1135.85 48.5349 1134.69 49.6952C1133.53 50.8555 1131.96 51.5073 1130.32 51.5073L46.0363 51.5073C44.3955 51.5073 42.8218 50.8555 41.6616 49.6952C40.5013 48.5349 39.8495 46.9613 39.8495 45.3205C39.8495 43.6796 40.5013 42.106 41.6616 40.9457C42.8218 39.7855 44.3955 39.1336 46.0363 39.1336V39.1336Z" fill="#F17ADB"/>
<path d="M46.0357 39.9964L1130.32 39.9964C1131.02 39.9766 1131.72 40.1007 1132.38 40.3612C1133.03 40.6217 1133.63 41.0132 1134.13 41.5115C1134.63 42.0099 1135.02 42.6047 1135.28 43.2595C1135.54 43.9144 1135.66 44.6155 1135.64 45.32C1135.64 46.7319 1135.08 48.086 1134.08 49.0844C1133.08 50.0827 1131.73 50.6436 1130.32 50.6436L46.0357 50.6436C44.6238 50.6436 43.2697 50.0827 42.2714 49.0844C41.273 48.086 40.7121 46.7319 40.7121 45.32C40.6923 44.6155 40.8164 43.9144 41.0769 43.2595C41.3374 42.6047 41.7288 42.0099 42.2272 41.5115C42.7255 41.0132 43.3203 40.6217 43.9752 40.3612C44.6301 40.1007 45.3312 39.9766 46.0357 39.9964V39.9964Z" fill="#F284DE"/>
<path d="M46.0386 40.7149L1130.32 40.7149C1131.39 40.9051 1132.35 41.4634 1133.04 42.292C1133.74 43.1205 1134.12 44.1665 1134.12 45.247C1134.12 46.3275 1133.74 47.3736 1133.04 48.2022C1132.35 49.0308 1131.39 49.589 1130.32 49.7793L46.0386 49.7793C44.975 49.589 44.0121 49.0308 43.3186 48.2022C42.6251 47.3736 42.2451 46.3275 42.2451 45.247C42.2451 44.1665 42.6251 43.1205 43.3186 42.292C44.0121 41.4634 44.975 40.9051 46.0386 40.7149Z" fill="#F38FE1"/>
</g>
</svg>
