<svg width="1176" height="91" viewBox="0 0 1176 91" fill="none" xmlns="http://www.w3.org/2000/svg">
<g style="mix-blend-mode:screen">
<path d="M46.0369 0.141634L1130.32 0.141634C1142.3 0.141634 1153.79 4.9015 1162.27 13.3741C1170.74 21.8467 1175.5 33.338 1175.5 45.3201C1175.5 57.3022 1170.74 68.7935 1162.27 77.2661C1153.79 85.7387 1142.3 90.4985 1130.32 90.4985L46.0369 90.4985C34.0548 90.4985 22.5635 85.7387 14.0909 77.2661C5.61825 68.7935 0.858398 57.3022 0.858398 45.3201C0.858398 33.338 5.61825 21.8467 14.0909 13.3741C22.5635 4.9015 34.0548 0.141634 46.0369 0.141634V0.141634Z" fill="black"/>
<path d="M46.0352 2.87729L1130.32 2.87729C1141.77 2.87729 1152.75 7.4249 1160.84 15.5197C1168.93 23.6146 1173.48 34.5936 1173.48 46.0414C1173.48 57.4893 1168.93 68.4682 1160.84 76.563C1152.75 84.6579 1141.77 89.2056 1130.32 89.2056L46.0352 89.2056C34.5874 89.2056 23.6084 84.6579 15.5136 76.563C7.41874 68.4682 2.87109 57.4893 2.87109 46.0414C2.87109 34.5936 7.41874 23.6146 15.5136 15.5197C23.6084 7.4249 34.5874 2.87729 46.0352 2.87729V2.87729Z" fill="#07030C"/>
<path d="M46.0377 5.03627L1130.32 5.03627C1141.12 5.03627 1151.48 9.32621 1159.11 16.9623C1166.75 24.5985 1171.04 34.9553 1171.04 45.7545C1171.04 56.5536 1166.75 66.9104 1159.11 74.5466C1151.48 82.1827 1141.12 86.4727 1130.32 86.4727L46.0377 86.4727C35.2386 86.4727 24.8818 82.1827 17.2457 74.5466C9.60952 66.9104 5.31958 56.5536 5.31958 45.7545C5.31958 34.9553 9.60952 24.5985 17.2457 16.9623C24.8818 9.32621 35.2386 5.03627 46.0377 5.03627V5.03627Z" fill="#0D0617"/>
<path d="M46.0364 7.33635L1130.32 7.33635C1140.51 7.33635 1150.28 11.3838 1157.48 18.5882C1164.69 25.7926 1168.74 35.5638 1168.74 45.7524C1168.74 55.941 1164.69 65.7123 1157.48 72.9167C1150.28 80.1211 1140.51 84.1685 1130.32 84.1685L46.0364 84.1685C35.8479 84.1685 26.0766 80.1211 18.8722 72.9167C11.6678 65.7123 7.62036 55.941 7.62036 45.7524C7.62036 35.5638 11.6678 25.7926 18.8722 18.5882C26.0766 11.3838 35.8479 7.33635 46.0364 7.33635V7.33635Z" fill="#140823"/>
<path d="M46.0356 9.63595L1130.32 9.63595C1139.08 10.7458 1147.13 15.0117 1152.96 21.6338C1158.8 28.2559 1162.02 36.7795 1162.02 45.6061C1162.02 54.4327 1158.8 62.9561 1152.96 69.5782C1147.13 76.2003 1139.08 80.4663 1130.32 81.5762L46.0356 81.5762C37.279 80.4663 29.228 76.2003 23.3922 69.5782C17.5564 62.9561 14.3367 54.4327 14.3367 45.6061C14.3367 36.7795 17.5564 28.2559 23.3922 21.6338C29.228 15.0117 37.279 10.7458 46.0356 9.63595V9.63595Z" fill="#1A0B2E"/>
<path d="M46.037 11.9382L1130.32 11.9382C1134.96 11.636 1139.6 12.2881 1143.98 13.8542C1148.35 15.4202 1152.36 17.8669 1155.75 21.0429C1159.14 24.219 1161.84 28.0567 1163.68 32.3188C1165.53 36.581 1166.49 41.1769 1166.49 45.8221C1166.49 50.4673 1165.53 55.0632 1163.68 59.3253C1161.84 63.5874 1159.14 67.4252 1155.75 70.6012C1152.36 73.7772 1148.35 76.2239 1143.98 77.7899C1139.6 79.356 1134.96 80.0081 1130.32 79.7059L46.037 79.7059C41.4016 80.0081 36.7535 79.356 32.3803 77.7899C28.007 76.2239 24.0015 73.7772 20.6117 70.6012C17.2218 67.4252 14.5197 63.5874 12.6725 59.3253C10.8252 55.0632 9.87207 50.4673 9.87207 45.8221C9.87207 41.1769 10.8252 36.581 12.6725 32.3188C14.5197 28.0567 17.2218 24.219 20.6117 21.0429C24.0015 17.8669 28.007 15.4202 32.3803 13.8542C36.7535 12.2881 41.4016 11.636 46.037 11.9382V11.9382Z" fill="#210E3A"/>
<path d="M46.036 14.5315L1130.32 14.5315C1138.71 14.5315 1146.77 17.8664 1152.7 23.8026C1158.64 29.7388 1161.97 37.79 1161.97 46.1851C1161.97 54.5802 1158.64 62.6315 1152.7 68.5677C1146.77 74.504 1138.71 77.8389 1130.32 77.8389L46.036 77.8389C37.6409 77.8389 29.5897 74.504 23.6535 68.5677C17.7173 62.6315 14.3823 54.5802 14.3823 46.1851C14.3823 37.79 17.7173 29.7388 23.6535 23.8026C29.5897 17.8664 37.6409 14.5315 46.036 14.5315Z" fill="#271145"/>
<path d="M46.0384 16.4027L1130.32 16.4027C1138.11 16.4027 1145.57 19.4951 1151.08 24.9996C1156.58 30.5041 1159.67 37.9698 1159.67 45.7543C1159.67 53.5389 1156.58 61.0046 1151.08 66.509C1145.57 72.0135 1138.11 75.106 1130.32 75.106L46.0384 75.106C38.2538 75.106 30.7882 72.0135 25.2837 66.509C19.7792 61.0046 16.6868 53.5389 16.6868 45.7543C16.6868 37.9698 19.7792 30.5041 25.2837 24.9996C30.7882 19.4951 38.2538 16.4027 46.0384 16.4027Z" fill="#2E1451"/>
<path d="M46.0358 18.7042L1130.32 18.7042C1134.05 18.4325 1137.79 18.9322 1141.32 20.1721C1144.84 21.412 1148.08 23.3654 1150.81 25.9104C1153.55 28.4555 1155.73 31.5374 1157.23 34.964C1158.72 38.3905 1159.49 42.0881 1159.49 45.8257C1159.49 49.5634 1158.72 53.2608 1157.23 56.6873C1155.73 60.1139 1153.55 63.1959 1150.81 65.7409C1148.08 68.2859 1144.84 70.2394 1141.32 71.4792C1137.79 72.7191 1134.05 73.2188 1130.32 72.9471L46.0358 72.9471C42.3081 73.2188 38.5644 72.7191 35.0384 71.4792C31.5124 70.2394 28.2798 68.2859 25.5425 65.7409C22.8053 63.1959 20.622 60.1139 19.1291 56.6873C17.6362 53.2608 16.8657 49.5634 16.8657 45.8257C16.8657 42.0881 17.6362 38.3905 19.1291 34.964C20.622 31.5374 22.8053 28.4555 25.5425 25.9104C28.2798 23.3654 31.5124 21.412 35.0384 20.1721C38.5644 18.9322 42.3081 18.4325 46.0358 18.7042V18.7042Z" fill="#34175C"/>
<path d="M46.0356 20.8619L1130.32 20.8619C1136.92 20.8619 1143.25 23.4844 1147.92 28.1524C1152.59 32.8204 1155.21 39.1516 1155.21 45.7532C1155.21 52.3548 1152.59 58.686 1147.92 63.354C1143.25 68.022 1136.92 70.6445 1130.32 70.6445L46.0356 70.6445C39.434 70.6445 33.1028 68.022 28.4348 63.354C23.7668 58.686 21.1443 52.3548 21.1443 45.7532C21.1443 39.1516 23.7668 32.8204 28.4348 28.1524C33.1028 23.4844 39.434 20.8619 46.0356 20.8619V20.8619Z" fill="#3B1968"/>
<path d="M46.038 23.1619L1130.32 23.1619C1136.31 23.1619 1142.06 25.5419 1146.29 29.7782C1150.53 34.0145 1152.91 39.7601 1152.91 45.7511C1152.91 51.7421 1150.53 57.4878 1146.29 61.7242C1142.06 65.9605 1136.31 68.3403 1130.32 68.3403L46.038 68.3403C40.0469 68.3403 34.3013 65.9605 30.065 61.7242C25.8287 57.4878 23.4487 51.7421 23.4487 45.7511C23.4487 39.7601 25.8287 34.0145 30.065 29.7782C34.3013 25.5419 40.0469 23.1619 46.038 23.1619V23.1619Z" fill="#411C73"/>
<path d="M46.0376 25.4655L1130.32 25.4655C1135.42 25.895 1140.18 28.2259 1143.65 31.9965C1147.11 35.7672 1149.04 40.7025 1149.04 45.8246C1149.04 50.9467 1147.11 55.8819 1143.65 59.6526C1140.18 63.4232 1135.42 65.7541 1130.32 66.1836L46.0376 66.1836C40.9335 65.7541 36.1769 63.4232 32.7102 59.6526C29.2435 55.8819 27.3196 50.9467 27.3196 45.8246C27.3196 40.7025 29.2435 35.7672 32.7102 31.9965C36.1769 28.2259 40.9335 25.895 46.0376 25.4655V25.4655Z" fill="#481F7F"/>
<path d="M46.0371 26.0367L1130.32 26.0367C1132.91 26.0367 1135.47 26.5465 1137.86 27.5371C1140.26 28.5277 1142.43 29.9797 1144.26 31.8101C1146.09 33.6405 1147.54 35.8135 1148.53 38.205C1149.52 40.5965 1150.03 43.1597 1150.03 45.7483C1150.03 48.3369 1149.52 50.9001 1148.53 53.2916C1147.54 55.6831 1146.09 57.8561 1144.26 59.6865C1142.43 61.5169 1140.26 62.9689 1137.86 63.9595C1135.47 64.9501 1132.91 65.46 1130.32 65.46L46.0371 65.46C40.8092 65.46 35.7955 63.3831 32.0988 59.6865C28.4022 55.9899 26.3254 50.9761 26.3254 45.7483C26.3254 40.5205 28.4022 35.5067 32.0988 31.8101C35.7955 28.1135 40.8092 26.0367 46.0371 26.0367V26.0367Z" fill="#4E228A"/>
<path d="M46.0377 26.6184L1130.32 26.6184C1135.4 26.6184 1140.26 28.6345 1143.85 32.2232C1147.44 35.8119 1149.46 40.6793 1149.46 45.7545C1149.46 50.8297 1147.44 55.6971 1143.85 59.2858C1140.26 62.8745 1135.4 64.8906 1130.32 64.8906L46.0377 64.8906C40.9625 64.8906 36.0952 62.8745 32.5064 59.2858C28.9177 55.6971 26.9016 50.8297 26.9016 45.7545C26.9016 40.6793 28.9177 35.8119 32.5064 32.2232C36.0952 28.6345 40.9625 26.6184 46.0377 26.6184V26.6184Z" fill="#552496"/>
<path d="M46.0374 27.3356L1130.32 27.3356C1132.89 27.1091 1135.47 27.4188 1137.91 28.245C1140.35 29.0713 1142.59 30.396 1144.49 32.1349C1146.39 33.8738 1147.9 35.9888 1148.94 38.3456C1149.98 40.7023 1150.51 43.2492 1150.51 45.8242C1150.51 48.3993 1149.98 50.946 1148.94 53.3028C1147.9 55.6595 1146.39 57.7747 1144.49 59.5136C1142.59 61.2525 1140.35 62.5771 1137.91 63.4034C1135.47 64.2296 1132.89 64.5393 1130.32 64.3128L46.0374 64.3128C43.4724 64.5393 40.8882 64.2296 38.4494 63.4034C36.0105 62.5771 33.7702 61.2525 31.871 59.5136C29.9718 57.7747 28.4552 55.6595 27.4176 53.3028C26.3801 50.946 25.8442 48.3993 25.8442 45.8242C25.8442 43.2492 26.3801 40.7023 27.4176 38.3456C28.4552 35.9888 29.9718 33.8738 31.871 32.1349C33.7702 30.396 36.0105 29.0713 38.4494 28.245C40.8882 27.4188 43.4724 27.1091 46.0374 27.3356V27.3356Z" fill="#5B27A1"/>
<path d="M46.0355 27.9089L1130.32 27.9089C1135.05 27.9089 1139.59 29.7886 1142.93 33.1345C1146.28 36.4804 1148.16 41.0183 1148.16 45.7501C1148.16 50.4818 1146.28 55.0198 1142.93 58.3657C1139.59 61.7116 1135.05 63.5913 1130.32 63.5913L46.0355 63.5913C41.3037 63.5913 36.7658 61.7116 33.4199 58.3657C30.074 55.0198 28.1943 50.4818 28.1943 45.7501C28.1943 41.0183 30.074 36.4804 33.4199 33.1345C36.7658 29.7886 41.3037 27.9089 46.0355 27.9089V27.9089Z" fill="#622AAD"/>
<path d="M46.0359 28.9194L1130.32 28.9194C1134.9 28.9194 1139.29 30.7384 1142.53 33.9763C1145.77 37.2143 1147.58 41.6058 1147.58 46.185C1147.58 50.7641 1145.77 55.1558 1142.53 58.3937C1139.29 61.6316 1134.9 63.4507 1130.32 63.4507L46.0359 63.4507C41.4568 63.4507 37.0652 61.6316 33.8273 58.3937C30.5893 55.1558 28.7703 50.7641 28.7703 46.185C28.7703 41.6058 30.5893 37.2143 33.8273 33.9763C37.0652 30.7384 41.4568 28.9194 46.0359 28.9194Z" fill="#682DB8"/>
<path d="M46.0366 28.9181L1130.32 28.9181C1134.75 28.9181 1138.99 30.6766 1142.12 33.8066C1145.25 36.9366 1147.01 41.1818 1147.01 45.6083C1147.01 50.0348 1145.25 54.28 1142.12 57.41C1138.99 60.54 1134.75 62.2983 1130.32 62.2983L46.0366 62.2983C43.8448 62.2983 41.6745 61.8666 39.6495 61.0278C37.6246 60.1891 35.7847 58.9598 34.2349 57.41C32.685 55.8601 31.4557 54.0202 30.6169 51.9952C29.7781 49.9703 29.3464 47.8 29.3464 45.6083C29.3464 43.4165 29.7781 41.2461 30.6169 39.2212C31.4557 37.1962 32.685 35.3564 34.2349 33.8066C35.7847 32.2567 37.6246 31.0273 39.6495 30.1886C41.6745 29.3498 43.8448 28.9181 46.0366 28.9181V28.9181Z" fill="#6F2FC4"/>
<path d="M46.0372 29.7774L1130.32 29.7774C1134.31 30.1559 1138.02 32.0097 1140.72 34.9764C1143.42 37.9431 1144.91 41.8096 1144.91 45.8202C1144.91 49.8307 1143.42 53.6971 1140.72 56.6638C1138.02 59.6305 1134.31 61.4843 1130.32 61.8628L46.0372 61.8628C42.0446 61.4843 38.3366 59.6305 35.6378 56.6638C32.9391 53.6971 31.4436 49.8307 31.4436 45.8202C31.4436 41.8096 32.9391 37.9431 35.6378 34.9764C38.3366 32.0097 42.0446 30.1559 46.0372 29.7774V29.7774Z" fill="#7532CF"/>
<path d="M46.0378 30.3561L1130.32 30.3561C1134.4 30.3561 1138.32 31.9781 1141.21 34.8653C1144.09 37.7525 1145.72 41.6682 1145.72 45.7513C1145.72 49.8343 1144.09 53.7502 1141.21 56.6374C1138.32 59.5245 1134.4 61.1465 1130.32 61.1465L46.0378 61.1465C41.9547 61.1465 38.0389 59.5245 35.1517 56.6374C32.2646 53.7502 30.6426 49.8343 30.6426 45.7513C30.6426 41.6682 32.2646 37.7525 35.1517 34.8653C38.0389 31.9781 41.9547 30.3561 46.0378 30.3561V30.3561Z" fill="#7C35DB"/>
<path d="M46.0384 30.931L1130.32 30.931C1134.25 30.931 1138.02 32.4924 1140.8 35.2716C1143.58 38.0508 1145.14 41.8202 1145.14 45.7506C1145.14 49.6811 1143.58 53.4506 1140.8 56.2298C1138.02 59.009 1134.25 60.5703 1130.32 60.5703L46.0384 60.5703C42.108 60.5703 38.3386 59.009 35.5593 56.2298C32.7801 53.4506 31.2188 49.6811 31.2188 45.7506C31.2188 41.8202 32.7801 38.0508 35.5593 35.2716C38.3386 32.4924 42.108 30.931 46.0384 30.931V30.931Z" fill="#8238E6"/>
<path d="M46.0353 31.6536L1130.32 31.6536C1134.13 31.6536 1137.79 33.1695 1140.49 35.8677C1143.19 38.566 1144.71 42.2257 1144.71 46.0416C1144.71 49.8576 1143.19 53.5173 1140.49 56.2155C1137.79 58.9138 1134.13 60.4297 1130.32 60.4297L46.0353 60.4297C42.2193 60.4297 38.5597 58.9138 35.8614 56.2155C33.1631 53.5173 31.6472 49.8576 31.6472 46.0416C31.6472 42.2257 33.1631 38.566 35.8614 35.8677C38.5597 33.1695 42.2193 31.6536 46.0353 31.6536V31.6536Z" fill="#893AF2"/>
<path d="M46.0362 32.2279L1130.32 32.2279C1133.91 32.2279 1137.35 33.6527 1139.88 36.1891C1142.42 38.7255 1143.84 42.1656 1143.84 45.7525C1143.84 49.3395 1142.42 52.7796 1139.88 55.316C1137.35 57.8524 1133.91 59.2773 1130.32 59.2773L46.0362 59.2773C42.4492 59.2773 39.0092 57.8524 36.4728 55.316C33.9364 52.7796 32.5115 49.3395 32.5115 45.7525C32.5115 42.1656 33.9364 38.7255 36.4728 36.1891C39.0092 33.6527 42.4492 32.2279 46.0362 32.2279V32.2279Z" fill="#8F3DFD"/>
<path d="M46.0363 33.0926L1130.32 33.0926C1132.11 32.9025 1133.91 33.0902 1135.62 33.6434C1137.33 34.1967 1138.9 35.1033 1140.24 36.3041C1141.57 37.505 1142.64 38.9733 1143.37 40.6138C1144.1 42.2542 1144.48 44.0301 1144.48 45.8261C1144.48 47.622 1144.1 49.3979 1143.37 51.0384C1142.64 52.6788 1141.57 54.1471 1140.24 55.3479C1138.9 56.5488 1137.33 57.4553 1135.62 58.0086C1133.91 58.5618 1132.11 58.7495 1130.32 58.5594L46.0363 58.5594C44.2504 58.7495 42.4445 58.5618 40.7359 58.0086C39.0273 57.4553 37.4542 56.5488 36.1187 55.3479C34.7833 54.1471 33.7153 52.6788 32.9843 51.0384C32.2533 49.3979 31.8755 47.622 31.8755 45.8261C31.8755 44.0301 32.2533 42.2542 32.9843 40.6138C33.7153 38.9733 34.7833 37.505 36.1187 36.3041C37.4542 35.1033 39.0273 34.1967 40.7359 33.6434C42.4445 33.0902 44.2504 32.9025 46.0363 33.0926V33.0926Z" fill="#9447FD"/>
<path d="M46.0378 33.8126L1130.32 33.8126C1133.49 33.8126 1136.53 35.0708 1138.77 37.3103C1141 39.5499 1142.26 42.5874 1142.26 45.7547C1142.26 48.9219 1141 51.9594 1138.77 54.199C1136.53 56.4386 1133.49 57.6968 1130.32 57.6968L46.0378 57.6968C42.8705 57.6968 39.833 56.4386 37.5935 54.199C35.3539 51.9594 34.0957 48.9219 34.0957 45.7547C34.0957 42.5874 35.3539 39.5499 37.5935 37.3103C39.833 35.0708 42.8705 33.8126 46.0378 33.8126V33.8126Z" fill="#9A50FD"/>
<path d="M46.0385 34.6749L1130.32 34.6749C1133.26 34.6749 1136.08 35.8421 1138.16 37.9198C1140.23 39.9975 1141.4 42.8154 1141.4 45.7537C1141.4 48.6919 1140.23 51.5099 1138.16 53.5875C1136.08 55.6652 1133.26 56.8325 1130.32 56.8325L46.0385 56.8325C43.1002 56.8325 40.2823 55.6652 38.2046 53.5875C36.1269 51.5099 34.9597 48.6919 34.9597 45.7537C34.9597 42.8154 36.1269 39.9975 38.2046 37.9198C40.2823 35.8421 43.1002 34.6749 46.0385 34.6749V34.6749Z" fill="#9F5AFD"/>
<path d="M46.0359 35.534L1130.32 35.534C1132.84 35.8324 1135.16 37.0445 1136.84 38.9406C1138.53 40.8367 1139.46 43.2851 1139.46 45.8215C1139.46 48.3579 1138.53 50.8061 1136.84 52.7022C1135.16 54.5983 1132.84 55.8105 1130.32 56.1089L46.0359 56.1089C43.5171 55.8105 41.1953 54.5983 39.5105 52.7022C37.8258 50.8061 36.8953 48.3579 36.8953 45.8215C36.8953 43.2851 37.8258 40.8367 39.5105 38.9406C41.1953 37.0445 43.5171 35.8324 46.0359 35.534V35.534Z" fill="#A463FD"/>
<path d="M46.0366 36.2529L1130.32 36.2529C1132.84 36.2529 1135.25 37.2533 1137.03 39.0342C1138.82 40.8151 1139.82 43.2304 1139.82 45.749C1139.82 48.2675 1138.82 50.6828 1137.03 52.4637C1135.25 54.2446 1132.84 55.2451 1130.32 55.2451L46.0366 55.2451C44.7896 55.2451 43.5548 54.9995 42.4026 54.5223C41.2505 54.045 40.2037 53.3455 39.3219 52.4637C38.4401 51.5819 37.7406 50.5351 37.2634 49.383C36.7862 48.2308 36.5405 46.996 36.5405 45.749C36.5405 44.5019 36.7862 43.2671 37.2634 42.1149C37.7406 40.9628 38.4401 39.916 39.3219 39.0342C40.2037 38.1524 41.2505 37.453 42.4026 36.9757C43.5548 36.4985 44.7896 36.2529 46.0366 36.2529Z" fill="#A96DFD"/>
<path d="M46.0374 37.1221L1130.32 37.1221C1132.61 37.1221 1134.81 38.0316 1136.42 39.6506C1138.04 41.2695 1138.95 43.4653 1138.95 45.7549C1138.95 48.0445 1138.04 50.2402 1136.42 51.8592C1134.81 53.4782 1132.61 54.3877 1130.32 54.3877L46.0374 54.3877C43.7478 54.3877 41.552 53.4782 39.933 51.8592C38.3141 50.2402 37.4045 48.0445 37.4045 45.7549C37.4045 43.4653 38.3141 41.2695 39.933 39.6506C41.552 38.0316 43.7478 37.1221 46.0374 37.1221V37.1221Z" fill="#AF76FD"/>
<path d="M46.0383 37.9848L1130.32 37.9848C1132.38 37.9848 1134.36 38.8034 1135.82 40.2605C1137.27 41.7176 1138.09 43.6938 1138.09 45.7544C1138.09 47.815 1137.27 49.7912 1135.82 51.2482C1134.36 52.7053 1132.38 53.5239 1130.32 53.5239L46.0383 53.5239C45.018 53.5239 44.0077 53.3229 43.0651 52.9325C42.1224 52.542 41.2659 51.9697 40.5444 51.2482C39.823 50.5268 39.2507 49.6703 38.8602 48.7277C38.4698 47.785 38.2688 46.7747 38.2688 45.7544C38.2688 44.7341 38.4698 43.7237 38.8602 42.7811C39.2507 41.8384 39.823 40.982 40.5444 40.2605C41.2659 39.539 42.1224 38.9667 43.0651 38.5763C44.0077 38.1858 45.018 37.9848 46.0383 37.9848V37.9848Z" fill="#B480FD"/>
<path d="M46.0355 38.8439L1130.32 38.8439C1131.24 38.8247 1132.15 38.9891 1133.01 39.3276C1133.86 39.6661 1134.64 40.1718 1135.3 40.815C1135.95 41.4583 1136.47 42.2261 1136.83 43.0735C1137.19 43.9209 1137.37 44.8309 1137.37 45.7501C1137.37 47.6199 1136.63 49.4131 1135.3 50.7353C1133.98 52.0574 1132.19 52.8003 1130.32 52.8003L46.0355 52.8003C44.1657 52.8003 42.3724 52.0574 41.0503 50.7353C39.7281 49.4131 38.9854 47.6199 38.9854 45.7501C38.9852 44.8309 39.1684 43.9209 39.5245 43.0735C39.8805 42.2261 40.4021 41.4583 41.0588 40.815C41.7154 40.1718 42.4938 39.6661 43.3484 39.3276C44.203 38.9891 45.1165 38.8247 46.0355 38.8439V38.8439Z" fill="#B989FD"/>
<path d="M46.0362 39.5623L1130.32 39.5623C1131.96 39.5623 1133.53 40.2142 1134.69 41.3744C1135.85 42.5347 1136.51 44.1083 1136.51 45.7492C1136.51 47.39 1135.85 48.9637 1134.69 50.1239C1133.53 51.2842 1131.96 51.936 1130.32 51.936L46.0362 51.936C44.3954 51.936 42.8217 51.2842 41.6615 50.1239C40.5012 48.9637 39.8494 47.39 39.8494 45.7492C39.8494 44.1083 40.5012 42.5347 41.6615 41.3744C42.8217 40.2142 44.3954 39.5623 46.0362 39.5623V39.5623Z" fill="#BE93FD"/>
<path d="M46.0356 40.4299L1130.32 40.4299C1131.73 40.4299 1133.08 40.9908 1134.08 41.9891C1135.08 42.9875 1135.64 44.3415 1135.64 45.7534C1135.66 46.4579 1135.54 47.1591 1135.28 47.814C1135.02 48.4688 1134.63 49.0636 1134.13 49.562C1133.63 50.0603 1133.03 50.4518 1132.38 50.7123C1131.72 50.9728 1131.02 51.0969 1130.32 51.077L46.0356 51.077C45.3311 51.0969 44.63 50.9728 43.9751 50.7123C43.3202 50.4518 42.7254 50.0603 42.2271 49.562C41.7287 49.0636 41.3373 48.4688 41.0768 47.814C40.8163 47.1591 40.6922 46.4579 40.712 45.7534C40.712 44.3415 41.2729 42.9875 42.2713 41.9891C43.2696 40.9908 44.6237 40.4299 46.0356 40.4299V40.4299Z" fill="#C49CFD"/>
<path d="M46.0386 41.291L1130.32 41.291C1131.39 41.4813 1132.35 42.0396 1133.04 42.8681C1133.74 43.6967 1134.12 44.7428 1134.12 45.8233C1134.12 46.9038 1133.74 47.9498 1133.04 48.7784C1132.35 49.6069 1131.39 50.1652 1130.32 50.3555L46.0386 50.3555C44.975 50.1652 44.0121 49.6069 43.3186 48.7784C42.6251 47.9498 42.2451 46.9038 42.2451 45.8233C42.2451 44.7428 42.6251 43.6967 43.3186 42.8681C44.0121 42.0396 44.975 41.4813 46.0386 41.291V41.291Z" fill="#C9A6FD"/>
</g>
</svg>
