<svg width="1175" height="47" viewBox="0 0 1175 47" fill="none" xmlns="http://www.w3.org/2000/svg">
<g style="mix-blend-mode:screen">
<path d="M45.1785 1.11441e-06L1129.46 1.11441e-06C1141.44 1.11441e-06 1152.93 2.44202 1161.41 6.78882C1169.88 11.1356 1174.64 17.0312 1174.64 23.1785C1174.64 29.3258 1169.88 35.2213 1161.41 39.5681C1152.93 43.9149 1141.44 46.3569 1129.46 46.3569L45.1785 46.3569C33.1964 46.3569 21.7051 43.9149 13.2325 39.5681C4.75986 35.2213 0 29.3258 0 23.1785C0 17.0312 4.75986 11.1356 13.2325 6.78882C21.7051 2.44202 33.1964 1.11441e-06 45.1785 1.11441e-06V1.11441e-06Z" fill="black"/>
<path d="M45.177 1.40377L1129.46 1.40377C1140.91 1.40377 1151.89 3.73689 1159.98 7.88989C1168.08 12.0429 1172.62 17.6756 1172.62 23.5488C1172.62 29.422 1168.08 35.0547 1159.98 39.2077C1151.89 43.3607 1140.91 45.6938 1129.46 45.6938L45.177 45.6938C33.7291 45.6938 22.7502 43.3607 14.6553 39.2077C6.56046 35.0547 2.01282 29.422 2.01282 23.5488C2.01282 17.6756 6.56046 12.0429 14.6553 7.88989C22.7502 3.73689 33.7291 1.40377 45.177 1.40377V1.40377Z" fill="#07030C"/>
<path d="M45.1793 2.51117L1129.46 2.51117C1140.26 2.51117 1150.62 4.71209 1158.25 8.62976C1165.89 12.5474 1170.18 17.8609 1170.18 23.4013C1170.18 28.9418 1165.89 34.2553 1158.25 38.1729C1150.62 42.0906 1140.26 44.2915 1129.46 44.2915L45.1793 44.2915C34.3802 44.2915 24.0234 42.0906 16.3873 38.1729C8.75112 34.2553 4.46118 28.9418 4.46118 23.4013C4.46118 17.8609 8.75112 12.5474 16.3873 8.62976C24.0234 4.71209 34.3802 2.51117 45.1793 2.51117V2.51117Z" fill="#0D0617"/>
<path d="M45.178 3.69124L1129.46 3.69124C1139.65 3.69124 1149.42 5.76775 1156.63 9.46392C1163.83 13.1601 1167.88 18.1731 1167.88 23.4003C1167.88 28.6275 1163.83 33.6406 1156.63 37.3368C1149.42 41.0329 1139.65 43.1094 1129.46 43.1094L45.178 43.1094C34.9895 43.1094 25.2182 41.0329 18.0138 37.3368C10.8094 33.6406 6.76196 28.6275 6.76196 23.4003C6.76196 18.1731 10.8094 13.1601 18.0138 9.46392C25.2182 5.76775 34.9895 3.69124 45.178 3.69124V3.69124Z" fill="#140823"/>
<path d="M45.1772 4.8709L1129.46 4.8709C1138.22 5.4403 1146.27 7.62889 1152.1 11.0263C1157.94 14.4238 1161.16 18.7967 1161.16 23.3251C1161.16 27.8535 1157.94 32.2264 1152.1 35.6238C1146.27 39.0213 1138.22 41.2099 1129.46 41.7793L45.1772 41.7793C36.4206 41.2099 28.3696 39.0213 22.5338 35.6238C16.698 32.2264 13.4783 27.8535 13.4783 23.3251C13.4783 18.7967 16.698 14.4238 22.5338 11.0263C28.3696 7.62889 36.4206 5.4403 45.1772 4.8709V4.8709Z" fill="#1A0B2E"/>
<path d="M45.1785 6.05232L1129.46 6.05232C1134.1 5.89727 1138.75 6.23184 1143.12 7.03529C1147.49 7.83875 1151.5 9.094 1154.89 10.7234C1158.28 12.3529 1160.98 14.3218 1162.83 16.5084C1164.67 18.6951 1165.63 21.053 1165.63 23.4362C1165.63 25.8194 1164.67 28.1773 1162.83 30.3639C1160.98 32.5506 1158.28 34.5195 1154.89 36.1489C1151.5 37.7784 1147.49 39.0336 1143.12 39.8371C1138.75 40.6405 1134.1 40.9751 1129.46 40.82L45.1785 40.82C40.5431 40.9751 35.895 40.6405 31.5217 39.8371C27.1485 39.0336 23.143 37.7784 19.7532 36.1489C16.3633 34.5195 13.6612 32.5506 11.8139 30.3639C9.96667 28.1773 9.01355 25.8194 9.01355 23.4362C9.01355 21.053 9.96667 18.6951 11.8139 16.5084C13.6612 14.3218 16.3633 12.3529 19.7532 10.7234C23.143 9.094 27.1485 7.83875 31.5217 7.03529C35.895 6.23184 40.5431 5.89727 45.1785 6.05232V6.05232Z" fill="#210E3A"/>
<path d="M45.1776 7.38242L1129.46 7.38242C1137.86 7.38242 1145.91 9.09337 1151.84 12.1389C1157.78 15.1844 1161.11 19.3151 1161.11 23.6221C1161.11 27.9291 1157.78 32.0598 1151.84 35.1053C1145.91 38.1509 1137.86 39.8618 1129.46 39.8618L45.1776 39.8618C36.7825 39.8618 28.7313 38.1509 22.7951 35.1053C16.8589 32.0598 13.5239 27.9291 13.5239 23.6221C13.5239 19.3151 16.8589 15.1844 22.7951 12.1389C28.7313 9.09337 36.7825 7.38242 45.1776 7.38242Z" fill="#271145"/>
<path d="M45.1799 8.34221L1129.46 8.34221C1137.25 8.34221 1144.71 9.92875 1150.22 12.7528C1155.72 15.5768 1158.81 19.407 1158.81 23.4008C1158.81 27.3946 1155.72 31.2249 1150.22 34.0489C1144.71 36.8729 1137.25 38.4595 1129.46 38.4595L45.1799 38.4595C37.3953 38.4595 29.9296 36.8729 24.4251 34.0489C18.9206 31.2249 15.8282 27.3946 15.8282 23.4008C15.8282 19.407 18.9206 15.5768 24.4251 12.7528C29.9296 9.92875 37.3953 8.34221 45.1799 8.34221Z" fill="#2E1451"/>
<path d="M45.1776 9.52335L1129.46 9.52335C1133.19 9.38396 1136.93 9.64032 1140.46 10.2764C1143.98 10.9125 1147.22 11.9147 1149.95 13.2204C1152.69 14.5261 1154.87 16.1073 1156.37 17.8653C1157.86 19.6233 1158.63 21.5203 1158.63 23.4378C1158.63 25.3554 1157.86 27.2523 1156.37 29.0103C1154.87 30.7683 1152.69 32.3494 1149.95 33.6552C1147.22 34.9609 1143.98 35.9631 1140.46 36.5992C1136.93 37.2353 1133.19 37.4916 1129.46 37.3523L45.1776 37.3523C41.4498 37.4916 37.7061 37.2353 34.1801 36.5992C30.6541 35.9631 27.4216 34.9609 24.6843 33.6552C21.947 32.3494 19.7637 30.7683 18.2708 29.0103C16.7779 27.2523 16.0074 25.3554 16.0074 23.4378C16.0074 21.5203 16.7779 19.6233 18.2708 17.8653C19.7637 16.1073 21.947 14.5261 24.6843 13.2204C27.4216 11.9147 30.6541 10.9125 34.1801 10.2764C37.7061 9.64032 41.4498 9.38396 45.1776 9.52335V9.52335Z" fill="#34175C"/>
<path d="M45.1772 10.6303L1129.46 10.6303C1136.06 10.6303 1142.39 11.9757 1147.06 14.3706C1151.73 16.7655 1154.35 20.0137 1154.35 23.4006C1154.35 26.7875 1151.73 30.0357 1147.06 32.4306C1142.39 34.8255 1136.06 36.1709 1129.46 36.1709L45.1772 36.1709C38.5756 36.1709 32.2444 34.8255 27.5764 32.4306C22.9084 30.0357 20.2859 26.7875 20.2859 23.4006C20.2859 20.0137 22.9084 16.7655 27.5764 14.3706C32.2444 11.9757 38.5756 10.6303 45.1772 10.6303V10.6303Z" fill="#3B1968"/>
<path d="M45.1794 11.8103L1129.46 11.8103C1135.45 11.8103 1141.2 13.0313 1145.44 15.2047C1149.67 17.3781 1152.05 20.3259 1152.05 23.3995C1152.05 26.4732 1149.67 29.421 1145.44 31.5944C1141.2 33.7678 1135.45 34.9888 1129.46 34.9888L45.1794 34.9888C39.1884 34.9888 33.4427 33.7678 29.2064 31.5944C24.9701 29.421 22.5902 26.4732 22.5902 23.3995C22.5902 20.3259 24.9701 17.3781 29.2064 15.2047C33.4427 13.0313 39.1884 11.8103 45.1794 11.8103V11.8103Z" fill="#411C73"/>
<path d="M45.1792 12.9917L1129.46 12.9917C1134.57 13.2121 1139.32 14.4079 1142.79 16.3424C1146.26 18.2769 1148.18 20.809 1148.18 23.4368C1148.18 26.0647 1146.26 28.5966 1142.79 30.5312C1139.32 32.4657 1134.57 33.6615 1129.46 33.8818L45.1792 33.8818C40.0751 33.6615 35.3185 32.4657 31.8518 30.5312C28.3851 28.5966 26.4612 26.0647 26.4612 23.4368C26.4612 20.809 28.3851 18.2769 31.8518 16.3424C35.3185 14.4079 40.0751 13.2121 45.1792 12.9917V12.9917Z" fill="#481F7F"/>
<path d="M45.1788 13.2854L1129.46 13.2854C1132.05 13.2854 1134.61 13.547 1137.01 14.0552C1139.4 14.5634 1141.57 15.3084 1143.4 16.2474C1145.23 17.1865 1146.68 18.3013 1147.67 19.5283C1148.66 20.7552 1149.17 22.0703 1149.17 23.3983C1149.17 24.7264 1148.66 26.0414 1147.67 27.2684C1146.68 28.4953 1145.23 29.6101 1143.4 30.5492C1141.57 31.4883 1139.4 32.2332 1137.01 32.7414C1134.61 33.2496 1132.05 33.5112 1129.46 33.5112L45.1788 33.5112C39.9509 33.5112 34.9372 32.4457 31.2406 30.5492C27.5439 28.6527 25.4672 26.0804 25.4672 23.3983C25.4672 20.7162 27.5439 18.144 31.2406 16.2474C34.9372 14.3509 39.9509 13.2854 45.1788 13.2854V13.2854Z" fill="#4E228A"/>
<path d="M45.1793 13.5835L1129.46 13.5835C1134.54 13.5835 1139.4 14.6178 1142.99 16.459C1146.58 18.3001 1148.6 20.7973 1148.6 23.4011C1148.6 26.0049 1146.58 28.5021 1142.99 30.3432C1139.4 32.1844 1134.54 33.2187 1129.46 33.2188L45.1793 33.2188C40.1041 33.2187 35.2368 32.1844 31.6481 30.3432C28.0593 28.5021 26.0432 26.0049 26.0432 23.4011C26.0432 20.7973 28.0593 18.3001 31.6481 16.459C35.2368 14.6178 40.1041 13.5835 45.1793 13.5835V13.5835Z" fill="#552496"/>
<path d="M45.179 13.9521L1129.46 13.9521C1132.03 13.8359 1134.61 13.9948 1137.05 14.4187C1139.49 14.8426 1141.73 15.5223 1143.63 16.4144C1145.53 17.3065 1147.04 18.3916 1148.08 19.6008C1149.12 20.8099 1149.66 22.1165 1149.66 23.4376C1149.66 24.7587 1149.12 26.0653 1148.08 27.2744C1147.04 28.4835 1145.53 29.5687 1143.63 30.4608C1141.73 31.353 1139.49 32.0326 1137.05 32.4565C1134.61 32.8804 1132.03 33.0393 1129.46 32.9231L45.179 32.9231C42.614 33.0393 40.0298 32.8804 37.591 32.4565C35.1521 32.0326 32.9118 31.353 31.0126 30.4608C29.1134 29.5687 27.5968 28.4835 26.5592 27.2744C25.5217 26.0653 24.9858 24.7587 24.9858 23.4376C24.9858 22.1165 25.5217 20.8099 26.5592 19.6008C27.5968 18.3916 29.1134 17.3065 31.0126 16.4144C32.9118 15.5223 35.1521 14.8426 37.591 14.4187C40.0298 13.9948 42.614 13.8359 45.179 13.9521V13.9521Z" fill="#5B27A1"/>
<path d="M45.1771 14.2461L1129.46 14.2461C1134.19 14.2461 1138.73 15.2105 1142.08 16.9271C1145.42 18.6437 1147.3 20.9718 1147.3 23.3994C1147.3 25.827 1145.42 28.1552 1142.08 29.8718C1138.73 31.5884 1134.19 32.5527 1129.46 32.5527L45.1771 32.5527C40.4453 32.5527 35.9074 31.5884 32.5615 29.8718C29.2156 28.1552 27.3359 25.827 27.3359 23.3994C27.3359 20.9718 29.2156 18.6437 32.5615 16.9271C35.9074 15.2105 40.4453 14.2461 45.1771 14.2461V14.2461Z" fill="#622AAD"/>
<path d="M45.1776 14.7644L1129.46 14.7644C1134.04 14.7644 1138.43 15.6977 1141.67 17.3589C1144.91 19.0201 1146.73 21.2731 1146.73 23.6224C1146.73 25.9717 1144.91 28.2248 1141.67 29.886C1138.43 31.5472 1134.04 32.4805 1129.46 32.4805L45.1776 32.4805C40.5985 32.4805 36.2069 31.5472 32.969 29.886C29.731 28.2248 27.912 25.9717 27.912 23.6224C27.912 21.2731 29.731 19.0201 32.969 17.3589C36.2069 15.6977 40.5985 14.7644 45.1776 14.7644Z" fill="#682DB8"/>
<path d="M45.1782 14.7632L1129.46 14.7632C1133.89 14.7632 1138.13 15.6653 1141.26 17.2712C1144.39 18.877 1146.15 21.055 1146.15 23.326C1146.15 25.5969 1144.39 27.7749 1141.26 29.3807C1138.13 30.9866 1133.89 31.8887 1129.46 31.8887L45.1782 31.8887C42.9864 31.8887 40.8161 31.6672 38.7911 31.2369C36.7662 30.8065 34.9263 30.1759 33.3765 29.3807C31.8266 28.5856 30.5973 27.6416 29.7585 26.6027C28.9197 25.5639 28.488 24.4504 28.488 23.326C28.488 22.2015 28.9197 21.088 29.7585 20.0491C30.5973 19.0102 31.8266 18.0663 33.3765 17.2712C34.9263 16.4761 36.7662 15.8453 38.7911 15.415C40.8161 14.9847 42.9864 14.7632 45.1782 14.7632V14.7632Z" fill="#6F2FC4"/>
<path d="M45.1787 15.2044L1129.46 15.2044C1133.45 15.3986 1137.16 16.3496 1139.86 17.8717C1142.56 19.3937 1144.06 21.3774 1144.06 23.435C1144.06 25.4926 1142.56 27.4762 1139.86 28.9982C1137.16 30.5203 1133.45 31.4713 1129.46 31.6655L45.1787 31.6655C41.1861 31.4713 37.4781 30.5203 34.7793 28.9982C32.0806 27.4762 30.5851 25.4926 30.5851 23.435C30.5851 21.3774 32.0806 19.3937 34.7793 17.8717C37.4781 16.3496 41.1861 15.3986 45.1787 15.2044V15.2044Z" fill="#7532CF"/>
<path d="M45.1794 15.5016L1129.46 15.5016C1133.55 15.5016 1137.46 16.3337 1140.35 17.815C1143.24 19.2962 1144.86 21.3052 1144.86 23.3999C1144.86 25.4947 1143.24 27.5037 1140.35 28.985C1137.46 30.4662 1133.55 31.2983 1129.46 31.2983L45.1794 31.2983C41.0963 31.2983 37.1805 30.4662 34.2933 28.985C31.4062 27.5037 29.7842 25.4947 29.7842 23.3999C29.7842 21.3052 31.4062 19.2962 34.2933 17.815C37.1805 16.3337 41.0963 15.5016 45.1794 15.5016V15.5016Z" fill="#7C35DB"/>
<path d="M45.18 15.7962L1129.46 15.7962C1133.39 15.7962 1137.16 16.5973 1139.94 18.0231C1142.72 19.449 1144.28 21.3828 1144.28 23.3993C1144.28 25.4158 1142.72 27.3497 1139.94 28.7756C1137.16 30.2014 1133.39 31.0024 1129.46 31.0024L45.18 31.0024C41.2496 31.0024 37.4802 30.2014 34.7009 28.7756C31.9217 27.3497 30.3604 25.4158 30.3604 23.3993C30.3604 21.3828 31.9217 19.449 34.7009 18.0231C37.4802 16.5973 41.2496 15.7962 45.18 15.7962V15.7962Z" fill="#8238E6"/>
<path d="M45.1769 16.1668L1129.46 16.1668C1133.28 16.1668 1136.94 16.9445 1139.63 18.3289C1142.33 19.7132 1143.85 21.5908 1143.85 23.5485C1143.85 25.5062 1142.33 27.3838 1139.63 28.7681C1136.94 30.1525 1133.28 30.9302 1129.46 30.9302L45.1769 30.9302C41.3609 30.9302 37.7013 30.1525 35.003 28.7681C32.3047 27.3838 30.7888 25.5062 30.7888 23.5485C30.7888 21.5908 32.3047 19.7132 35.003 18.3289C37.7013 16.9445 41.3609 16.1668 45.1769 16.1668V16.1668Z" fill="#893AF2"/>
<path d="M45.1777 16.4613L1129.46 16.4613C1133.05 16.4613 1136.49 17.1923 1139.02 18.4936C1141.56 19.7949 1142.99 21.5598 1142.99 23.4001C1142.99 25.2403 1141.56 27.0053 1139.02 28.3065C1136.49 29.6078 1133.05 30.3389 1129.46 30.3389L45.1777 30.3389C41.5907 30.3389 38.1506 29.6078 35.6143 28.3065C33.0779 27.0053 31.653 25.2403 31.653 23.4001C31.653 21.5598 33.0779 19.7949 35.6143 18.4936C38.1506 17.1923 41.5907 16.4613 45.1777 16.4613V16.4613Z" fill="#8F3DFD"/>
<path d="M45.178 16.9054L1129.46 16.9054C1131.25 16.8078 1133.05 16.9041 1134.76 17.188C1136.47 17.4718 1138.04 17.9369 1139.38 18.553C1140.71 19.1691 1141.78 19.9224 1142.51 20.764C1143.24 21.6056 1143.62 22.5167 1143.62 23.4382C1143.62 24.3596 1143.24 25.2707 1142.51 26.1123C1141.78 26.9539 1140.71 27.7072 1139.38 28.3233C1138.04 28.9394 1136.47 29.4044 1134.76 29.6883C1133.05 29.9722 1131.25 30.0684 1129.46 29.9709L45.178 29.9709C43.3922 30.0684 41.5863 29.9722 39.8776 29.6883C38.169 29.4044 36.5959 28.9394 35.2605 28.3233C33.925 27.7072 32.8571 26.9539 32.126 26.1123C31.395 25.2707 31.0172 24.3596 31.0172 23.4382C31.0172 22.5167 31.395 21.6056 32.126 20.764C32.8571 19.9224 33.925 19.1691 35.2605 18.553C36.5959 17.9369 38.169 17.4718 39.8776 17.188C41.5863 16.9041 43.3922 16.8078 45.178 16.9054V16.9054Z" fill="#9447FD"/>
<path d="M45.1793 17.2747L1129.46 17.2747C1132.63 17.2747 1135.67 17.9202 1137.91 19.0692C1140.15 20.2182 1141.4 21.7766 1141.4 23.4015C1141.4 25.0264 1140.15 26.5848 1137.91 27.7338C1135.67 28.8828 1132.63 29.5283 1129.46 29.5283L45.1793 29.5283C42.012 29.5283 38.9745 28.8828 36.7349 27.7338C34.4954 26.5848 33.2372 25.0264 33.2372 23.4015C33.2372 21.7766 34.4954 20.2182 36.7349 19.0692C38.9745 17.9202 42.012 17.2747 45.1793 17.2747V17.2747Z" fill="#9A50FD"/>
<path d="M45.1801 17.7172L1129.46 17.7172C1132.4 17.7172 1135.22 18.316 1137.3 19.3819C1139.37 20.4479 1140.54 21.8936 1140.54 23.401C1140.54 24.9085 1139.37 26.3542 1137.3 27.4202C1135.22 28.4861 1132.4 29.085 1129.46 29.085L45.1801 29.085C42.2418 29.085 39.4239 28.4861 37.3462 27.4202C35.2685 26.3542 34.1013 24.9085 34.1013 23.401C34.1013 21.8936 35.2685 20.4479 37.3462 19.3819C39.4239 18.316 42.2418 17.7172 45.1801 17.7172V17.7172Z" fill="#9F5AFD"/>
<path d="M45.1775 18.1576L1129.46 18.1576C1131.98 18.3107 1134.3 18.9326 1135.99 19.9053C1137.67 20.8781 1138.6 22.1342 1138.6 23.4355C1138.6 24.7368 1137.67 25.9928 1135.99 26.9656C1134.3 27.9384 1131.98 28.5603 1129.46 28.7134L45.1775 28.7134C42.6587 28.5603 40.3369 27.9384 38.6521 26.9656C36.9674 25.9928 36.0369 24.7368 36.0369 23.4355C36.0369 22.1342 36.9674 20.8781 38.6521 19.9053C40.3369 18.9326 42.6587 18.3107 45.1775 18.1576V18.1576Z" fill="#A463FD"/>
<path d="M45.1782 18.5267L1129.46 18.5267C1131.98 18.5267 1134.4 19.04 1136.18 19.9536C1137.96 20.8673 1138.96 22.1065 1138.96 23.3986C1138.96 24.6907 1137.96 25.9299 1136.18 26.8435C1134.4 27.7572 1131.98 28.2705 1129.46 28.2705L45.1782 28.2705C43.9312 28.2705 42.6964 28.1445 41.5442 27.8997C40.3921 27.6548 39.3453 27.2959 38.4635 26.8435C37.5817 26.3911 36.8822 25.8541 36.405 25.263C35.9278 24.6719 35.6821 24.0384 35.6821 23.3986C35.6821 22.7588 35.9278 22.1253 36.405 21.5342C36.8822 20.9431 37.5817 20.406 38.4635 19.9536C39.3453 19.5012 40.3921 19.1424 41.5442 18.8975C42.6964 18.6527 43.9312 18.5267 45.1782 18.5267Z" fill="#A96DFD"/>
<path d="M45.179 18.9726L1129.46 18.9726C1131.75 18.9726 1133.95 19.4392 1135.57 20.2698C1137.19 21.1004 1138.09 22.2269 1138.09 23.4016C1138.09 24.5762 1137.19 25.7027 1135.57 26.5333C1133.95 27.3639 1131.75 27.8306 1129.46 27.8306L45.179 27.8306C42.8894 27.8306 40.6936 27.3639 39.0746 26.5333C37.4557 25.7027 36.5461 24.5762 36.5461 23.4016C36.5461 22.2269 37.4557 21.1004 39.0746 20.2698C40.6936 19.4392 42.8894 18.9726 45.179 18.9726V18.9726Z" fill="#AF76FD"/>
<path d="M45.1798 19.4155L1129.46 19.4155C1131.52 19.4155 1133.5 19.8355 1134.96 20.583C1136.41 21.3305 1137.23 22.3444 1137.23 23.4016C1137.23 24.4588 1136.41 25.4726 1134.96 26.2202C1133.5 26.9677 1131.52 27.3877 1129.46 27.3877L45.1798 27.3877C44.1595 27.3877 43.1492 27.2846 42.2065 27.0843C41.2639 26.8839 40.4074 26.5903 39.6859 26.2202C38.9645 25.85 38.3922 25.4106 38.0017 24.927C37.6112 24.4434 37.4103 23.925 37.4103 23.4016C37.4103 22.8781 37.6112 22.3598 38.0017 21.8762C38.3922 21.3925 38.9645 20.9531 39.6859 20.583C40.4074 20.2128 41.2639 19.9192 42.2065 19.7189C43.1492 19.5186 44.1595 19.4155 45.1798 19.4155V19.4155Z" fill="#B480FD"/>
<path d="M45.1771 19.8559L1129.46 19.8559C1130.38 19.8461 1131.29 19.9304 1132.15 20.1041C1133 20.2777 1133.78 20.5372 1134.44 20.8672C1135.09 21.1972 1135.62 21.5911 1135.97 22.0259C1136.33 22.4606 1136.51 22.9275 1136.51 23.3991C1136.51 24.3583 1135.77 25.2783 1134.45 25.9567C1133.12 26.635 1131.33 27.0161 1129.46 27.0161L45.1771 27.0161C43.3073 27.0161 41.514 26.635 40.1919 25.9567C38.8697 25.2783 38.127 24.3583 38.127 23.3991C38.1268 22.9275 38.3101 22.4606 38.6661 22.0259C39.0221 21.5911 39.5437 21.1972 40.2004 20.8672C40.857 20.5372 41.6354 20.2777 42.49 20.1041C43.3446 19.9304 44.2581 19.8461 45.1771 19.8559V19.8559Z" fill="#B989FD"/>
<path d="M45.1779 20.2245L1129.46 20.2245C1131.1 20.2245 1132.68 20.5589 1133.84 21.1542C1135 21.7495 1135.65 22.5568 1135.65 23.3986C1135.65 24.2405 1135 25.0478 1133.84 25.6431C1132.68 26.2383 1131.1 26.5728 1129.46 26.5728L45.1779 26.5728C43.5371 26.5728 41.9634 26.2383 40.8032 25.6431C39.6429 25.0478 38.9911 24.2405 38.9911 23.3986C38.9911 22.5568 39.6429 21.7495 40.8032 21.1542C41.9634 20.5589 43.5371 20.2245 45.1779 20.2245V20.2245Z" fill="#BE93FD"/>
<path d="M45.1773 20.6693L1129.46 20.6693C1130.87 20.6693 1132.23 20.9571 1133.22 21.4693C1134.22 21.9815 1134.78 22.6762 1134.78 23.4005C1134.8 23.762 1134.68 24.1217 1134.42 24.4577C1134.16 24.7936 1133.77 25.0988 1133.27 25.3545C1132.77 25.6101 1132.18 25.811 1131.52 25.9446C1130.87 26.0783 1130.16 26.1419 1129.46 26.1318L45.1773 26.1318C44.4728 26.1419 43.7717 26.0783 43.1168 25.9446C42.4619 25.811 41.8671 25.6101 41.3688 25.3545C40.8704 25.0988 40.479 24.7936 40.2185 24.4577C39.958 24.1217 39.8339 23.762 39.8537 23.4005C39.8537 22.6762 40.4146 21.9815 41.413 21.4693C42.4113 20.9571 43.7654 20.6693 45.1773 20.6693V20.6693Z" fill="#C49CFD"/>
<path d="M45.1848 21.1118L1130.79 21.1118C1131.85 21.2094 1132.82 21.4958 1133.51 21.9209C1134.21 22.346 1134.59 22.8827 1134.59 23.437C1134.59 23.9914 1134.21 24.528 1133.51 24.9531C1132.82 25.3782 1131.85 25.6646 1130.79 25.7622L45.1848 25.7622C44.1199 25.6646 43.1559 25.3782 42.4615 24.9531C41.7672 24.528 41.3867 23.9914 41.3867 23.437C41.3867 22.8827 41.7672 22.346 42.4615 21.9209C43.1559 21.4958 44.1199 21.2094 45.1848 21.1118V21.1118Z" fill="#C9A6FD"/>
</g>
</svg>
