<svg width="92" height="1171" viewBox="0 0 92 1171" fill="none" xmlns="http://www.w3.org/2000/svg">
<g style="mix-blend-mode:screen">
<path d="M91.2408 43.176V1127.46C90.5887 1139.02 85.5371 1149.89 77.1226 1157.84C68.7081 1165.8 57.5687 1170.23 45.9903 1170.23C34.412 1170.23 23.2727 1165.8 14.8582 1157.84C6.4437 1149.89 1.3921 1139.02 0.73999 1127.46V43.176C1.3921 31.616 6.4437 20.744 14.8582 12.7907C23.2727 4.83751 34.412 0.40625 45.9903 0.40625C57.5687 0.40625 68.7081 4.83751 77.1226 12.7907C85.5371 20.744 90.5887 31.616 91.2408 43.176Z" fill="black"/>
<path d="M88.9372 43.1768V1127.46C88.9372 1138.91 84.3896 1149.89 76.2947 1157.98C68.1999 1166.08 57.2209 1170.62 45.773 1170.62C34.3252 1170.62 23.3462 1166.08 15.2513 1157.98C7.15649 1149.89 2.60889 1138.91 2.60889 1127.46V43.1768C2.60889 31.729 7.15649 20.75 15.2513 12.6552C23.3462 4.56034 34.3252 0.0126953 45.773 0.0126953C57.2209 0.0126953 68.1999 4.56034 76.2947 12.6552C84.3896 20.75 88.9372 31.729 88.9372 43.1768Z" fill="#030C07"/>
<path d="M86.6359 43.1783V1127.46C86.9657 1133 86.159 1138.55 84.2655 1143.77C82.3719 1148.99 79.4315 1153.76 75.6248 1157.8C71.8181 1161.84 67.2255 1165.06 62.1292 1167.26C57.0329 1169.46 51.5406 1170.6 45.9896 1170.6C40.4387 1170.6 34.9463 1169.46 29.85 1167.26C24.7538 1165.06 20.1613 1161.84 16.3546 1157.8C12.5478 1153.76 9.60729 1148.99 7.71374 1143.77C5.82019 1138.55 5.01361 1133 5.34343 1127.46V43.1783C5.01361 37.6372 5.82019 32.0871 7.71374 26.8691C9.60729 21.6511 12.5478 16.8754 16.3546 12.8353C20.1613 8.79528 24.7538 5.57625 29.85 3.376C34.9463 1.17576 40.4387 0.0407715 45.9896 0.0407715C51.5406 0.0407715 57.0329 1.17576 62.1292 3.376C67.2255 5.57625 71.8181 8.79528 75.6248 12.8353C79.4315 16.8754 82.3719 21.6511 84.2655 26.8691C86.159 32.0871 86.9657 37.6372 86.6359 43.1783Z" fill="#07170E"/>
<path d="M84.4782 43.178V1127.46C84.4782 1137.65 80.4308 1147.42 73.2264 1154.63C66.0219 1161.83 56.2507 1165.88 46.0622 1165.88C35.8736 1165.88 26.1023 1161.83 18.8979 1154.63C11.6934 1147.42 7.646 1137.65 7.646 1127.46V43.178C7.646 32.9895 11.6934 23.2182 18.8979 16.0138C26.1023 8.80937 35.8736 4.76196 46.0622 4.76196C56.2507 4.76196 66.0219 8.80937 73.2264 16.0138C80.4308 23.2182 84.4782 32.9895 84.4782 43.178Z" fill="#0A2316"/>
<path d="M82.1787 43.1772V1127.46C81.0689 1136.22 76.803 1144.27 70.1809 1150.1C63.5588 1155.94 55.0352 1159.16 46.2086 1159.16C37.382 1159.16 28.8586 1155.94 22.2365 1150.1C15.6144 1144.27 11.3484 1136.22 10.2385 1127.46V43.1772C11.3484 34.4206 15.6144 26.3696 22.2365 20.5338C28.8586 14.698 37.382 11.4783 46.2086 11.4783C55.0352 11.4783 63.5588 14.698 70.1809 20.5338C76.803 26.3696 81.0689 34.4206 82.1787 43.1772Z" fill="#0D2E1D"/>
<path d="M79.8765 43.1786V1127.46C80.1787 1132.1 79.5266 1136.75 77.9605 1141.12C76.3945 1145.49 73.9478 1149.5 70.7718 1152.89C67.5957 1156.28 63.7579 1158.98 59.4958 1160.83C55.2336 1162.67 50.6378 1163.63 45.9926 1163.63C41.3474 1163.63 36.7516 1162.67 32.4894 1160.83C28.2273 1158.98 24.3896 1156.28 21.2135 1152.89C18.0375 1149.5 15.5907 1145.49 14.0247 1141.12C12.4586 1136.75 11.8066 1132.1 12.1088 1127.46V43.1786C11.8066 38.5432 12.4586 33.8951 14.0247 29.5219C15.5907 25.1486 18.0375 21.1431 21.2135 17.7533C24.3896 14.3634 28.2273 11.6613 32.4894 9.81405C36.7516 7.96679 41.3474 7.01367 45.9926 7.01367C50.6378 7.01367 55.2336 7.96679 59.4958 9.81405C63.7579 11.6613 67.5957 14.3634 70.7718 17.7533C73.9478 21.1431 76.3945 25.1486 77.9605 29.5219C79.5266 33.8951 80.1787 38.5432 79.8765 43.1786Z" fill="#103A24"/>
<path d="M77.719 43.1776V1127.46C77.719 1135.86 74.3841 1143.91 68.4479 1149.84C62.5117 1155.78 54.4605 1159.11 46.0654 1159.11C37.6703 1159.11 29.619 1155.78 23.6828 1149.84C17.7465 1143.91 14.4116 1135.86 14.4116 1127.46V43.1776C14.4116 34.7825 17.7465 26.7313 23.6828 20.7951C29.619 14.8589 37.6703 11.5239 46.0654 11.5239C54.4605 11.5239 62.5117 14.8589 68.4479 20.7951C74.3841 26.7313 77.719 34.7825 77.719 43.1776Z" fill="#14452B"/>
<path d="M75.4154 43.1779V1127.46C75.4154 1135.26 72.3155 1142.75 66.7975 1148.27C61.2795 1153.78 53.7955 1156.88 45.9919 1156.88C38.1883 1156.88 30.7043 1153.78 25.1863 1148.27C19.6684 1142.75 16.5684 1135.26 16.5684 1127.46V43.1779C16.5684 35.3743 19.6684 27.8903 25.1863 22.3724C30.7043 16.8544 38.1883 13.7544 45.9919 13.7544C53.7955 13.7544 61.2795 16.8544 66.7975 22.3724C72.3155 27.8903 75.4154 35.3743 75.4154 43.1779Z" fill="#175132"/>
<path d="M73.1102 43.1774V1127.46C73.3819 1131.19 72.8822 1134.93 71.6424 1138.46C70.4025 1141.98 68.4491 1145.22 65.904 1147.95C63.359 1150.69 60.277 1152.87 56.8505 1154.37C53.4239 1155.86 49.7264 1156.63 45.9887 1156.63C42.2511 1156.63 38.5537 1155.86 35.1271 1154.37C31.7006 1152.87 28.6186 1150.69 26.0736 1147.95C23.5285 1145.22 21.575 1141.98 20.3351 1138.46C19.0953 1134.93 18.5957 1131.19 18.8674 1127.46V43.1774C18.5957 39.4497 19.0953 35.706 20.3351 32.18C21.575 28.654 23.5285 25.4214 26.0736 22.6841C28.6186 19.9469 31.7006 17.7636 35.1271 16.2707C38.5537 14.7778 42.2511 14.0073 45.9887 14.0073C49.7264 14.0073 53.4239 14.7778 56.8505 16.2707C60.277 17.7636 63.359 19.9469 65.904 22.6841C68.4491 25.4214 70.4025 28.654 71.6424 32.18C72.8822 35.706 73.3819 39.4497 73.1102 43.1774Z" fill="#1A5C39"/>
<path d="M70.9525 43.1772V1127.46C70.9525 1134.06 68.3301 1140.39 63.662 1145.06C58.994 1149.73 52.6629 1152.35 46.0613 1152.35C39.4597 1152.35 33.1285 1149.73 28.4604 1145.06C23.7924 1140.39 21.1699 1134.06 21.1699 1127.46V43.1772C21.1699 36.5756 23.7924 30.2444 28.4604 25.5764C33.1285 20.9084 39.4597 18.2859 46.0613 18.2859C52.6629 18.2859 58.994 20.9084 63.662 25.5764C68.3301 30.2444 70.9525 36.5756 70.9525 43.1772Z" fill="#1D6841"/>
<path d="M68.6528 43.1759V1127.46C68.6528 1133.45 66.2728 1139.2 62.0365 1143.43C57.8002 1147.67 52.0546 1150.05 46.0636 1150.05C40.0726 1150.05 34.3268 1147.67 30.0905 1143.43C25.8542 1139.2 23.4744 1133.45 23.4744 1127.46V43.1759C23.4744 37.1849 25.8542 31.4392 30.0905 27.2029C34.3268 22.9666 40.0726 20.5867 46.0636 20.5867C52.0546 20.5867 57.8002 22.9666 62.0365 27.2029C66.2728 31.4392 68.6528 37.1849 68.6528 43.1759Z" fill="#217348"/>
<path d="M66.3493 43.1758V1127.46C65.9198 1132.56 63.5888 1137.32 59.8182 1140.79C56.0475 1144.25 51.1123 1146.18 45.9902 1146.18C40.8681 1146.18 35.9329 1144.25 32.1622 1140.79C28.3916 1137.32 26.0606 1132.56 25.6311 1127.46V43.1758C26.0606 38.0717 28.3916 33.3151 32.1622 29.8484C35.9329 26.3817 40.8681 24.4578 45.9902 24.4578C51.1123 24.4578 56.0475 26.3817 59.8182 29.8484C63.5888 33.3151 65.9198 38.0717 66.3493 43.1758Z" fill="#247F4F"/>
<path d="M65.7709 43.1752V1127.46C65.7709 1130.05 65.261 1132.61 64.2704 1135C63.2798 1137.39 61.8279 1139.57 59.9975 1141.4C58.1671 1143.23 55.9942 1144.68 53.6026 1145.67C51.2111 1146.66 48.6479 1147.17 46.0593 1147.17C43.4708 1147.17 40.9075 1146.66 38.516 1145.67C36.1245 1144.68 33.9514 1143.23 32.121 1141.4C30.2906 1139.57 28.8387 1137.39 27.8481 1135C26.8575 1132.61 26.3477 1130.05 26.3477 1127.46V43.1752C26.3477 40.5867 26.8575 38.0235 27.8481 35.6319C28.8387 33.2404 30.2906 31.0674 32.121 29.237C33.9514 27.4066 36.1245 25.9547 38.516 24.9641C40.9075 23.9735 43.4708 23.4636 46.0593 23.4636C48.6479 23.4636 51.2111 23.9735 53.6026 24.9641C55.9942 25.9547 58.1671 27.4066 59.9975 29.237C61.8279 31.0674 63.2798 33.2404 64.2704 35.6319C65.261 38.0235 65.7709 40.5867 65.7709 43.1752Z" fill="#278A56"/>
<path d="M65.196 43.1759V1127.46C65.196 1132.53 63.1799 1137.4 59.5912 1140.99C56.0025 1144.58 51.1352 1146.6 46.06 1146.6C40.9847 1146.6 36.1174 1144.58 32.5287 1140.99C28.94 1137.4 26.9238 1132.53 26.9238 1127.46V43.1759C26.9238 38.1007 28.94 33.2333 32.5287 29.6446C36.1174 26.0559 40.9847 24.0398 46.06 24.0398C51.1352 24.0398 56.0025 26.0559 59.5912 29.6446C63.1799 33.2333 65.196 38.1007 65.196 43.1759Z" fill="#2B965D"/>
<path d="M64.4789 43.1756V1127.46C64.7054 1130.02 64.3957 1132.61 63.5694 1135.05C62.7432 1137.49 61.4185 1139.73 59.6796 1141.63C57.9407 1143.52 55.8256 1145.04 53.4689 1146.08C51.1121 1147.12 48.5652 1147.65 45.9902 1147.65C43.4152 1147.65 40.8683 1147.12 38.5115 1146.08C36.1548 1145.04 34.0398 1143.52 32.3009 1141.63C30.562 1139.73 29.2373 1137.49 28.4111 1135.05C27.5848 1132.61 27.2751 1130.02 27.5016 1127.46V43.1756C27.2751 40.6105 27.5848 38.0264 28.4111 35.5875C29.2373 33.1487 30.562 30.9084 32.3009 29.0092C34.0398 27.11 36.1548 25.5934 38.5115 24.5558C40.8683 23.5182 43.4152 22.9824 45.9902 22.9824C48.5652 22.9824 51.1121 23.5182 53.4689 24.5558C55.8256 25.5934 57.9407 27.11 59.6796 29.0092C61.4185 30.9084 62.7432 33.1487 63.5694 35.5875C64.3957 38.0264 64.7054 40.6105 64.4789 43.1756Z" fill="#2EA165"/>
<path d="M63.3262 43.1752V1127.46C62.9249 1131.93 60.864 1136.09 57.549 1139.12C54.234 1142.16 49.9048 1143.84 45.413 1143.84C40.9213 1143.84 36.5922 1142.16 33.2772 1139.12C29.9622 1136.09 27.9014 1131.93 27.5 1127.46V43.1752C27.9014 38.7014 29.9622 34.5397 33.2772 31.5088C36.5922 28.4779 40.9213 26.7971 45.413 26.7971C49.9048 26.7971 54.234 28.4779 57.549 31.5088C60.864 34.5397 62.9249 38.7014 63.3262 43.1752Z" fill="#31AD6C"/>
<path d="M63.3309 43.1775V1127.46C63.3309 1132.04 61.5118 1136.43 58.2739 1139.67C55.036 1142.91 50.6444 1144.73 46.0653 1144.73C41.4861 1144.73 37.0945 1142.91 33.8565 1139.67C30.6186 1136.43 28.7996 1132.04 28.7996 1127.46V43.1775C28.7996 38.5984 30.6186 34.2068 33.8565 30.9689C37.0945 27.7309 41.4861 25.9119 46.0653 25.9119C50.6444 25.9119 55.036 27.7309 58.2739 30.9689C61.5118 34.2068 63.3309 38.5984 63.3309 43.1775Z" fill="#34B873"/>
<path d="M63.3303 43.1771V1127.46C63.5457 1129.77 63.2761 1132.1 62.5389 1134.31C61.8017 1136.51 60.613 1138.53 59.0489 1140.25C57.4848 1141.97 55.5797 1143.34 53.4554 1144.28C51.3311 1145.21 49.0344 1145.7 46.7121 1145.7C44.3898 1145.7 42.0931 1145.21 39.9688 1144.28C37.8445 1143.34 35.9394 1141.97 34.3752 1140.25C32.8111 1138.53 31.6225 1136.51 30.8853 1134.31C30.1481 1132.1 29.8785 1129.77 30.0939 1127.46V43.1771C29.8785 40.8648 30.1481 38.533 30.8853 36.3308C31.6225 34.1287 32.8111 32.1046 34.3752 30.388C35.9394 28.6714 37.8445 27.3001 39.9688 26.3619C42.0931 25.4236 44.3898 24.939 46.7121 24.939C49.0344 24.939 51.3311 25.4236 53.4554 26.3619C55.5797 27.3001 57.4848 28.6714 59.0489 30.388C60.613 32.1046 61.8017 34.1287 62.5389 36.3308C63.2761 38.533 63.5457 40.8648 63.3303 43.1771Z" fill="#38C47A"/>
<path d="M62.0302 43.1752V1127.46C61.6517 1131.45 59.7979 1135.16 56.8312 1137.86C53.8645 1140.56 49.998 1142.05 45.9875 1142.05C41.9769 1142.05 38.1105 1140.56 35.1438 1137.86C32.1771 1135.16 30.3234 1131.45 29.9448 1127.46V43.1752C30.3234 39.1825 32.1771 35.4745 35.1438 32.7758C38.1105 30.077 41.9769 28.5815 45.9875 28.5815C49.998 28.5815 53.8645 30.077 56.8312 32.7758C59.7979 35.4745 61.6517 39.1825 62.0302 43.1752Z" fill="#3BCF81"/>
<path d="M61.4589 43.176V1127.46C61.4589 1131.54 59.8368 1135.46 56.9496 1138.35C54.0625 1141.23 50.1467 1142.85 46.0637 1142.85C41.9806 1142.85 38.0647 1141.23 35.1776 1138.35C32.2904 1135.46 30.6685 1131.54 30.6685 1127.46V43.176C30.6685 39.0929 32.2904 35.1771 35.1776 32.2899C38.0647 29.4027 41.9806 27.7808 46.0637 27.7808C50.1467 27.7808 54.0625 29.4027 56.9496 32.2899C59.8368 35.1771 61.4589 39.0929 61.4589 43.176Z" fill="#3EDB88"/>
<path d="M60.8838 43.1764V1127.46C60.8838 1131.39 59.3225 1135.16 56.5432 1137.94C53.764 1140.72 49.9946 1142.28 46.0642 1142.28C42.1337 1142.28 38.3642 1140.72 35.585 1137.94C32.8058 1135.16 31.2444 1131.39 31.2444 1127.46V43.1764C31.2444 39.2459 32.8058 35.4765 35.585 32.6973C38.3642 29.918 42.1337 28.3567 46.0642 28.3567C49.9946 28.3567 53.764 29.918 56.5432 32.6973C59.3225 35.4765 60.8838 39.2459 60.8838 43.1764Z" fill="#41E690"/>
<path d="M60.1611 43.1769V1127.46C60.1611 1131.28 58.6452 1134.94 55.947 1137.63C53.2487 1140.33 49.589 1141.85 45.7731 1141.85C41.9571 1141.85 38.2974 1140.33 35.5992 1137.63C32.9009 1134.94 31.385 1131.28 31.385 1127.46V43.1769C31.385 39.3609 32.9009 35.7013 35.5992 33.003C38.2974 30.3047 41.9571 28.7888 45.7731 28.7888C49.589 28.7888 53.2487 30.3047 55.947 33.003C58.6452 35.7013 60.1611 39.3609 60.1611 43.1769Z" fill="#45F297"/>
<path d="M59.5901 43.1788V1127.46C59.2435 1130.83 57.6615 1133.94 55.1501 1136.21C52.6386 1138.48 49.3761 1139.73 45.9934 1139.73C42.6108 1139.73 39.3483 1138.48 36.8368 1136.21C34.3253 1133.94 32.7433 1130.83 32.3967 1127.46V43.1788C32.7433 39.8139 34.3253 36.6971 36.8368 34.431C39.3483 32.1649 42.6108 30.9106 45.9934 30.9106C49.3761 30.9106 52.6386 32.1649 55.1501 34.431C57.6615 36.6971 59.2435 39.8139 59.5901 43.1788Z" fill="#48FD9E"/>
<path d="M58.7221 43.1779V1127.46C58.9122 1129.25 58.7245 1131.05 58.1712 1132.76C57.618 1134.47 56.7114 1136.04 55.5106 1137.38C54.3097 1138.71 52.8414 1139.78 51.2009 1140.51C49.5605 1141.24 47.7846 1141.62 45.9886 1141.62C44.1927 1141.62 42.4168 1141.24 40.7763 1140.51C39.1359 1139.78 37.6675 1138.71 36.4667 1137.38C35.2658 1136.04 34.3594 1134.47 33.8061 1132.76C33.2529 1131.05 33.0652 1129.25 33.2553 1127.46V43.1779C33.0652 41.392 33.2529 39.5861 33.8061 37.8775C34.3594 36.1689 35.2658 34.5958 36.4667 33.2603C37.6675 31.9249 39.1359 30.8569 40.7763 30.1259C42.4168 29.3949 44.1927 29.0171 45.9886 29.0171C47.7846 29.0171 49.5605 29.3949 51.2009 30.1259C52.8414 30.8569 54.3097 31.9249 55.5106 33.2603C56.7114 34.5958 57.618 36.1689 58.1712 37.8775C58.7245 39.5861 58.9122 41.392 58.7221 43.1779Z" fill="#51FDA3"/>
<path d="M58.002 43.1757V1127.46C58.002 1130.63 56.7439 1133.66 54.5044 1135.9C52.2648 1138.14 49.2273 1139.4 46.06 1139.4C42.8928 1139.4 39.8553 1138.14 37.6157 1135.9C35.3761 1133.66 34.1179 1130.63 34.1179 1127.46V43.1757C34.1179 40.0085 35.3761 36.971 37.6157 34.7314C39.8553 32.4918 42.8928 31.2336 46.06 31.2336C49.2273 31.2336 52.2648 32.4918 54.5044 34.7314C56.7439 36.971 58.002 40.0085 58.002 43.1757Z" fill="#5AFDA7"/>
<path d="M57.1395 43.1767V1127.46C57.1395 1130.4 55.9724 1133.22 53.8947 1135.29C51.817 1137.37 48.9991 1138.54 46.0608 1138.54C43.1225 1138.54 40.3046 1137.37 38.2269 1135.29C36.1492 1133.22 34.9819 1130.4 34.9819 1127.46V43.1767C34.9819 40.2384 36.1492 37.4205 38.2269 35.3428C40.3046 33.2651 43.1225 32.0979 46.0608 32.0979C48.9991 32.0979 51.817 33.2651 53.8947 35.3428C55.9724 37.4205 57.1395 40.2384 57.1395 43.1767Z" fill="#62FEAC"/>
<path d="M56.2805 43.1775V1127.46C55.9821 1129.98 54.7699 1132.3 52.8738 1133.99C50.9777 1135.67 48.5294 1136.6 45.993 1136.6C43.4565 1136.6 41.0082 1135.67 39.1121 1133.99C37.216 1132.3 36.004 1129.98 35.7056 1127.46V43.1775C36.004 40.6587 37.216 38.3369 39.1121 36.6521C41.0082 34.9674 43.4565 34.0369 45.993 34.0369C48.5294 34.0369 50.9777 34.9674 52.8738 36.6521C54.7699 38.3369 55.9821 40.6587 56.2805 43.1775Z" fill="#6BFEB1"/>
<path d="M55.4127 43.1786V1127.46C55.578 1128.8 55.4577 1130.15 55.0596 1131.44C54.6616 1132.72 53.9949 1133.91 53.1038 1134.92C52.2128 1135.93 51.1176 1136.73 49.8909 1137.29C48.6642 1137.84 47.3341 1138.12 45.9885 1138.12C44.643 1138.12 43.3128 1137.84 42.0861 1137.29C40.8594 1136.73 39.7643 1135.93 38.8732 1134.92C37.9821 1133.91 37.3155 1132.72 36.9175 1131.44C36.5195 1130.15 36.3991 1128.8 36.5644 1127.46V43.1786C36.3991 41.8433 36.5195 40.4881 36.9175 39.2028C37.3155 37.9174 37.9821 36.7314 38.8732 35.7232C39.7643 34.715 40.8594 33.9077 42.0861 33.3548C43.3128 32.8018 44.643 32.5159 45.9885 32.5159C47.3341 32.5159 48.6642 32.8018 49.8909 33.3548C51.1176 33.9077 52.2128 34.715 53.1038 35.7232C53.9949 36.7314 54.6616 37.9174 55.0596 39.2028C55.4577 40.4881 55.578 41.8433 55.4127 43.1786Z" fill="#74FEB5"/>
<path d="M54.6925 43.1755V1127.46C54.6925 1129.75 53.783 1131.94 52.164 1133.56C50.545 1135.18 48.3492 1136.09 46.0597 1136.09C43.7701 1136.09 41.5742 1135.18 39.9552 1133.56C38.3363 1131.94 37.4268 1129.75 37.4268 1127.46V43.1755C37.4268 40.886 38.3363 38.6902 39.9552 37.0712C41.5742 35.4522 43.7701 34.5427 46.0597 34.5427C48.3492 34.5427 50.545 35.4522 52.164 37.0712C53.783 38.6902 54.6925 40.886 54.6925 43.1755Z" fill="#7DFEBA"/>
<path d="M53.8333 43.1763V1127.46C53.8333 1128.48 53.6324 1129.49 53.242 1130.43C52.8515 1131.38 52.2792 1132.23 51.5577 1132.95C50.8363 1133.67 49.9798 1134.25 49.0371 1134.64C48.0945 1135.03 47.0842 1135.23 46.0639 1135.23C43.9898 1135.23 41.9984 1134.42 40.5184 1132.96C39.0384 1131.51 38.1881 1129.53 38.1504 1127.46V43.1763C38.1881 41.1025 39.0384 39.1265 40.5184 37.6734C41.9984 36.2204 43.9898 35.4064 46.0639 35.4067C48.1245 35.4067 50.1007 36.2253 51.5577 37.6824C53.0148 39.1395 53.8333 41.1157 53.8333 43.1763Z" fill="#86FEBE"/>
<path d="M52.9711 43.1771V1127.46C52.9902 1128.38 52.8258 1129.29 52.4873 1130.15C52.1488 1131 51.6431 1131.78 50.9999 1132.44C50.3567 1133.09 49.5889 1133.62 48.7414 1133.97C47.894 1134.33 46.984 1134.51 46.0649 1134.51C44.1951 1134.51 42.4017 1133.77 41.0796 1132.45C39.7574 1131.12 39.0146 1129.33 39.0146 1127.46V43.1771C39.0146 41.3073 39.7574 39.514 41.0796 38.1919C42.4017 36.8697 44.1951 36.127 46.0649 36.127C46.984 36.1268 47.894 36.3101 48.7414 36.6661C49.5889 37.0221 50.3567 37.5437 50.9999 38.2004C51.6431 38.857 52.1488 39.6354 52.4873 40.49C52.8258 41.3446 52.9902 42.2581 52.9711 43.1771Z" fill="#8FFEC3"/>
<path d="M52.2524 43.1778V1127.46C52.2524 1128.27 52.0923 1129.08 51.7814 1129.83C51.4704 1130.58 51.0148 1131.26 50.4403 1131.84C49.8658 1132.41 49.1837 1132.87 48.4331 1133.18C47.6825 1133.49 46.878 1133.65 46.0655 1133.65C44.4247 1133.65 42.8509 1133 41.6907 1131.84C40.5304 1130.68 39.8787 1129.1 39.8787 1127.46V43.1778C39.8787 41.537 40.5304 39.9633 41.6907 38.8031C42.8509 37.6428 44.4247 36.991 46.0655 36.991C46.878 36.991 47.6825 37.151 48.4331 37.4619C49.1837 37.7728 49.8658 38.2286 50.4403 38.8031C51.0148 39.3776 51.4704 40.0596 51.7814 40.8102C52.0923 41.5608 52.2524 42.3653 52.2524 43.1778Z" fill="#97FFC8"/>
<path d="M51.385 43.1772V1127.46C51.385 1128.87 50.8242 1130.23 49.8258 1131.22C48.8275 1132.22 47.4734 1132.78 46.0615 1132.78C45.357 1132.8 44.6558 1132.68 44.001 1132.42C43.3461 1132.16 42.7513 1131.77 42.253 1131.27C41.7546 1130.77 41.3632 1130.18 41.1027 1129.52C40.8422 1128.87 40.718 1128.16 40.7379 1127.46V43.1772C40.718 42.4727 40.8422 41.7716 41.1027 41.1167C41.3632 40.4618 41.7546 39.867 42.253 39.3687C42.7513 38.8703 43.3461 38.4789 44.001 38.2184C44.6558 37.9579 45.357 37.8338 46.0615 37.8536C47.4734 37.8536 48.8275 38.4145 49.8258 39.4129C50.8242 40.4112 51.385 41.7653 51.385 43.1772Z" fill="#A0FFCC"/>
<path d="M50.5239 43.1767V1127.46C50.3336 1128.52 49.7754 1129.49 48.9468 1130.18C48.1182 1130.87 47.0721 1131.25 45.9916 1131.25C44.9111 1131.25 43.8651 1130.87 43.0366 1130.18C42.208 1129.49 41.6497 1128.52 41.4595 1127.46V43.1767C41.6497 42.1131 42.208 41.1503 43.0366 40.4568C43.8651 39.7633 44.9111 39.3833 45.9916 39.3833C47.0721 39.3833 48.1182 39.7633 48.9468 40.4568C49.7754 41.1503 50.3336 42.1131 50.5239 43.1767Z" fill="#A9FFD1"/>
</g>
</svg>
