<svg width="50" height="444" viewBox="0 0 50 444" fill="none" xmlns="http://www.w3.org/2000/svg">
<g style="mix-blend-mode:screen">
<path d="M50 16.3709V427.627C49.6397 432.012 46.8488 436.136 42.1999 439.152C37.5511 442.169 31.3968 443.85 25 443.85C18.6032 443.85 12.4489 442.169 7.80005 439.152C3.15119 436.136 0.360277 432.012 0 427.627V16.3709C0.360277 11.9863 3.15119 7.86267 7.80005 4.8461C12.4489 1.82953 18.6032 0.148804 25 0.148804C31.3968 0.148804 37.5511 1.82953 42.1999 4.8461C46.8488 7.86267 49.6397 11.9863 50 16.3709V16.3709Z" fill="black"/>
<path d="M48.7275 16.3717V427.628C48.7275 431.97 46.215 436.135 41.7427 439.205C37.2705 442.275 31.2048 444 24.8801 444C18.5554 444 12.4897 442.275 8.01743 439.205C3.54518 436.135 1.03271 431.97 1.03271 427.628V16.3717C1.03271 12.0296 3.54518 7.86544 8.01743 4.79516C12.4897 1.72487 18.5554 0 24.8801 0C31.2048 0 37.2705 1.72487 41.7427 4.79516C46.215 7.86544 48.7275 12.0296 48.7275 16.3717V16.3717Z" fill="#030C07"/>
<path d="M47.4563 16.3725V427.629C47.6386 429.731 47.1929 431.836 46.1467 433.815C45.1006 435.794 43.476 437.605 41.3729 439.138C39.2698 440.67 36.7324 441.891 33.9168 442.726C31.1012 443.56 28.0668 443.991 25 443.991C21.9332 443.991 18.8988 443.56 16.0832 442.726C13.2676 441.891 10.7304 440.67 8.62722 439.138C6.52408 437.605 4.89948 435.794 3.85333 433.815C2.80718 431.836 2.36156 429.731 2.54378 427.629V16.3725C2.36156 14.2708 2.80718 12.1657 3.85333 10.1866C4.89948 8.20742 6.52408 6.39604 8.62722 4.8637C10.7304 3.33135 13.2676 2.11041 16.0832 1.27588C18.8988 0.441353 21.9332 0.0108643 25 0.0108643C28.0668 0.0108643 31.1012 0.441353 33.9168 1.27588C36.7324 2.11041 39.2698 3.33135 41.3729 4.8637C43.476 6.39604 45.1006 8.20742 46.1467 10.1866C47.1929 12.1657 47.6386 14.2708 47.4563 16.3725V16.3725Z" fill="#07170E"/>
<path d="M46.2643 16.3721V427.629C46.2643 431.493 44.0281 435.199 40.0478 437.932C36.0675 440.664 30.6691 442.199 25.0401 442.199C19.4111 442.199 14.0127 440.664 10.0324 437.932C6.05206 435.199 3.81592 431.493 3.81592 427.629V16.3721C3.81592 12.5077 6.05206 8.80151 10.0324 6.06896C14.0127 3.33641 19.4111 1.80127 25.0401 1.80127C30.6691 1.80127 36.0675 3.33641 40.0478 6.06896C44.0281 8.80151 46.2643 12.5077 46.2643 16.3721V16.3721Z" fill="#0A2316"/>
<path d="M44.9933 16.3718V427.628C44.3801 430.95 42.0233 434.003 38.3647 436.217C34.7061 438.43 29.997 439.651 25.1205 439.651C20.244 439.651 15.5349 438.43 11.8763 436.217C8.21774 434.003 5.86085 430.95 5.24768 427.628V16.3718C5.86085 13.0505 8.21774 9.99688 11.8763 7.78343C15.5349 5.56998 20.244 4.34875 25.1205 4.34875C29.997 4.34875 34.7061 5.56998 38.3647 7.78343C42.0233 9.99688 44.3801 13.0505 44.9933 16.3718V16.3718Z" fill="#0D2E1D"/>
<path d="M43.7218 16.3721V427.629C43.8888 429.387 43.5285 431.15 42.6633 432.809C41.7981 434.467 40.4463 435.987 38.6916 437.272C36.9369 438.558 34.8166 439.583 32.4619 440.284C30.1071 440.984 27.568 441.346 25.0016 441.346C22.4352 441.346 19.8961 440.984 17.5414 440.284C15.1866 439.583 13.0663 438.558 11.3116 437.272C9.55694 435.987 8.20514 434.467 7.33992 432.809C6.4747 431.15 6.11448 429.387 6.28145 427.629V16.3721C6.11448 14.614 6.4747 12.851 7.33992 11.1923C8.20514 9.53352 9.55694 8.01429 11.3116 6.72856C13.0663 5.44284 15.1866 4.41795 17.5414 3.71731C19.8961 3.01666 22.4352 2.65515 25.0016 2.65515C27.568 2.65515 30.1071 3.01666 32.4619 3.71731C34.8166 4.41795 36.9369 5.44284 38.6916 6.72856C40.4463 8.01429 41.7981 9.53352 42.6633 11.1923C43.5285 12.851 43.8888 14.614 43.7218 16.3721V16.3721Z" fill="#103A24"/>
<path d="M42.5298 16.3719V427.628C42.5298 430.813 40.6873 433.866 37.4076 436.118C34.128 438.369 29.6798 439.634 25.0417 439.634C20.4036 439.634 15.9554 438.369 12.6757 436.118C9.39606 433.866 7.55359 430.813 7.55359 427.628V16.3719C7.55359 13.1877 9.39606 10.134 12.6757 7.88241C15.9554 5.63087 20.4036 4.36597 25.0417 4.36597C29.6798 4.36597 34.128 5.63087 37.4076 7.88241C40.6873 10.134 42.5298 13.1877 42.5298 16.3719Z" fill="#14452B"/>
<path d="M41.2568 16.3719V427.629C41.2568 430.588 39.5441 433.427 36.4955 435.52C33.447 437.613 29.3122 438.789 25.0008 438.789C20.6895 438.789 16.5547 437.613 13.5061 435.52C10.4576 433.427 8.74487 430.588 8.74487 427.629V16.3719C8.74487 13.4121 10.4576 10.5735 13.5061 8.48061C16.5547 6.3877 20.6895 5.21191 25.0008 5.21191C29.3122 5.21191 33.447 6.3877 36.4955 8.48061C39.5441 10.5735 41.2568 13.4121 41.2568 16.3719V16.3719Z" fill="#175132"/>
<path d="M39.9836 16.3719V427.629C40.1337 429.042 39.8577 430.462 39.1727 431.8C38.4877 433.137 37.4084 434.363 36.0023 435.401C34.5963 436.44 32.8935 437.268 31.0004 437.834C29.1073 438.4 27.0645 438.692 24.9995 438.692C22.9345 438.692 20.8918 438.4 18.9987 437.834C17.1056 437.268 15.4028 436.44 13.9968 435.401C12.5907 434.363 11.5114 433.137 10.8264 431.8C10.1414 430.462 9.86535 429.042 10.0155 427.629V16.3719C9.86535 14.958 10.1414 13.538 10.8264 12.2007C11.5114 10.8633 12.5907 9.63723 13.9968 8.59901C15.4028 7.56079 17.1056 6.7327 18.9987 6.16646C20.8918 5.60022 22.9345 5.30798 24.9995 5.30798C27.0645 5.30798 29.1073 5.60022 31.0004 6.16646C32.8935 6.7327 34.5963 7.56079 36.0023 8.59901C37.4084 9.63723 38.4877 10.8633 39.1727 12.2007C39.8577 13.538 40.1337 14.958 39.9836 16.3719V16.3719Z" fill="#1A5C39"/>
<path d="M38.7916 16.3717V427.628C38.7916 430.132 37.3427 432.534 34.7637 434.304C32.1847 436.075 28.6869 437.069 25.0396 437.069C21.3924 437.069 17.8945 436.075 15.3155 434.304C12.7365 432.534 11.2876 430.132 11.2876 427.628V16.3717C11.2876 13.8678 12.7365 11.4664 15.3155 9.69587C17.8945 7.92534 21.3924 6.93066 25.0396 6.93066C28.6869 6.93066 32.1847 7.92534 34.7637 9.69587C37.3427 11.4664 38.7916 13.8678 38.7916 16.3717V16.3717Z" fill="#1D6841"/>
<path d="M37.521 16.3712V427.628C37.521 429.9 36.2061 432.079 33.8657 433.686C31.5252 435.293 28.3508 436.196 25.0409 436.196C21.731 436.196 18.5566 435.293 16.2161 433.686C13.8756 432.079 12.5608 429.9 12.5608 427.628V16.3712C12.5608 14.0989 13.8756 11.9196 16.2161 10.3128C18.5566 8.70603 21.731 7.80334 25.0409 7.80334C28.3508 7.80334 31.5252 8.70603 33.8657 10.3128C36.2061 11.9196 37.521 14.0989 37.521 16.3712V16.3712Z" fill="#217348"/>
<path d="M36.2481 16.3711V427.628C36.0108 429.564 34.723 431.368 32.6398 432.683C30.5566 433.998 27.83 434.727 25.0001 434.727C22.1702 434.727 19.4436 433.998 17.3604 432.683C15.2772 431.368 13.9893 429.564 13.7521 427.628V16.3711C13.9893 14.4352 15.2772 12.6311 17.3604 11.3162C19.4436 10.0013 22.1702 9.27161 25.0001 9.27161C27.83 9.27161 30.5566 10.0013 32.6398 11.3162C34.723 12.6311 36.0108 14.4352 36.2481 16.3711V16.3711Z" fill="#247F4F"/>
<path d="M35.9288 16.3709V427.628C35.9288 428.609 35.6471 429.582 35.0998 430.489C34.5525 431.396 33.7504 432.22 32.7391 432.914C31.7279 433.608 30.5273 434.159 29.2061 434.535C27.8848 434.911 26.4687 435.104 25.0385 435.104C23.6084 435.104 22.1922 434.911 20.871 434.535C19.5497 434.159 18.3491 433.608 17.3379 432.914C16.3266 432.22 15.5245 431.396 14.9772 430.489C14.4299 429.582 14.1482 428.609 14.1482 427.628V16.3709C14.1482 15.3891 14.4299 14.4169 14.9772 13.5098C15.5245 12.6028 16.3266 11.7786 17.3379 11.0843C18.3491 10.3901 19.5497 9.83936 20.871 9.46364C22.1922 9.08792 23.6084 8.89453 25.0385 8.89453C26.4687 8.89453 27.8848 9.08792 29.2061 9.46364C30.5273 9.83936 31.7279 10.3901 32.7391 11.0843C33.7504 11.7786 34.5525 12.6028 35.0998 13.5098C35.6471 14.4169 35.9288 15.3891 35.9288 16.3709V16.3709Z" fill="#278A56"/>
<path d="M35.6107 16.3713V427.628C35.6107 429.553 34.4969 431.399 32.5142 432.76C30.5315 434.121 27.8424 434.886 25.0384 434.886C22.2345 434.886 19.5453 434.121 17.5626 432.76C15.5799 431.399 14.4661 429.553 14.4661 427.628V16.3713C14.4661 14.4463 15.5799 12.6002 17.5626 11.239C19.5453 9.87785 22.2345 9.11316 25.0384 9.11316C27.8424 9.11316 30.5315 9.87785 32.5142 11.239C34.4969 12.6002 35.6107 14.4463 35.6107 16.3713V16.3713Z" fill="#2B965D"/>
<path d="M35.2151 16.3711V427.628C35.3402 428.601 35.1691 429.581 34.7126 430.506C34.2561 431.431 33.5243 432.28 32.5635 433.001C31.6028 433.721 30.4343 434.296 29.1323 434.69C27.8302 435.083 26.4231 435.287 25.0004 435.287C23.5778 435.287 22.1707 435.083 20.8686 434.69C19.5666 434.296 18.398 433.721 17.4373 433.001C16.4766 432.28 15.7448 431.431 15.2883 430.506C14.8318 429.581 14.6607 428.601 14.7858 427.628V16.3711C14.6607 15.3982 14.8318 14.4181 15.2883 13.493C15.7448 12.568 16.4766 11.7183 17.4373 10.9979C18.398 10.2776 19.5666 9.70234 20.8686 9.3088C22.1707 8.91527 23.5778 8.71204 25.0004 8.71204C26.4231 8.71204 27.8302 8.91527 29.1323 9.3088C30.4343 9.70234 31.6028 10.2776 32.5635 10.9979C33.5243 11.7183 34.2561 12.568 34.7126 13.493C35.1691 14.4181 35.3402 15.3982 35.2151 16.3711V16.3711Z" fill="#2EA165"/>
<path d="M34.5781 16.3709V427.628C34.3564 429.324 33.2178 430.903 31.3863 432.052C29.5548 433.202 27.163 433.84 24.6814 433.84C22.1998 433.84 19.8081 433.202 17.9766 432.052C16.1451 430.903 15.0065 429.324 14.7848 427.628V16.3709C15.0065 14.6741 16.1451 13.0956 17.9766 11.946C19.8081 10.7964 22.1998 10.1589 24.6814 10.1589C27.163 10.1589 29.5548 10.7964 31.3863 11.946C33.2178 13.0956 34.3564 14.6741 34.5781 16.3709V16.3709Z" fill="#31AD6C"/>
<path d="M34.5804 16.3719V427.629C34.5804 429.365 33.5754 431.031 31.7865 432.259C29.9976 433.487 27.5713 434.177 25.0414 434.177C22.5115 434.177 20.0852 433.487 18.2963 432.259C16.5074 431.031 15.5024 429.365 15.5024 427.629V16.3719C15.5024 14.6351 16.5074 12.9694 18.2963 11.7413C20.0852 10.5132 22.5115 9.82324 25.0414 9.82324C27.5713 9.82324 29.9976 10.5132 31.7865 11.7413C33.5754 12.9694 34.5804 14.6351 34.5804 16.3719Z" fill="#34B873"/>
<path d="M34.5799 16.3716V427.628C34.6989 428.505 34.55 429.39 34.1427 430.225C33.7354 431.06 33.0787 431.828 32.2146 432.479C31.3504 433.13 30.2979 433.65 29.1243 434.006C27.9506 434.362 26.6817 434.546 25.3987 434.546C24.1157 434.546 22.8468 434.362 21.6732 434.006C20.4995 433.65 19.447 433.13 18.5828 432.479C17.7187 431.828 17.062 431.06 16.6547 430.225C16.2474 429.39 16.0985 428.505 16.2175 427.628V16.3716C16.0985 15.4946 16.2474 14.6102 16.6547 13.7749C17.062 12.9396 17.7187 12.1719 18.5828 11.5209C19.447 10.8698 20.4995 10.3497 21.6732 9.99379C22.8468 9.63792 24.1157 9.4541 25.3987 9.4541C26.6817 9.4541 27.9506 9.63792 29.1243 9.99379C30.2979 10.3497 31.3504 10.8698 32.2146 11.5209C33.0787 12.1719 33.7354 12.9396 34.1427 13.7749C34.55 14.6102 34.6989 15.4946 34.5799 16.3716V16.3716Z" fill="#38C47A"/>
<path d="M33.8619 16.3709V427.627C33.6528 429.142 32.6286 430.548 30.9896 431.572C29.3505 432.595 27.2144 433.163 24.9986 433.163C22.7829 433.163 20.6468 432.595 19.0077 431.572C17.3687 430.548 16.3445 429.142 16.1354 427.627V16.3709C16.3445 14.8565 17.3687 13.4501 19.0077 12.4265C20.6468 11.4029 22.7829 10.8357 24.9986 10.8357C27.2144 10.8357 29.3505 11.4029 30.9896 12.4265C32.6286 13.4501 33.6528 14.8565 33.8619 16.3709V16.3709Z" fill="#3BCF81"/>
<path d="M33.5464 16.3713V427.628C33.5464 429.177 32.6502 430.662 31.0551 431.757C29.46 432.852 27.2967 433.467 25.0408 433.467C22.785 433.467 20.6216 432.852 19.0265 431.757C17.4314 430.662 16.5353 429.177 16.5353 427.628V16.3713C16.5353 14.8227 17.4314 13.3374 19.0265 12.2424C20.6216 11.1473 22.785 10.5321 25.0408 10.5321C27.2967 10.5321 29.46 11.1473 31.0551 12.2424C32.6502 13.3374 33.5464 14.8227 33.5464 16.3713Z" fill="#3EDB88"/>
<path d="M33.2283 16.3716V427.628C33.2283 429.119 32.3656 430.549 30.8302 431.603C29.2947 432.657 27.2122 433.249 25.0407 433.249C22.8692 433.249 20.7866 432.657 19.2511 431.603C17.7157 430.549 16.853 429.119 16.853 427.628V16.3716C16.853 14.8808 17.7157 13.4511 19.2511 12.3969C20.7866 11.3428 22.8692 10.7506 25.0407 10.7506C27.2122 10.7506 29.2947 11.3428 30.8302 12.3969C32.3656 13.4511 33.2283 14.8808 33.2283 16.3716V16.3716Z" fill="#41E690"/>
<path d="M32.8296 16.3715V427.628C32.8296 429.075 31.9922 430.464 30.5014 431.487C29.0107 432.51 26.9888 433.085 24.8805 433.085C22.7723 433.085 20.7504 432.51 19.2596 431.487C17.7689 430.464 16.9314 429.075 16.9314 427.628V16.3715C16.9314 14.9242 17.7689 13.5361 19.2596 12.5127C20.7504 11.4893 22.7723 10.9143 24.8805 10.9143C26.9888 10.9143 29.0107 11.4893 30.5014 12.5127C31.9922 13.5361 32.8296 14.9242 32.8296 16.3715V16.3715Z" fill="#45F297"/>
<path d="M32.5135 16.3723V427.629C32.322 428.905 31.448 430.087 30.0604 430.947C28.6729 431.806 26.8704 432.282 25.0015 432.282C23.1327 432.282 21.3302 431.806 19.9427 430.947C18.5551 430.087 17.6811 428.905 17.4896 427.629V16.3723C17.6811 15.096 18.5551 13.9138 19.9427 13.0544C21.3302 12.1949 23.1327 11.7191 25.0015 11.7191C26.8704 11.7191 28.6729 12.1949 30.0604 13.0544C31.448 13.9138 32.322 15.096 32.5135 16.3723V16.3723Z" fill="#48FD9E"/>
<path d="M32.0342 16.372V427.629C32.1393 428.306 32.0356 428.991 31.7299 429.639C31.4242 430.287 30.9234 430.884 30.2599 431.39C29.5965 431.897 28.7853 432.302 27.8789 432.579C26.9726 432.856 25.9915 433 24.9992 433C24.007 433 23.0259 432.856 22.1195 432.579C21.2132 432.302 20.402 431.897 19.7385 431.39C19.0751 430.884 18.5743 430.287 18.2686 429.639C17.963 428.991 17.8593 428.306 17.9643 427.629V16.372C17.8593 15.6947 17.963 15.0097 18.2686 14.3616C18.5743 13.7136 19.0751 13.1169 19.7385 12.6104C20.402 12.1039 21.2132 11.6988 22.1195 11.4215C23.0259 11.1443 24.007 11.001 24.9992 11.001C25.9915 11.001 26.9726 11.1443 27.8789 11.4215C28.7853 11.6988 29.5965 12.1039 30.2599 12.6104C30.9234 13.1169 31.4242 13.7136 31.7299 14.3616C32.0356 15.0097 32.1393 15.6947 32.0342 16.372V16.372Z" fill="#51FDA3"/>
<path d="M31.6359 16.3712V427.628C31.6359 428.829 30.9409 429.981 29.7035 430.831C28.4662 431.68 26.7881 432.157 25.0382 432.157C23.2884 432.157 21.6102 431.68 20.3729 430.831C19.1356 429.981 18.4404 428.829 18.4404 427.628V16.3712C18.4404 15.1699 19.1356 14.0178 20.3729 13.1683C21.6102 12.3189 23.2884 11.8417 25.0382 11.8417C26.7881 11.8417 28.4662 12.3189 29.7035 13.1683C30.9409 14.0178 31.6359 15.1699 31.6359 16.3712V16.3712Z" fill="#5AFDA7"/>
<path d="M31.1594 16.3716V427.628C31.1594 428.743 30.5145 429.811 29.3667 430.599C28.2188 431.388 26.6619 431.83 25.0386 431.83C23.4152 431.83 21.8584 431.388 20.7105 430.599C19.5626 429.811 18.9177 428.743 18.9177 427.628V16.3716C18.9177 15.2572 19.5626 14.1884 20.7105 13.4003C21.8584 12.6123 23.4152 12.1696 25.0386 12.1696C26.6619 12.1696 28.2188 12.6123 29.3667 13.4003C30.5145 14.1884 31.1594 15.2572 31.1594 16.3716V16.3716Z" fill="#62FEAC"/>
<path d="M30.6848 16.3719V427.628C30.5199 428.584 29.8502 429.464 28.8026 430.103C27.7551 430.742 26.4024 431.095 25.0011 431.095C23.5998 431.095 22.2471 430.742 21.1996 430.103C20.152 429.464 19.4824 428.584 19.3175 427.628V16.3719C19.4824 15.4165 20.152 14.5359 21.1996 13.8969C22.2471 13.2579 23.5998 12.9049 25.0011 12.9049C26.4024 12.9049 27.7551 13.2579 28.8026 13.8969C29.8502 14.5359 30.5199 15.4165 30.6848 16.3719V16.3719Z" fill="#6BFEB1"/>
<path d="M30.2054 16.3723V427.629C30.2967 428.135 30.2303 428.649 30.0104 429.137C29.7904 429.624 29.4221 430.074 28.9298 430.457C28.4375 430.839 27.8324 431.145 27.1547 431.355C26.477 431.565 25.7421 431.673 24.9987 431.673C24.2553 431.673 23.5204 431.565 22.8427 431.355C22.165 431.145 21.56 430.839 21.0676 430.457C20.5753 430.074 20.2071 429.624 19.9872 429.137C19.7672 428.649 19.7007 428.135 19.7921 427.629V16.3723C19.7007 15.8658 19.7672 15.3518 19.9872 14.8643C20.2071 14.3768 20.5753 13.9269 21.0676 13.5445C21.56 13.1621 22.165 12.8559 22.8427 12.6462C23.5204 12.4365 24.2553 12.328 24.9987 12.328C25.7421 12.328 26.477 12.4365 27.1547 12.6462C27.8324 12.8559 28.4375 13.1621 28.9298 13.5445C29.4221 13.9269 29.7904 14.3768 30.0104 14.8643C30.2303 15.3518 30.2967 15.8658 30.2054 16.3723V16.3723Z" fill="#74FEB5"/>
<path d="M29.8073 16.371V427.628C29.8073 428.496 29.3048 429.329 28.4104 429.943C27.5159 430.557 26.3028 430.902 25.0378 430.902C23.7729 430.902 22.5597 430.557 21.6653 429.943C20.7708 429.329 20.2683 428.496 20.2683 427.628V16.371C20.2683 15.5026 20.7708 14.6698 21.6653 14.0557C22.5597 13.4417 23.7729 13.0967 25.0378 13.0967C26.3028 13.0967 27.5159 13.4417 28.4104 14.0557C29.3048 14.6698 29.8073 15.5026 29.8073 16.371V16.371Z" fill="#7DFEBA"/>
<path d="M29.3326 16.3715V427.628C29.3326 428.015 29.2216 428.398 29.0059 428.756C28.7902 429.113 28.474 429.438 28.0754 429.712C27.6768 429.986 27.2036 430.203 26.6828 430.351C26.162 430.499 25.6038 430.575 25.0401 430.575C23.8942 430.575 22.794 430.266 21.9764 429.715C21.1587 429.164 20.6889 428.415 20.6681 427.628V16.3715C20.6889 15.5849 21.1587 14.8354 21.9764 14.2843C22.794 13.7332 23.8942 13.4244 25.0401 13.4246C26.1786 13.4246 27.2704 13.735 28.0754 14.2877C28.8804 14.8403 29.3326 15.5899 29.3326 16.3715V16.3715Z" fill="#86FEBE"/>
<path d="M28.8569 16.3717V427.628C28.8675 427.977 28.7766 428.323 28.5896 428.647C28.4026 428.972 28.1232 429.267 27.7679 429.516C27.4125 429.765 26.9883 429.963 26.5201 430.098C26.0519 430.233 25.5492 430.302 25.0414 430.302C24.0083 430.302 23.0175 430.021 22.2871 429.519C21.5566 429.018 21.1462 428.337 21.1462 427.628V16.3717C21.1462 15.6625 21.5566 14.9823 22.2871 14.4808C23.0175 13.9794 24.0083 13.6976 25.0414 13.6976C25.5492 13.6976 26.0519 13.7671 26.5201 13.9021C26.9883 14.0372 27.4125 14.235 27.7679 14.4841C28.1232 14.7331 28.4026 15.0283 28.5896 15.3525C28.7766 15.6766 28.8675 16.0231 28.8569 16.3717V16.3717Z" fill="#8FFEC3"/>
<path d="M28.4598 16.372V427.629C28.4598 427.937 28.3713 428.242 28.1996 428.527C28.0278 428.811 27.776 429.07 27.4586 429.288C27.1412 429.506 26.7644 429.679 26.3497 429.797C25.935 429.915 25.4905 429.975 25.0417 429.975C24.1351 429.975 23.2657 429.728 22.6246 429.288C21.9836 428.848 21.6235 428.251 21.6235 427.629V16.372C21.6235 15.7496 21.9836 15.1528 22.6246 14.7127C23.2657 14.2726 24.1351 14.0254 25.0417 14.0254C25.4905 14.0254 25.935 14.0861 26.3497 14.204C26.7644 14.3219 27.1412 14.4948 27.4586 14.7127C27.776 14.9306 28.0278 15.1893 28.1996 15.474C28.3713 15.7587 28.4598 16.0638 28.4598 16.372V16.372Z" fill="#97FFC8"/>
<path d="M27.9805 16.3718V427.628C27.9805 428.164 27.6707 428.677 27.1191 429.056C26.5675 429.435 25.8194 429.648 25.0394 429.648C24.6502 429.655 24.2628 429.608 23.901 429.509C23.5392 429.41 23.2106 429.262 22.9352 429.073C22.6599 428.884 22.4436 428.658 22.2997 428.41C22.1558 428.161 22.0872 427.896 22.0982 427.628V16.3718C22.0872 16.1046 22.1558 15.8386 22.2997 15.5902C22.4436 15.3419 22.6599 15.1162 22.9352 14.9272C23.2106 14.7382 23.5392 14.5897 23.901 14.4909C24.2628 14.3921 24.6502 14.3451 25.0394 14.3526C25.8194 14.3526 26.5675 14.5653 27.1191 14.944C27.6707 15.3227 27.9805 15.8362 27.9805 16.3718V16.3718Z" fill="#A0FFCC"/>
<path d="M27.5048 16.3716V427.628C27.3996 428.032 27.0912 428.397 26.6334 428.66C26.1757 428.923 25.5977 429.067 25.0008 429.067C24.4038 429.067 23.8259 428.923 23.3681 428.66C22.9104 428.397 22.6019 428.032 22.4968 427.628V16.3716C22.6019 15.9681 22.9104 15.603 23.3681 15.3399C23.8259 15.0769 24.4038 14.9327 25.0008 14.9327C25.5977 14.9327 26.1757 15.0769 26.6334 15.3399C27.0912 15.603 27.3996 15.9681 27.5048 16.3716Z" fill="#A9FFD1"/>
</g>
</svg>
