<svg width="1172" height="91" viewBox="0 0 1172 91" fill="none" xmlns="http://www.w3.org/2000/svg">
<g style="mix-blend-mode:screen">
<path d="M44.1081 0.0553342L1128.39 0.0553342C1139.95 0.707441 1150.82 5.75904 1158.78 14.1736C1166.73 22.5881 1171.16 33.7274 1171.16 45.3057C1171.16 56.8841 1166.73 68.0234 1158.78 76.4379C1150.82 84.8524 1139.95 89.904 1128.39 90.5562L44.1081 90.5562C32.5481 89.904 21.6761 84.8524 13.7229 76.4379C5.76964 68.0234 1.33838 56.8841 1.33838 45.3057C1.33838 33.7274 5.76964 22.5881 13.7229 14.1736C21.6761 5.75904 32.5481 0.707441 44.1081 0.0553342Z" fill="black"/>
<path d="M44.109 2.35874L1128.39 2.35874C1139.84 2.35874 1150.82 6.9064 1158.91 15.0012C1167.01 23.0961 1171.56 34.075 1171.56 45.5229C1171.56 56.9707 1167.01 67.9497 1158.91 76.0445C1150.82 84.1394 1139.84 88.687 1128.39 88.687L44.109 88.687C32.6611 88.687 21.6822 84.1394 13.5873 76.0445C5.49247 67.9497 0.944824 56.9707 0.944824 45.5229C0.944824 34.075 5.49247 23.0961 13.5873 15.0012C21.6822 6.9064 32.6611 2.35874 44.109 2.35874V2.35874Z" fill="#0C0C01"/>
<path d="M44.1107 4.65999L1128.39 4.65999C1133.93 4.33017 1139.48 5.13684 1144.7 7.03038C1149.92 8.92393 1154.7 11.8644 1158.74 15.6711C1162.78 19.4778 1166 24.0704 1168.2 29.1667C1170.4 34.2629 1171.53 39.7553 1171.53 45.3062C1171.53 50.8572 1170.4 56.3495 1168.2 61.4458C1166 66.5421 1162.78 71.1347 1158.74 74.9414C1154.7 78.7481 1149.92 81.6886 1144.7 83.5821C1139.48 85.4757 1133.93 86.2823 1128.39 85.9525L44.1107 85.9525C38.5695 86.2823 33.0195 85.4757 27.8015 83.5821C22.5835 81.6886 17.8077 78.7481 13.7677 74.9414C9.72765 71.1347 6.50862 66.5421 4.30838 61.4458C2.10813 56.3495 0.973145 50.8572 0.973145 45.3062C0.973145 39.7553 2.10813 34.2629 4.30838 29.1667C6.50862 24.0704 9.72765 19.4778 13.7677 15.6711C17.8077 11.8644 22.5835 8.92393 27.8015 7.03038C33.0195 5.13684 38.5695 4.33017 44.1107 4.65999V4.65999Z" fill="#171703"/>
<path d="M44.1099 6.81774L1128.39 6.81774C1138.58 6.81774 1148.35 10.8651 1155.56 18.0695C1162.76 25.274 1166.81 35.0452 1166.81 45.2338C1166.81 55.4224 1162.76 65.1937 1155.56 72.3981C1148.35 79.6025 1138.58 83.6499 1128.39 83.6499L44.1099 83.6499C39.0651 83.6499 34.0696 82.6562 29.4087 80.7256C24.7479 78.795 20.5129 75.9653 16.9457 72.3981C13.3784 68.8308 10.5487 64.5959 8.61811 59.935C6.68752 55.2742 5.69385 50.2787 5.69385 45.2338C5.69385 40.189 6.68752 35.1935 8.61811 30.5326C10.5487 25.8718 13.3784 21.6368 16.9457 18.0695C20.5129 14.5023 24.7479 11.6726 29.4087 9.74199C34.0696 7.8114 39.0651 6.81774 44.1099 6.81774V6.81774Z" fill="#232304"/>
<path d="M44.109 9.1174L1128.39 9.1174C1137.15 10.2272 1145.2 14.4932 1151.04 21.1153C1156.87 27.7374 1160.09 36.2609 1160.09 45.0875C1160.09 53.9141 1156.87 62.4376 1151.04 69.0597C1145.2 75.6818 1137.15 79.9478 1128.39 81.0576L44.109 81.0576C35.3525 79.9478 27.3015 75.6818 21.4657 69.0597C15.6299 62.4376 12.4102 53.9141 12.4102 45.0875C12.4102 36.2609 15.6299 27.7374 21.4657 21.1153C27.3015 14.4932 35.3525 10.2272 44.109 9.1174Z" fill="#2E2E05"/>
<path d="M44.1107 11.4197L1128.39 11.4197C1133.03 11.1174 1137.68 11.7695 1142.05 13.3356C1146.42 14.9017 1150.43 17.3484 1153.82 20.5244C1157.21 23.7004 1159.91 27.5382 1161.76 31.8003C1163.61 36.0625 1164.56 40.6583 1164.56 45.3035C1164.56 49.9487 1163.61 54.5445 1161.76 58.8067C1159.91 63.0688 1157.21 66.9066 1153.82 70.0826C1150.43 73.2586 1146.42 75.7053 1142.05 77.2714C1137.68 78.8375 1133.03 79.4896 1128.39 79.1873L44.1107 79.1873C39.4754 79.4896 34.8273 78.8375 30.454 77.2714C26.0807 75.7053 22.0752 73.2586 18.6854 70.0826C15.2956 66.9066 12.5934 63.0688 10.7462 58.8067C8.89892 54.5445 7.9458 49.9487 7.9458 45.3035C7.9458 40.6583 8.89892 36.0625 10.7462 31.8003C12.5934 27.5382 15.2956 23.7004 18.6854 20.5244C22.0752 17.3484 26.0807 14.9017 30.454 13.3356C34.8273 11.7695 39.4754 11.1174 44.1107 11.4197V11.4197Z" fill="#3A3A06"/>
<path d="M44.1098 13.5769L1128.39 13.5769C1136.79 13.5769 1144.84 16.9118 1150.78 22.848C1156.71 28.7843 1160.05 36.8355 1160.05 45.2306C1160.05 53.6257 1156.71 61.6769 1150.78 67.6131C1144.84 73.5493 1136.79 76.8843 1128.39 76.8843L44.1098 76.8843C35.7147 76.8843 27.6634 73.5493 21.7272 67.6131C15.791 61.6769 12.4561 53.6257 12.4561 45.2306C12.4561 36.8355 15.791 28.7843 21.7272 22.848C27.6634 16.9118 35.7147 13.5769 44.1098 13.5769V13.5769Z" fill="#454508"/>
<path d="M44.1101 15.8804L1128.39 15.8804C1136.2 15.8804 1143.68 18.9804 1149.2 24.4984C1154.72 30.0164 1157.82 37.5004 1157.82 45.304C1157.82 53.1076 1154.72 60.5916 1149.2 66.1096C1143.68 71.6276 1136.2 74.7275 1128.39 74.7275L44.1101 74.7275C36.3065 74.7275 28.8225 71.6276 23.3045 66.1096C17.7865 60.5916 14.6865 53.1076 14.6865 45.304C14.6865 37.5004 17.7865 30.0164 23.3045 24.4984C28.8225 18.9804 36.3065 15.8804 44.1101 15.8804V15.8804Z" fill="#515109"/>
<path d="M44.1096 18.1856L1128.39 18.1856C1132.12 17.9139 1135.86 18.4136 1139.39 19.6535C1142.92 20.8934 1146.15 22.8468 1148.89 25.3918C1151.62 27.9369 1153.81 31.0189 1155.3 34.4454C1156.79 37.8719 1157.56 41.5694 1157.56 45.3071C1157.56 49.0447 1156.79 52.7422 1155.3 56.1688C1153.81 59.5953 1151.62 62.6773 1148.89 65.2223C1146.15 67.7674 1142.92 69.7208 1139.39 70.9607C1135.86 72.2005 1132.12 72.7002 1128.39 72.4285L44.1096 72.4285C40.3818 72.7002 36.6381 72.2005 33.1121 70.9607C29.5861 69.7208 26.3536 67.7674 23.6163 65.2223C20.879 62.6773 18.6957 59.5953 17.2028 56.1688C15.7099 52.7422 14.9395 49.0447 14.9395 45.3071C14.9395 41.5694 15.7099 37.8719 17.2028 34.4454C18.6957 31.0189 20.879 27.9369 23.6163 25.3918C26.3536 22.8468 29.5861 20.8934 33.1121 19.6535C36.6381 18.4136 40.3818 17.9139 44.1096 18.1856V18.1856Z" fill="#5C5C0A"/>
<path d="M44.1105 20.4856L1128.39 20.4856C1131.81 20.2251 1135.25 20.6736 1138.48 21.8028C1141.72 22.932 1144.69 24.7176 1147.2 27.0478C1149.72 29.3779 1151.72 32.2024 1153.1 35.344C1154.47 38.4857 1155.18 41.8768 1155.18 45.305C1155.18 48.7331 1154.47 52.1243 1153.1 55.2659C1151.72 58.4076 1149.72 61.232 1147.2 63.5621C1144.69 65.8923 1141.72 67.6779 1138.48 68.8071C1135.25 69.9363 1131.81 70.3848 1128.39 70.1243L44.1105 70.1243C40.6923 70.3848 37.2571 69.9363 34.0203 68.8071C30.7835 67.6779 27.8149 65.8923 25.3004 63.5621C22.786 61.232 20.78 58.4076 19.4081 55.2659C18.0362 52.1243 17.3281 48.7331 17.3281 45.305C17.3281 41.8768 18.0362 38.4857 19.4081 35.344C20.78 32.2024 22.786 29.3779 25.3004 27.0478C27.8149 24.7176 30.7835 22.932 34.0203 21.8028C37.2571 20.6736 40.6923 20.2251 44.1105 20.4856Z" fill="#68680B"/>
<path d="M44.1083 22.6433L1128.39 22.6433C1134.38 22.6433 1140.13 25.0232 1144.36 29.2595C1148.6 33.4958 1150.98 39.2415 1150.98 45.2326C1150.98 51.2236 1148.6 56.9692 1144.36 61.2055C1140.13 65.4418 1134.38 67.8218 1128.39 67.8218L44.1083 67.8218C38.1172 67.8218 32.3716 65.4418 28.1353 61.2055C23.899 56.9692 21.519 51.2236 21.519 45.2326C21.519 39.2415 23.899 33.4958 28.1353 29.2595C32.3716 25.0232 38.1172 22.6433 44.1083 22.6433V22.6433Z" fill="#73730D"/>
<path d="M44.1076 24.3707L1128.39 24.3707C1133.49 24.8002 1138.25 27.1311 1141.72 30.9018C1145.18 34.6724 1147.11 39.6077 1147.11 44.7298C1147.11 49.8519 1145.18 54.7871 1141.72 58.5578C1138.25 62.3284 1133.49 64.6594 1128.39 65.0889L44.1076 65.0889C39.0036 64.6594 34.247 62.3284 30.7803 58.5578C27.3136 54.7871 25.3896 49.8519 25.3896 44.7298C25.3896 39.6077 27.3136 34.6724 30.7803 30.9018C34.247 27.1311 39.0036 24.8002 44.1076 24.3707V24.3707Z" fill="#7F7F0E"/>
<path d="M44.1071 25.525L1128.39 25.525C1133.62 25.525 1138.63 27.6018 1142.33 31.2984C1146.03 34.9951 1148.1 40.0088 1148.1 45.2366C1148.1 50.4645 1146.03 55.4782 1142.33 59.1748C1138.63 62.8715 1133.62 64.9482 1128.39 64.9482L44.1071 64.9482C41.5186 64.9482 38.9553 64.4384 36.5638 63.4478C34.1723 62.4572 31.9993 61.0052 30.1689 59.1748C28.3385 57.3444 26.8866 55.1714 25.896 52.7799C24.9054 50.3884 24.3955 47.8252 24.3955 45.2366C24.3955 42.6481 24.9054 40.0848 25.896 37.6933C26.8866 35.3018 28.3385 33.1288 30.1689 31.2984C31.9993 29.468 34.1723 28.0161 36.5638 27.0254C38.9553 26.0348 41.5186 25.525 44.1071 25.525V25.525Z" fill="#8A8B0F"/>
<path d="M44.1078 26.0999L1128.39 26.0999C1133.47 26.0999 1138.33 28.116 1141.92 31.7047C1145.51 35.2934 1147.53 40.1608 1147.53 45.236C1147.53 50.3112 1145.51 55.1785 1141.92 58.7672C1138.33 62.3559 1133.47 64.3721 1128.39 64.3721L44.1078 64.3721C39.0326 64.3721 34.1652 62.3559 30.5765 58.7672C26.9878 55.1785 24.9717 50.3112 24.9717 45.236C24.9717 40.1608 26.9878 35.2934 30.5765 31.7047C34.1652 28.116 39.0326 26.0999 44.1078 26.0999V26.0999Z" fill="#969610"/>
<path d="M44.1077 26.817L1128.39 26.817C1130.96 26.5905 1133.54 26.9002 1135.98 27.7265C1138.42 28.5527 1140.66 29.8774 1142.56 31.6163C1144.46 33.3552 1145.97 35.4703 1147.01 37.827C1148.05 40.1837 1148.58 42.7306 1148.58 45.3056C1148.58 47.8807 1148.05 50.4275 1147.01 52.7843C1145.97 55.141 1144.46 57.2561 1142.56 58.995C1140.66 60.7339 1138.42 62.0586 1135.98 62.8848C1133.54 63.711 1130.96 64.0208 1128.39 63.7943L44.1077 63.7943C41.5427 64.0208 38.9586 63.711 36.5197 62.8848C34.0808 62.0586 31.8405 60.7339 29.9413 58.995C28.0421 57.2561 26.5255 55.141 25.4879 52.7843C24.4504 50.4275 23.9146 47.8807 23.9146 45.3056C23.9146 42.7306 24.4504 40.1837 25.4879 37.827C26.5255 35.4703 28.0421 33.3552 29.9413 31.6163C31.8405 29.8774 34.0808 28.5527 36.5197 27.7265C38.9586 26.9002 41.5427 26.5905 44.1077 26.817Z" fill="#A1A212"/>
<path d="M44.1075 27.394L1128.39 27.394C1132.86 27.7953 1137.03 29.8562 1140.06 33.1712C1143.09 36.4862 1144.77 40.8154 1144.77 45.3071C1144.77 49.7988 1143.09 54.128 1140.06 57.443C1137.03 60.758 1132.86 62.8189 1128.39 63.2202L44.1075 63.2202C39.6338 62.8189 35.4721 60.758 32.4412 57.443C29.4103 54.128 27.7295 49.7988 27.7295 45.3071C27.7295 40.8154 29.4103 36.4862 32.4412 33.1712C35.4721 29.8562 39.6338 27.7953 44.1075 27.394V27.394Z" fill="#ADAD13"/>
<path d="M44.1099 27.9653L1128.39 27.9653C1132.97 27.9653 1137.36 29.7843 1140.6 33.0223C1143.84 36.2602 1145.66 40.6518 1145.66 45.2309C1145.66 49.8101 1143.84 54.2017 1140.6 57.4396C1137.36 60.6775 1132.97 62.4966 1128.39 62.4966L44.1099 62.4966C39.5308 62.4966 35.1392 60.6775 31.9012 57.4396C28.6633 54.2017 26.8442 49.8101 26.8442 45.2309C26.8442 40.6518 28.6633 36.2602 31.9012 33.0223C35.1392 29.7843 39.5308 27.9653 44.1099 27.9653V27.9653Z" fill="#B8B914"/>
<path d="M44.1092 28.6892L1128.39 28.6892C1130.7 28.4738 1133.04 28.7434 1135.24 29.4806C1137.44 30.2178 1139.46 31.4064 1141.18 32.9705C1142.9 34.5347 1144.27 36.4398 1145.21 38.5641C1146.15 40.6884 1146.63 42.9851 1146.63 45.3074C1146.63 47.6297 1146.15 49.9264 1145.21 52.0507C1144.27 54.175 1142.9 56.0802 1141.18 57.6443C1139.46 59.2084 1137.44 60.397 1135.24 61.1342C1133.04 61.8715 1130.7 62.141 1128.39 61.9256L44.1092 61.9256C41.7969 62.141 39.4651 61.8715 37.263 61.1342C35.0608 60.397 33.0367 59.2084 31.3201 57.6443C29.6036 56.0802 28.2323 54.175 27.294 52.0507C26.3557 49.9264 25.8711 47.6297 25.8711 45.3074C25.8711 42.9851 26.3557 40.6884 27.294 38.5641C28.2323 36.4398 29.6036 34.5347 31.3201 32.9705C33.0367 31.4064 35.0608 30.2178 37.263 29.4806C39.4651 28.7434 41.7969 28.4738 44.1092 28.6892V28.6892Z" fill="#C4C415"/>
<path d="M44.1073 29.2657L1128.39 29.2657C1132.38 29.6443 1136.09 31.498 1138.79 34.4647C1141.49 37.4314 1142.98 41.2979 1142.98 45.3084C1142.98 49.319 1141.49 53.1854 1138.79 56.1521C1136.09 59.1188 1132.38 60.9725 1128.39 61.3511L44.1073 61.3511C40.1146 60.9725 36.4066 59.1188 33.7079 56.1521C31.0092 53.1854 29.5137 49.319 29.5137 45.3084C29.5137 41.2979 31.0092 37.4314 33.7079 34.4647C36.4066 31.498 40.1146 29.6443 44.1073 29.2657V29.2657Z" fill="#CFD016"/>
<path d="M44.1081 29.8375L1128.39 29.8375C1132.47 29.8375 1136.39 31.4595 1139.28 34.3467C1142.16 37.2338 1143.79 41.1497 1143.79 45.2327C1143.79 49.3158 1142.16 53.2316 1139.28 56.1188C1136.39 59.0059 1132.47 60.6279 1128.39 60.6279L44.1081 60.6279C40.025 60.6279 36.1092 59.0059 33.222 56.1188C30.3349 53.2316 28.7129 49.3158 28.7129 45.2327C28.7129 41.1497 30.3349 37.2338 33.222 34.3467C36.1092 31.4595 40.025 29.8375 44.1081 29.8375Z" fill="#DBDB17"/>
<path d="M44.1087 30.4124L1128.39 30.4124C1132.32 30.4124 1136.09 31.9737 1138.87 34.753C1141.65 37.5322 1143.21 41.3017 1143.21 45.2321C1143.21 49.1625 1141.65 52.9319 1138.87 55.7112C1136.09 58.4904 1132.32 60.0518 1128.39 60.0518L44.1087 60.0518C40.1783 60.0518 36.4089 58.4904 33.6296 55.7112C30.8504 52.9319 29.2891 49.1625 29.2891 45.2321C29.2891 41.3017 30.8504 37.5322 33.6296 34.753C36.4089 31.9737 40.1783 30.4124 44.1087 30.4124V30.4124Z" fill="#E6E719"/>
<path d="M44.1092 31.135L1128.39 31.135C1132.21 31.135 1135.87 32.6509 1138.57 35.3492C1141.26 38.0475 1142.78 41.7071 1142.78 45.5231C1142.78 49.339 1141.26 52.9987 1138.57 55.697C1135.87 58.3953 1132.21 59.9111 1128.39 59.9111L44.1092 59.9111C40.2933 59.9111 36.6336 58.3953 33.9354 55.697C31.2371 52.9987 29.7212 49.339 29.7212 45.5231C29.7212 41.7071 31.2371 38.0475 33.9354 35.3492C36.6336 32.6509 40.2933 31.135 44.1092 31.135V31.135Z" fill="#F2F21A"/>
<path d="M44.1109 31.706L1128.39 31.706C1131.76 32.0526 1134.88 33.6346 1137.14 36.1461C1139.41 38.6575 1140.66 41.92 1140.66 45.3027C1140.66 48.6854 1139.41 51.9479 1137.14 54.4594C1134.88 56.9708 1131.76 58.5528 1128.39 58.8994L44.1109 58.8994C40.746 58.5528 37.6292 56.9708 35.3631 54.4594C33.0971 51.9479 31.8428 48.6854 31.8428 45.3027C31.8428 41.92 33.0971 38.6575 35.3631 36.1461C37.6292 33.6346 40.746 32.0526 44.1109 31.706Z" fill="#FDFE1B"/>
<path d="M44.11 32.574L1128.39 32.574C1130.18 32.3839 1131.98 32.5716 1133.69 33.1249C1135.4 33.6781 1136.98 34.5847 1138.31 35.7855C1139.65 36.9863 1140.71 38.4547 1141.45 40.0951C1142.18 41.7356 1142.55 43.5115 1142.55 45.3074C1142.55 47.1034 1142.18 48.8793 1141.45 50.5197C1140.71 52.1602 1139.65 53.6285 1138.31 54.8294C1136.98 56.0302 1135.4 56.9367 1133.69 57.49C1131.98 58.0433 1130.18 58.231 1128.39 58.0409L44.11 58.0409C42.3242 58.231 40.5183 58.0433 38.8097 57.49C37.101 56.9367 35.5279 56.0302 34.1925 54.8294C32.857 53.6285 31.7891 52.1602 31.058 50.5197C30.327 48.8793 29.9492 47.1034 29.9492 45.3074C29.9492 43.5115 30.327 41.7356 31.058 40.0951C31.7891 38.4547 32.857 36.9863 34.1925 35.7855C35.5279 34.5847 37.101 33.6781 38.8097 33.1249C40.5183 32.5716 42.3242 32.3839 44.11 32.574Z" fill="#FDFE25"/>
<path d="M44.1081 33.2941L1128.39 33.2941C1131.56 33.2941 1134.6 34.5522 1136.84 36.7918C1139.08 39.0314 1140.33 42.0689 1140.33 45.2361C1140.33 48.4034 1139.08 51.4409 1136.84 53.6805C1134.6 55.92 1131.56 57.1782 1128.39 57.1782L44.1081 57.1782C40.9409 57.1782 37.9034 55.92 35.6638 53.6805C33.4242 51.4409 32.166 48.4034 32.166 45.2361C32.166 42.0689 33.4242 39.0314 35.6638 36.7918C37.9034 34.5522 40.9409 33.2941 44.1081 33.2941V33.2941Z" fill="#FDFE2F"/>
<path d="M44.1086 34.1564L1128.39 34.1564C1131.33 34.1564 1134.15 35.3236 1136.23 37.4013C1138.3 39.479 1139.47 42.2969 1139.47 45.2352C1139.47 48.1735 1138.3 50.9914 1136.23 53.0691C1134.15 55.1468 1131.33 56.314 1128.39 56.314L44.1086 56.314C41.1703 56.314 38.3524 55.1468 36.2747 53.0691C34.197 50.9914 33.0298 48.1735 33.0298 45.2352C33.0298 42.2969 34.197 39.479 36.2747 37.4013C38.3524 35.3236 41.1703 34.1564 44.1086 34.1564Z" fill="#FEFE39"/>
<path d="M44.1094 35.0154L1128.39 35.0154C1130.91 35.3138 1133.23 36.526 1134.92 38.4221C1136.6 40.3182 1137.53 42.7664 1137.53 45.3029C1137.53 47.8393 1136.6 50.2876 1134.92 52.1837C1133.23 54.0798 1130.91 55.2919 1128.39 55.5903L44.1094 55.5903C41.5906 55.2919 39.2688 54.0798 37.584 52.1837C35.8993 50.2876 34.9688 47.8393 34.9688 45.3029C34.9688 42.7664 35.8993 40.3182 37.584 38.4221C39.2688 36.526 41.5906 35.3138 44.1094 35.0154V35.0154Z" fill="#FEFE43"/>
<path d="M44.1105 35.8834L1128.39 35.8834C1129.73 35.7181 1131.08 35.8385 1132.37 36.2365C1133.65 36.6346 1134.84 37.3012 1135.85 38.1923C1136.86 39.0834 1137.66 40.1785 1138.22 41.4052C1138.77 42.6319 1139.06 43.9621 1139.06 45.3076C1139.06 46.6531 1138.77 47.9833 1138.22 49.21C1137.66 50.4367 1136.86 51.5318 1135.85 52.4229C1134.84 53.314 1133.65 53.9806 1132.37 54.3787C1131.08 54.7767 1129.73 54.8971 1128.39 54.7318L44.1105 54.7318C42.7752 54.8971 41.42 54.7767 40.1346 54.3787C38.8493 53.9806 37.6633 53.314 36.6551 52.4229C35.6469 51.5318 34.8396 50.4367 34.2866 49.21C33.7337 47.9833 33.4478 46.6531 33.4478 45.3076C33.4478 43.9621 33.7337 42.6319 34.2866 41.4052C34.8396 40.1785 35.6469 39.0834 36.6551 38.1923C37.6633 37.3012 38.8493 36.6346 40.1346 36.2365C41.42 35.8385 42.7752 35.7181 44.1105 35.8834V35.8834Z" fill="#FEFE4D"/>
<path d="M44.1074 36.6035L1128.39 36.6035C1130.68 36.6035 1132.88 37.513 1134.49 39.132C1136.11 40.751 1137.02 42.9468 1137.02 45.2363C1137.02 47.5259 1136.11 49.7217 1134.49 51.3407C1132.88 52.9596 1130.68 53.8691 1128.39 53.8691L44.1074 53.8691C41.8179 53.8691 39.6221 52.9596 38.0031 51.3407C36.3841 49.7217 35.4746 47.5259 35.4746 45.2363C35.4746 42.9468 36.3841 40.751 38.0031 39.132C39.6221 37.513 41.8179 36.6035 44.1074 36.6035V36.6035Z" fill="#FEFF58"/>
<path d="M44.1084 37.4625L1128.39 37.4625C1129.41 37.4625 1130.42 37.6635 1131.36 38.054C1132.31 38.4444 1133.16 39.0167 1133.89 39.7382C1134.61 40.4597 1135.18 41.3162 1135.57 42.2588C1135.96 43.2015 1136.16 44.2118 1136.16 45.2321C1136.16 47.3062 1135.35 49.2975 1133.89 50.7774C1132.44 52.2574 1130.47 53.1078 1128.39 53.1455L44.1084 53.1455C42.0347 53.1078 40.0586 52.2574 38.6056 50.7774C37.1525 49.2975 36.3385 47.3062 36.3389 45.2321C36.3389 43.1715 37.1575 41.1953 38.6145 39.7382C40.0716 38.2811 42.0478 37.4625 44.1084 37.4625V37.4625Z" fill="#FEFF62"/>
<path d="M44.1091 38.7575L1128.39 38.7575C1130.3 38.7575 1132.13 39.5154 1133.48 40.8645C1134.83 42.2137 1135.59 44.0435 1135.59 45.9515C1135.59 47.8595 1134.83 49.6893 1133.48 51.0384C1132.13 52.3876 1130.3 53.1455 1128.39 53.1455L44.1091 53.1455C42.2011 53.1455 40.3713 52.3876 39.0221 51.0384C37.673 49.6893 36.915 47.8595 36.915 45.9515C36.915 44.0435 37.673 42.2137 39.0221 40.8645C40.3713 39.5154 42.2011 38.7575 44.1091 38.7575Z" fill="#FEFF6C"/>
<path d="M44.1102 38.7557L1128.39 38.7557C1130.03 38.7557 1131.61 39.4075 1132.77 40.5678C1133.93 41.728 1134.58 43.3017 1134.58 44.9425C1134.58 46.5834 1133.93 48.157 1132.77 49.3173C1131.61 50.4776 1130.03 51.1294 1128.39 51.1294L44.1102 51.1294C42.4693 51.1294 40.8957 50.4776 39.7354 49.3173C38.5752 48.157 37.9233 46.5834 37.9233 44.9425C37.9233 43.3017 38.5752 41.728 39.7354 40.5678C40.8957 39.4075 42.4693 38.7557 44.1102 38.7557V38.7557Z" fill="#FFFF76"/>
<path d="M44.1093 39.9109L1128.39 39.9109C1129.09 39.9109 1129.78 40.0485 1130.43 40.3161C1131.08 40.5836 1131.66 40.9757 1132.16 41.4701C1132.65 41.9644 1133.04 42.5513 1133.31 43.1972C1133.58 43.8431 1133.72 44.5353 1133.72 45.2344C1133.74 45.9389 1133.61 46.6401 1133.35 47.2949C1133.09 47.9498 1132.7 48.5446 1132.2 49.043C1131.7 49.5413 1131.11 49.9327 1130.45 50.1932C1129.8 50.4537 1129.1 50.5779 1128.39 50.558L44.1093 50.558C43.4048 50.5779 42.7037 50.4537 42.0488 50.1932C41.394 49.9327 40.7991 49.5413 40.3008 49.043C39.8024 48.5446 39.411 47.9498 39.1505 47.2949C38.89 46.6401 38.7659 45.9389 38.7857 45.2344C38.7857 44.5353 38.9235 43.8431 39.191 43.1972C39.4585 42.5513 39.8507 41.9644 40.345 41.4701C40.8393 40.9757 41.4262 40.5836 42.0721 40.3161C42.718 40.0485 43.4102 39.9109 44.1093 39.9109V39.9109Z" fill="#FFFF80"/>
<path d="M44.1089 40.7719L1128.39 40.7719C1129.46 40.9622 1130.42 41.5205 1131.11 42.349C1131.81 43.1776 1132.19 44.2237 1132.19 45.3042C1132.19 46.3847 1131.81 47.4308 1131.11 48.2593C1130.42 49.0879 1129.46 49.6462 1128.39 49.8364L44.1089 49.8364C43.0453 49.6462 42.0825 49.0879 41.3889 48.2593C40.6954 47.4308 40.3154 46.3847 40.3154 45.3042C40.3154 44.2237 40.6954 43.1776 41.3889 42.349C42.0825 41.5205 43.0453 40.9622 44.1089 40.7719Z" fill="#FFFF8A"/>
</g>
</svg>
